<mxfile host="app.diagrams.net" agent="Mozilla/5.0 (Windows NT 10.0; Win64; x64) AppleWebKit/537.36 (KHTML, like Gecko) Chrome/137.0.0.0 Safari/537.36" version="27.1.4">
  <diagram id="C2fSY1v2SiZeoUbDoYyL" name="Page-1">
    <mxGraphModel dx="2066" dy="1111" grid="1" gridSize="10" guides="1" tooltips="1" connect="1" arrows="1" fold="1" page="1" pageScale="1" pageWidth="1169" pageHeight="827" math="0" shadow="0">
      <root>
        <mxCell id="0" />
        <mxCell id="1" parent="0" />
        <mxCell id="ZjtB4D3ZKee5QEVcwOma-15" value="&lt;div&gt;&lt;br&gt;&lt;/div&gt;&lt;div&gt;&lt;br&gt;&lt;/div&gt;&lt;div&gt;&lt;br&gt;&lt;/div&gt;&lt;div&gt;&lt;br&gt;&lt;/div&gt;&lt;div&gt;&lt;br&gt;&lt;/div&gt;&lt;div&gt;&lt;br&gt;&lt;/div&gt;&lt;div&gt;STAGES :&lt;/div&gt;&lt;div&gt;&lt;br&gt;&lt;/div&gt;&lt;div&gt;1. Setup on target machine&lt;/div&gt;&lt;div&gt;&lt;ul&gt;&lt;li&gt;&lt;span style=&quot;background-color: transparent; color: light-dark(rgb(0, 0, 0), rgb(255, 255, 255));&quot;&gt;Connects via SSH&lt;/span&gt;&lt;/li&gt;&lt;li&gt;&lt;span style=&quot;background-color: transparent; color: light-dark(rgb(0, 0, 0), rgb(255, 255, 255));&quot;&gt;Creates &lt;/span&gt;&lt;code style=&quot;background-color: transparent; color: light-dark(rgb(0, 0, 0), rgb(255, 255, 255));&quot; data-end=&quot;314&quot; data-start=&quot;299&quot;&gt;node_exporter&lt;/code&gt;&lt;span style=&quot;background-color: transparent; color: light-dark(rgb(0, 0, 0), rgb(255, 255, 255));&quot;&gt; user and directories&lt;/span&gt;&lt;/li&gt;&lt;li&gt;&lt;span style=&quot;background-color: transparent; color: light-dark(rgb(0, 0, 0), rgb(255, 255, 255));&quot;&gt;Copies the &lt;/span&gt;&lt;code style=&quot;background-color: transparent; color: light-dark(rgb(0, 0, 0), rgb(255, 255, 255));&quot; data-end=&quot;364&quot; data-start=&quot;349&quot;&gt;node_exporter&lt;/code&gt;&lt;span style=&quot;background-color: transparent; color: light-dark(rgb(0, 0, 0), rgb(255, 255, 255));&quot;&gt; binary&lt;/span&gt;&lt;/li&gt;&lt;li&gt;&lt;span style=&quot;background-color: transparent; color: light-dark(rgb(0, 0, 0), rgb(255, 255, 255));&quot;&gt;Sets up the systemd service&lt;/span&gt;&lt;/li&gt;&lt;li&gt;&lt;span style=&quot;background-color: transparent; color: light-dark(rgb(0, 0, 0), rgb(255, 255, 255));&quot;&gt;Opens port 9100 (if needed)&lt;/span&gt;&lt;/li&gt;&lt;li&gt;&lt;span style=&quot;background-color: transparent; color: light-dark(rgb(0, 0, 0), rgb(255, 255, 255));&quot;&gt;Copies the selected &lt;/span&gt;&lt;code style=&quot;background-color: transparent; color: light-dark(rgb(0, 0, 0), rgb(255, 255, 255));&quot; data-end=&quot;459&quot; data-start=&quot;454&quot;&gt;.sh&lt;/code&gt;&lt;span style=&quot;background-color: transparent; color: light-dark(rgb(0, 0, 0), rgb(255, 255, 255));&quot;&gt; monitoring scripts&lt;/span&gt;&lt;/li&gt;&lt;li&gt;&lt;span style=&quot;background-color: transparent; color: light-dark(rgb(0, 0, 0), rgb(255, 255, 255));&quot;&gt;Adds scripts to &lt;/span&gt;&lt;code style=&quot;background-color: transparent; color: light-dark(rgb(0, 0, 0), rgb(255, 255, 255));&quot; data-end=&quot;506&quot; data-start=&quot;497&quot;&gt;crontab&lt;/code&gt;&lt;span style=&quot;background-color: transparent; color: light-dark(rgb(0, 0, 0), rgb(255, 255, 255));&quot;&gt; to run every minute&lt;/span&gt;&lt;/li&gt;&lt;/ul&gt;&lt;/div&gt;&lt;div&gt;&lt;br&gt;&lt;/div&gt;&lt;div&gt;2.&amp;nbsp;Dynamically adds the server to Prometheus targets&lt;/div&gt;&lt;div&gt;&lt;ul&gt;&lt;li&gt;Connects to the Prometheus server&lt;/li&gt;&lt;li&gt;Adds a new entry to nodes.json using jq&lt;/li&gt;&lt;li&gt;Reloads Prometheus configuration&lt;/li&gt;&lt;/ul&gt;&lt;/div&gt;&lt;div&gt;&lt;div&gt;3.&amp;nbsp;Confirms monitoring setup is functional&lt;/div&gt;&lt;/div&gt;&lt;div&gt;&lt;ul&gt;&lt;li&gt;Sends HTTP request to http://&amp;lt;TARGET_IP&amp;gt;:9100/metrics&lt;/li&gt;&lt;li&gt;Checks if key metric node_time_seconds exists&lt;/li&gt;&lt;li&gt;Fails the build if the exporter is not running properly&lt;/li&gt;&lt;/ul&gt;&lt;div&gt;4.&amp;nbsp;Post Actions (Success/Failure)&lt;/div&gt;&lt;/div&gt;&lt;div&gt;&lt;ul&gt;&lt;li&gt;Prints success message if all steps pass&lt;/li&gt;&lt;li&gt;Prints error message if any stage fails&lt;/li&gt;&lt;/ul&gt;&lt;/div&gt;" style="rounded=1;whiteSpace=wrap;html=1;dashed=1;verticalAlign=top;fontSize=13;align=left;fillColor=#dae8fc;strokeColor=#6c8ebf;" parent="1" vertex="1">
          <mxGeometry x="280" y="93" width="420" height="600.5" as="geometry" />
        </mxCell>
        <mxCell id="ZjtB4D3ZKee5QEVcwOma-1" value="" style="shape=actor;whiteSpace=wrap;html=1;fillColor=#fff2cc;strokeColor=#d6b656;" parent="1" vertex="1">
          <mxGeometry x="20" y="120" width="40" height="60" as="geometry" />
        </mxCell>
        <mxCell id="ZjtB4D3ZKee5QEVcwOma-14" value="" style="edgeStyle=orthogonalEdgeStyle;rounded=0;orthogonalLoop=1;jettySize=auto;html=1;entryX=0;entryY=0.5;entryDx=0;entryDy=0;dashed=1;flowAnimation=1;endSize=6;jumpSize=0;dashPattern=8 8;" parent="1" target="ZjtB4D3ZKee5QEVcwOma-11" edge="1">
          <mxGeometry relative="1" as="geometry">
            <mxPoint x="80" y="150" as="sourcePoint" />
            <mxPoint x="209.5" y="194" as="targetPoint" />
          </mxGeometry>
        </mxCell>
        <mxCell id="ZjtB4D3ZKee5QEVcwOma-3" value="&lt;font style=&quot;font-size: 15px;&quot;&gt;Triggers Jenkins pipeline&lt;/font&gt;" style="text;html=1;align=center;verticalAlign=middle;resizable=0;points=[];autosize=1;strokeColor=none;fillColor=none;" parent="1" vertex="1">
          <mxGeometry y="190.5" width="190" height="30" as="geometry" />
        </mxCell>
        <mxCell id="ZjtB4D3ZKee5QEVcwOma-4" value="&lt;font style=&quot;font-size: 15px;&quot;&gt;Build with parameters : &lt;br&gt;IP + select which monitoring scripts to be used&lt;/font&gt;" style="text;html=1;align=center;verticalAlign=middle;resizable=0;points=[];autosize=1;strokeColor=none;fillColor=none;" parent="1" vertex="1">
          <mxGeometry x="358.66" y="100" width="330" height="50" as="geometry" />
        </mxCell>
        <mxCell id="ZjtB4D3ZKee5QEVcwOma-11" value="" style="shape=image;verticalLabelPosition=bottom;labelBackgroundColor=default;verticalAlign=top;aspect=fixed;imageAspect=0;image=data:image/webp,UklGRi6LAQBXRUJQVlA4TCGLAQAvrwSeEVWP5DaSJEmihf5aZ1RW7b3PiJgAv2qPP6jbH9Az6rPu1Eft9n7U7Ufe9cXoy3d1Y88Ht12/mItW4t3MaKlCEOZFlXYh64xW5qB76Bj7HFB5rKDppqN1abXOLDNDz0hSYcpDkOxBOZ5nxIweSuTlzESpntbeWEd1nAkm6iln0Quth7WWvZNczszAaD3QerHO6BF1zFR3ox0zM1WzdAwzYwoz1fLYbOtMkbPwoEptdK2yL7cXNDM6OqkrZ42oNlnLDFVmul2iXB5RuIIh9aBKF50MKmtQ9FDJXnVMX2/PT27Lh8WP6EHwwpfBvKgvSr3xkXGnD6i8yMdVN/8t/T/bNm17Gkv+J9aU2M/1vN/3+fvsz7P9eQRiM9nMg4nBzBA7DDajExtsJjObEDObGcJMwjyGKTFmSBgMATO6EmYqE0OYMxKj9X3v+9zXdVzDfT/PU8OTrOkL2GGtRkYJ3QHajrxgkRFwBoeUFBQnskWDUwuTZTqgIRMZWXHFTVNqw7IQa8wgURnUhSORgaVCIeWa/MqJItKKEymWAqtRGqxGJoAgqYCi6BXEtMoJNaAQZclVIWRgqiHLQsiJrFYsuS2I1oKSy44UE3CLsZ1qWKJTDGWIqcErkCZFoAc7RRJklRKbfBnpEbARgmYZC6uizmBIKEiTdGm04qgNofItEJ1Bi3wx4lpEZGgR2kGIWJ9TE1kVrAxEmKJkguSkwEFCpHtZTsWiOyE2GVhUYJlkhbCoUiSKNMjxqgk3hAC9RBPFy8tJBKyGqsgZ1DgyVKzg/PCWiB5SyAlatstOQ1TB7vjLcmdYAyDX6k8FURwFkjXQZtWQBCUiyvcAHdv0Qkk5Cq7gmFIc1rLdkWCZgqKKCKKCVD4mxf4BavIiWmKGuJ2CTHKRGkIaLCoqrJWgJkVLFdIICrubKEt0rCbEsLJCiwwV/Nu2HZMk6Xnu63q+yIrMjMjMyIzIrB57psa2pzG2ba+92722bePXPfafsW0bx+HRtrbpTaNtm+uUINVlPPV01ez/lhU2XTAYY5oQ3dLpARwAAlP7/9vVupqd62rOtj1k11wNNeWnKdte1qXLfL+nes5X57vcZdvrFl/eaNvW3ba1rdaxApAEwPgjCgnMNeb4mvMH/2fb3m9uG/0pmj7vvDPzTp95p/fO6Y3TyGmcmZczwypSZVTYRJEqpNmpRhVSrOKo0uq9d4mkOG+b953haHvvvXjmfb+f57mf+3k+n49+dOO7kOSCpQ1bhFLk9F70QsUrbXohYHlBRC4ALRfupGu5wy2SfnBCd1oAvYAIcxvlbTSoLaa5Lb3TQFO8fd0gv4ERpnGLqe30dgH0Fg1gWRbi3i2sILloRcuQ6d4UKgkFdxqKttC0sJAAakuqTGQkCDvuJU2CKcMyIG4xQMJI42KX+9OkyQXwd9JDgymWERq0RBd5IBoQHhDgAnJRmpDiIpcUefsytrSVAXa22TCX0hZ5Z2OBhBJYEMxUOVsIyEHlj2lKobcR0jbBBMPFgrtShHTRghxECvDZ4lfe3g2lbUuTtm+KtCU9XOK7VXkHkypQbnQqFVG7IoHZ5pLei+xUOVsGy61aCZOqFEKznV7QQiiBdgq3pTFttqQXGYhLqmU4PRG+EaEtFIUvDax9CQCgttFta5KqhCWpREWKEzvN3Om1mZ73AHjvOeynvZ95T4FhDnso62uKmVm2ZVtmy45E27aa1uIAYkPFEvW+//+wF8Vu7C2J0f5bo603bBvpffLaTWxndrftJDYJgACoH3je/19vOc5Dufcw3MP38Dl3n0Ke/9O5vvee//fz/f7O/99vNZInMErpKrDgLJPlKnK1cpeKYZmxsjTVhJkZbpih/hUjl+GWmZZ3w8ycxZEshZk5sbYMw4SpWqVktDMrTZiZGUZyFS0/iDC4WqwZqshtmJNfF2a+YesfZuakIstytVWYORlNdcPMnKnC1Flid2GGZRjFVR4CLUMVZs5UC9VKEy1V4W6kdJyKbmG52myVlMtUnXA6bxdm5ixjFWZmqhjmAaShbQEAqkSaDewiZ6QNbLrsottkaBVrJO3udsVuujsuftN+wD72HskB2ziSRK577Zn8Qy2RRP+90babt7VtW62b03Eiy/NzrSQmARAg9cPj8lMsJcRWXmqWHCluO/J6tbZFKduoFFD2US3852NdXr5VbbV+JazZZpsNVXJ7voEf/VkHzxyGjIp21Y9tdW5J8JE9etqcgF1jyTSbINyOzcSCxEkmto/YUaLTxK4Ru0UMowjdIdPVkojtPR/R32RstWMN0Tyi6fV6bHP60rac2hM1JKOCXwkLU577BmCwlzyxrbxh81zbjta2OX1F9IsdUwnCif2fWOo+iWVrEUT0gNhFYgeJxRNnG5kWEY2wzen7bdQUorz9Z+z/8ew3WEKs5eXYlpelid4n6GZzhnxIfsQyiF3SIovYv8SOECeW2Ho7ptnVh6BdbPOicsiS9xvooHZ7eZfgAzK+JcwkYhvJlH5qLZeI3SW2f+l2zCXjZ9ty+tg2alX+DVYQVwltcxufY8dSO6KJnSH2WEstYtftSCTTilbs0WWpocrz38ADIcoLfqWqHZ/Xa5vZZJs5XJpWiIhdsDlRhFlARl+b58Z+Jd83kEAsL/XkbHdNNN6uv4id1arSxYjzj22ZKWR0j21eVLm48vQ3QPDDnJ/qlnj881Wl1Sdij4iyyMw64vyWSajymrufpmsi6kewtiStVhE7/la2mYFHmY17nmjztuMzMs0mllKaVrOi74PMLLc5P5JRo0z3+qB4m+fGdg2zzfxRs1a9jkEskmi4Xc0O6ib/ml1Dcyf2nzYLEXu4gWpsc/o0RCnq1qZZ23JqQZyJREkFaNORbeYw0Xzbcup4cSd/e9UtTUIl12KIM+p8xB5ps1Km57MtM+YobmbLE9OdWx41a7PTMXK3OYE5RXMTv1Bm89ycaMa7aLPUJmwziwnaZuzu5eJPvVJ4HkS3tbmqqtynFbIUcd9iL8WmlXtp2pRFbF+9NUVzww5DXSpxRhLt0WYu28wpwsxcTCwlh1uVNps6tDZ/VVq32/ThC50WsRRtFbRbd+gnSCkwLUK7tLWQbebwR8/WnclBD/stC9AWREWWODv3JJFrqqZ8bVVE7N6ZbMupQ0tuR2yLkk2dUFsbFVrvEdyJ2Ev+AxJK0xZI0U+1OTehKecdrC4PYve1VRKxm9WQRQn3H3Oqm9gVbamUae6ri+bOw6+801T12oLp0DYn0Ky77hTq95yXtmo6dRvzdr8RS8lp89w4j6y1lVP0MxHVdLMNmqh3E9r6KSv32Qto9vLi3LLSFlEVFu4OG7zaks1z84tlrS2k3oXM9CjTzUW1my1UW01VOq3a3VjeFRV1pgK0FdU+59aSe4q3+ECiy1p9slfvqNqVwPgl1c7U+iej8clkvHMbR7mC5tGItXtVEWsvV65cJuOT3vieOoF+RteuCNodRkVBIJICE7FDdnR2P5lAbfqw6nppPzCEiNqdWDuzmp/C5tEsWlp35g7cYQW4X5XfrcNvuwmabsNqg2FFJ9egWbffrg6/Voz7Dt2hHXdagrMuGm0zZTfeyfQzsnoHUUGKRk++OvcSsa5+efMDz6EVpPDqnVI/C5hHc/bWnjOuwuvWFzSlwtrGSF0FzRq8rhgeluZOLdhrYWv/62LpVzAVpDC0GqIG7iNrWhtYunJmg46iXvWbn6L2tmx3XI3fuQSNDYvW7zcr87pluWNLaNlcav1zHCkC2Zw/78U9dK4PcQYQOqZVIp+Exq+QdbRiLyvCfTdBY0MpZ79eJe6W4U6LRWse40ik/YKqIPlWaXU36/ahlmpy0uqQHUSp9G9RtHWMx+JBbcOuklF9uBO1ZC8biaf9eH5HgExXp5WPW+e5idoQi9PKUGgVNWh+zsdZVuu/xrLxI/egXpXXteNOjaE9mXEGV5HkVI9rVz33jc/thc9DGW88nvoGl4+HkkFl41DzrtFrl+ZOC0Xb+w6pIsmjzjRdtwyTbSp8DBNKIKx6F7SO/XQdthsMK54175lP0pD1jq5eHMZXQ5xfi3e78Kx156SI3z43cqJxbCJQl0F7oubQ8v54+wbPjkz7qOZeIdvHz1QNn3Gyjs7cYRybQDTO+Xp9i/ZSKxS8uQpv8gObdp/w6/JTw2tlWczvo4xjE4/mXbnXvfmNhlJvyY2IHd26m4RtENuuhnGog1+zTVia9zRGauPkZQ5R9Odv1h1yi9j/tAIUFNw5zE8n7jiWTXByDZtO3aEptI0muRCx8wTt3B3YVX3pKrj1qE2h/ZptYtR6g2apznSLh5IcyDaz5KDuDGJdXpZRwj3CqXfz9tZN0NgEqnlPtUhr5eBpD/3r3BfOFx2/AC0/P/umSwS1TbhaR9C25swbxT7+vpEj5+OecBy5lboUcCu2/rvDsWxiVh/t4zGf9bbXkESt+bohnMaNXBSxEwq45ahdbTnzvDaBa6wuvGHmSOotEYvYjXrcDfihaYUKuPV223WmeW2i14SXtnBreyCJVxXHWp5yK/hju3QF3Hqgj1IqqGyqoNJhtTKvuwi8D3/cZ3UfhL1Ub9YKMKf85j2C2qYemvD8Z/40WMM/ImjrJgh8qcTjyH/r07RqL9u2qYzGetWXNCrOUfbTjuwGwKZGJ5f/1qd4iDFtaqRtd4zHciinChHbeQqXv8dYCjifOqSKFoW2m7CpljZ85mNKfNp+bPOismvfVRBCkxvRslPjUv4Pm7ppzd7rBv8YfAt42qALf6RX4fOX/lYgCOXW6r9s6qexesb3lerOx0XP1u3I1NLr1nZhU0l16TdvvqrEpfxO7JJ3cU0BprWO34U32NRUK/GGN3a1uBZIdyyXO5XbZn4vTctOXO13IpvaquugaclZf3ZUnhEf0bVOeUcWIydO3nAm/omXHxHUq017mtemwpqwc7fPYbx9EDmfJs53rvSX9ze4Wy2A4jNdm1wGa6Ty9Vi+4UPvXYlMOA2dWAzaxrSpta550WjbP54bbeTjKqe582n+ahdJTQbLGjXL518jY6UqHO4wzyWtJ2htaq5tt+NOI6M5jrsg1/i41Po1b4UwHYVeS7rG51gDYIU2aDIanxFsqq9XfWXzYJl3HetaIdc35e6qEc2XOEwXIB1J3+Uz1iBYYQiU+Pq5PLe3aQKtzX/NjMR7YqX2Ud7VHQiTzQmsQXNV7KZzpr+yFB+dBg254Phj2nHmsWxaQcWD+gJq4FiYxXRc2gHSF8XXdaxWO2TSghGKj1qjYoUA2Dk/M+/QpiU0ztLcaXsoPE+X6LrGrvpcX973dtD0ztyuj0XDFQ0im/negk1raMLLvT0MNz7QRW3ZZt722KI5KinpuQw7y8eolwBNYDGtTZPosdMbXwQHsVVluqJH0f+C0jQ3EpikNhma+NiVIiB4viU5c6mgsmkVXVpm88v++JYu57MYm+Y4ij6XzriOMSqXD6DhZYUygBfdNtdl0Nq0jFbpdVfmz/zrfqFreRT9YfepeSlR0lNzeS4fRl0CzUx9+nmtNhFrg2FZOipLh0UpUlQuSQpPWniS3IPmHlSWoJk7y9x45sbS7rt35enoo7vwpM8+nUVSPE5Nq88+XUQ6uhtPu3fj2dzuTLqzvASVHjT3JJknLUqSsnIpUpYOy9JhZWOjERowP6xvEDoWorztSrayzC3w8IrOPDBSgg+kXhnNyq7bc8aa4nSpM35lT1J4ktyDZiVo5s6kG0tHd+Gps3gWj5/dxE9mKi6eziJx5Ykrl+5MlqCZB809aV6SlKVIOaQNUqvyu1fMOh+lfqWqy3h6MG7Gai6B9NY1Vx9KuaUOXlb/Zq5oTPF9/1a5JCk8aFGCZe4sq+7C0767uUkMdBrj/P7KdGdp9x40L0nKbqNyg0EJ9OXSGl+2R12u4QFga/yQAjjdP0UZDMuH0zO0h2hG7WoEgX0T121YliSFB83dWe7G5GB9G1youEgGc+OyBMs9aVGZ/tvbnlPoJ1s7EYd1AXvhYHMGc8rux757CiNg4T5Twm0ch/Wzm2/bmScU0g+bx5jBnUlXIZ3jtKLBo4rHiYtI3XjmQbNSUVE6qmw06hCPcfQfUxdj9ujt6o3nmYzunCIjbJ/pu4yShbs1NOgxJE6YR7deUtdBI57nc2epK0+c+X+Df23claclqPQk2fh1iINCatOemM4O2opLF7ua8bEJX0wXAfjcl+166XZOAGdUr8QbbKJQ6aguX5LkXp5PMHIW0p1JT5IT3rWPZtGyA4bHp0Rz3dqEt838oXkorkmqMhyAfWb4WT2TJFiIcE1adlYhDEyt021YHKMEy9xY6hwn3cSJISwVj58uIi1BZXmSNy//j5nmYXdsuiUXbUxMu+Iyin4maUMGLtitj+w6CWk0QDmNN/dxRNYpFZWeNC9BM1cuXXhiCFHOInHjcvxuo8qmpGs9Jruj/h24Yr1wsM38wMULh46agbEyZPlwSmmiAXo4vn1YDFkqKjxodgoXkRiCVXU3Jj1J3m1UKkzAbtOeNs/sILbjoC5X7HiPR5g53k6br/Uh1UtA/HX8xS5+beOV8iVJ3r0bT6t3Ez9FrerDliSFyYEW19KwdfizOmzL7J6di9X8A49xqa2e+Zv7oOqD8bLTjuXq/yLn752lSDmnO5cuQlY0RK9ao8+wO5t3rdTr7pHVcXJXqiMizV64EQ5nUndNLjfLh1XfgP016Iipr7/5dyX8xXPgEixzFbK4eBqqoernP3DpqPY2puICzsvoINMBl6k1+ZbI6FWOhiu06Q7rpn1gpS3sx2qvRbYhEqVI4UFzVy77NlRHzvzpxuXA3qZfXx2jo/qFukZZDIeRXivb4e2ib40wq6tEs2o2jynV4Ik6lT1oNnrx+Gmolebus3zZh3sG1U3Pw6hEDNW6Qk9RJFoWHT/Mqycw4izwZ8475KzeMC7BoVmZ9nDOHsj081wJlvH9OU7mOrozWblsuA+Mlnu4zzt3fTpkhH9UGNkh+tZN99uRCqObGQVpRkIPq1+/NO8+epKsekVDHeUsku7L29yDemZ/NnnpjnV5Wca1Set421pFd4dVBfYzo4DBQM8YKWcEpZiRgNGMbG8E5w8kOfmwJCncWVbdUFW5iNST5rZl42kgNoa4/Eo5V2b1zeqGx3PZah3DdGFvrQfcy1HQQmUYZJBBcihwl7QuwppDCxcfLR1V47uxVIQ/fApovMuNZ2sKWjaO82vehuvyUfg0ynRShpKFvbU65W4V4MIKHqSM6gN4HklHPP1atd9x8JFuo2IGF57WMtRaXTLphHY267BwUZo6JaMisQSN1nMMCqCf6RrcnQNYjAKDlNVpLo92IP3MO0H/kd2VoNKFJ4a6q42gG5fJka0rMj3IhJkFf1Qy5LJY0FvrBPc+mlDwIF7UICAOAGiXb4LeYE35Y5zfR9RfKyBlFP3H4jhHLS5HpkPsJNz2wzGgt9as3G0q8DYG8aq0CgRRsaRjc8gNwz+yB81cRGJoA61NpKnMN5Pg/8io4GI868eOuRqsuCe9gPNCXy5bsoy83yqo4HgAaNdvshvUH5nKg+aDGdpBXcXPht2FyZPZRiVXIkWhfeDOpXusEbOAn6lyZQpqXoZBvKsBgMMCJOnYKOao3euUJIUbk2MY2kIt+n1giFh80nV4Wa4dmzVYXYD0XMBbuQ0eepwMYkL1KTAPpfHSq8T8NuQxqhvaQ0sLm3FZjP9yEQ5YjWab01dr0FgCnwF5us/Ae6Wa4ehWQwqOBjHtpOo1+S+89/ekhStPDW2iFdAqgn6xOGbrEsyv2nzR3yTtrNyAI+gvi6SWBDlSVgXTjk29MLQWa8rPeVxDs2gNTMYzTwbH/P3KO66/kalnI3YX/E1SmqTvAj5P1Y5vNazgxAAHBogyl4bLdke0r5aNbmgarUuk9ZlvFpOup+viw6+EEdupsUpaBu8CzrpadWoZQQ51zsgAJJ2Saufa/BfSaYnD9m1oHa1fJNnRzuBY1mFcetjx+Sw0lHihL1Al7vWyCM/jkOwKhIRAOZK+KbSPg/S5aew9aImvm9deGRzzqNyFlwcsYhvAE1ikACNk4UZODI70MCPIgRDnKT7fE6K8VYoUcxsaSRuIn026E4vEKN+hqw6i9zehoSQJwHcjLycrzY7RrQIAx4CYdoFM6/FbjLcGdhGpoaG0WNwzOO7goK65/Pt+INZ2aVbryQ1nA7C3jCAjpcCgnKc4z6LRhnDJOXVKktyFJ4a20pK9F4MRq/MtzxVXXDiwCYiOSLpZsFsjgn6EtRoeXcpgHD4x6m4wvhXZp6G51E7Q+sAfu6nd5YZtOX2CdX40LtNnV5U+EBmw+kO6nRFkqM4kRTNa2NoCvlueJKtuaDG1HnYMDjKzzsUWllPTtpklGqrOmst3wV7eX9ylZgQZq6MMxtFeuYx3H/hG0Fc3NJraCF4MjoqjudK4831pJPFLv8WH0rCzesEIolB7GYyTsLaEFnQhkJa5pd3Ult8yODbrQsOuVjVrJHXAXB7dYHjDWhQk5WB006+Y26N7L9KFp4amU7thy+A4m8tswuh6o0OfM0fYKPp3734niEZJEs3EVazDb5HdKknKsrc09hF9cy6yKVhr0kglD1XAnIjsURJEJcaJWPOab7ewRjaG3pVLQwPqC8F/0UaI3neFsTpoNrDCmgOhbo0k662C6NQeB9tztGQvNXF5BHNneS1DE2oJfscgV7c2z7VdX+z6GBrICobLgr0beSkZlEcyDM1COHj1jOujHjSvaGhFNYMH+IPYlXtxdRkEtGso8jmK6bHkhvIWpLdJEKU6lXhZiKlfa/VaVLc8SdG3oSHVFJ4YLIXVtWUk4qBQt9eSYA0hC2X/4Sd1J4P26AIjF81AJuN9E6i+yOiGtlQhZ2FgJKJZV5Zx+MfVQPIfqYCOy4U0GEG0SjEjDtAMNIoOTBMVa5ZgmaE11XWc5LFX+OMitbus8CtlkelpCGvuGPXZ/pO1Uh/XGg5Ynr8Ve8b00fGdxdPQnuoxCzrgDzKtiOaqSrwh0iLg/P5C0JEe9IgRRK8OMFhSXNuJO2LyuerGUkOTar1xmsJ8wx82Z7RrCoJujWgc3WEdAPXZbmcwHJ3npFWGhKVcK6LY1oYtHj8Njaq18zSWccIfc3NFsb/owLu9BGpe+788iEHbO4ymJpZ+HQ7PpVRUDmZoV62OZRHVC34RYZm4npiScHcrYYBhrUEsxAOYIrJIPNVPqOnOsuLiv6Fl1QXJ4UNpO/U5XU3DveyYqnFcEmQAmCN96FUSxKRsAAeCQEwO430yPDbhnUViaFx1TKpgKgI/iJ1zLQ3/Kp7YSqBDkXMC3e3npJLBdjgpODQEScpMY2G5tcGgLDPrR/Oq7aCdEX45A66kHsMps34NIyEyWPFBGLn0NQli1EEkKfVqIvqoFlaz3iDBtct8XEcHsY0aRodlxZhjOFk9SliPbZF+zP+q0NzNneWGRpaTu8IfE3e93U55gjlPscqBhW5nBLESESDS0alHQfN2pAtPDK1MV+KZ2nrDH0/rInoE7nYIsx7MZ0fO6kMSxKzUCkgyzrscPKGxAFHL0M56DXH1L7wVLqIGLqEDd3uPAwfM8RhpdNiPhgA+KWGi6L4mlhUwufLU0NRaNcsc1B/4scNqXUDf9a5wViCG4cIci+teEsTO7gkvK8A9kkupKC8uEkNjqzNSwX+9eczG5UPdON/dMVGc5NaPEATQD/YnYiAkCRmt486kob11//7wCW/Nx8XDrDSKj8E8/8f3PAlCEA5isihCVuZ1OC7dRtVghhbXwvAkwUU0wbWDPXpqFD2SKiHHMGGJkCM1wGTewq4VifHSioYmZ4Qs1g5/HNaVg205tc8UZW/54XwQDZrsDnLkV/DzEBX2DMeSTsavbmh1rVukcfQTPsvctbhwGi0iJ41hkwNiYUZ79ScEYUQU0vuoq/A6LHfT7lotyxy0Cz7qv3JdNk1tQ+w8Kp+1QxLIMbKstBLQkROQvkisAl4aikupqKhoaHl1FFU+8BOCXDSJ91vQk2sMCQsmLPERZL1REIiIAEjWerki3KO4eJLM0PhqyesluIhGuGacTV6mxtCOyU1Dju+ZSgbqSKcAyWj6x0JxceOym/ip+VXQXeHd47tkqn3ygRpDe8naMINTd4c6CsoQEmKCnIZ1hEckz6H96VIkSc0P/PJ2juV6ob7ooCjkRpQFOd59rUEoXgWBJYijIBlKrwe0Zia3BF+g1YxdLukAObWGkKwLYsK0hH6SIAfCm69ZgrOi8BNm6AR9HB9412Kulgys7R90LAUy986lkyAckQBIRYpaK4bLMQzdoBb8XoKLjF6uFTatISQLkOMNHxZ4pANYKlLAPBBYMa3pyqWhI5TT3sBZgkslw9yTFOeY7F8OPAoAovyYW0Pg6/6R+zT0BOuOU/jx9fNwodznXo4hzPHeEXxy4PaYJNrZB/tLKVI6i6ehL7RKlo8KfhzfdVIYeswA1Y6bzSCO4UkPMpBHgwoo+pF+oDtH4MyiuHgaekPthTW8TZudu0ogzkTMdx0pC+Jk8qVkBCEZVHGy4urxi/2lJMm7uUkM/aGm8QwO0W0XSbJnjpIpgqQm1UB8COl+RlAQv8cEUaEYHlGYh9cdDNanM8symG/4lLAV7xJJYso+NYAkJreLPbiYr3lF7C/uLNMZ963oyhN3Lj1pXoqUNpttA2Fzlg1FGQ38bMip1Tct3BE0E6lAk9bG/uLOUl3xOTcmPWhuKsuR5cCLexzdrmYukFKfRQcQD4FYgmj5n8AenU20AnWZ5zasjhtLDb1ArY3PoJj61qU4E3xPr7k84jMs79CIYpg8A8TkcvcysEc3M+JyGBBNu5gn67fmxvXCLReeHKPbqLQRqBF0gB85uDqoV7PTan8EcfypVDKCsKzcKHUNzBO3XTostYEdCBXkQrkElaWi0kamnRwT/CBq49rg55YGoNeCOC4/i+a7ggZtdGTmnlhdRKIP7u9Jcxu51um3mwfPOoFLo5+TIx9Ns9NdFuIYAaSWgI/3ba9iaZom0c760i2pnOPU0AG4CFnZRqWb9oc+CNa6NEKs1+zMPjcAI2KlngSBeQ/SNMcch/VtPXBx5WllG60eZENHw+sXVCgg704jYQGOkUA56KN+BfwVClj8FKxtmDqLRPvfqu5JCxu95q0LvlKUNbosIM5IzUycZuguhAts+0EfDSn4XSsYMu3QHVivkKJvzX+rePwctnRUw/STyq6hD3tscVnMG8ZuDiKXgbIQVkx7x0AfFx0ZYmmaBfXeZePlbUBaMe6PBn3U46Lgp2pmemUQs7H2LQQxALLyr0nGYUu3pK6u+T/qSXIbnBZvL+CNCmIvL7om+rQlOjNdNj4A/QvwIyvACnca9z4YP1ufmn/sxO5AhxLfM3g9F1wS7JLdsax9ANg7/MijYKXp1SfRdxc3JjcYlMBFLny70MXhO6cLgmOyn/4zZBfgGEbWWtFcWVgISmuTq6nrLiVYBl8aMOiiQ39wZNcDu2GmD4AwY5pKBvxaKe3In4Jt7mVqav3JP7VKktwGr6ffUM/CdnIW4E4jlTQy4Md7kJjm/2h9Bzy1PElhY6GdQmdgc7KuBr4l/zvl9rDw426lAjnMD9uLG5N67GLr42MCH3flWrnO5WsB1/1I4EciAIqhRg7AFDeeafxLcfG/JClsjLRGr90BsMnAY7oWeHxWegCAY1CB9yHbsiemlxJUGhqfYW3MtHR3Ar6yI9q10HztBTDS7sl5AWaXfyeY08QEIJVIY5xMn3FYrX+Z08ZQFwZ82Dw3dyVANIO1jHpDzQLMH7168JFXgXAASSXGvTmmDsNqaXyq12FagfZJgGOlcSF8h2bLZ6QXWYDTf3pHwEdGgJ9HKtIcWpi6Yy0ePzX+5bhD2phq74eCPWxz+tR1gM0JaDbaB7mxM2ASBCU3wDuTyvro7kHNcm51Ra3/7APbGKsjd/CHbagSl0G+CYqvlPEZhwDsxzCz1hqQFDvJc7KHDnry7EsLrxaX8a/80Q/oJoPOk9vLm0cSwHIJTUNyN7e6z+MO58oTF5702Xf1WpoBd5bbmGsR1gp7dUCXgQ9/rDHWA3w16iEjgg+RE6uwHeTfMUyHuzcsCQftciyjE4wff0md7QVwMzK7gmeOD3AYAJJIdW0MGYwn/30br+5J827DwsQPXXXKD+xBc3cmtYAdCmfxrMmeeVPrH9hlOLkK6gnNWOHwM22Q/U5pJ7O+xKTFeB1ezSQ/qCgUxHYAved5JLGOtnqvY8iw3HzOjaUetJiK8IdgD5qpfq41S0Y5ikYUg+0kS5sz2DVAbGsFS2PjjpmPdCFlSdDxLTRnNW7tNnYMzIll4TlLkpLKWGd5d5apevg13SPp+QYf0KuMXQLYYxCjr5GM5/4MUi6VNVHNXzvo0m8YrkSnFg+279y4HBZgzeQzVFTvx+wOklJBtS6/vbRO3HEZ7nSSluyljNqyp6M84Upwt0b/ZdoVb/P2JiFlc350CURWyLb0JUIYliFfVQ5OusfatxZCczGMg42DL+jKEw9a1ATKsZg7y2qZ9ZAvqFfGrrVNe2rC2tMb3137K4/02+49L8za933mbXupwSNoneyX5QrwlGYxmomuTRjSRtdDSIwI0wCQN8Hu2fFbiXcVshQpIKsKc5vmTHkAJrzW8+tGP7pOZfS52cnneApb12EbRbs2tLJqMDItZAuhiTZdo4+xl6REiyOGi63HHp1DLTeW7k77BMDsxiT9R7rA3eRANTh+Tc9Yzx/ZDzjRnP9BX8dh4gR02c7sm8y+GC2Qdn0yMdmCqOXOZHkGSY18RPOlVJTTduDTm3+7EqfsauX8lzWVraLhFKkO28xlsLoIDWqxdD72zOwyA/LnKc9mhH+GN3dMd14Lygk+ha0db+fIrsbp5/hMpJVlWISqAUhXJy8nXgMInoxZQllrYcaFp5WZvZA3f+tgvqangtZxNIlYzTn7HzPVhzB+yQAcf2YAkxQgrNEC6v0x83ePebCVs3jShPQCMKLCXC/FxX+Kctdvu1l724FEre06+7la0yzsxVHa7t8+OZOVFlIDMWuvxcFQ+5dhqic01e/oylOK9kf4mOj7UtOvlHXu+RAmfyMj+2NEWS/RTUh4ooXVgsKZ/rPxbqOCedBbziJR/1/P+yDzSPSq2Ln3NIupdlU9E9+nZ3PprhShnROv0C1fNgCr3G3jLQDjsHUQ5GSzotoP+vo/JpIcKKdmnfoqEWoWOkISJV7xu4T1cIz+LkI7nn70gXFklru4+K/uj16D1z2Q5EJk9HXuz1mUXItGm0judNxj2JBoBrXEnWVk9PZ8kg8OHdmJZ76yE0G7n5jJKqCxfpSZPeG//8CK1BldJRmfiJV63UCSFznxSUFcUNZadrGIi21YMfjCeuL7eMLm7a2geWQwvqNtfh4vdsP2fxX3fCmbXrnXncz76ukqqiNEP7OfeSDJDfk579g8N9fSk8X8wrM7nHdyEQnsHMUDn6go2tLoH7Ly5R3trIuzlzN7dRSkivRtI+DOH1fyQ3TnfWGwEE1XQF8OgwcXUrM6zgnDNW1wjN0SWp6Sbsj4PvdV9p2L0dV51NdOEmunZCpXSTw7RylUy68lOosA7lQL8G4X/BEmgfiLP6PxOVGZN05V+Z4LRZvkiuOU55TbByT4cDVaBTomMCVJjnLeD9gsxZMtzZ3gPDIcs+cZ1HiU6tf0l3yJjO5OOLGtzi2JpWo1yP9wsEs8wThd0YWnX8cGw+FmhvUomsn4ni8t1Y9SUaHI/DG0S3LG+Zzv8akSfdejP1iy5mNSm7z9L7I8gN6pJNU1ch5dVvVrsYGwMq+bwAd8wsDC8LR+kajtqPqHkNzJya6+6nI/O1MtAZmv4Kzr6S9MxEFvpdz4SUm5R0g8SI5ztCUEK/GGdy1ZKLZxrogWKoeip6JLHIg/PtCpPlexROHXV+vLdUS6y3q4IbEoUg6SAyJJqnUELaBfizHw4UkymHsw63OwEPBuPexUjYo2JepJ/tiEEz3hxb2I3cT7L9cpkwbrjwzTRZuUuvbATUwb9gyHs5D4viTIzJ+95zYOf8lOjTpz13GiZqs9UXwPJIyKJIeq22nunqLTCDyU/kx1pGVOz+SSyCf7q0jJbry5jYZtDIgQOVyD5pkZWxP+TF3FiWrOsn5Fkkdqc5K5+Ft/LmxzorSginmRvsJv9jGrIEDEflo9gwoqv0W10HlgncpGT4d4ZD9SPJezDaiWw1R3xeeG/XKOHb+tuxwxx8bPLzUZOHykD6FlA5Ck6hnIxnF1dJdSUWGj5s7LSQRqyh1Vi19HKfQGTGO+XAxTTLdUSnQRXyjrqvQDcA0X9oKeh5RnBnIbxl2g6hO25cw43mrzbztoVasZNxTYNK8b+8H55cRkbNXCqc3Z900ycPmQygiB5dD6qbgL72z1+JVUOyUSjbsanqkUziJVoJzkVE5v4oyOINxymWhw9qcdqfjAWiK8STlaHyAf4+0L3f/fLNEoPXqr1ZUCu+aViTu5EDVYgxaLDst9HsyH1+rhLUm1Qtzz94wz2CjpOmxzGG+JSe1FjUpx/qY/I3mF2CXndujXbsVa3cTxmkuBG/Xx0UWSsi+AEarYjLG7M0ndCYsPJ1GRxPyoFJVN8qZoCa6i0NpdRpvFeTi1SQcpvDSR3oZc1Yro29GC25NmMj70OfzF5k7Qjac2OuZ9CB+JTJtTP7sQj0PKKTOgo0l3GnHZYb0ymq9VZEN5q279GoXsgpUdRPV1XHo2tG/MBxWHcmKZukDfMquUJ+mCj6NaB4iUT1E6rPiKOaY65dTq/zmV/pXoVNCe1Qk3npmkGbSQEEn7HaHdsF0dywxCrVckxUg54mEiqT881rfKdFqxxzfiHJ//Xx+h+LjqJUlSrctvKek2KrEN+CpFSsr3Ix21S+LDUf+pEy4iMUlj6FD+H3pReOyCFvQpXltS0GdFO5IfTKfjtKazIVMtCEnCwx3Ax1kTf0VS3j0dGwxLV54ge3bK0GQvF2fECWtiUp1CkBzS1O+LXPZumi3ms9dOSbWB+AlUi7Rlhk0Bewmj3Ri284OTys4L0GLQ7skAWFX6+CsbBFJasFeeHPHMSWeUfl/+EiXtkVadrkyMRKnjxlOTGYe0U+9LB/2XwlaWHjY72iJraq7dOc3MUyNaCJKUPxL+lgA0CxFxbcTpQmEYA9kE4To0bDu/eUikUimDNm5ceh+Rt3GjAXsz8Q5k03heB08NaO31FTtqJ+P/SzfglDY2pRjjvdpF+s0qgf99/9xVAfTp2lHQ4gDOAYC4w1j5WQLm3FRxhHQdNEn1U2JliV6nUpa36nj9Vnh0wziMN7JY+/dnU/eAl5XOOphCtMwJ5RRCrHHNC/Qji/Ot8y5uR//xxcvIa6qM7oSU845Fs4wmfgwD9oQ4/KDF+b2hTvIkhfeL0ag7eyGier0sg5lWTIucaPNhxxpqdz4bdXhemj9xQJqyGY73LWF4rMFDvx29ThyHZPie4W2bIsvK0+hUG5EDs6OGkVVsjQI1N26iSSSyoX1tIjVYalUsP0wMl4EXpccXYFTqJcuKuX1tJFlDJh/Vi4QigeUPBDdlc1xkHytPsyZc1HPvBlUvT/g1vb5j3JrfSvntzsd/Gay1Upbv358ROTibkNFdgNMThwicvra8wWalE2hTansJjADAovA9/4q48KAZxeU1HEpiZp0iVSvm9O4/uzNSyfD6tXxSGgi0gqj4Qxnt44cynUvOWRX3OcD6AVX6OBD55/QjpJ4RRK8OEVrSWH9Dbm2Ll0CKe94B6ss0KpZwSO9vLsYzvqtnEkm3lLQRvCKql2ShrTuXuzgA73XR7538iLI4DET9v/Y/pJnBmFyQTiW0pHjrJz4eU5KUFI7C/maJmoW6kxqmUBrPP3/jzuzDgAs7ldSp+ZIYGRiBf+YfG2qYa6pJELO6wKClk0cXxBGxcbLKmtX6L+xeZbqghbYqt2pi88NgGzM5kxC001wJATtcCnpY1yDh0hpQHYaoW4Cfi2XKkUcZuQavc4C3ZM5GF5i6rBzU3xbJ+EO1Vo2zm8FDUBVJaDmRZfr/Qr6rB3HNp8d+5g0Xl3azuyCUiqa1DEEapQMfLqS3wG5Dl/jEMM79N+bMLXr9UsPm4lfPpMmx5EPtddU8Xx4plxq2Lfp9E878VW7PXr1NsfSwMbSWyk0Djc0JOI/kx/U5u8OCfvYAi+t9srsgoOIxtH+hOyGLlhvZlxiSuA33P7pkwYyPVMhZWg9eg65PJAaV1ihkh1E14n4TW98tliGR8e06TgzNpbm+pT8sRDHO49nVXK3VDJgFbW/Duf4TQVgl5NCUGoDIfE0tLuZXFw/qqhKemMZ5J8sJa7CREUOtgJQj5rO3TkltaDFd085hU5JVrrP4jIVyZFUrBv7+OWjSsyQIriQctNwH0YRFLq6fGDyEEP+U5nsTX9XQwpoWdgzYvTmJ2GbmaG5U1HsXbqzX39ynpNsZQRzU7kALSS3RxufDVPylSFhmLYqHr2poZW0ln7NBkoeTmKW1TLmRsDwvrIO5fk4vkyA+SprgTgRy5QmyRSGVJ+QjwL6snwNtnZJKY9cdxkdfD62P9sHcjk6Y10Gdk3gZ5FIygnipownMn+6SJOdiCaaduYMPIPba3RSe1sCkobV1AwPp6qH1u+b2fmRqkhuo5vT9dnQ3I4ifkmXQcv/KYFt0JaEb6fsAXAXERptyx94MDS7zmXR0kMrl8Vp/WSt7Ccyty4cI3b/DkU4ntLTjTsiHqDqLhDBIo9ckobCDd1E8nVOrF9jx/ejnAB6OzOvEH8zkq/++Pobwt7jS2QRkGKJmcZHwsGoKMKvL/gHTGppda+UyvvGFWrVA5c5fG0fPgg/fcW0+AKub6+6CeKvznNCyadyeDmuVDgsi2nUmCcR/t2NDy2vtPN2bTk4c95T4HJ0zk/Sxs8F+OMLf4k6XGLScRGkGUEUDvznTX/tvhuHbNeONXcWJoe11zj9UFxegKVR5rXwudJ+UAOoDJQH4+2hpxZ4VwwrB/+v5r06CsJkvaGh+nRPmk9t39iAarzmQy6UZwGdvY1ZBYijFDFo+goLrMHTrKBmSVcb2gqlocX6/gfhp6ACtlaUxjFNCyMkLu6nyujhQdP8A0JMkvekEiaJLzoB82p1l6JZOQXIp5vYw8xPNhj7QtJH0CwJ79HTuIBrB49SfUgGtCrS7INE5CurrGQh4ndHVC4IG7G09cWLoBd2FvXoDQGy9c9fPahzMbYUhl8lib1Wg8N10Izz3j3rV9ZUJeGaIWT8bGdvQD2o/qn0A/OHn48zxnvhjjwdhnreiLyRIKP3DtCzLHU3m4KIWuvqWEbi+X5Xf+dBzkOVGtaEg/VM3aGeu43/zqR7vox9z06R/7PMHScGjYL7uniASNoDVE0bTfiunuaEz9JnoObITB1Eb/MFauo5/rKS1BslBz6ajzEL/mZadVVKT2HivhaWG3uB48YwvM0R/O3Ppc0cTl2G9nR6kkREknFJg0HJRmHMGUpIUylHcjkpNeuvQ5M9PH1gbs5GI8lty3hYiMNreVlbfk3EWw3ffXZB4dIVBy82Z8CQ9Bj6+jiJNoV3Skhntcxl6RH2++EizynlbmnvviB7vNTAW27GUPpIgEfWtaDGxq2jmxL/ktgsOpgItj9eVeBr6RJ0//o4Ve/R22tygAT9zLgtmO9IzPUyChOTfpmV+02O+kE9adLIOgKUx6RReMb7VYu2BSGeNehwe3CuyN4SQbZCYdJZByb4wp5/PneWKu27waJTUj/au4qehW5TOxQPWsDGdNbaL5QHYTqr+cUGiqtOc0K6uVBP2thCiWDyg35322dYvEkPHqOPrn5zRUxftJT82GoGUJ2zV90q7CRKWv5iQZMaJOVG2SssrPP956Ehmfo5n6BlWQfMt0mGPL5wzDgg9OmWYQiVsuycZQfzg1eRA9+wtxmGUqRwdX4Ei1i6peKtPa+gbfUsdansLmsqGcIap95D/dz3MCBKY5ABIO5kccw55hlQY87UzKk5+YkPnsNdRqSB20DnbIBCgz54Ny/H0qWQEiUxiAHS5AMZZ5EaF6yU7M50N0x0bukeLwYPuNB5vcwYL8gxDDr8zSGiuipBX5DUnajijz1Ngu1T+LK7Q0D+sW6SXrDfrQUumdCB3UiUDQ8paa5DYxISYatri6PgTzrQXyiU+6yHtSmcm7uIISEtbLD2UPgQi+jFIZIgJ2buXlGIZ+Gna2mnIgI4RdBEjn1FfxnNk109AvpLh+Nt5HexxZ80zjpfsaOJnwoejeQZyUxA6yqBNTi05XwB9dVhBlfR8ifjHICEgkBFFu7xUwNjAz6loAl/rMKoMncTk/noy8zyVG5iE4JT7+3lIcDSsYH8yUhtnWUrQjAMuhYJF4NHQTXoRNBB0c7o4rAAD6i83q7sZQeKTTwZJxmsvO0a1IlKcxdOkc/1dk7P9ruKnfmKZYUMDmWY7XeSBsxM/QqFm2CDDMcg/TshDlGFOA6tMxsstidn5EQz9RFfxc0sUECU5XUkDqRlGLw29d0apMoJkIBPAhCzFmVCnTrp0WAIUQ9d/GWFj6Ck14U40iZyp3ekq/wSKfU+Sls30lBEkBS+ckBXh3kTYkbjnLabRP8QUdFdDV7FSlutH5zxEw2GkZagN16TFCJKDJAAIuXPUqd4e2ES+RmuQElG91slTfYVxmbqxE3myRxEONkNLv5IgSYgHgIxD2WxTze0NzHa3/jmKZT3rLM5BU6lQJ6vTirL2D7faiH9JkCw4AiDc0D24K8TkziV1Owo0aG+G3qK3M5KzfyerXB2wtDttkLYRLbqXCAsoTswLs9mcRYK51kLe+etIy67ztLoLYwcUKxZYkFOFHeNQpEJoe1P+Y4KkgbA3iD9CGYsQiJnb+6ivSQlpM3gZhqEff+lctdT1vFBD6n86JWkn8hxOCvYntAqBvGzPu/OWsUPS6dWGDmNkf114x/JQX/lNlMcgSJA85JJBknHFpaMKd927PKj0yrLxRGgb8Ah6DCOJ+SFnIs4UsXmuo0HsktLsMnw8vbwouj8FST32UC6/d3DS+Yq6jMV6AznE4pwpbDMDUWNU6cIQyO1mgiTiesg4q805TgxFoVwg5msnIpL624Y+4/AUvf0bzYkCtbo5UhO66x8XJBOvgrAJtxWXB401MJo0xkn4GJ2mtyqJ5Ux17SiqBQ7pnKC5aX++hMg97Osk6KsJWlw8a5Zle0RL5B1br1HQnnVg1i5CliKg415pPycV/y8ZK8UdSaElUMbRTZJzVv/OSGXoNf5ocqpzoirLC6LHQMWASJAEMKdBxacbUhjoqfh1yvApCMhtr4Zu42n99d8SDO0aBuLcNLxOtnLxGiQRo5HUdhdnbDQEw1THXYPI9BvGNPrPWetxMSROqK4vPZHs+geTUdDcahkcyJ1JouSE7srQcTTizuQzgZp2Lu95bVRzsgZJRjpIyFgCngwuNIMtln4pr6Vwr3qO9sJa94X3t0aNgWbFsZXwX5GNZAqQ0Rlp+KBWqajIZHwUWSQeDD1Hb/56z9eFzXNjkEmI3Cj4O4Jk44HIfB7uw+BDziJpzDoUF9bbm67DeD/ElOIsYY/eGJLPojg+PZUM6QgPgIg42snNH63WvUGJZzH0HeRbyeC4zhIVY0gri4J+hyDpCA6AiDxo5YY1iFyBi9mHzqMlvyffAKHOEqvBQDE7a9u/UzrOKYnYhMGN4hunaXZk6DzeBTGZ7sBJyhoBJvWQMavEdlIKTzHecpRNhkOaJJx23Y/eY/0iIY9JcrZOUmMPYK47bShigN6dYHDrwWafbXD0ZyuydpliMXgwdJ9uj5h/0jnC5rk2hh6LMekwguTjbom4JYMjdRg0/t6xU9Fu9B9FnFnfLbipcAwLNmTEsjsJiQaACCd3NXhSU2jzzkKd2dB/LDnoyfcltXOEXUMxVEHRIlgScvlE/N5c4c6ym/a2OXBH1oF0Tkpi5uU8dk3sqYynvU8lQ0Iueh4iDs8VfdpOYq/eZXFCu6ED2Yc/caJtnccppY9jyMCIjNe5AJEkjNp1nPBWzbcr3lxwFcl5VklLPYgRVf9JUq3RKaJQCM9sGKJc6hkykkkBItJah6EEDxaZd7h0d2rOnQ1dSBZr13NV+N8BpmoBAxMjhmKCZOTxiFg4HrnMxn91fUjTeNZz/dT1FhrC2oy4tERKYgMQQZAf43uJd1If0nbQ6rlwuo+EibfXcIzqWqUkAgAi1spSDrNbX5KURNtrRQdkO6UJZ76zNvDp1iTm8Z0hbHP6HrP4I40YCAmSkuAQiBZAb3AnT5J50qKiYFJrtVKWawTuRmoNn3Rkk/6kPLkzxMQhdFWMuJkIKOEs61z2Zqi9NpEN7RrC8+rOg9Hako57KjKzDrMQC4zmOpTzOpsCRLTo9+q/9kn/FdBKI6ScTmrtHdL+LTTbl6SanRMEcWIh9F0M6G8iJy+ciItX/SiL9yx3oA24Ty8rtkbTkLMS4wytM1yiLAgHMRj01YOOnCRUEFGmnLai9jx+WTs+moAOo8qLhZAWBFmql9twgpgFhPIdM3QTJCfRFKQxcqbtvYIJcjPaIGeaMoJS2nwFZilhS8z+nKBhqpjYBHyOeStJ+Zwk/KLaYM+w3acWoIOo9vpdPrgAT4+v35ZXEaIUhdA+MJg9LJUMOXFScGCASLhCbZB8iizmpgXoiFTSn+4My26IWboT1H+eeKOmT4+45iahIOqflj7fsvgPqgHo21tXwYDNNw6k23zhbwBC1yaO6Z9DUjIoQIKDfhuqTyzj9Dr4TQPwn0n/qhkLcd/NVxVLyeEU1gqmB+CYnjIk5XWR8ObVH6+Z7q2xW/VnhbTwvlpPbIp/MqBDkqpJ5yecVfichwtfq6TEBEBCLfXHWyXzmnYnDRFZZNpnHwmx+DFqcnrArKCxfrEcb+QhQZLyFUk4qvpjp97e1lG3DdXnyN5JbDnkCc0qgW5rit2fCmEQLIf892TljkgWv6sB0hc9kPdvZ9R/B1fJgKoDupBniSFOf6eH3CEMTRw+a/czJCWfDEStyWBogA97I4ZxjmDq9OnKUw+alw8F74DkDF36GLqtckNHg7A6RwxLZL3OAjAJ+e1V7anuxtPzn1p60w2YOC488aCybAmhTbVP0O0BWSXNdVufbxPbBwn/pEpHXFaQlfoUIGFJQa/iFI+f59eX+560KPvXQxLj453NmDauQnpbFaO3HnQBm7NZl0h1W+OHQdaG5GF8juhTIivxAGiHAlHNPboHzUx0ZHsO663y/x/MXYJKE/lFN1XIci/ScuK4xK2W5/RA7BokOEyH/DOy0hhNjhGzNWOcxdONZyVJUYewV2Sc3FWNb7lzaTJjSU2iXZpQPmcDhLjkqqU5PUm2bQTs8PsGg2RlZRR07NZPJvyZOcenyEDpnl+D2tJNnLjxTCFdlE9kihpzwPFJdJrrw9rRVuN/jqx0I8NLQarbL0x3M4woFeUkJfHdjzShlv1ObV/dV8wlc/t4lKbUpDvBkRXtOs1S4OwgdMw4NGkqK11MNAXmmr2B6h40Jyx1exfeYLKajur67wyChgQ/s0kGOicY+9Vpq0Gxl2KYtVnsiF4lsvKP0DCsmzdM9HcuNybJWxTkEqUp9S0kOOqfMdew8Zem1AwewFgknnTacjFnC6GrE0cmmKPISgcYFGRunrdchaQqlP0DmczzO9dpQV562DTvDZNQ/luLhyKpvF2TnBws6MJz6LTdkk1GDQgpiSNfSaW95yU4KLg/s8SNScWy/lNkdbPGyNyy28+0WSmlf160nJMTisdpZRsZ2cw3kwGBk+m0atbH5rklOLrxoYO0hHPQ3NM8X8+mY18iiOy7141Kr3qk18AFrjwZ0kZIvbKAz7Z+1/osSdzH2ieE1CYOuEyQlsNQsFMzpCJAR2N1jEeTRNF/A3IfENHlcVLtelKW6YxMfk+egfwcG+DUYFd10N4/kTo4oO+JP9TgIlsLJog7S0tHlY2eAUTQYSCR9YsrM/5z1yFnCwr8E0AL+ByZfAepOjWlnEWtMeweidSPpK5X/dyjmN+4caD+hzyLSTbDP59wKAL46deQmuHgxcIi21D+xAPrIzsxXdsH61eLv9MBqTBkJXkGBW9ieodznEK1Dlxh8zCJ/ypoziefUJpS68EL/YVKt6bAZsDMLJLqDp2WElH8Ag3Tr3QQqU6QrPylFJzZEabVVx9ALNMdFRrpiX8+Cc8Nvt2CvUoFbQKGwxBjL+86Kz3bl5/GsR4HDoZIS/sIBX29+EgNqKC7NLsKGn/TS0HcB5eYLoOQ/24x48LTmjY63pRitvZhSGy8iVmMkxJMBbFUDWT3ARlKlrQkQSi47MNb5jY01YMWNkBdhTSp6+B/SXAteT3m92ipm0Jy2+Mq4LNKljPNbPk/6aQsiW4+GXYfBJGWLzbm4KWqAgU06eEzm+awY/NIQuNrmv0hNrYM0P11ihUC3iMI2dCup8piZVezWWgoaRn6nFxInA6jxi3DYetZSt4nL25f4duptfMULd3b6LlGEwAG8TCdjuqW66ctTWN5+4D8P6Qd9uUHxnT++Ae5EX+0ACzzOsDbNDnQxiOXx0fcvYOBbAQKqaSm8QxBo+5MDNEM5yNuOXyl9notAfnPc0DY4u29sYkxmA1aDVuHwvdVX5VDAvhYrH5lCCZU7DfwS94HAEXxQIwdEU5Ha+puWsNZT0DS6MhKFxiq84hGtF7fAKdTd5CmVdhZsMDQPbMv2uk/ICpkHVJJDwXA4vye/JRs4WwUPi4/jaenJiDSWrFJLqFgSPu3LMQiTdiJQjWPx10rl/wxn9LLVXPhfJ+2PAwd4lE5aUkAo/wPqY8S6NesoZuk2JgLS1irMoapxqjNxJqXmYF+Qd7TWzCiVNBfzvErie5BrVzJ1kPS88V0UVFhmiSWoY3Anmf9hkGykjSDxt9300Kx69NZfD+z+W1wx1LDhodIocF+NM9uvJXfux6BPhxA8gzbOhUxn9BsdDlQOzZzVYeVwOSOf2dauAhpY8E44dRbmtbivZ6/GNWU+FY8dNM8tS0byBab2LEkVtNOhA9/vHrVYonSnwaUKDHm95kWjHZpwkUocFDuRvB+fw66jqpUVIDxOh8VvCXGVklzcpp0GrBxakJ0W3Oie6wAXA6oY1h9n84/Mq3FdGZjw2r8TiqoLb/lLiYZH6mg74/Q3WMdG5gast5SUe1HNXX4R7qnl0DurRHNi5QmAfhb1DFJ634txqpyuEelevhy52/7MEq07HcYe28TjsfyAqSdirnIIarpLOTyMLrmRooQMNu/0uJnTNPB28qsaMWeOe/7qWdQLHw7z/9nzBteu6SUsPYCt0jMkZyGXIjxowsSgMGG8KghwqYYpZrVGFUbK7oOmvMqMPVInOFkz1JJnZAKnUGI0lFtA1SjaFUmufmh5TGI2bVTcO7PxDVPLtEEYFBEVrrCiTH1S34tdIqUmekX5LtRsZrzBuzvGbtyaYNkxUEroV+wiK6fxLynM2DDlEwLNVcWwt2MjXi9QHAes2J0dqzU65Q40z74YllhrYg/NpNoM4BSKiymhg5GZW/EfI4TcKpiHpovSYvss4h1JqHIHbnlWDA9tqTayXWNm+aQispnr9h2VwAoGwzKReJRKqtvOvanWzrdovbHN8wsTdC8iPFc4bd3ZlaUJDlDjqLEGTdscKXNK3LwU4pWtwtQrZHlPsAL9z8UMQT/WP4c4O9Gc3MBYcLvFae3SdowrZOAGDK/YtYks6ADH8DfHS1KrCTB2mBx5Yni4gOo1+eb0950yukwJUR5QYBGr92F7CTDMOZYpvVcmLbzzDLDhu+c7ZSR/s0deU88d2dyGWEDHN/FvUjyo0RLvxBTjyZCf4wGYILKmJVnyId3zIpSUcmSnmrwXHyP31sqK08ZH+mtUJI9LgD7JI24s6Q4iPpZ+PZ22oAWQQeQ3CfldjOMGdHNHbP/AKbrSvbLVUFSSZx+D//mjrRWqQcm2of+vqw2Fm51lj2qQtvMYS0Ewwf/DBJk5RIYhizftM+ypmyYSH/Fobx9c8QG4ufFSMxvxIwOg8mi5U/rIyFftXgWSaVriGbND0LHNDNNvwrDjQZY2v2y0g6HIRM1LTxoZmMq5c3xElm/eEr0ZkZ0kMQM/WqyrjKtOmRl7Iinf0YgZ1BJJ9vMnGjW/BBEP8s/gyWykjgxJGfzmvyeAXTddjoBRywaj5JAK5H1P0qRcjBjaWEjIZ0MHFJSH07bodcfoGiXspIIMcteqjWchbSxVXL9xGnsh5/DabEPpxTHmSVISke1J83L9hZTjy+PgMMMRRHZH/3hrB26HxAgG0aqcOovheOvgk1LpcOCLct1B4IfBu+CG4baLFExw+Sz9Fo6rDxo5iyeJhxvwI0TfFkS4HDSDt17l3/SZclKOGKePtF40JwtNa+C4PsZfpz0bIaEgwtjL7AiFN2S2tQJiGr1IvchYEvHI7chDXE4BwefI7E/JSu5UAwrsigfLgdPJPV7HIqnU/SHuDN/lwfhkd25NF22sR8gvQoitO4V0UKCHJb/4DUc//GqiFknarB5qVRUML5KoJ9SWf8hb+t2FtOHiBkgevC5ulLm5dsPKxIumTSeiA1LHXHYSzFkK04h52X/hrLy9xuyABPDlSeMr5btjpJAzXgjJ4zgoF1UrDSSKCFl0NoJvBYPmhN0/uYIRHU3uXTiyElBZMe0aFb5tlh0XgJEKbBWSUmQaOOZHExMniRny4TemsmIxwQrL6iptGMZXkzcnTvLyNLAtRESzrhh4qUXAt10vg7dMSOm26QcN7iAOZoZg5VndVDU6sp/yUHPB0sPGzouKsqUsXPvjnyX6niSzIWnxAX13xlYzhG6ihN/vXCELEWIHdeiERiAnnQkJWFiSDHBZqZTsN3JcDWJOnLGh4/WKt9GQZpKFxJmBbOQHdcyJ01t2bx0oi2BTzGYpWJa9fThV06mA1o4LhCA3jAUMU2ryTXtjhtP2e7dnM7dXhIdS/JeBg/6mYJXYW2Ga1EcPj+wi0hrwTu4n3UkQkcXUCIabm2xlxcJpWk0twOciG+fGIo4D2jgl++ZXdhbbI90xlcSaZ885QFZ2EnxnfnTnWUlSVnZ20xqT1qUoJkrT48LMPP7rYIlaP4wEkz2GGRp28P9K7WA8ubmn347FJFSkIFfvRdschqsdFiyZC/+kkiFnGUE8VnJwSn/dRXr35CKxePUhSeAOVYsiiciLplo1O6nkXDK1MK6lSXoygZYnX8GGiSlXcRsMSqyNGjzdeo3d0mmnGjjNWBVgCzIvKR0E1SaHFsPNDUpmfkBJPrTWtZNTmbpmgMhmhD85gDN4SJrTPZqmwUfayB7UzE7xymNcfgakkwnnTUnBMjSxy0qpTiqM5IsXmAzElAF1GNRjzPxOJKTFB8HNGTzN0tK+wn9XUzt+3pQyeSWl5PzVGFnkYRaaVPCJ1q7dUo2MszDa8IDa/HBd2yCpUPDntRlLOlKocjnp2o8TSAn59X22SpQT6kABOjcsP+ApHQoMaSOYFNU3+WHBOZtedsM/3u9ZEmoxn9ysODam6bUF8vKUIRnbJnfEaqeMPTus1nQ5XsUrWIOR3OBM7a5rhskCcDDBXBEstsZctLxRFFeHHGxxxIHrgNGqSh3Z7IiwBnG4pVEv8xRMWXc7vHyyDh5bwRLHYdVTouxnAeZZnM4morduonbTnx0EwFauqlM6SvvesZddMqTjjI6wGgfSZK0IyQeIihxxzdrLyMZTzrC6BSj85xccoYg/MMUjWFtnqp4ipIkr0lvenh8D5pXVygq+VDknTj3bisR/E+mBOeGljrlTDJUtU8D1XP0TbqTBNYsYpsXVSxnUzvhaS529mDuRGQ2AUb29/+hzFnRsyXNSIz8OxVpOoWEuE0ijvaRTiVdTbjT2YTZjo3pDatwZ9KD5iVJSfojac1SpPAkmTvLXHlaXDyJJuUQa9EjuL4TLLRS3TzRtEpt+0zCrEuf45+gGA+kaKxiFAm+JeFnazH7/gOPp0S5E9wOFD9ARJ5FXZ76a/23k2Ek7Ag9A9G4dH9/o5/yoTzpUgZFDHMmrMFceHoKd5Z70MyD5p40L0mKypUHHnjg8p60GLYEzdx45iqkC08omqjnI0qv4s0O16G9tJxIslkqe2s3bHPbK93kno0Nxfrs3FHodK2k134c3GDzVDp/PbcjbUCbK4zz5OhLHZNCxhGnGjvROLWagOOv62IGv/I4Wq6CWj7+jJJYXyV6liRplbM8AU3vdhlh0zSefelbMG4+BZYU9BJexI6cwjJiW04tOKwcBQ/Y+VvczgoRAez9UBQptU0h6aAnCRAvh0b3TIp0mpNuMvhcQhLjmFYtj6aT5NqOnJ0yVZjwjHCbK6DVnTyUkz3XPZMEUQ2zwmmJRzLQVx7UKgYsXpeG44Wp8ILbBTEF7CQ8CZgg/ABLXPZHPJBXc1IYx7P/zwSIyv6JrQ9rYelA5Gxkm0J7fHtRarIX8C/2nGtgcqUs75yU7Uf1yJv+qE24U0POmhXt+4unfyKpvxoSVPGM71AKb6ayELGd1rD/LWJdXpY5h4bjQ6rkqtsVmcWxk1XAvIIUGyFlrEkyitZcdYSOMz6Ut2HT7KNYn8uz0PRMndC/FF5IU2tdUcQYCTv5Nr5QC35/6Z8pIzoSGt+DXrJkq/kUEjTNRLaZ1ZGtoKGtdzJwvNUuuet2ScExQ1fAVRvyM671H1m5CEvWJGnGJTM4n2jdlPVh8Y3L+akiGH7AaoO3Va/77PXYWR5CC6ODv4MjpqIZ5VxTm1zujribW44MwLCzAgxU7T6J22gxFJJsvqsMKM9uSGbB1kfFMHBK1BHTdPH4O3rmfkqOf+J/nKbxvAdsG9Vj+U057iIQTjqN5TMFsRoNx4t0rea6ngrReV5/t+46UIsj7yb/PmScTeaVUxAe/soSLbuv+MBK+OccZBONuPPmJSbRZPU13evXNC+VaPGcIrXN/CHA4QYIwnjCv401a7EUwrQ34Ibdb8GQe7REOytNGfQ8xlwGYq1L02vH/KoXh4/GHA/WbYobBdiWUwdLt6yzPkqEw430QOc+fem5Omu0eKrod5TDqfkXdxVsUcQwBFOiOAaOxUAZtXDhXvDvmoOZam7K2sapiaXbGZ3g+JAue+paID4GoAbsL92gFlLxmC3wKSHMoi0RI7/9H4um51CYibJnTa+OrX+KwoPnx0jyxz8YjRjzam5aQ4uWDTL6crlthaQRwK+5tLBqF2mLR4mGYh/ytESXQV6956Vmi6htBu5YOxb/AOsadWeETNTwXPONaH4q9F2sWtbcCxDjcNP2GYXV5tsgaFeijYPPskT6Kk2t9sIa9VjVxJYDAwUdkcdG4IKPrIzPoWxMc9TJZ2PJWGpdghzuvEZpJcnoRgY7HWYYWwq0RqzdAVLZ1TicZlB7jy5KxTMJOiJSzPCb8OpK89TSW7JgVEvsIn40/fG7FsnuzKitv7oLDPatSMTYNoolYhFV0PMDUFPqRDWDerT9Ak+HUYXOuxSNgcmJaa6yY64Fc5F7HxqNF+GSs65VWvcxiqvVvxTdPy6TMrc3FLux+eZl1ldyMS0snjubb13TE934Gah1A0w/Vi0CX48vbJc2EKnmcbh7LqBMYjs0Gg/Uxde6lmndnlFe0cvBNrRFY6bWRr4BRpHHqD//Rr/T7l6NG8O/uXMWtqFPyMuNXCeT1atW0HQVJ3tGxcHXixuohnQutmuLZXYZvy4npivcz7XOuRj1dYS2sFMfntLEuD9tFGd9R2/99HU3MIir93KEk+fmG9NMnNHArc1rFnV78wzv8TKqZ/tetE0RxFlV2UYtSwVxRuGtmOav5hJITsvUAYWFD2DiR5hnUm1XpOm0sZ2/zE53Hwk34mu17K8GDYWbPBtn+lVwjvDBtoio/4ZR5QjFG2a2UlsTD0E3jaa5xPnzuhRiUkw9UJt3wUKXM8yzqSzehOkE4X+2m5tvFlA9ICSc8/d4+2RjgN/IDORqhu1X4CLAdEELPLwJtQupL665i9jRyq3TOj/LGj4DT/ZwLokwHVMXVFFnE2Co41maFq+r2bWxGzxz2heP9ntK2kHqOc6x+6fPZok5dQ87UZK+9QfNohtEuxDxabCMn0ht+yzbYFq6cvKdAH9NR7NKSXKY7Sw0mOYCfQStVYF+jKkParXTnDDQTofhoMfpm5cFZZSyb3znXT/56kK9O/9kmWvPrIX0Dq/lmGNTDWwzs2PdfSqbL168whgapBjGaUBLsOEPvTx/BOY6cLAxllCm30MLIDsiolmjbG7D26m5qcCZNVwa52LqhXL5FHo6mWjD/MCYFKXmoKVQauttoFfyxz+w/RL8nFi2Ya/eGIZPfFWObMXPEUE2Z4glMl2zUfhk92kLLpGYjLqBDjHjwPSx2XsNfzwwKXan5eCK8NNA9ppFia8O4Kima7En0eWK0QvEcwlBdDs6WSCq0WhSs1BbJdTmctcPdEV3gRr59U1MilROn0nCB+ShATMFWthtW9knYzaS+vZJbcxtlSeE6rI+u8yJbeYHjSb+XS6VJZt6otAzLokTUFkv415WJHOieUnoguQcMOuTCLRwo/boz/RRZzklrzO5m0sNtxGxXKvTRinwKQ6jHNrypVL2dtq6gs6O9qzrP2qOq/+pfjkIq95cWAHaPBvLBycAty5DJrUIfrnCD5LxQGzAWo21mVusWnhyi8Lt9Cffh9kydUaJEdpTF4s2wy+U6pWDPPZq8EAkxgUmVCG2jTnGzoZ2VnR8/dPaefZMV6hD2YN4yuUgN/zYiYnt1WACLa6kS26Z1Zm6o/YTjLe3P9OUKEcLipyzhKyd8Y/8QsBlE8iADiYjvRpGvf15i7SEOym6LrOa5iIZsPZnYczE56fBBGqoREtu5UC9YIljoE/xuA/3KT5FDaYvdySf0NEJhhFxzMrWslED1RLIcTka4J2nxZHyogWcHLq7eYZLRFBUWsI9aJ2ytBlkMMQe2ZZTC8sCockajPebv5Tc2oCGqBJjJeQsf10T1t6qvXSIx5V63Tr81sSJdGAnA6wOv77m0pxpsWjdaQL99GHiLL8tOm9DDH9S+AQzIkomUvBVDE6oZSNslHF+8D+PzcU+QDnPjpG/5t4wLZFetNYJfQ1YxG7N1rJ0xyiYxyy+zSWTnJiMq33BD23JXt7UgW3E6mMluGsWLcmMcx6NViIAmQ2/ZlP68GQysEWk2S6njB6HTYtGm7TZZtK3/gBc2zqOnYTgl0rNSP/a0S3yGbCIHZ+sNdl/W7IGc4f5W+gtf7nmArHz2p06ukjr9Ju/9X8KSF/2l3Xg6KDB6jChooOeSNoiErzlxEkGNmJwQ7az1FokkzaRmkGcwuid5Unx+fXcKy0RDhOhP8+ARSxYvBVpYKdCNZamIueORm/l4Lxwc38muVsXt3CTF0NpWGefpLz+HfZ3iaL/IzR0NTEcgjh9U1pCCRKQBR1j82QI2vAVCO62/yPNMfnjH7JnIsG56fLJd4djqkwKPDL7KJ8OFD8uzJzj20iqcZXQmtBn/7Sujd6qQIMUG1b+Y6sHbwkbI7t48K9AV0lxog6qK0OXIW7PlCYrjHe5EZ5Z+Urx00oYWf42eayblT5efHQWujW+ufwsu336bFXnF6yBi1ok64AuvF6gCQMWQVfLAWFmaTDJybl04kqx/l7/8YawfcQhhK2/sCtHP2mgOuUJlbshZjgbfmGic9AvaHBFbaxh4eyZkwe4TV8k6rZmksytP7xSFQUXnMjqKrHl0P5bf7i/hS7qBoppgespFv8NWmLD64jO358PJTDHIKOixcC2nD7WYFoEArTsPt18/P+fbTjnH12Mjwa1efTJOL7d9tj9vc3flGhlY2KzwFflr570jJpisALUBi0xJZ3Qucs7SvQJZmctNvWrnMCEmOpPpxKsB24++1i5jWNt/svGTDu8MMB9nEOBE8B3pGT+fJPqFICRn4hMFdsMdiQlDP7Sd68AboCWuHad0a27HW2w2o2VKFrhHaJXqZ6/xpX46K0RZslw8b3X6LU2plqGO40LZiFi1hSXaBBLBd2poUpKbftMYCobxv4NGR2iLJh1yGyx8rMdWhIT6wKdsg3dX9WuoRZiPP12NZZpyt66dFq3MEy8/k7dwcZaq/Y7sJMLQ3sJBakAVsXs2kZaobDsWc7yi38V8+t4w7t5TVUfJGfaFTr+vWgjXERtLNpiExpZfCig9fdhxfQizdrbtm3sdecJ9BPKyGkKDGPeixIJjK+hThr57Ve6ePKdqMZMJa2SdJSlMf/dyFN27p6WpGldoqPcofvXW4UqxNjVKjo4Gp3s/lwA2d0ZFhJr54PbUMjZr6E29257CPOTBoZoryp1RMk4hog0Km0EhEUVrBn1xrLznWi5pa4pOC9IlwFfnniswd7jcudr0FjSprntSLRe49MsWkoFlQ2JDpxEO4E+3XUGc19ofjFDrdRMwcKxkb9OWevXQXvrkL2xVWhJr7RrdOHl/AQZrH6qJaipEDo5a3ElkFbyM4CBiNq9Ytzb8KiroImlX0D5JqU1FqiG1dgd7uFeZ9Y/CMYrOS6zsXKeMI5ZR5SbG6Yls9Ea6Pz1eb/K1JLz2aQddkRoLJF+NSAkdBg8GY3Phm2YtG6/jaJdIBzmWlnLPXvzhoqp/5cfNC6Sfx3nqi1YatK/vlM/86xmbUnNLdIyWS1063FHYinN/GfHn6TGEmhQNVVIawPqRRpPU2gvFdY2XFqz9/oUEkKdZjB3B4GqbYGxbPtw8Uniq4MohFvdiNk+Bbgsv3fm1neRZCbN7We0ZI+uJjq9VPDr7bNcs68B0zHA3/DY2z4LIXc+/PuRR7ERiIdTgFA7AvMyL2jNbw1VU6Q6ziOE2ZpFqSApitvSrLpHmflwWrIX6Qjj623X3OduXRDYu6wJBUddDC0S4LZKV4B7G0It3Nog2PL2jDutUtkEutrphy/zELwf1bAaMn4+08RXB6U8ASjwwrzjasBi1MY2M9DUITPLwbYgOjiQRnT68sCMduWycq+zkcDHKUCokwxDcilYud4d6qc893uu+vmx/EbXGawI3R7zwJAyDi0s/Eo1tAgrFN8v0CzwMWbeHRf26KmxxFVyQeSOZ7A87lq8lw2nenoiABINxnFpXpZU0G4NVdRlH97aa6ePfxiVARs7y+ZV0quML8P+xmlbijnrqqnARedZQefvcvboY8w74i/wncKdWhWKqFBYHm7HNqxapjtCzOjeHuv00u0GraGWGuHpWg1eR/gkOwfjRHtedV92nwzz8Jpq3rTIUqvqCZZJe1aKtqbsfkY7omMWtCMNxY93NV5U638P2LYFG15lMr+SXm/DGiLYc6rtego7ItU5ijhzWuuYlSYWkYNf9GS/Ic2zJ/3f/WYY+zeUNGPRsG7e8Bd/joqWecYcKPFCZRGdMnc82LOYFbqTt0olZ10UcxgkT3T+NsQcLqSK6Gk3g9VW4C9qqLK2sgYm38WnP+RGiuJpn5c+00yPFxCQx15nev597jPjvaZz8WC/P1xpp0WFT8cos04nKV0/+YqSy7OKntkB9f6yxzdgM/Hn4sKIjwMdQrJSr7OhVktooSceB2vOLnzOaegmdXPzDfsvz5d19Z6crJASfx2W6Ql3gD7G8twpbcHFEagB6cmiU3ew4eaJAfbDn+EUiGkBVs6ZmH6ilUVrVmXegJQ0TEmgVVboZEgePIKR2PZopstB16KhxOQAW9ldA+TMNuzqxB3puUQGa6eBz2foJ/1wdvuQE5NyRC3t+aEh6qyjc9c5SmdzzKY1lGCr2jIF8tdACpuHDb/q009qkmYYkREQghj1dJQOp5mV/PEPkcQHlhijIyagM1sZiD3GPqpZmYWkfH9jXSCRHnC8y3E4YCW4g46S5i8m6R4QHSWAAcR6JGRdlEQGoKDjqoGz5HBQc91TMch0FfsMuSuQrS1fXKd6B3j3BJjCy8PdTcvO+oxFrD23ceQwP/dc0DyuqDl7a8ueVuZ1rkEDnIBxWm7fiLcjFbUCUuopRnz7zsSY8UrYaOa06+oyKoSEnt+xXFN9Im8UbRkQyXEaFP4d4xFsNEQr7pzR/PzNSv/A0bVfA9a7TWe+YEAz8tTzrbvRYW0YiUENPaVDs/tREvsgn/Mo70pJyxA0tuyvkYHKtpw6miifo6FEB3GhpM2D0RTabCC4hnUreIyrn8Sbvb8pe12N30I5cs1kvGnpYgabP91Sfia91ZHkzDrJKWWD1ivTuKo0dO4yg6CcI0Qpap4RFTYCJdSjU00Vyx5QVJ0fgvUF9cKdhe7sdJDY/LTi9V3SYuCaijDYhJbJJawN2BDP+BpaXihX1vuuM5WMaVKSmCoRnVkK1giXzYnKxyxrlYP9Xo//6i4WHwIQPhC2IEqGdct43Ci9aYKvt1YmXXk6A3WLC9S8Oko6ymBd6AU15tJXlAowJdbZ4x8iycXcKUmZSkXHFHUiJm1sM4s1ksYS/oYb8PFEBkRRtAFcVh62x4QxVOdkz2sU0nAWSQkqKUt6c5WQUUkmAEB2np7QVzpl5lqrZKaeKBEpyayGzL6CVGHz7WeO63eFoC3anxAwXwHiLCejZ1AfsJlEtYYyjOruXFamwDOoImg35ULIHWdkLCgAEk5t6Cztjv3fVm865w8U4Phl60HI6PxjfNVgL7NFC7Ia3+t/1SKahAYQ7576VsmgLGBvElDR9bNs0ojLPJy8x1AWjTa4gV9VyJKwaugtXUir5MmHd32PltxV6OjWo452FvP1jUwsUiMJ9aB1kHb9xhWaEMu14LratnQT1CmNj4RVLnvzunYYV554kpzwZf+1+S+6J04EmFcFTGrrrbuIBHAzeZqir/4MRB5UCk8HQCdmZqA6o6XIKF3bif7Azd8LB9NLtcbNUReFuj7jDW9mczhvyXZ04xnZ3dMYJ1tTPjlIJGJ0BZEGJ2ToLuUImHBoYvLUbOe1KGkqtIZoVuxsMptUu4CNsoYPUBXxnpdCXWvmTOZHwsunKB68h2jgwhOSJiRamjsxkSAEmPKwPoCJT7Mr/q9Bfx3bnLtm1rqk8THzEyjxgIVhy74aYcM7UjcLEcWfTyOZ1cVz/BAetcugpZ31k8s4GC3LY9aOesbKMB32B6Pa0txfcZBBLjqXgtNAEhOAqdSMkcwE0l/q3+4Dr9bMLrTJ4t7plqjNBGKUO73mMhukyEwPU4M4IzUSH9rvwUDKhITrzVRLzsoskqBaHHYj0Txx63kwCIQwKrYDiPaP1RcydJhS23yhKSRHrjxhKedcMgidnCt26mCxrbxhZlu0UCPQO03lMtAiFQI7iLoOGtrCWJ9XstI0HQfH9PWu74x+/8aYL3/juD0rWOoj6DEiJXf8O3a8q5KkEUApCVKEQod7wWbbL5p51Qz05BrJPl0OIKEoL9zaaJ8hrvaT7JTJfo266eoTAzJWePWGhcRZqx59goMXwwkx4r4Pd64d1DGOILVixJmokfx822dZmAbh8359QWMaZGfYpuUXa5Sv/tEeXgv4kv+FAULakGZ69AnmLoUzNxeiJMpZOwKPycmsMk5ARo0CsHdioZpuN4D85kF5uYajMV6Ek2G8Vo/4Bg/J/8Po+mnoM9UBeII6h3u4JwHnomSF7Ug8ZjX5mFMK/KBlbZxQuCvP/U8bAKv0Okp+N8lYBX+nYMMb7x/hDvOGU2+G7GxsnXbkqdk1y8mLT2WUxNUDoue3fSvyhJmpkaQWcHnIHRRASv2kr0wEa8W3WqekSMrxG/y6sm3fwVCPrdOI0sXj7zS7ZiK+ke3VU/Ll7Yg8ZglmtFIAjwL1jjTcJabWSE4UwFKciZI0+key1yxp3DZ7RA+a1blclpgNnaaR3L6zUgXsOTP5U3shiVTrcSdAUwjckvlMel891L2scmRMrey/FlEBZx6TjlV4ncSgzh//EIWquxY2EOXnZcg2DL2m9A6vVaEpJFtJ2V6SknVB0XHtjCXZ5gLAqRhqa2udTK0cOH3EdApaB3XjSEEKnXrQkzLkUxu6TcVmDxj+JbqDugnNFSX5m8NSdN67QU1w2Ud5s0nFTHQk8dG5PJSDp3WwFTrF8Ei5jJMdKIzNmXV/qcz3NJtlEt/y2ulcbgWDrOEq9ZtWhXgTp1ixocxrVvdQCtbiO4LmEIZM6cWbyzNWD40GegQP5chprf1Y6L7D5qWjTXsy+ZEFbsCLje+RhpvoTBKuJ6Z6x+nwIJAXq0UnSNRMtGa+TaEdNqFNR71G6y677ToTbB8I/V6FZ3haORbdjqdKzJ6kTcXrfhyTES6O9Pwc3OYPplEU/ceOpvGs58gW8erD4VYrsndJlPjQwsA28YolzNtEiG1eVCkAySvxtHKiHSaJcFNk7oaO9fiticgRlV6rei4NEKKw8p+JHfvVd1sgp2TE6fk5ypY1qUATeApv8eFlgCIWaR7nL7YE7VuuQ7Xly0IlET0Rz0f/PcXJ6GjLnrzHjfgFCTpoD283kOZbfUBM/6GvfLcivBXMvxXJsucdYgmPzh4d9KWe1jQ4jQZyF0/E0qqJFN3XgexpyPx1NpA+LvzvHhskvXkcnKeegxkbO56h71QMYrqUzqx/EDYap3TOH1AHOc6g/4XWIuZBTAK/8g6xbCDdC2dp1XR0R2V2S6ZlZ6U0ZzqQ1153VfyL6fD+TNgIzQzCrALz39nkBgvprW3fr7ux+YavVTatkIOeEHUGqDOZxMwWRDEaSGxELK2abdGTTqRXSmZVfkd5RnLyap90K2BZW8JHYTsTG4KqqL2oMfSfnkQDtCg8IuWNKYnrxoHO38baS9naynZ/Tw0kUEs1Uw6qQEue0514Y3Kn+nnpaBYthHsjfOxo2o8R3qlQdKIxE3z+aEMHUipkiHKvOGmUktRCWdC3hITY+WbNoFud1oBMgF/hdhytmm/Je7ozSWOppDO+Njq+UxnSmcf9kGwSIFa6O4oyLLNg1E9v6EKN4PrOgyP+/3BpYYMS2owbZdbDg57fXq9vUbaZTRrIJbKM/in5DzjM6vj0XaeY0fzcD9l+/GZ1dUTjHxDDqjc8j/RVDZ2oQyPyBfjthuNnmnX2rEwUHs+LEHKuvjZOTcx0udGvvS1blsGKyPkCtY9HyklA/jKT8XGJShJ7JACpDwBWOWn34HdrwplNfyH9++SjYrRz2jh1EChMSq+2G5luAtWHvtosMrvbE4ov5bgvh6O7JDY2KjdHRxfeIHMbx7ZJdkHI05H7rnvAReQYHFzbkPdvPfl5GF6iDwrmW/axPWj1CEPEfYsQoJd3BHyUQcfWNJv2ZICqV/E8sAaSnIKjVWKnu6ZlCGrnhrEoR6k2h5YJifY6d6+ETGqdDhflzslgwTTsEZTnmmxsQ1+qm5tvIAP85sRGbZoOH9Z8LGLpyABw/UpZtXvEVgCQYIv6c/RP1TVokUHkZm109FHm48XjJ9CLpaEGowynl9rd02fU/0+dp2F5o2YEo0b9aFespbEufPKTaoB87wcZLVASbIMPndkMMn42O6JVfjpQ5KNpHNOW3srQqpnoWrSIR+R3s1GrVFSSuLALq95E7sIoYmT462jTvGY8V9Rhgbil5v3+yIaSdPOTy7TWgey4PUoiXWNER/nY49WpZuoaSGoehtaWTdGbmkRFI7Iwa6dnWJK5qlAu69Ybg44VcigcS3AVPcOgq2WZoVe1zRw0QJuZCxUHpiQqhZMt3gqQTah78NcpiF0HEiSqDSiean4l32nwH85FjxuXMJklfkBgRrqymrwRrQQdrVvq3S8W98NtxdCzWlFEDdChhsJEr88fUedshlOte9mcwYkws0ww8C9Pif4V39rymUPX5k+JvCF6qoNE7vomkZBlIpmMYUSUxAMmpt7M8++/2lq5NPSvTqcRGg/T6jenTe00KataJEMmBtE+qpmf7eW0Ga4XxB6yEtxRMyRINScjUp/3PNMkjg6ID0e4splmemkBH+oZymiCsit0a9SdF4OHJQf9MsJmuM+xdp4a+lkvgxk+89h4OAslrdvhZYvPjPTSk4+aM7VGbL/GESSLwdjWfNoK6yZCn/AiT1qQjFIdFdD301QiUk2CGCXYtaAoGFuRs+LJHsJJKclfHS96j8gTTtLkPPgbXXSCb4P7LPEFRNbvN9SMdn8P4clhxBbAs46f0MVA8OIbxNRUYchXbwg9rH588f0mQo0TErv5hSruP4u6gCSN4Fs1m6I72hKx8RE5MDU0jUTRELSoNulf36mChht2NRBc0rtivFVpSBA2ShrUHzeL8H0TMnnApnZ+tZ9g/HjFKrAhLG4lqVdS8Yk03fkwPWzSrzdPQ7Lr3zn10PYeSbjVDeaMVTEywtabJOOu2NH3hhy/SNRQvUvGBGm9Zi/4wdUlf7RFrp7IhLSM4eodROLSs5opE5EWTZOy3Siuh8s75KAhWlQUYWe5CNHhR88PhNi+4lX7mLUAiSvlwilFoq2SmguNGjZa5omoH2VXTr7DL2DRWlwPBA/m6h3QzL+dO/6hHE4AFKU3ypsA8veHnPvqARWLzQloHBc+Au8zjMn+4nmpucLrO4jA9ZaJL9lIQy4IghuKqCFaEv9q375WQp5RADq5MORT1LpGA04BNGbanTsdfrRi0X3WyayEaLmPehFfjwgIrCpGW/iZm3q2feSKIHjHXg3Rg3MPjHxXxCmok6DfBt4molTItEjjeDB4a8tliLZO634MTZ5BRQXl2u2PFANeccucjdmVS4Lg6WmMTsK7tgUN2Bshmd2KIOfI1oC9622jkkr9T84U6LJRJVb8GUiTXCQyJiWjv3qDhraogshBf/klXRMEp7p5gnJqk3MHiZDar3w+AYBzYE6cWHUatIl2Ko0juzOG4T8UCk9HhDZzax9AlV11fP7no+zZ+IEuCqJ0/eQrjVHrWxKvSBcTemTQE2iTwUmdFe79AwJ7n1yJRdO0OUYzzBfbOiLwF4SNmb5dfKQN1YqL4pLn6jVGG+F5cyQfMrwoayG6kzMG2pAvT5UL9x3YwLXN5T52NEvoI3INNFbmdZSTrBGm1sJIFIQnLAmvriieykWhmaJK2JjVVPhxN6ismgLYMzCBhs0jGq5xJGeAm9oapYn4MKJx06YhOpVfsZ8GtNJghPZKEXaOq0KviHKL4CRQb7tBgmOZVQyF1wNmKesYaoyEPGQpAsyZ9FO3ZQsPjFRTOWEa/w7lJGvGmt0BlwhVbZmLN/BLv9o5RSWH7KTZipXmkJZhxKDTizU4kZnlprLpT5juc0HfV8KnyYS7oLEEZ6VsYklEf8H0aPsFl8L7rEo9OC8bVpFwTUdwZYQkje2IWp2/ot+DCss/ER3HeaJbJRlNZ4c0ZqbjDFT0c/eAi8e1r9i6YdzPLgz1ePsEVXvsKJyYgHSJ44L4R08JBiZiKZHVNxUP0Ce2e6iECqYtkz7uEJm+ExVjvHoLkngJ1IuuX2fkpa0rgyhfrDHi5cjTL0pI7uIEoU/c4HRY9S28W2gqsbBUPztMA3gSYhql6VzyQJZLJmrm36YP7pi0zz5yZRCc48YwTIYThOYnmkEqvp8khj4HjkpVVxtMe8kD7MG3YBOrAlMKRyN4PWK+NKkYzeEOIovOXppZcxBTXrThBFE8Tkd35dI5Trnd3ZzFeCEsilOlkSUZS9eiNEu3XSxrLOIMAKajfOfgVo1HU4EETlo8qGkoFtFl3pkHozh/RIf8N5weBitJSi9NquZBcxchaxlcqjubZxiTNnx4F4QESchCzwBcZQTlqs2tEGBSG+KKgVs11z7QEIXmEnN1VP11EDsPewbOiGIymOaSfug2KgfmktrqRNC8SAs/NcJFGM83nT2UTKd2YOrDfhR8UMkbDdJL07hKCsZ4+RYksPXmcZzf4WZ7sV4nB4Ut/VDejUmDQ60XwZI4NbMmcUaMhCmhK3DdScS6+uVNheFXwqrCkVkBfF8ORaO4ThqLsFYAm6ZsE6u+OJ94Gopxcm4rz62oyOETZgmgQgRwUeanLZHGvu4KmFx8M5hIOtDiBpZqMhpGlDMaWc0PjVEISmrh1naKr5iJkxSFnCtPSSavuvKEw8U4ATiPSBlduxImqNLsh3tK9D2pKwkXOHNb3QXHwIEnl1wPxxXReFwKvt71K5C5TVbCp4BKtTgzVBySqOH63FjK73nOQrSmT9k54Z/1RYhDh9oBTrhCYcu6DkaUL7hpQBzp5Rqarpi8CUupf0uIfeCWrIRs39UpsmMzsI1M/B1bELOShkcmTgCwPHLXGW1gOpLa9wMRY0aOxVKOFjo+gchjETOm3TvBtEp0ueI36epzxgjYtLrWFLFbnLLOxnkj26kyc2dc6IRUhHyXQPQKccyjJcWfAZSchMevBehUX0ujeXujNGLD7GbIArh4pdK4U/OM5M2aVzxORJO8uj5efMSF6yC1YiORLQNr5EFGdyVhx+cahg/lJWBtbQ3RUPlrxTNycTSHNzC5/Nw8l9yG782ZGU5fx0askqQQTLnS9Nm40LgzExIbqUT0/oDVg85YRUkDIXZSUFvx5dBJ6u0bQb1IXIlRnlOKbotnwb5P6a/Igm/s1HydQryN/5r+8hnx8ilc7e4JSc1XJD3A4hXWoPKCiIeoQhuvARNXztB0DcQ24zG+0U0GPhH5s2utl+G8UFw8a1K1ae3cQik3eeMi7aUdrXsRib6Am4JRc7PqMRZfKe6ExW/DTkpnFJpHJvKKSPlwzO8I+Bhy1lmw1jdrPZGk45DnFMpCnN6Dz4+KPoTPNaVMdKRv9buocq0iU7wNpRQIfjQVkQLmQdxg1NTUwrkC1l3QYmqfufQLlBsa7evU4rtaVSIUk+YdqJ9LUG58JIzyJ6uatDbg4qfwVLkcHZRyvBovYhwUZyF9ZRdUqmYesRC9Bh3jBr+6jVJ98sUAdr9h5JQCjSULfWeJij5M4HwrVL3vTCXnBX4tBgIkGZr2Tsbor14DlaoZHwKhLpqxKIgnGfz+LTYmJlLEhRsRluLb4Zz05LRGtfTv6TlwjesEfYlrL/ojL3je1p0Z+nWS93DIAHe/cSqhb2DbihwAa7+wVE6fiZQf/C/wh9zfwY6paq50Y+v6wD7vOUiZSySH8Yb+sePJTT4hKWa+vIa6FwfV82EPlGQvLj0BArg8E6ik257KJXYLZ3y5IdAahGJZ6qhTW90J2SxrljVG7rjBPJ3Rj2nsGqEGG4lo/VH4TFodg9olZXE1CzCwIxUXyB8aZNY8QzSPFjA0rQj3RFwbi4MFZXBu4FP982gau5GcNi+OMB2jPhVa16+jCozGTYS8EXUkBLHJY+DaOgLs2IKJEAOGyeugSu9wNieSijZ6SoclVyxAvI+/ipKpBYpM9iTna1CyzSxRbnCFAwovQCN7F+qRLbp2ERmNR7UyhhMQXBxf2xVgbp5YFAtTjcSpQu2M5e2QfLBqAWRRQhXWl3G5sm0RCDq8uug9Nl7PELULArqNKpS/FsU4kZQkOQR9YgXSDUoirK27BuE+O4jh699o3LI9VASHwoVWWPYXOrya0YPkHxJpDi0kPqXZ7DsU7Iw+Ua0hAfCg+dwcEaUxhwjiVc8hKPm9tEjn2VGmakhXXYhSNGtgHfaAVFPRjAqSReQqoEclrtAZHafqHKf0t4Z046nBk95BM9B4MC2cFrRQuAcOglN4uqPE3Sn1616w3gP5uZLnCQ4p4Bpo1tfE6MtRf3YfOM9fOUZx8eQ4USpiNDfGiigprlYeiJmxukxti1IqWCwYVeEiV4X7DZP6hWbRQhCzA2M5axzYjl+t88gxKDl/Vy4NYZix8T6qUG2zWWCg6BTfz4tSHT3JxHFt+LZmINVUmUOgGEktTX1N4EGJDlzc/OucR6aiw5Pmg3G3oOiIDGw2WCgXjsI8ewmPngs3a3v597OhcsuHkbEP6Yhnm5pX72aIUi7JyQysAXXwW7FK+swmRE1C39Lcdg7cznmxB9rqDIlPj69GdbNwC/Xiwj1BpomgVzMTU0KlSWtTpATLGMkzoG8Fm3ca6ZOGytUN/mBpcJIT8cr4WlteSuL/1EF89G/iOtcfRvaOaTi1gCdYVzLV3ExGTvbhThRBpXR3O04jHiQnp3RUe1BpcKj9smYqSKA5xHS4bz5IgMaVrZBouuz7rAku2ZCrAgfExvwF8kw1luWOir9AtaF4G04jlYnpNiqxO8Hn0NpqkxEre+VtF8aCfM7fVtWk3I1WROyagHPx9MqPQvXlQxsB6MrJdwFqfuY0QuzhwpNkc/O5bswQEwZCDW2JlV3pUA8nUArhigdNNEGJsUEHGt0ATkVACyAxVSr+WwCmBf//Mq/POeT+yUepunNp8KnfJ8THoOyVvKVDFGDPpi6ZLcg3jbMWD6xmVaPkiwjb++SaABe1VqVxX6jSxPfi7DOnkL/bvxzhKNVuo2I4g09OWRALJXNzvS0idS+myKEgEYMScUYqsDFGg22CerYQoUCDqIRX720rrAgM8NuCP9+4a3YGWStLHbRLZkW7B83J4iDo5iYxOOXYTL97XN7hnmCOIb2XJEzWDZtBZrPyTiVdKIxzAfo5/GM1ony+StN4kgI1cUCPt0+cMMiynOSzjqghCS3k/Dnu4kgWKgzmxQ3TkvB3HyRBP1zdm84OmemhUZwE8L4UihTDZWSuzvSLvaWiHEC2EcIiytO5giYO1sU5C4EZIxeeGtzC5vh7t06/EqxlgZcTKAvraiowCmKXZI0XLNoGYNwGMoOjUkQfRfWmTO+3D8j/Axek9cs4f4ztZdmxsfRLke4rGrwS6cBiVmKcNo2WRUiDvgGDkj2+kbX9vzWKMFvA5wwTQ1SIMUD/PEOiPPVblKVFrroF3YcCHlTW4vYlvDTPnjyxZuM5uf3l0P5VfGd5yB4HdmebORxZ0j3jBkb+ejgqkdNiyKyHviQH1uy9oI3uRlmoXqbTxwiHJUmubk0EFraYDX4/Jk0S8QXpYYWGaCk8UD1XBG3lTPa2RhFiCBgf6R/LoeC82aEFDsCcrVZO/rN0+rhT6ZW0xtfk8AkXnnCavpkdV6gBWjwv3piWHy0RVwK7syNRSoith5G/HI6y/1Sa9UGNpzAddhZEk9+C08eOvBFMhflNTKvm8zna2mv9GqLpi2WEfgaVSIQO0TAoydhYBNUWAKvhOjLELEmkbTFkNW7tprii69eCnWId2cSUmxXj3ruJLYNHtdDNzTewRmTiNewrSsHUZwHJxAV0o7DNbJIQ3EJRCPdNC0YbkCGiGOoBi56jvv/DlBdh55iNSO80a2/ezYFwyAmnCKvGa1a9Pn+ESm45LNnEW5MKHSQBiwVevinFZlcXikCLcPflSLQsfWfNrJlNRcqpu2C+EsFM5teL0ZpTGPyxIloE+EsozeRRRSutx++rRYJffaVR+hBlGbDJ7gMcXy2Mo7Bz3nUErYk42XQxa+VyRhOEVtGENlsdVy4N7hguM9olmA7B04Luqmn5HLUIrBDmdcgaZTvDmtglWE6xcAYh+mlpCvkgNLMatg4TV8XFUwcCzkjEmr2Xrebo3A2RbY+0twd3y3tJJ99w7TiOxikZn3+pYjyaRolohKLaF+g6gJWfEMem2PEx0R1ro+th3rhJlupMpcOSt/ETI0y2Mcgi1PB1v2clXuo5eVRT7I8FBZmuylUy6HyIslD4cVoVrEd9yf3kMWfAGyQNmh/vlKCZHuagJmnE2jm7zDViVP0HeCvkkPr2SSvBXJkjdSNoKscylFRdRztaaxSZVYBzPREohEviXeBOR99x7TyVJklgnAZPbPIJIqqXBNR5jhjMWdOmJaZEOaKWDms0icgyAeubhiPsD5u26h9LJN73XwF40xN6C9tHc8O9Pwmf3fDD2kRaFA8HkYAqY6/8K3RyHlrSK1UHR/WQQGl1MnX6cHTRQq//eC2RRH7gkDewqnsuPNW/LN7r+dxKnUcuiodRJaR2LkBXNkw/e0pyPQz1iHp2WMWg1dOLuh6Yq+niPIfJVBzPXwAiqJdL0HjFnWX6lz3y2PN139/JnrcIemuqQjQ/drGaOhx7BRXvB280SrOVxwvlulAkDII9p5+6PeZuUDd8QrZmRd4DF+HOXK8PbNEdzjVrkZvrc2oqUvZjqiYf08TpD/MzC1buxkq8WqpCPXIhOvXGa9hsdYrHT93LJ5GcfcJ8mBmBi8E52Kt3gsXQTGiJ5503KhIY91tuYK7Ay2JAPjKxo7CIT3AvIZbCNUDJ9XNCr2vB0r3cPF/pSuogqk8qYXWQBUQKFoOR3/6PuVOPqleSxTWhllxr7hbmJSksN+U3rsVS64w0QG3ak9fYs3Qv9trN0TnFaKQXfUvgnWz92ILX1V+XVauSBIa9+0YtT0ycf2AtRAcrT8Afa7k6HuTd6wG8GLgcQ+/y7ZQDqMWbmeQn+HsksGIaJ6ZGhatZUzukrCZzhrmqbPPcXI71+h5dsNktyoHTggn3bQeIlcWc5sfLVXW9i2lrV5jPV0pzNOFOA4EXtrsFv+/RYAduXY7F+bIlKYGwLnuyOX+qxOBWkGLcS4hWTRqhpbmTF+eHepfNKnJ1OC0/5EQbeHsZz7jgwZFtoFBa4vvQlaz86FzVYX5rk+WjyB4O9hKySeALDhDsNbRuvy1rh6mizsYO3ufEZwx+sk8iwbWH++Qk5ReLlJVAWLY1CTNTAg4o2BnWy9WyiZkdpqcOa+rgoaoO2kWw8f2wNVzlRI/BoO0V9jk2J3liO2dh0vJesPAxxV/BHZEPLZbbkY3OxpfFnxigYie707lMQ1Dn/vvBZKbmTrOjvQaDgiI25Y77MNBps9RmhQOlJSqsyhTTEh4/NIXl93cJsLyzSqcSv30g7Gw1flfmcBGpvuWkiHeUzxxF8cSk5MBvfpUsx2gup3Va4nr1jbwE5oFiR8InC/jcKBJ64e7F6ws0RDG13w51y9AvkatUYqfeI+MY5HUnu/dhcSux+fk4XHVNfrUSUwmsHJiLEb2bmhtBrRSFJ4J1UZVPraBTqHIbh81Wx1kkupZLJ0qpKIL6yr6LRt35TJKFpv6jx+ZruU4Lk5jA5aEgCBecI8PaVx6Vk3LQvKCF8VKZdoG+etedWGt+i7BCySuneVE8MGoi/oNsZC6+mgxLh7wmUGYWhmprsyWI7eZfNNi9UXl66tUqkEWNMNRYCe5sNSvqWXZMNuyKZVJO52jeG/4JyUbfril33A1eG19eWt5SagLDPA8VnLxoVzNYGsRwyfCTJ8pq6MBo0sPZZtBN4Fmbrv+OGPnY2fEi8ZDQ+PozuuWzIOZG6errxUfUf60zlJtfi7uzAu6dWQM2Vzk1yAYqkxD36BbW+vaKNK/RTu66Sfi/b99KAXs5k2SlGb8V7tZMroyacN94kJvA2B+5NEj3IP+9p1kzKAwajZQU9RGboGYJlulZpiOucz/o6j/n6pRUtXawM8nu1uMdHrljxZPQspyYkvMYsJoOyX/vhBbQfSkYZfgRJj5NvUCUDQalnr36QpJYe2s97HrETK+z3Kge8Bm8fI4V/pnRbsZk35nu9KEhX72haQn9NAIlp+ybQkUucIfi3rt6EANXiRpgrY7C/vUlodSysw6rYxlZUujUqZw+u0iRbDPoD/zyvR3lRUs848t4t7L5Z0HH4xt4NOTDO5Xl8GrIltbVG/JHHTyxPXrLfu/ooED3XdaNsG5MCs9/qXh24YmOPWalfAX+i1Z4j+mcP1h7A5N3PAR1eIc773Bjp8uzsiUVrLnLZwFMu7ii2J17dWnY6A0T/PKD9CT83YeyJL/zuYUyuPX3dckRW42OvA4/+zjyiVfGCgEaqTfxFgdvfWN72PNKV7rSWe5hY+IskqNv17C7fH9M9p2z1FofYvJ0vyZTTwE0g1rxcJu6SJvn2nLf+wNRcYXUpVAC5M6WG7aYX4pdAa2a9/sF97DZsr41nqIUKUtQWV2Dc3jJpQZqxJ1HxnSPkzpoD3Xg6uecXKD8JPiVBxSbljtIncwyGCqparXYSa64y4pE/Uy1I0RUL9MRb9XxpIUGv/FuEnK4NM+etCXSrc2yLXP6Y1MT9p6lAAJLB3GMZsVkRyAGgdaV4NFpxRTHs2807vK9RGSTI86qYJhwfluZG8OOobVJc/uZdCxrvSLZWL69/B1kFw77rDr+z1ypgGXL7Ag8GTU0iNgwmFZJRavGk+atYcr+iYSj1BGVjcgt2x29Zpu0usbmFVuXiuwbLlYo9yUdNTLWsqJgl0QhWTJhFXAj5wRBLEFIJoLiXqTdc1irmYiiFSPgeyVxdCAPIGlIrf0u6LYkIvHVIWOhutx2WId7jUZkX64MeVLzYoESimMPONvLuyJWLAAVEmaICOgsKnaZO7sGKtXNkygCUWSjmkahVTSW16N0VGnsY+j7N2JIQozmLyKUoZqVlJw9Ijfh9Ism45PVwPUbItEGY2VbTh2F8jRrnFZQCX7ZIVcN1LFLFYbj0L6i8eDe9wy/xn7AzqVgohcKEusF1zTPnszdwHpzC7RjcL3UfF541HnnSvMRj+PC7q3mvXjNrJelIG2sFWWvETUl7TmjiTQraOwnjig8BV/SyTdbiiLWXD/bMUzBzKLQPSDbWMUCIFUd5WyeG4tX+UaiByLde5yaVHxTWL96PkEERnh9h+EHiebszeZdLkJq66NrJ9+ITUE73+niRfO2dA/GS/qrLXQ8dKEeRmB4FHrnwwgHUT+R7v2YWlHF/4kr8DtL2xHAz/NElytIk6K+LY09eTErgV8sy3I7sw4WTP2//IDGN1zqNRNf20aoCXvPDRQVZCUrp4OKBrEMke49h1ZVS9ZYNTz8mzu8Tf8WpBloFB22stLiDvijCkrryR3/bgHidcHa2rPUFNrzyG+/Au9q6QQ+e1AGR9Eg2eML0Sp1KdK9q6nTyjLnJjRWF10R18FejE3RdBEmc2iurYm0LgG5mDz2OllJAr6DShmBBX0VCldI/5XFKYPA0qUsfkDdsHuD7tXVc8MNkKR8+tXkudFU/pqNltDiDQ3ugD/d69cyEYyN7XO4ETD+tNxoRGwHAJaaAzWlB4ZHqXeOLlYGelraBOreXCkQ420Zi9hvtgVODG7/3sY0I8vBk82LNHmIbn28+EggTt6AvU1ioioYgg2doP2jfO5FUFOMZjppUbF3tjmDZXSNrfhazL3SLG5fGq6TcvHF/AYK0qxcsEk8aGFYbHVn80wMzpQN7VWebmykUbZth94BiOlx6KGSR6BFZUOYqo8mlMUtgWIAG6zV1iGL03Ad/EkGAR8+sTfANNYK3Qqitcnz/rib/YtnfPf7hb4/3pf1+nbxEUMIFl+UJ/1/12lSk182KmGr8s13Eao8X5VAfTJaCp5WXHG9cXE5aXbw3cLOU9yYZmdx9qKUdlKrrbbae3TBjxq3NN1r7ZyUx0O9GCeWyRRjVM9hQZl+ZqBSlBfKTWXpSkLRVGxIHMrPo1Un5pL5jEHcL9zTLLMyyI8GPSngLFLLfSlySTwe+36O8xHaDdozDIW9TUZXyqlH/H4fPdNVC3G9aaHS4dCSOCwdRKRHwIz4qX3MYjUfbb/toB0KgtpqzkH7A5jsaW0ekM2sswT++XjQ7xPQFJ5O3WFUfcEeDfwqNn/G1+lYurXjien5tWphzqjwx/3QVJxc0zUCIrs/kCtp9RXugYN9HW4rJ+j5lxvVtH9eiuz1+SNQTEVHW6P/Uk5Lt/VWqUW97oAvfzOZ3pw9eplubL7Z1c/Mf5Z7yLxg0wa5BnLQrqkf6TKfISfa9jjRjn7vZYaNec1Mjm3womJPqhl1ZpZ3wBlKC1QYEJXk+On5JVvuDh6Y27JVPFIHZMNb5qq56SB50bLUsCV/OztS9c8GC2H7GQmqGOMMaKR18LSMBjR41SewG6w4ZjCPj7cdqBieG1UMj9pFAdX6w7FhIQOhUf4EnFd80fX22vfIYytN4H+tvl58tNDMNUzh1bvrsFVOmrhFseEQfvpUs9TkAMuJjmdWUyzvDTC47f3mquFGUKe07FaUzI4WAGIvCCrR0/WBxH7y4hkEMAIw66E2MtOlT9SMNxbFQxPOPNMCu39wrH2UeYq5PUEWmawJUZI4Okx0O+Z4Y3mkvCp/ya5l8Kmr3HJVQ+CjgyC2UirPbrcLCeOv5D5dJ5TYj188k5ZXN0jUQQnWROvTepp5Fikdglr8+M5ZW/eQZzBgSoomOidBys90NBCp2UFXpEUdOPnZpeXlk2yeodJhYVVGO0SwOVPGtBswtZO+2yPtZUoQlRHENOh2mvTE+YqlHmKiWkNMjGXFWW10ULeSPBEmStL6obsMcYikbI+s1rTBFkVz8H+qe8fWP623HLMazLGJqSWQ1stm5ltrhhnE1KO4XnsDgtgGiZyhCbeDSXRKPdFyH1NKwqn33m1EjPr2HYtCERsJ+INNo8WaEN+/KXe8ZByNGdwoPflloyDCfctVriCnJGcjAmRKBzEvgtl0XVFC33g1IwkJB68HJ01KvQXyzXbRvT17ZDJ9uDRcgA9gVLhs5lKzzZye2B9LoIqEKt/JYQXAXt7VGEaOgBiwqTM6StXyHbuwmUQDmTbNMQcDQ8dpnj2ZkGn87ZwE1CN/RMbpC25M07MpTqgh1eXblWZPv5ock6aneqOEvu4g283QKlqV19nIcw5qgkKSkfEv6tH2ixOawGv71QKA12Bx76zNTMLAfJVEayCTLI2Uyx9UcvwWDgk7sv5ovjWq4bD9AMvC4mmmenjiZQ7k8jdKby+9VbJ8EXiMpP3Ajb5FYnyrYCMMa3w7qpIIRA1eIujGnViXl2+henxgzZAhQHVI+wuxQ6bjoqgaiMqyaLBX79DNBB1xpSVvafpKZo4n8PWH96NYCzcbrT8kUE3MUJJWrbQ5AWG6V2ZV0oYACdOyISEukYbNr9rvqNInbpI4i6ezSPrss0/nOK0IXNP+b6FpFYdrab08f7TOSGplbSKdxMtHoIlxY8GMrIuBF1AUi5sB6MGhyvO8mReI3PkgC5tLTco54sdLwY9VeKCqc5y4M+lJsspDmkoD5fieNC9BpRtPnfkTbLAqUwxLG617ZUsPm90KckrTEPZvffg/y8FlCEgmd9M7vBaD4VkvyIzi5vGbImdiXSsEGqR6f1WgkFoFKEpTqjEkaNLV+i8bnUyupmceNB+SMGvkNd14VhFmaTghB82oLX2oonhoj7SC6+SzK7j9ykUarV/zUvLHP0ThtwqWY3/cClQV8X3sRoqqsb+nME0+cMBAZWlopH8KMNBF2SjZuonhyiVdibwqu7NMcYQug8PF9HctuS+7Twa/f0tJL6W1dWOpbb7I8uCan15y8hw91437bTfKItEfumgbtFgA7SWPDDHY3wbEG4+61BOTt1s649JvYbsrvH7FxPcsmJKkdGeSOujdKEvDGff/ohXe4o21UKo6KGoLhfhfOd78yGH3mHrK0dc4R1k6vcZoOnyDhG4EtPNPNCSema+wlf9QNj4nshGgkpZNnUVSHuiE30L7Xe1pweF3RUx8dbi/OfTm7FFDQ9u/MX25TQ4ecad57nwPAjgCcSzAeZ0sLwoFqosvlWB91BxWmLX199iSAuwJeB9GolmSM9voGe3+ntlvNVjzvDbGU/waY/K3zETXVVlq22e9P/ukoSFfvbFMyYapnX93m099+6TLJ9/tmdMaHObRAVatFMzAgRVGoj96UTUGosstid/8ansB2DMNVJ0+IsSEEW6twq2Q+XezejsS6ladkiR/gzOwmtJjugCT1htvMIWTb1LdPOn1+aPJFHPC4R7uZSv61yrLMqHlSiy3ARuFtAgSA58XqDD9fOEjXb248nROoBDsgfZMVfYU8dFuTipXsRMIxnj5hlmVSw+GId1ZDpFkxcl8JAo1NrF1vXiji0pz+9kC+nnxoJjBXb2z+5VwMxHPOt2ESOw8W65rXp8cZT9QFJWiuokLvyRWEupBDG4pUJMdkUyOdmYbBJsz741wqk4JlgGtMaP1sMMY8Wgcs6rYw7v+s51Y/+7FK2s01c2T0jJuyesnac1vJ1tq2FardvErpMXTnbiMnrasywvT7xfMFf6/Ry0NNHD+zDLLrPotbWlLT7TTne6UwnXpNgRjSYj1mdOAl4HbD1QZc1wOBmInovGDIBzEzlFnVt+95peEySTOwugnmhNT2QAeDTeA5APOKAWjHKLw9BhQlJZBrUczMPtAkNSWHhV+Sw63+HOAttOIhsAzcxv433TyeDiCj6mp5a1SUQlQ3UHQhNEK5zAe5NCxWz8JRYJzs61gANlOUzPOcKH8BxON4Nc6/Kj5wxDr+VSZer4ZxHEuGyUql3hS6metOTpwZ7ScURDQF53tlUSijJsNRvBEmoEtBqqNLKoDtbC74F3hkrsCYRFCoUpbIsxSxB8zPxSjub5nxmwwKMFzqzjbqBwCWjDeuYv0gh6otrOrZ+HDArlIPXku59auWDsClb+RPmaxxcR++kKl6Ckjg3RL4gZtUPwAU4XdEg2e7qBCoXnDsxNFOkA28lcbkYUEv/ZKdeQBwjanrzhBjhTXGFqEIFLJo1i93vSCuCi4kZrmxO7Q/eQ9x95EwsYMe1JeoFPG9huMoTTNQDNRVUci33+Rn8hZeZ+6KBZNXz9QubolMU7GHnVeMG7NpAp6hm/m01YK2rNA8BpZV52QOI8oNhhDtv5NTXAvp7/a8vtUFycHHrYryAQXSwhUsLY882gZJNZOG5xM9zQgdhXTaz3svp04DiML9usUhYKnEgyiDs3Cc6mPL9AY8emm6/JAg+r3UD+PRm/Igx2K+CCt8QVk6+bU+SgUzMmweC/vIrp+8gToRjYvVhBO8lrB1CBHbVRdifpoLlfQ0HqBO9Fz04ijFa2DPvsEft4bEWrqSsyDZjiHud1PI+7MP3RV/StGDF6pgWAU2/RGQNgccCujno5rETc/fhOq8QKOVrcu8YdHc5NCPwEZ7f41czpvEasZjDvdEmcAdTn2ioQgmVt/AE5Fey7Nwr+pQs6qMToCD4gdF6RmTP20yjVlXD3vV/ESR/8BoG7rA3MVkpjSYTkG85TqBAiBSzr5Rjy6ePxdK0DP4MtgoawLqpBZCJvutTY1hrQNQJ/6Oq+h3/fznBwHkDFevWOCdmxwlW3mZV2kAGhQNLwlI6cZ2o5mYeaBStTZQQnWFLXRUrpXCTi6/muyOF+xZsTv3/4+4Bjz7r0PNyOKx0/MY0a20YQz+3DPngVj+diinS+aiUmpkeOBphNbkKDOR66dXtD1kutpO1DZX7rx/DQfPbjKP/CRURudPl9W7IB3pioWia8O74BtIHC2n1ruUo38Fo1RbKtzS3xoAo1gSKhGphKPtgu91IVifwLF8aBDdwDkCq/vmKchmyHxfAdbLZ7x5ZvWhdpyNzp7/EOR4lSr8KMC1cgcqxazaTdsy6m9ICWP66dtRBU/xn1VB2ffgJzWlJgBcopmOUPev1VHxqvu3PEPnVj/LsuVvlI9wTj1uOktcX0YvCz/CXxdcN0rupJWMZjYVKAiFebZYLDNnBIzawT3QB5jvQRtM6o1gS841PRRxUFpBB2A/ABTwo1LsDFfTfXq/FH+jqzULD9HbGDNPN8oQpgtKOXdTijUYoPZnyopXGPkV95BA0rZ01UCjrYhZZPA5w/nndwMYGQ0PoA8oSnRJ9D/vl3FySihB54Lt2YbzXnDKbnFwAuuFji+HzlL+JRnOS6fiRdT5xDwXEVs/W2/EobKNx1fHMrKH12xyMeob+M1IoiuXiCoWmlQiHBnksAR6+Mpm1xAz7W6yUEvUgUnLq6W33crVrANRWJDgcxSbKCr5xaxhLMDTk7RCY0rNH5rn3FU/oHlQWJEvQGprL5fPODg3/ELSskiDPwh4cTBZzlTDpPAboyN5aqT5YGCrMgHy08Vo5zPy7A5NgV5KpWfuehJc5BBX3dCknbaYA4a+NV764soC9QZSVk8p8itjijcwtD/ywLVyfNqjLBr8jLaJjAkJ0af9YnNMUNITt8BeX9TonuStzMoOtqUe8cJXd7hXsZ1yoZRghAjcqDOdM4fRBFvr8yI5x1XCiWm3zkYjozt4D7UfNL0GonbHJn5g31tGai6adPRSb97pR/iWSEnF9iyrWNpEaXiIpztxmdV8uR5NSkC2yBVihVxqfz5pYntEC8rF164G+ROX3bHThBkML4qf8eKBH5ZK5KM+Aqn35g2W+FwD/f22t6jC6Fh21YJzgRM9ufiVtCAZI9/YuMzA1XKoUDpiixPOJOmLSLonb7sjieFuM5tA1RFVbxjeaiO+D4cT79m1tm902cbEwtcWzRMDXsr5dOvgoJ56XW9bPwSpbK4/EQzblpm+ULUlLAcie2RhUZoAJW/oyfJQcz1jHRLdIsVgquO2KPtZ08sDMjCh+8N0vHOSk4p6lpZzu+lApUq0FwydowDshgNoanAD0wP1sH21ASCTt1BS5gKJC92w+GzovGKl7cDRlEGdfXOoiYmPtPjtMUUnSRPrl5TthCRjY0HqpXlYSBOsmixCQSaJDtZT6phQKhFe6FAHZdf2CfQ966T8Qq5nB3Pv9fmQw7CQtU2FN8KKBqu+2uGs9+BjWo24v/UQbHcNqipb8rFQSxOCO/YysGzQTaOII9xANJtVKpi02s4xyngCY2m/5cfiGGda0slr9TLDfgisWvUmSE43D1yT0NIEdmzsZyyFUsl1Ym1CpkOCrJhc6R20OmLg23F4KhdAHdUuWrTlm3LWogK4UdZNc2wqJKE8V90VSs8nKDcolEjsdKb6erO5tkgr96LEhwsRtUuxQ60UEHlgX5gGETvg2a4qKYrf06Y6uDC7c5V3vTWDDYbTAcWROnG5huxV2xvETud5UpjsCGCU+6bpqPCRYmRjZ62ymBkJ+Iid/vlETuI69o3Idp5cQ47ZE0QOsSjAExvHVpqNl4WkKSQRaJY+CcxRCsGx6yL3WvDhxCLnm4/Q82ceqaAVoMXmsUU3KNmI69A5TJfUKqMKkdBnFgRTgJqy0bbIeG+9QrjaogA7vjfWK/UtuMVult0WKq3EinSpXOI1QaLp/QOr9WR54sncXSIKAqlAQa8+xz2Xj7gVzXwqK2CGYn7zVfqJWaNIrU7Qu1ViVAainK8tkhh+SFIY5wCuOOBy5B6P3moDOctLRJFLnvfJFuh/dz28idPpmbI85k6rXU06syt+e0KaeG9oB18XBcnRtfRKSnTvRMXadTXIKpJ05L3bJHA7BDYQTQv/3fcnU7m1h+yldl5UsUGRqS6uRJtqEUFi6z0r+8Um/bZR4tqeFmZ8+SNjZuTy2fnB41lnNsPGHyUSTqIapyrJSgyB0Y2rmQrBaAuBRdp1ayHu6XUvATUHifCLfB/x5uVu+dB3HiqYGwa2gaet5lg8dVKA1vaTqqbJw2vtAxmAFWIGbu3HjnfmKUJfMFBxYT7tgOoMeBmg2GXIizT23K0NsnHQDgJIGjLVhEU4UVzRZxqfQzwVEiX8Q7B0qic1WZ2kb7sPtlrqpsnlXX6+IeVTjMiipKDWcThdYgDMQNVLJCzVHY1w9R4fQ0YSq91Ao8DE/jCQ3hw1WbnOPz3ViKMOxr+zR2JvwA71em/4aVYDV4SKlJTDaxzUFfvbKmZvuw+WUDGaWw/m3ajZ2m44eSPf2g+oHJeV/Orb7grJ9812s3NN6lunpR87xnf/VQM4fw6a0WbBQa1II84KYj0ISB7v7dJFoaJYW5CQFM2aJ1LFxxhbj0F9NwiUK38viqGoWH1VwtWltRyXVZrvFFaGlZtThSEaYkwI89F2iWBmFKK7QLwqk9ixCgP+g1Ii4tIqTKABGLVJufJKwu1XJ8+UM20BpoOHxLUHJlZJ8JCXyp6YpuEfsqC0Io9A+LOJFb8jVAoSNqY5muVDivokbglGy+urOlbAYZ389rcWXm0QEXrxoXph5JJgzIQSc1wg21SImYVsPPvrDWq/7NRWpHWHUloUz2RbtB4+FdJ5gt+cfblldhPXqiaHyJKl82/FWhC6TagRPes9kn8n7uC8HxjAY5URd7pr+eSFVeeeJKsFCnrwL7x2tQ0jb+4EtNnWId72YdHEGdolJw7seOKMuNhuFNEC4FFz9knFTeG8aabe1vMDQQYRtVQsLQqLv47x6kbzzxoXhnQ99DAr94zHskwsaJMv4ZXzAPGszC10+j0GvJhxzazBENyWtTUjtqoXgzCBZiA135ajRTAm+PMVxsstWo5C+nOJJip6Xq0Nvw+DZg7h47IytoC1S1QqocAy6F3LQKctPiX9Ryc2w42tXEC4kEz7FXmXxdDrhiUt1GRPLu5N+XmA2pG8m5N4TwMBnv0ZI8UOjqm4wfWTHs8yk75UkzshQemQzHHtnhr1KnWXjo7JcVy5IuYsYmzCC8rtxqIQt2Z57krMWrzFaLJMTwOnDDGxZM3BEedwZDSkANPEaYSrCCB1UnpmLWZNpvVjOQa7hsPKiehBw6g9V3FDHF+E6BQe722SuDZIRSxdsBfugqJdVh2DAevQClzUEIKx19pCn3RNk2aFWlWQj+VQJUTc+8YW4GbZOVMGHJnsyH/Ybg3FGUU7eJ/5Nei1bsTW0yeKn6K2Ic0z55EMmOy3TMzTxeodIV+ChoimxqxsgkIAwcrV09C5UduvUb/xX083YUoeGU/DPLqvYh0zmuf0oRpQ7MS++NWoNrZkAgdoG4vxQQo42yvzVKrfR2+qW8gCWwBA6wrSKeMppW+GKByMN9tjKCtKpi/vhPFs1UMxDYyYltOHQRYKN0lz7NZAjcO4eVzP/Jr8gU5HKZeqiIpNWdNp3W9lskybc3KfSnfQfW2IUxahNB7W7dGjC7EbnlzCD6XyP0nAm59BUptNvwjtk77j7DOtky1zBXZs1Ic3bOYkPsOIUsRAXr37diVKu26ScRldofcT138KofEOI7qV3frIfp8/iCSpEjeNprWF0BX3edFMBC0Y7NpWhfG3yyqRVPbla9GEPKYb+7jJ12J45fNE5qrZSqSKEtjaFjfvuw+GfntV0ySQV+942WeKTl3lfrPofi7R7M60Krvr3OP1VQhvlHH4d721roMM/ClRjVVBUtSrnYaxQyJdDLNyp3p+k+4bzvwL4iObU5f8d+LP8rRsGF6o4P/f+5XNLdXHUAUxTdV9n68096ji2byNP+ax3ihmkLbgDAOlNbVEgvHBzU3OeKx8+ha36S1kYFmXTc8Mg9Q0OsGK1LHZsy/x5/rw5XJkSN7CAbJ2Wo7oCYNUazLyzK8q/PVVOD3INVZQauCeot4EU27IE4jLth79OnujPZrqckrkpJYPfSLw3WuYRzeMDXmwD5EtYcdhabsn4zuLDPgYxw4Wkia+3uz/OX/zNx7P+z/1QPD5ZuizFe6mW1Oede148mbFutk/ls+fjJtC7wXqHdTWJZxMf9F/TKHLRMY6hFAqAc4FQj7hk5RYRsngx260rqghpcb1WOrElHy16ychl0YBsaMQsqKtw3mtGkKJKPVlHxoiq5dgFOBnPl/TrZ1bBhRpZmFSDcI+Wd66sacebgR1Ieda1ams1BzXjVzzlN+ZHqIZmC4HgqVZLU90ybGeryJ1I9ym/XDpo1XqWMrqvxWF9UYhVXvPPb6/wylLhRZBTO/r+2Cd+QcpH32ECasuT5aYFZQa/4tFq1crtGe0XfiOQQrUmeLiItVIq11bGQTKsK5NCu7KjjPNvglfP0njUbsJu++qWyMsmtuF0Is/QJ8UkywBovb390HytwzMbBl4S1oz+2G7ZqYVAduOCKzPYhZbGRyInzzJhbbyhsaQkxBPTe5JXeDY8k1eB3gk3KzR5VyGObhNVXep3kN1pYCnmC4kYRvHXCWmpX5tX1Q9gwgEGcb31ihM0sDhuvgNNzzNIcW/pcItlNtqJOp8o+TIqrQeNmp90f8lq2H3eQ9CpyMNSsjL1HbiDCJzt4nNR/NPRiwkvfsmyVianLCf0CSI7/9CoVx41Q3TxS6veXw0c72cITm/f5lnXhAEXP+jTATV0/bCaDsOpZLS36YYu2tmbLT/rSNK9SjEevBznHKzxaT8D5RsCJ1w5qngqkonvFtOLXts7QvHm2phcUrFfaxI7dSfD9bIZ533nAtYnalvDNzMb2dUziEotbK/xJ2WjkJxQSo6R1eC1akpqj5K0b9WXbl5Lsz9+r80XrPts2SFEhfdp9o7o9RoxWhEKc/beufaghRgUibusfOuZFzQqbnmZD/RdpPjyYlqotXJLW9qxZIBU21ws0ecw5pbD/r5dln20nn4kH/dh9saRFHbDpHHn/nS8qxqQYaeN3M1r6lLfV792CnJW9nARlnfKFUN09S2XzRzZNnjXbl5LuGO3v8Q/PNC7EaEF7xmzhA8kbuk6drWnLlWHTxzfNeNznV/OypUz10BbZB+rqSSHxVbmjxNPEBKrPdgGsROsMNPjuPov9iGefe9naZz1BG2dEeEBAw3UzeVcBeArxqb+H/Gy1rpStN4uiwhz0couCCW2cce8ZrG7QAx+w0+h+1zejHQDg5zzVDmL+YmhMBU2J2kiBj6y8Fv7FAPtl5bkaVlyHs38pKK1GFBAtAQ5qZlmG03fCamNVhQOne32EgdP8ocFkDORD/PJsfh/9FRI/i9itfRGMMRpnzNd9mDBUSsQURTgCaKjP3twjF4XZzolEu2WDMukD7JJfAYmyeBL7kSiP0WAJYI9ixqDJxUpsqL+tTIY1K8Y5Gar7adoj/M1f8ttaAyHVxDk9gjLZ5EvvJi1APXgjyWW/4X3Jy+nR4tmBV6s7UR+tBIvz0qgHWAe2HhL/9AsOU+KWl9TXq5lkV1byb4zr7NRglSYn59SeqMZ87Vud6KlYe9Ygwf9IhmBm/Rzv6BmM53BLXeiQM2d1Rzmr7lA2x2X8UuCtn/jTYC1o39NZvVpWXPDt3/IPimOhMBaBhrSXxMkvBNetdC7/u9Cy7S9j+Dn9cE2fiUCyN/hHBL09LFVxS45NX5WXxyR//oDYaEmIzQ2D/Fge1Jb4zJoCd2nktn5xdNyirqcH+SeR7D9UB8N+7NzjZuUrINvOYojLvU+oDqozKgvlz+Yc7mbPzldqWeG5uc/PcAWa7VSDZhHAAOq9IxiHqYN7+gpHo6qDe6/NH6rwo7IvhVjcizNYN+Hu6tfxD7ImdcKuOFaaIAS1iKDYhnAATrhqRiSw4f2Kjo47Ek2oEVcSBX72nzksKx1+piuwXEcyfHWt2TtyuxtDlymmZ2jWpIaRmoTg8dASaGeRcICEkem2WdGNom1bnhDU92n6mKKYnQgj5BQMKl74IbVN6Jgh2RFCwdc7rDWO5zoBKbhzAzQghcWIzpesYlZxbCQ5WpsM0MSREik0WKMoNanYWpe2K2J8MBDsyKbDN6XsMZU8pKxfZGegREHH5ugSNEPKisjuvptGxg9WpJ5q7enhAHtYIeZQi5uzPzLZ4EczinG2JT1ql77DBuVZ1LUNkvh9FDHkGmUkS6QZUWtDPl1QN62pFjg4sud1AEKq1hOg755NH22ATFA8XToGF7Z2ddwTo7gJ3PJ5kmfEPOaxdoZeS9qYWOr7+adYivFmcv2Zn2zHNi61yKsE/ZsmsRLlQovlzDJohwhwzP6kg5VCC4YuqdA6uKNvJSiGssNRgAejV+SMNII9A86JiPu4pz47zgk0dV6eRdKV2PiMYGwxKBtVmEqAkqVkqdf6tQ59MFcR4mShC/E0sCIDfPnMMNDH5ncOlmQX3xPesxbZ8+pwDgStvmz0OQ+9nWx/Od7/g8WaVRJqDWicH3G/rahieGj7kfRE+l6V2CHN7SJv2mYt3YMiuMRQ/kD+RVXN0pWlp7iSI1B9ugjAtV6sKVqoeVcinhG+t37akMSlWdaI/dGH6wYkQu8Rl4VtOsJ5LkEkdBWVvm/PJ1qZbJIhHZ6AFVR+sVu1uz3Lj3ZsoXsi3sBEEzQcCUL0FghnW13jTmG19h/IVR6GdsKdi+kYEkSzuEQhXnJV5A6r1hfbAEt8ouNGbFebvXf4awXzN3yawXh2PXBhFe6F45HEW+s7C3Ll8LezLGzyIJFKFJQWr9kYdvnxOU+zs8Q+3OX2p9pohPTmz852fi/vvk+aaFfzB2mFwI8xTI406pihSJ/bpCeNKX72CfU5bES2m+3ac8ezHnIxQ2xdTA2EEwpsHmpzOCaFVo4qDEnuMcTFECRs25ugN5uMowXFF63clyfT7lByP0jNv35+b18qSOrq4s0FevZenYCPYblAjKC6R7z1YgVgfJmKAXymrIVwzYRX3OQ49OisJ9BMwea28rdBZ7Uu+7W425zsjeiLm3L3TZ/3bfSBgw0q0oSH864Fmx31ByN0AojYYxlqOllQ7DybMnLWylXgDOdz18M0aREYYW/qJBnH1XrCitRaWnnqCg+DlJJd4/LsLDeTyN2Jaq073+rU4XBi+wApY2NSEjnEwGj9tW77w9Lo7mLhD8ppvMB4Zf31hOooqwhCJvkkLwcrWgDtuBg+Z0Y7vU1O9u3vs/9UDcVNwEOlNNIapmB7LxpiOj6uE4hdnY6AG6zPDdCLEZHXs6Lwmttw5/yVi95NkalztwcKNffhDNurM45GnbA1dpfE3v6tDFiNlb3Jtqh1M7V9rAZ7KYLnn74ZrMkHu2YkQeP2sfjw0Z2/iKJDVCFcl6ZTs+nfZBitfa2Jyj817Q160JDS+o7LiYvaWDe2NO/Pivf7/+QRb4SEitqxA1BRoetwch5yJYZZuwZnWz6KJq7C/JMOr97bhQqThwCQMaYqPTWOZNL2GT7CssN50PSvM8olzgPwUt6VH2kEee72ih2o97G7g6TYpnj6pC3v3MsGMOc4AXviOlhrhGaBANRGHwoRnxOvkRQ67UOlz0P7ws1fTiVNiBNd3zj+4/XvF9HP3ILyPWC+T6uZJyXOI4CTWWRpttNFzlVxyyT3aftGbs0etBq/J9rh8Ut7FHHz+5L1XbQyPlWdipuEKfKBjj5S5Go2/SIdC4KQYSaKdYJSOKh66zPYilOMPYqw22Ppq9xuBcb8mSOgnL8xc+PhJLixfLXPmcCoUVjrXCXo424VRpdGe6rJJy0ueWWoYz22CNI+pBjS8MdYGrFkFm1tm6hHm7yaSEu9FoV3tb2Wc0OpSs8YxMxNk9piF5QPPfson2cqgRRWsw0CfpxDHEwcHl/OC1BVJt7YMfv/WwYGcLTwWoGYkWi8IvdBfQnQsr1GE+opSugF44dYmlIqdvBptcZYaP62VpTZo7dhDPggTJKFvvIJX8is/nnPgl/1nY4i+gC/tNeQSNEIpOdMRaZ/8POVYWJ5EQ/VrzY8s4BmcsSMTQtKwelp3XkV28OYSnBWuZnJS7/MjX5ynZaUhL5bQTyPQ/DQjCJtD+xjyaWJT0mreBvwfbhywIoWO+uY/pI4Cvhsnz6wqr3gSDdYj0GK24eucxgF/1sEzPJP3NL2zYRnMywAJSqM9vCZ3ti5Ls6ZEWb1GE2JPFpYg/TnVoHsLq/RWOwjYQTUrKGm0mnBjVSUZhnR31EuM0ZLShsYrrtfcWIKBX8dFD1O1ugZQh9R15F8VCx3jUTBVCq0tZ9oBH/28eGBBudnWOdDYmsyODYF9o3kNCN4qWY43y+HwUvZBjBnFHlKWxgIZzs29jWk6HfxYlpP0r+/sQfNQjc2ZHM+IqUQheJiqn2CF481Ss1S7rdTr4MK+lSbXCrRGNlvfr9W8Ey/nTyc3R7M7CQWigzoYpsqx8eh6HQ/3y7ovB8DZN5VmK1g5VkTaMFGf01ryqZqX4nzlsgDJ7pg3tgxyLRLRbQRaFXM2jPYC/b23T5c4WrtoMrTDkXJYp5VkkxE1N23B3GZjzxVTKDkBhqk2tPNRqIfDumBO4GZbf7jsifw4xA+3jgRVofnR2AsEmplqxPbUGrEr/Iap7tgBUR9r21XCrdb+Cq/vSZ9xhSqOaBUple8s2G0n+JUHU/t5Arp+cIvHTNJ6X0L3TY75n/Ge3zzA+O/Lc5UndewS0xz6/g2LyLk0X81oiSbGa0LYVcBmM+Pow1EpWHuDjz3U67MFzj4NWuKq1F/cplPQd8k17s+82AjUmW4yKnAcplr0ngOikvwkpQpbO1zQIRLtFjltVUg9VakVvFzW1XsC1MIwxI4nNS1mhslIHXTDSRkktpeq+Zvwr3HBcGO/ZArSearU27bDhCwf28xBC6AQh3DsVQQzaOCbDUD3UiAfzhYXvJMjonQ0WZi+tQ+XqTdgc6C+afWe7NX2oIVQiLvSnInXEIjYFegk+CEiMlzyWJMsitXYOzdX2GaEoPY7tuBFWDpKEqbKxyEO3BwGcyrsXvTi/UM0nl9TI48DYmlSDlLQPOBmL54hWCL1e/cghgW9TH+zWhhVNmdT4i41RF+ILBVFi1QWbZo6wgfSZ83eS0RXwf8N+h72K9ayEalhLZAOE+7bDqb0fliuEPxKOWTbSL+GRZumjogaIbJuy515CM69jJRVMVbtOLYWSiF2rDzQhLR35IlAxFK4TYK/XEfEhDUA8zy4mIrxX4im1Yl2qhhbEGq9RvMaj2JC5AVh1/7ZJ7ciiv+lI+LrNIS+ExDSrc2vSPQpWIi4ACt2dGPzjRZOTUQzH2J/3AIu4apYSsgSuK326ZLvHBEvC8F/L3CBlEp2ih1DWfd7uv3Men21m5tvtICawe81ZV8kbcuM8b95MWkIxbc5tSMLeyYtYaurKpYWh7yC26+8IEMflkWxWOdWT1ELqcZMJ2zMu4FwKGSlviqROrUj4//MlQbppgXVMEEjuL7DEN/gWRZvqWaQnokWVXG/4cqE8zdzJn/YPNfG/NjbsEI5WSdEJS+GIp5+jQU43VouFcVQlPCTFmmdGOH1nfNocdV8TNOt+vfRgIu44Fes2WB2QlyXhukq4WYDnSFYLk2IITnZL1mLVWJCSRwdtMh6mLLNhBeAQJQFbP7MtUPCfbck7inniuPh5hdVvyMMfv8Wg+uh01ynNWJLBWuxdfv7MREOiWkZTeCOChSm48yOjO/jV8VpoBZvL2D8umuTrgI5DK7IZrIiSzQha0Qtuj7qB5uIgTpMvsSiRcDmDOHVHmtLcD5t9mSJRvJ8XQcN3FeQ7ycThphLI07P8jBTKZKKca/7M9Wi6eoF4XZNmQdzYL3qC2teg9WItYurgQj6f/WAxaGzYkq1Nlz24a3GtRSa0SFNIzm9GC7+1p8L4xLME1fivI5srgiNxme1/ktcHSXRz90Dps005LRWhj6dfxR60JLIfoRpuIGbN27lK5+bV207+jkbHu2mtIGw1NNR2iWGvyqvplfiq8M2rYtRQA45h4py0MKdGbMj101FNQduCrcA0Q6COc3aYR1ZdonFaR5aNp4gpy9Kp7vXDMphRRaF1Wau4dg90cK1qJFqHGOrS2Z6y0pMgZB3gVnnvDizEK1rc1a96sM9cChd89Hjvk7gNNVJtvslMfaomxXxJCT88vqAE1hBDXSDJh7/rE08xsnnfCEQMzv+9QuaZS6NbcvpY1yLYeUO66SOrGR5+fHvglYRdR7xhZj+dt1dW5aDZR5CcyBV4ljLKuPYDQywZKVtz9kkYxV4T3+zSnNqOLNK+BwL830xzU8hVQQXW/dDytiFPLelWZTE0eGIFuPEnxVqHkqwMq1e1WDHDyERyUp+uxyFP2pcQ3ufE8GMTWmYOoo7pniU5zjdsjRPZTU/Iutbsygr0SyKw3VgK8GNXVTzINpea/wx9oa1YD10yBXJSvZ1Pk/5xPmyBeEaPB7PQXmFtLoYZ8JWt6g5q308QnZxisQ3aeMIm75leE5O9pYjHdVGy7HVhBqpxI57lZ1hG+WHX1EfbDdFeBBOs0pvQjsRKv7OjWneRNTuAyOZby1uKWLYCuk1jMMb1oCL1K+5EOGk3oHVpGpfp2SmH1KJ+bkiaccaj8czW0x28K1c8jqcyFxWlz0jLYCaRLvYOpku1c0TzaS59+PigQXgxDuQbBT+zIpUY6uS0k7tQBBLVjpxxWoPpA22tPOJamJeRXRC8XMn9MBBkP6NnWcVXkd9cL4l0S7EmknMmZo8PT7BniWjzzZSiazKqn/gBgGY4SxGsytC4dFgTin7sLKSBW6nwQXDvuKmOC2IkmonXCOnPHJFg0elvn3C2s2Pl314y9QZbhrJSI47bXYriXL2/GAylqy09wS+5MrkZoQ5OWy7Efl5pzMKKGbhN6XF0TXCXXmSTERVyCmo1+ePopj34Akne/aXjIi3Nhovx1Yy5W097K5EslJ+b65ubhkCsaPhsaMTJj+tDme2hTuZnBZJwVS4EcBOL+K/xi2UtXk269f3I6k/yUiTXqeVWJ879FWRzBTnS28S/ckLM/PcYdIwp99DDFmpwYmDYM4PowXTO4L8kJDCKi7YlL/ZJyhTSiJGBJVx1oFnpVChWhzhxCQzhX4q+zExQ4E1w7YUird3MJMbn2JxbWvhtDh7EV07tPby7DOvZtRCizRb1ibSQs7iI1lhJ9G8rcBKpfkPLZlpi4o+KWjOmHRqwrw4igzIsST2cF9JYxcwAuq81B/i/xQrkvbFI+Y/Fy5qrnvc00ibYGgZ/kEbrkVWSg0RJ9MlM93U86o5T9kaopbCB1XBZweumtEpdKP/JiNTk5QKKjgj8ry2D+Nq2d1pnOIrmuhZPyxtl8Zdm41W/qzUqr1LhhEsH0rJvyHBDDFPCUJMhjOZXtMp3EC3kapFWivcVbdhwWvLug/88j32EU4Fm+U2YbQKmn8oyU6V0k6FFUTJFpzdf61c64upYMPlGCr3eC4MIT5O7Wc6gkE/Uf42Jzm7Vctze+E17GixAA9Av3i4h3smyNp5+pw1JDtCPdHc7cAKpGQLW7JTmOeR6I9emJMhZr8Shgpa5zWch0+eZ4t/73TCd8AQYP+acXvqkHktwMCBMqZndjH8DjUo0wQcRT1oW7aCqb6ZM6lkpskl8j0XpuR5FlmUCF/uHC4Jal2u7c//8knO3kjXWceBM8HlLJ4GpxrW4d7ENLtWampOSw74AZn2+6h/soXV+OOfFVBpJ44/wwBLlZv+p2YwLcqP6nug1A9UL5+4elaYT6AJo4CcrAPuqiQp+R1Jnj9mUzMxLardkmSp4BLJ1vessMo0FIEVJJlpOVtVLItFTXSxXS7t2LwMW+cfX6vbKKFW7YWdmx6OFmABmXnmEH29+CiKKdFBVF+mZKptOdVDK7QyD91AADP8itWqlS2iPJEkFsQ0XKyDqLrCFOtuLrFRREHBXcztxdfykHligrDJ8obNh85JyXpXFyRamo2V/6zwyjrwKklmKu4L1DrRBSo93EeDkN2eY5i+XM+TeBEy6iikil4D3Ogv5zg1uNV2IG/MeRs2GQ9q7iLAXzIlqIIXtDJR9p4XRAHJTt85psmUd9iOzh4PoTRMCp+cwjOP+66MUnqi+wA7uo2KMThuc5a5a4SW/6kjvXnFRLwyut4ZJVuFuSj5Gw8rI2XreyyPtyxMoUX3R+Xq4uSYdSvkDOZ/cgohOkY1RdGudfst2FEyyjnu++13AL09N9HVRjEHzAEzSsa6HC8WTLm7ufEslMnZUTX3J7afx1p5mNSWyT8kymegUU/R1esphPcEwcGvhnJb72QDv3zPBOg7PXpL1po0ScqntzJU9r7H8oj9sSxOmf0mjVqxCmvhMe3hx9swQxO6DjJKKqp2HQ4uSe88j9eE+Yh9g4qvevjYn95XMlel1BPHylY5et5Ekp1OnfB3H0ykdQXt0ROV4sPbsP1nZjZzV0ZVPe7NgT2Bc5wYHOtw2aNGZzY8IYWPSm07aDF0NXgwmSSdWGl7bs6m3/hjzPbI0fNZHiEOrDwg6l/UJlP3eIidgFC4nc2HGHKJM3QbdfVEK/c6MMdiFbkeWQCbmjRiN06eKTrzYluZ5K1KBBolxUhYLJYsba9IOWZ9U+3WYfHoqH6/3yeHpf9SzdVuXUU/Y3O5jdL6m/85sHyK1TI41nBu7uF+STvRszWtXvbaDB4WkBgUOldSDYSlrNJ33fy1kNubTUQzi5JlE/VDZbD8ze287ArRRO2pxEqxMz3jyImzMRn4tPM5iQg3X0C2JeNGQx38PVpQK5vIZ687kygU5sxS912LN73t7fB6cwaPoUDifPHCZLMcVUCYe6m1BlBt1Sj8h4l0y/6qpJw5hWqx1WrN1Xk45EzCq5B1eAYV2JNzre+VOfDP/RSOv1LntxuqraD9JBKJwp6ZiYvFkqnrFa5EvN7MdW3q86btwKhywhC7wiEKlF77pNZNCXTSj7/jXv1Q3t5F306czJDwSq6fA4AtzJBrFZW/Bt5o+DmVyMiLxMOZJBaFOStp+sLile6STewkUythYs2aOLGz9N3CtYjlkb3nszz0zy/bDHL5dBqPp2YOSSQoB84+l0meQNZqDnv2gvXQakopZ7a/BFcE9fqaYF+P73ulvn0Cne8h/4tEUd60qzntLYgKEo3srjR1X5S9b8IZj7YxZgsmEelNwWQc6aiefd9D8HgUUbEJhKTVlMdD7BaE17FlI8yzCP0UtDCKdGRTN1aOFWf6BwbA4NvCmx7HK/S7GYdvDebqnQfXSLXz6NDHi4+mr7IQn1sJOlSFZ+835cixpBq6cVLT4cQCK1gqKriM42bGk7B6AMsBqzovxQXE+iKolpHICV8u1Ya2RfZTnzDD6ENmxMt43tbDSqCsfX8WFu4QrwHGaiDvuzZ4pt3cfOPVSJ2kJ9snqmqjyuGms4M3LpvaiRIrycSKcFCDyCAJFfGk5uz63I2w1zX+WqUR9t6FKqgxJurCVdpuhZ+jPoYw64DzP9zRv/1Vd377n/D8ODFuy846FsjwrzIV7eX8i01TQ3Wirpx8V72C8l/+66BbaI79RQmdUzp7zPmbIW9zGHXbSqtzdn2oplPCrJrZGpukdEMOyrF9fP/70h4YXh1poOtPJBkomXGu0WtBVjrH/Wn44bTH9mqsZtmn84+UklvSTbYRvNKjt4/kTBO9dyZzGT9UJcnyK25I8UFpEWeix4NJMk87fvHKXF04au0tG9NCMOnlXDzlv50rMPHgeoN9QFQwdG7+T+JJ8B+MDtKEO4kixLYeX9b1jit51GEXrka8HfpW56j0Zt6+MBduyOxm3In77UuQYfSz3GtDzYeVVplHHptoyB5uWe4owqOVN4anJ8Z/+x9wG/zPTHzXz8/vFlcYMV/rweK4JLZH6CetRH/wQuVM3OMheoB3mzTxX7gwuVSN5qWFUAgJ/y2FqqEVQOknDiMXUamNc+VeJ8IewT8ih5xUDFTQnv8zrj9SraC7PobkWce/eO6OLaqqwbpKRH2wBHznmSX+MxemVoU9QcZOhL7StBNndiuMUiU2qze6GjQ/1yDCpuZ/ogfXeMXRzxb8fs1Mcuqu4/8pYC8XI3lXEIBvlcWRte9XkCz1mAndf1D3XeqFPZFJzimdzZLLEuPF/SxDF/Cl28/PzAVGYfM4HHWPStcSwRyaXp4/ykHj5bOZ33tdIuWNn3y6u9uIFIFm2TGTm2yP6uL//I2yn4g4o3iMU70ti+Oc37YuqbYVUgmXpmR2o6B13BztUVz8F0Jujs/F5RTlnWVH29LDhp/hq9kO6uqdezxZDK0KBZcIk69b/9Are6iLw55PhkA0HHYekBlahXheMXycmTdHz7cCq3bsjSmZySe3cbwvytVkcnRMP8eiGmggs8xeq4EGVmvcrcxFFZK95qFL/g/bj2oeVn3fwA107viHHLRStNPC1ZjFkbXvsj30i8RUc++N2JwhHs8O4edZr9WkwiQUwxRglIPWQDewwquxyl/0nS4ZKqV+LgdPY/Fs1SbbFm6s1+ePUtp89cXnKdloYp65J7y6+qKOrX9aaCqbL/ba790H1QcoxFLQHPjckAPlRNsV9oaZpnec4ul3iS0HrR5FPqoA8xgZzM6gb3LBslV9nvUmICT6I8vs5sAv+6xNCDHMi9E8tNn3ytZKc3No6YnmyeZGTAt92X3SKGC9RWb1rg2ntn1W8joXHxyU6uYJL3c8fE7aotdPjnEqdqQjpn3xaIUb04rSv8fKDhdTxX6HbBRtx4bYWXjzA/3TZmT/4cZFODst5kY7oJWVtrxTyVQ+2Y13R3h8YvLxX0jz9V5Of3cfnAUa9dbB93yWXp59NtPM+JUV+5QB5/gcqOzS9G/3QT2bnbtWmCbdt5WFcvb8oDKWTFX6SynYTiBxBng8tplTEP5DpuZBd7hvOoR+8tL89dSxN8ZprAx1vBASYW5Zvkm0E6d9pvJxEf7w2Z/dB7vicgpyxHdN4ujg1fwUUb0maNYb3jX7NysjTWinPdh+sfqNaeVpq2ycIn6poAqRTHXjN6deO8xk9EWtF61Evnc5xGwmuZgyykeAsROTxtjpp7Gy1ZMEAVgyVyz9qrcKr6tJNukaW5iSJWWW8OpKS6oZYxnnYfbfQVRPy2g0x9D2byzzFld9sqy0IvX7MvpNe1a2/1UfM9wDB+WuDpFpocLE/C+ZVoBN+7p6D1iGvw79JFbmqn/oPbVEoIdr3NqL4ZHkB9IhUUX0cNpUt19I/0benvdwmMV6QztB2xmp5ugR6BvQWor969I8ezKHmTxxRK1W1T/wrEyUpx2MJplq7wl+xZWC5xFbC4REvvPGrOLv/Rx/rST0nGigG1gxKM3UkTj0KfKbx+X2oVwSARee4pkqk9bZo2fXqpBPJPX3fSbY78LwtP8P+P8sj5QrocWJT2xqN/jnePmHOw0MYf9WscXs9HQ93X7W3c2zFU7qi+qPqNWsEE+0UDWyMlHe1iOETCVTtb0txfbprz2+Qc2D//rm1O5AC0oIICv8WfkKViRKnHKJRTVS6d9m0LIi3G9babtHYslY6Atqa6yYKzN/LbIyUUPNh92VSKbK77nVmnmspw2fFG500pLb8asH8xg78UAC+k6EzZX6B25tKxamj7nVJSKNm974nmKlXmdqaRaloxqH84vJbERbZIIouL6hYOR6ukAzDH2hkqlyVUeJ2V8TlRpuYqnoxZC4A9PIf/S1GXa964xjd3orIvUS6ahKXHrUTOa35xN1GbR4su0Xpfunz7R1VuSdysr19LEdcibZKp6336i0y9APi+rHlHswHRckt3/Shl12T/TXG8KKS/f19BiDFMllvFt21pXgbsyyQ+zHYD14YoXaQhMIQPKRzcr1dJFKNLNkq5kpNHN+tuXUEZWmiwS/dJnMsK//fvbN8TuvSDG3Zrei0/FGQ/qq+Hbzmu8W7eWfW0vYbECkbG+ncPKNttQ6HTPX07PTL3JHiZ3M/1EQbMupBapmXwl8djnCBDpuY1+JyfH3nQisoPgrXqgWWTGqgW5QCXPsD4mNTz57bc4b7nR1LBuBYXsnWeqrlEOHmevpIWJtDclWcb/lRgmsGFW7LzvWYLo5zEwmEcvsVoAPiygHNW8rtCJV5qE7qUSuoCqaOq11zLSRycA30EV7UeNvsZGRd7qljNL1vHz1h5WBaidKuWSr2atypSq0juoIgq8wj0nEco7srNtw86D7tuJV8jmXfKhGdP3czL34tea3HUT14dcrEiC3WjuXVpt+6xsIS1nlbAZTcPfbNlcV9PnGu6C6g+CBwUu/+C4U75LRGfJvYWz7C12wthUxtR+Ft3rxP1JmtDu5q991tBc1/9m0W6EhO9ql9pZjZli8KFPHZ3Kv1InwZzv+SwF7KYL9NKjaE5YC7szmm1F7au78GAy3gsvkBfZixa1eIp5Uyal2Puv+rrcRd/Zrye/bDtoOonrQI2xSySeY1OBUSNN3vR7pui6Te2UZuGzNROT9aNJTFqoJkokzEpMVblMIEPMS+bvRV0q0tMiMT2L7eu9a8q8tLhBP/3zEbGh3suem8byjMhNtVkHztYoshfnW4sh4C27xpuwtv9HyH4tJjKGuWLJU1eG+4UKFccyVi1qmJv9zE8gfwdC4evzuDKPv9AKNh5UH7eWsUv8r7JlZvCtj1ytUCVmMWN2WZKkQB15KcgstGC6uPO3xnA2c5sN/WdkRqD4H/5ifHD3fyokeqn+9SXOFAy2O8hVX8sIPMO+8retLzXOsUQ6BGkD+yv0v3MSRrivyNB4MXqU9+iuULBXq0cgdq+FLYSobENnj+SAIcT53qd4l5eeLdI39WWdNnTint3Kj9BNHRzL+1GNyWreotdCRqvHmjtciYb8GIMdMt5hS9qbP4IXa2ilnFlOrSKeX2ve/m8OsNTSPx3NYcE161fyouHZbYzdbGm9tXqiVJyVJTXgSArgj7UogC+wLd9TXv6SfPjm/bE1/ntp432b8fAS2EAs8pYp0K7O4SqiuJbVlm93ez9MJ8URMYsnY8VjcK3vP35gkkQpLzr5IWO2fbcupA7aZWfeo5AnC/Hjxm9YqYxKeK6YHT59eYgA/gYRcZJQZgAbl3KFu75jvv5m/7Iv41djhu6rLm9Qoo5U+yyO/+LEIqjbcrk1TdgFVI7s7H96GqkSJbfr4VXM3Hk38/LOCq2AjZvkU+W1VcTv6UaUej+dI2KIT/goF21mOcBjPPqB6wdpW3jR7hJMCy12WktFPIyH/n1pCnSsQGYKmvG/o0pXg4VPwN+Z2Hrr1FRLDuxb6aQziIgmOF+nktMgXyJcR30rvW6+grO2AwRzZIV6GZKcQl0jc8L9bxSQuGbY6xPev7kla/30B9pAKOvAPv/r9Vg7VcC3cKigtK+BfVj+JhB42FgBt+EqXXXwnfP8p9DC397Ze/83TMKlVPi+ivzkluEJETr8K1AUooRd1ChZKWDJ0PadqaIVX5pEXVMGSmUI/ecVU2qIqIZYRHvuohulHOlUPU034Ow4b17z14T63lU/lbT36AuQ9/7gS8vrX1TWDazpCLB6BHAj/8pfuy97sQ7/6+8xQ1BI+dkEDAP+eMMplKhek+AiGpsRTR/FI2/PqMPjZIn/j4ZBTyUy/RGmlCCWWACtKb2MtKrnq64XF886rJrhbAvwKVm6Vre89NRxZAPg7UoadtEJiYNV4iBhvzjwP6zLe1l3GiUGgc6V/2N+whGXa+OhqXqxHSCsaOsQQjahb3aKsrC2/kcqfFVyNVOPYmc5uCRZzVllLEW83PGvUEB1ExVZN51s6d2dVrvPoVo71rHC0qCB/x7r64vKbNENSxnIRQtxxP3wb/tXysjZw8zTItMJXlcP9BX2PmJyxLlJv5AGb+GQCpe95BWuRFV5pJw4zw0i3rrJ+HSe2MsIGXQVqmDX1uvx+IxMtTiOgDcGVbyVcGmC0qoC/sab0k1IkD2SVuDb72zvJw2ehv5rO91VhkKvZD0MQjIDfijy943fBStswJCUb2yRH3QabDwb3ytV5jCgZ6RklJSoAwi/weFCOsv0i5eYGP/7P33CP7znUFU9n5V1TXA7cf9BpDM1gm56Fjpk4iQQs9GRpK/9WfNsDV2J9ideZatNJwyb313hAve3SFe7Zlf7z3sKnYc2lzKDRuVJ/2mGHNo+fvOSsC1cjSBSJmCudgLKrCitS/WMQYwEra6d+Z+xH0mnwcetDcxPQicQS+9mDKq1rnZ674dJdzm/lX/OHPzMgcgDwp1eBHz/0pm+hW6RjcHRx8cKUUK1mLlArqc2RmllkQJ8knyAunBLHy2RX0uCXre13Ly/vPtKw6mdZxOc/4PciCw9zOVR4Zjxt7CKZ0ne9gtWIwRjC5HObkWmbTalrGjGbE4gAsYMQErp/qdWqaeHcx9HPXGZlAfwzfUP1MF1fBJcIDPYQfkIZJlCwalzFyJohJf0OPQ/dDMmSNrYsGPtNGrFaZvOx88YVW11zgSSztWY+DZ2+qef4Lxn/g4cu3kk+vhv/NBZ7URgAWtq7JjhBsMk1PK+Gy6NIDxRO6Ed41O1tegY+y8kGVAiq4RiDrUCw42vcVtmR4Bcv/7Tr1w9qzKPFj+FuXCvDWNQWwK3GHuNL7NFiSTaxgX6Ld6wgL0oZFWMvrqgZQWeozUCaPieRukM6D8mYREjshj/hdmhvwL117rCxYd2R1G5ZiT9+y/4Vt+5CUvTzEOPtGdhEjCx3hhR3nLef/tp+26ynkBowauRhOTfom5GvsWOXS3sh/aTbg4VUWTpekUrMYEyO/YVKEompoSuPGHddlrE5f0I4rTqH1UeN9wM3vO3VTBpvbZSJw5x7ilTi3tL1XEtZJUrswABASADhagsvD337Ky5G0QynM8RmQKEvyR9PJVwSdJK0w4QxPP68Ss3i0vVEmRUm98ItEPvCPajhVWu/Sxf2MMZ//wkWIVgu7lgJ33/yfFmX/KFbQykzwLS+m+dnlJDaQ9lTl1F3RSHaRifGclQGrqcL1WImLjWbkPLq2nBr9caOCAjxvg9lDquf8+1r3olJ2LcAbr3j7K2grsWb4qY8EAAJoX/Oy13jLUZbjLBz2c0Akj6E1EOKoePkVCiain1eLkiFF2YKs7RdabfQhftvM0yog9d1gc9z3PffkAL1A8A1hynesd9+Mz4cl9rJ66rLQmqAaqXPC9DhEz6s2vc8Aif5q1EIdVUsFGLgerqx8t+9CtLtxSAIe/J4UIl8Kk+Rw+qjxvveK94jUyt8/l74f7msQC18UxaTirE2QGh9FV5xdNVFFcNuBpZUn0JI0myZ9faeXaDWnDvfXXuRlnX7GIv4PBimtaaSbPPDq+GHOeWnI+rLc9xrJvpGLgS9w5auqK9/CT9+Mz/sC32Y2n3XPKvBQJcRLEASjl0l1BvhMmshivGtVEOX4mDienrPVb0itlYF6TlfXCXY7RiHSUSdGp12eNLYn4DmrIgntUz8WJzTS776YySLkiLvVAmhS5iMq5lAIZpqWEUShonUAi5aO09o8NdL0q2fZB/fRK98reNOrvBFvoy3dcufuku94wJf1vxf1r/8L2/yYbrjRT2MLX4ctjn88l5Va79LDYb6ywMZIOEIktReyzJuUjMzBCWcWTQwcT19lQwMys9XwkDcDIQ14jbanI9QYaFUY/6S6nhPMHCB0/N+q5Fy1NshLMryi3BQJYSSNWPMGl8j3I3OEBaiPLkcep2vmniAoFMs501lYNag8d9/IN+ZzdjXcPl54F0RiJ7pNLBxPZ27HYwGznVJ+PYcBn/92jxJCGGeigJ9Jg33LVfck4HluNfLpFeJbwpVordd10KkND033EmVEOq8fOToWWMP4y/EoiEGNlBN1GXSG20zzNYEMXZmcvzG3lUhwcv5Ps9nl3BEBnTZrghR+mY6nBQq2Lie/ibgY+w/SsLiRWC2cRywRQU3p7zk4Bc2e97/Kwwp0UNy/pE3ULAaZen4FmL5RdgzCaHkzchYviuEK80S6u5dJgzkz+syqhJfxrYQVeOFfBDh+e+TY6XdN20wH0kwprk9V4iy26OksJUWS7qe21AthDceCO3yqTj5KlGRXi4EYuf9cSRkYriXqywS/vYL3p+dNP7KKFKJ+L61nS/fo4VK0TYGyNfpiIw4y+fzjZZ15eGqG2HoEGFppT1mrfKrAg2ScQvsQL5frTg/2Ojn+dwSjEu4YFcKIyhv3CabCAu1crQC8C97oaGvVMLqtpWUFu59+GMbEBrLRG2nAeVhP43SB080Uo5zNR7pe56FVkmmFkjkyklMhia+CBLmO9GfPTSh7KnLr59OqOZDWcQHDve/9t9U+Fj/TZLywxtwHH2noo9IfxgnNanw7noa9yFfoChniNmxGMiGkn4+lc1yUTHv3DQEVtDZj875y2XpusICoNR9EWmnSQDFAf0Vnz9dIevrh3E3GRX8GU/B0iwUItTIOxaT4YFawO22M3w+1nmbImO1pQxuomL36VXjdSVxXgSibFULlVi5nj7e1YJyXvmimANexo+axpDoDy9/DXSoqOXiyjvEZ4ec7pjvl8uu2wKlhDMeTCISQClJBuDzr9GwrjxcVS3ejLyh3zyWLtWVorZsszt7HwFvVP4rTf7G3Dcm2n9Vh6BIQuFD0L50ckVRTXQCIVkOFioxcz19GtNegIWz9xVmRW4M3LogJPxNS1kJm9lylLNcNVf6T7bg2+HZVE2+epip41kA1Xv4I5MAaudkSCz/+HsJ7SobrgwwMHxdksreJnQI6MEa9tnV1ocGD4v+OMDFnxLl8qOuNIXoUA6EUY+PCR3b2EQC672gh4OwFf8QOobL9OGZVWS8lDurMg45OyDHtxotx3WOagFW/DkPJhNJr1y6N/l0nwONFnh+IhLDituRpVXt8+sHsg+8fsSOXtU46Prm+Xf3A2a7h/ftyEYbkAO/2nI3fCw3Xo7lRMvhrGc9f3mRF1mOdcN/f+B53KQRQ64qFiqxcz2deSgAif2RS0lZPpx6BFCek1alJieOhj7QQOZhP8nn9hD83nryMqO84DU0yJjVhEh/xedQo8vi9ol2GFr8aPA9MxHDsZNT+HDm/uANfwAMN9ZcyqK9+Uko7fqBmf73cczgcqK95cAdndV4GIue5E5CYE8WKjF0Pf0y4FiskvqRf4r+sWMzhHjejpKy7b78a+AO2j1vK+T35TKnWpStHVgYKcGMQ3xQJ2fSc/kca3Sssfa6moID98OwXOckqpG/WKRfA7k/iPXubPv9izWfI6RAEggvWJtm+Hs6vJJMOdpSMCXvUedN0/Mx5PRnAdNIDVcjWJeIM8MFHSIdoyHYVd8/RPNxJy6+r6mMngiiQMqZfXp+LQBm7ngWdkrdFxEPmgRQaNNTyMDlM9AYssYW8kUz8IQhmj2hOvYjeEzDrDD3dxO/Ma+v8GRJ0U9jYBtJICLtPBH6m7nl9o7rY84OWIQDs9CJoetpp0a0MbBi/ispi+VkUSICKM+zvr8/p7PMZPREhJO6F35fLsvQdS1slTjhIa9UAih+uTQzSpbPSJu7sjDeWtDBFSkF+v3ARq5GpO1jH4odNIJ0n3ZmT91lnKT+fEA9x6DMMtCvHXi+cuD2L2HJONpfiIVOLF1PZxw5YK8RSrfK3TFc/KlXAqz0VNxajduBUgqAzdx1aJb6Zs4UnN4qVI0baAbpep6FufwcMx3EemCiJB0ZNctnqCtiXUnWuJvxNyiyOzr98ncTrdz5wt1i71gRpnjn+bKu8l6y4C8EG+0VYurYgZ+ppFuKZP/oi1YPxSIrLKDK0PWcqpEVUFH3GlTvEaioO8qJHkT2jz264GbC/38ppNsGQh3ijtX2NLxaALz2tD3PgkJnO4SEUJIyAPHRqImx9hpfA3naK2iIoSV3PFe4LvVhBrG/SxmmdP0hS//Q9A1Mm2/bYCGCih1rMQ0XRf+L3D+DvSmKqM4DLKBK23enqg1HwXo4kZB+kbIWt4XjYJ47/KfVElNF0rRrYO7rlXzOh+D25TI8ipNyGDNK7TP9ltyoPlH6lYRxNRUw80IMC+9bvCqpvbAPgYDOqx+g4Ye5w1cV4PCJ7A9bIBVBfRQ3+Kktk7/sk+WP5uQWOjF1PZ04NU0gkrNYw9XDonbwwCr3pf9vCompInveEA3uCP1ytwNuHVegUu+R9hqMhebESdpZS/HR6ag3Mc5eV1eLidPREiTLVUFtmZ7LJEaAgvgQ5dWZ5vP7ju/jXACs+ll2wVDPmbEN9tnGpH1cA/ZYzVxk6nq6cDWqCkLsj1sqWlFadv0VgJAlL4aNKuM068LjtYjK/L57IAi7PDqvjivQKcnUts+pBNHRe2pGlOWj1eiz8hp3r6ttaBl7x8/Q725GamhVmw4QJMU6l524o7w8P2ODD+uiPg2tv287e1WspSTJ+XpQnjI+8s/qojS85D95vzGKtjEslGLqejrpgoOwcRUtE2Myszzgip/ApG5m2uFRwa7YMTQxMQ9Y3Lk23Devjiswyi92agLZ1t1+91iXk+Wj11zGnDW2XuVmR8HgG03LR7jKaJ9BkoSFkfUsWw19e72+3+lKYr07E77/eFGMt+eVRH15vr7wL+7QhftvCSnu4BQ9yxsGWqdumQUboajmwliHxSe8b2Ii7JmFUkxdTz/aU4Nk2U9FVQglNNkTQMTOQ0jgc0sJGVDpSVvyzNz2tW6lkWrMp+MKtEo1EJG3GpDTYG/HTX8kNx+Ljnq8sYa3u6rm6guHpE4YunBWIeWvF26n29QF9fOHPdZ7gLtdcp/ElXASOqcWFkrfdfPXI6gnEVDzfPoxYDcxL3GSISQ01AMvremlBupgD9HvK/DpuEK0kk7sMGdFAimCCouE6Ps9Fa1Gy5rPlWU1eRXh7cbXnKyCeutdOfVS9XXVUv6WU6wH+Gvcvq57YXzWMJH5XgguEQutWF1PZxoKAXkSw4w533VAiG1Euf4+RvVZUfBXayL2xihcjbl0XCG84i+sEBKVQLqsrBCWpcKVPxWQRsCyG/pNp0I15S8XJEp17jA5SVu2LpBK+GSumlpfC61YXU83Wo5nAeBLVTQrz2ICQjQd1RkEI9QuVHigWYY9FO7MQ5dLxxUyyC/G2oRzEfWhT/GPwfASgF3GQaGXCzRaZZoL1CIBO+xnTB9z2USYDfzidT29LQB2oiCnlDU5Uhy7p674cVI7YX7plQYICMipTMFGzL/jCsGvEXWrAS5t4FdfFETbASC1CcOSZFBR6zx1ZQnRaU98cQ1kX1MP3uG1ETOahZneNsC9Eq44ALIt4Y41YYIUcLC4Ogi6Qtiuwl6le1KWCkj3wCypZnZt/hxXSKVkE+FwUiHrHLqHa16bctOSfBbDkmRQUqvKrOBFWslob8PtzOGCtWK++4I71J1rOLGFnTK3vcKVmL39Lfs6MdWzSl30JjwBic1zHdBAVVXNQsRMzfeZDb8cciVv68Gf4wrp1EOoC5WQH6gPopYAWhO4qUiMUPOlrqIakdAyrWpst0Wq9gWkiGbDYhNkH2tlWmjF6nr6gAA5nVFRl5N8ZQSQM10UnlGz/AqFxffRq7MbfvnvshfuHFfIKL84qdEv7P8TyQBqAcIDE5MBtErfpM9kWwjLnfQvH3tc0ZdRozp8j9M3atRihg3rN27cMkrBW0YpnPWUwylH0luOZUu7P5aJtNwNv/OrHbgtF7C9wbK7s0oCVYIWPDOKvYKEOGaahane9nYordkIZ9jX1sAr1jWuEkrsEWig6kUqmCPIwherBdDV5uj5vDmukFapB6K/E0pY7awIgOWA+wUR8c01tU1T0tderRzOMPhPYiX/rWe+ajpVYEibEQspxddzmDrsY+c7UmSVgErcbsZmF85CokM/aUEgmu7xYAeqpi2oZ8am1kmJUWScmFvj0ThzXCG1qkTaab4SWCdND9B1/WXO4FZkICz6vtOyzm4m5Rsdtv/Hnu/VGqjhjK+xK4VoKvJYPGPk7kju8EfVwlD0q4/uhR7pqsp+dnQnp38lJhZf1S4tFGVfqBkxclSZcSQ4c1whvZKPnQgH1VeC61/db29cX/KRDrlP9P5m1CjHyv5NzbDeT9mEi9BxBlsl5MZ6tTARvdsOb+2+SQlzZhbmytH0Ke61HXoaV1HnudfjCGIbIFyCWsW8jBnvR29CHNBCaN7PzZfjCiUo6cRxOCqSheKAZF09gDt++hL8MydqYsNYHf7SKU5pFb60qpSJ5gorgw+pVcEpxyt3TTiFulBLGWG916PRB/glW0Bzi9MQ7sERnwJhYncOlWoW/WJaCAVWUPK5PQVPjivUocRTK3SuSEYKQx4ipUkvoB8waBgO9FqoSRqxxoElGQoZ1ltNpkF2lBhuR5lbdh84JyqhokrkyxVAoKG+PHFWOKgJfWfJdr1NDPZSzOPBDlSdRiGzW4uM/Q5aDNlfaK6Oz5MFQLUowdwqJzFqQWsXbwlpdo36ljH9cKrTeA/cinASUKRY+/1NmFli5nQ9navzoKY+2YjvUzeYbbWjzAggLTF373iYKmt0t76ytBjE2hhFqjFHjivUowMwTW0dcorWhshJKwy7yAO7FL1EVCg17EV0Hyeaxxa8kRzS9IUFhXp8TLJA/6h5ARX1BMGkPR70QNWHUMRMYGaiVB4uqIIzjhyOHFcoSWn6ItaKB5cwOq7HAnK7AQ6bdIxL0G2sTolbi0RwBC8ivN4tVGJ2MzY1NXNW0bAvOxIDguu9htZ9lPEOJgYRTsrx+HFcoSyl7rsx1kZQGSPjuixwjFqw+k1/jITXTFvxQK1C1/ofBbMewdcGphQjYcGiaycYqJ06EYJxyhMY+xOAL22hWEoIsbsQUrNTYm6bfvtoMfA/+xC8vFymNo2H7MYT1UZ6L8A//stqpq5lXXB8jO3y4a2SD+9gmwIErg1SoNvFKPdpx//8BlIRKclHjoVaSNfT0K4uwjx3Sce+8GsLbR4QYhIUGPSzvOK0GNhdSY6ex5HjCtXdiJ4ZmG6MUHClBXz8ebiWddnH2lxuBvxoolzSpu2lv9vBFtMzpGyLSiGnYChIFJheETH6UxmGEHrUhgUTJFvZjeGXL689tmCK7S8/2wNFaEEUfasVqsX8OK5Q4Y3oawPNjYFubd5Zy9cfV2JxrascXVyl6bD4EMRHt5eam6hhltdqBol28FgslcgJtpqeeGpZqMXoevrj0BLu/oN8JfbHOO3gmImrwHf5hL7xSpCRqXKWNFOnNh+OK9SpXuFvwKwwKzLIohyrS9DgbX4gjhDLubOtytL6PMkehPb/yueCpRKv4FXcmTCxLNRidD1Nm97WvUsXO/QjcFg/4lPH/H/7UOGl0qtalARb52kH3DiuUOmN6GsdxY03tfD4opWgj9jd/iESqvnRQIxoRbpVaybPXXVe7NnqQAKRHnCIiW7q52dneIvN9fR9SUrCPH0FykY877rB+NAdmcPWuiI7a7i/pTpBjtgbo5FKzIPjCgUrdV9Ez3QENxaqzRK0GrpxetC4L3yKd0gkzFKNipPV9I0+y+zW8VYbPM5a8PINjrcwLfRicz2dqxNQL3VcSRVlItMBj2NClLcxiK4F3fMKckyUfuJw4rhCyTccM535jRlqs2FFGNVAhMrw5mkzTzb5fi3/z92UVJvJ2dMQbieHtWMjgYh/d5ISd2Fa6MXmejrj2KVFvgQZ1cRhcc3GVUIx1c+5EcnPmJEYR9hcydd68OW4QrlP018Ftnyglc4DiuhTXJQuu+DY7Z1pdIDavzc51sEuFZ3ZracEwvbQhGoxArhbUuIsuYVebK6nz07rnTaqklriyY5pHgMROy63a82LE6SgZ3HX5uzoHVeoXt3FXJnEUQFy2voE5lCFj3eRuj3QrpxaBigcl9a10ZD4z+Bjs4vcgc31NG3v8sTx/CWfqfW8MRmWNoLYDqmn8o8pRjVM+vrZ0DuuMAP5xVrxKdnx4cpeKj36Gkier/abixD05xES2/hEy0rOEBtRdJAwnTvyobyBDXhg9lTZi7Cf4BCdj4nJSRrWurXjtLrVEcrByHVT+kIs9GJzPU27iJ37VVNTSR/JCKJ5mDSdy31bQoxqmHwT7I4rzELl4qRmyCfCiiDFFn5XpIwOjORcajKvRWoaC5ji7K1+HzvJNBbdIfrwnjU1z15WZaGjqly7nrFT04JTdXt7ZZNSRqKayPcdApX0XPM2wuYEINzUloUS7luvqhOBBCvz6Hw4rjCHOxwg5BPFYdtljDosF0nqByDPZ7qmUnMxeA26qx88dnkdVYN/QITEXpoWrEo5sWnrBK2mnvzN1F7ycFnDylKzCn/rmj/BFHJI3I4rzEcT218ICw6l7sZ3u3EkK61J3jFrbMLCL0F8NeIxdRNs1UxdBs82n9wc2b84tByRkg2pqaABtplTngBgex95fzJ5LgGO8GdWoBmidlxhTko446FzCs8p1uTv1WE9SBJaal/7S1CbhOeNDZPGT5I7XqMTu5dbU6XYSwMtUbYq9XdDSgpRgFjQkD9j/49n/ZcbTco9xoN/CbAnTbTk28HsuMK8lCixw54ZNA+m7o5G/0skXw/Bki+8M2M0jPOB++zI1uVu5+Q4KUcL5b8mDyPhvPFVgxZNgKGIncT0daTQPaLDm8CXz6x9H7PjCnNT0okV/sB8QQnRqcly1eHDkMSkYHa0tSVbrDsE8/3TBBoUZut5n+AHN5274qer8Yo65B5Ix9VjpRqlh8zmFdWSv/bobczSMQVwV9HXIx1ZwUaM13GFCeo4EQ8q5I0wT8V4WL08bBjYuz2zhhem2sUZscRwvivFgRngwznSTkzBC2d3tpcnaljqmiH3rbn4cxOt8ybRnNRznovLDneDSq/tDAoTctHQMxsETLrgp0drAdAkVSXKVq0ExkTl5dVg5H/bzVkpdgbM51cP4KEfp5iMjG2F25Gici56T+6icJoYKy+EMsAQCXOpWRSn3T3iaTVEKxdyg0FiJYRMbxWt4woTVUC0jV4PiIyl/aDouQboiNzpQjTBVh77bAwFbBkdGVBmmVUqMM76VUT+55OQBDMbKx9fNOd4oANj1pZ/LCXEGNuoheHzBCRQB28sWccWjOMKZZ+C/ewVQLhBaenFTPl+JquJfjwvK7wafgWUnXrKBMKG/PSCr/I2PWAl1FWhI94P3CiqngG2ZXbTbFgpAZBtSMgzcD4OBHHyuT09UscVJqzuYq6N4BJhMG/xfy3NaUDDAZ/JLO0UrefhKDUzK5QCh86I48SgyElnk2GJmHSlAliHKvdPNxZdxlwA1wjBNrPEE0BoX0PieMESsA90OTM/0EDXx/lymVnLL05q0q/eaVaG/K1qGPXV/7JOI9jEeOy+nLp48Fp69kCNGmx98ZKn8TYNUpJMbcozn4iU/fCESzgWjzOtpyZg8tn4iHxQj43VcYV534i34LTOqGdgyAFlud4E5WtTvWykh84ZyAKGRjLOepQbvCl+GCd5s7amHDlIiZ0aotk/jgl++QFDbKtzSxoIMxPj9L14D2Srj8mkSVJrCoyOK0xflegCflilpJQTtTy/nftK6PVgI1ls7ywX7MZqUH8QlVRFF00idV8gJeJepZvgJGNSIgsCLdIxGsj4Vs4VmcYVq9HGsg48jI4rLIESJxZNUDULMOQu5KDku4YVik4yK7RIdeoDYO5Waxpw6F9yP/CK1nkwVMykJc+TPLrE14IUuyulT3+KiuaUJpZNtR3nEDXEIFz/ZS2Cy2l0wXqoTo4rFOEG0uDEUb+fQM7zrGubJf3ptHkbASdf7P9rMSP6zfH4OCDKwRM9dq8e1rd1fMUyxzowcGqgNVlFwxox1CdcNJs8XEMvqua4QgGutkXaqf0TRu3POD5dWAceaniTzqxuDx64uUMgPRatwX94VgyVyMnuTDAL1u/eKQd2SkhhbUMgtspDJTJdhTBz4QoTx0FQGWcaCXSOK6yHeh2cbLaeIXuUbMxX2d3UPKfLkzzEhIYaPzn3wffiQesWkP6xvVoOPzeZf3SkfBG6UwKBspY4lM0ZTAexOExKOIWzaMjhy2Iv4nBcoWY2IySRrscxsoRcdZGdUu+Rti/YIhEBZA0fhe95hOjzdVzjpLumCXNWkEKXZ6XlSbkSXTju7BHVaIhEa/mZ1EIY/BrOj81xhTUhAKbPxB9QBuboMGn7M+X03zuyf1fmAUuex1CxiOJLyYyYuk/8IgAaHClTimb7g54XFJA9HfboieHrRPPnDV4Zk3RjG5fjCgujeiDLFHhJYempdUjjNlr3ySxupoRqMSkbmdhb7QG1b9jlD7ObfhwruvA4SUkiqCYz/dTigjAL+Zs3Wf7dcdI7ZW4uZOT2IeREuVsfkVEjArL5A/7l6MAic7cD7eG4Qqbz2j7VkGuSY5bW4V2npudS8+f9tCcId8uHdrcFICn+Gz6Met27gPFZS/iU+crhzNhP6GYCCfEFERF9rSONUpMu+khlLVreeXno+LMOnskUwjXIfBrQ5RSuxqgcV1gbeoKI608WH6WH9bfSR/U20haAHb/MHjq1IYAVAAv4f4bG4Ivs1yf72xt+3IhF2xhUJPi1V8pa86kT8VAIlxDgEHdFtOjkoEEmp5zZtTE5rrA63DBEH/pL4wN+0Rer46yr8eaOFlfp5jDOnM6+ozGIPiYnXoVnuu7iuqUhShpHSDDjOKEywP1jokq5UQBx3VyUbDOrMeb9Bds9XV4POqway8tll/gn/+ugVkgHIKvsphHyxNhx0ZVkCb9m3+ckn4RIvzrGa85Zd1vksrpgN+VoVPX1cDacUAVwEfbeFSgjWWM4Ji12/SThGnI7BWBZ34+Nx3GFJSLZ2CHiH3eA47kd5Bj91SDNtiJpJNiqbiLn5e5mGXz/qa6zC8MP+9c0JI8DCsA5DpluaZjKKkZvpg5XxB4HZ44mJVhoOt24YdVoHFdYJKoFBkDCzdGdsyzLvRZwSSq5l5zYU9PWr+PfI35+7PGiZHke+oq5eCTaTchBZLCg5ARUW5E6qpRkB0rvIS1fiGFrEtaaT27skpA4rrBSKkdC/J9eUi/21fXshppf7fjoPsY6/npjplRKnZnBZw2RTlSKk1rVAjjZDw1h776RM4sVjWG68ZfvpqK0RQmnaJz3cyOxAGipiHDQSIjvQ0vulY2+GHI4R0tY0PI0nJpBWgTnv/pp09T6BvahFmIACQ4nhhP7XKEBUKIhfr0I1kDPLjF3TPSHLuSr/Xj2vofDcYXFIuZKJ54DKHN3Y4yjxxuylxYxo7myF3pLxjLJSdQqrNuPkCRE3mo47UEGBkATbVZMKfkYDAQf0GPXWA3RIeV7W+LQGBxXWC4SziyixIAbIGUOJNYznB4q22vsmsUuy5SbtM6NqrWGya6ULLFrKEk8dYSzdbJBKdiJba0gPfVIWCTkw8EcnbcVMndcYcEIANnVjx8dKJ36tr4b8gc7X+n9MXjFugljnZicjnOJ0orwnoiINzdREmtl0JDAF17JyWOClow4PW+B4cPEInteA1GczGD6cplWU3CJUEdqLGvOgUZtfVXkD/ZswVcFp1WCJ1NrSRYegRsvFzSpYqy6EjkLP6Uh2Jw/WbYVpZwg7Ess9jUakz9Ip0bEiLz1R4auZ9FuCndSqR3hy5vTqb71XDyRBSl2THosnnFzFKKDuPBUp4rLLYivH0pCSJSmr1AlXZwY3DcWJWLxGqJEvutCvmJqy7MzIkcrsGg4np12W/TJnTOzYRc52HrP1fNYbnJm6B0cOcvXGgo/37FPvcJrPmZonDndEM4JuuO8GOph4cISTi69J1AcbHfAhoZqDy3H/ZIspSQAiiiga8l/v/6YB67xS7R5DnwVvz5j0XPWQkCYmXbREhgI2Qh+96Xumhj4x3EGHEZTld5s5KQIUPpTWCDoKmHK85PGGoxST202fEMtx9C+BB7kWnSIInJUuZiS98ZNvZ52lYI3brY+ytvyITqUF/o8YyDMqG63+mgbHecMeppAUiTNIph9HdA9WYh19cubGELfWRKG2CNDXfEQTKg9m5Y7jg+wkLl2/NpBlXsDxyYJK+GrwyryATxQJTkd//m5SYi74CgZietwHfh50EScbUzEUkIwTXtzzphi/RtSNejCyLnFqbQcEQ6MvhUc/96bURNh715UEyVPhe4ek0IE0h72ZUuqBot/bWSP5MsoRGMLU9iO00Cc35jwbFdDtD/Byt+Eco2UDXnroZYj5soEiDLmLmSFi8U/v12mVvh8s3DsZvpzP3oTyP1zqcVXknXlyVdC+chhhLMR9LcG8pCNjaYw5CEWa9MgsWmJtidXSbiJReMrDDmzalvfcV+h76ytvWx9y8v6Oz9MEbipzFcc0MKYrFl5nM+CkTipCVBZNBUln47Y49mxMR1Qp5gLFhAYzAgzm0/cooYjTV+ckD5PYmtXVOuGipVfEKnOKP/ZSYiy1VESacdoFoYpJ9kUB8E2c9jDxuww7ilvWzDTW3mjTG+xWTdFtpav5a4OQR8pW4uKWgaiQpHglywHfmVJutesHAAlFIvqOExUda0tO00Qzgaqa29ynbBoYz9ASrjiTMhTf2g5HDONoImO/T2V8vrL58Q4sL1HewJWhPVCchiUDi2Fs+dBS8Rgm9P3rBBbqSHKTLD2XoNljOcOmMyy1nIknHGqc6iHympKE/sjl5iZM2gx8Z+5kHLrRqmKc0EdVHOsFTZK1a9UZcUevTGEvXfJ6fj7szKZaH0uDUfqvvCn93Tx+koi5EMiFH6Xeb8EPre+WJpqlX1iEsIfFJRE3WgUZdsrW07KbhvTGfOhSm5WiGpimJxgX4CF2bTT2iyOrG1Py12Np8wtG/JPK4l7FS9HRvPZ4POFtzEm/LlA7+VjkBBrafBl0/S+pN0/O0AO3rJiL3myhmAfEv2hCzlfnM3W91hQR8sxAL0lm/+okhAz5yCb+98+UuI/cyU6v48kYQK+As7KIzBQXVOIEU2nB5tjWx1NzrALox40FvzbxGgz54f3GhCllay7ai2oGlvx1gpfJORskqgCLQG2YBLBmQxGiv9ZZV3cVaGfvDRmpeWwQzQDw9qEO3VR3CeePm3P03DUN3DoE5e8ViWRnxZZVf+YuN9w9V4XFPSkRSLjnh8fJQciJ/ZHL1lTpl01BtuR19mZIqjlzgLFEi4TRrtkcZWl7Wu5q5BXSp2xxwOqiEq08Mp121t7851kIZ5jxtysCCzMmVEEH6mwdT6hJ+1hZ40Y2hbMaGuFMILKmEUmsXLVAy3HB6VOvPtCVMQFZclja14P8zHLEGo5kxLVFMK3d5QueU5IzkUk5UIYbDOrAXiq1xDtRLTxtTB9NAYUqEVajngLrkzoJ2BoRZQdPoNskUkzeqaw96x4P3ozXzF+xPvWW+Mlor9EiU2xbziVds4WGd8isM0slrBfL8quGteoAwxWfjK7liOAYFVor2XAHlXE52n5tK/bb76g55pzTCSosA+/CEocM4Ocl5WVx8TgV8oisMcXGDYu3JJBgmnfDK4m03LHKFJ54eCqOxGosOtqTMuqtkM+nIeJ63Urvo9ebTWR77jgFMRDxc9GVrMvnDNRycleUtanMes+JDKCI2DYe2F84Rgbe/SdzoAcrYeWI8pWJfyEwjokas68cgfuZy7QUeiy6SJ0AZKehCFaBJUV4sCJ43zBzdoKj7a+WrmbNpT2F4LT0kcFsTgQCwxcNsqmKUSTlvALif7gRd44Z9kYrGL1nrQc8ecm9cJKrkkx/N6qNQ8y757c9YizfP5UwtPPqeMmF4FOIZpcgRWu7Qs+L8GvPIT7tkMWiEFEZRERY22iJHHCaRbXLCkPAwqvCQPBWpD/pLIG45t8zjW1s4ve/ZWXovsKBvx/lUIW4es6gicEfOogWSUYlXSgp+bztXCqLrsiwjybs8X9+qt43nmVR2ZbDffAoU06D/MKozvXuP8AvuKPfEZJiVkjhtYx2GZ+kHHrBFk2jlFOD28rkDrGEI0V7+1/ymgmMZUQ7v4Dj+yBhzWXyhoO+Cg0clYfIEGiRVZZNeY1uVt/mAOfrb5Nxf32NcNnfIHnOuQ2w33zYc5ZayrCHVULSkLnCkUWQVQ26ovY3dox2Ed5DHkLNlpvYcBXaBlk5OLatRzRNhptjbLvXyHMsG0N51QPMBKWj1IZuHosm9TyK+GMo6Q78s/cZqCkzEyDkt2AIXLN2qFkeTfjBwKbKgyeS9Ry9EVQKzcDW4H/G3WMpq9QwzXVPsooWT4G3XSyRnqCS8QPJYkSLpwef5u5BnUFKkjbxVCfcH/Mi3vy4gvScvhVIui3SyXNJLYwfCmh2znpm4zK5WNThqw+uw4jE9L4b2SJttEpnGzJ+v9t1WGwcWqCogYtYYir69M4vXr4qdZDabljJMpo2Z5Zav4PjjwggofueLj+QQk+dg1XkjNSE1TGqYYuX2sbf9mvQlKeTmPqthemPAcAuBBUdWMVB4qlF8OxsdnBjyydQFN6P9ycgmYSm2He4Bf3U5IhsXwg9Q3iMhLjmGlY32Mmb8dYXlmeBhWKAkVcJbR8DdGXCkY8b7nSOGUYC3ByNQItx3EoFxuxfOU9R59kYKyuSVwTx+yxK9IvVgbgw+mmO2qkJYgMAVgnoRLz+XhlcjAHjoT6wt2INio6V2AFQcEpUI+0HJbh6ZL+36ICaI3tOVIHn8933kFD70z+z9HuyVQTnrSXdMqkxDrQdX2kD6sSegFFCw1bS6bghLzerh/jmjglG/uAwQ9NcRD1w3DjgbI+WJ4GfOWqdbUckXaMcsOWPaD0LPHHaBbqqNLHXUODpCaS/kd3fC1ezu73bqGdNzuI3csYh18ppzESLYTzgoAkSjn4VaaOrylt2ejvo5KZxOL//M05NQsdNJvxCaBJdot4Rb9QJ2uGq4AdPjuvvCwGYjs8OGIpIcQuYihctHQ95AccF9OLhp5qnbovfJWJ7yM45F+WnHjedVMcW6FrR8DyiaHbSFhkZCSUxFoa5CP9ud0iImfHcGQgnp8KarIz8QJGxGk6aPI1Qoumc4dPaCxQCU18NEdGL9f2eDlZPlF0BayuTbzy4XsclHGwUpSHglNOpEEztCIhMz0MkMUARuFAou418MjfNR0x1jqB5fRj74jyZVV+g08vqSj6jnwC6bJYSUzku/xgjAsR+mOq6TGsSYFsbuWDxK+EaYyeTjSj38ARPP5OtRB6zTrpu66WYxqS9ArUh+0hc6W0mZjtK/iE0gF6AqGNbPgnnTj4SPpvfsW13AqiBvEKarIGqKrHEPa+G/H6sBWnZAsb+uq6Nd1VcIkSGN+qC57Efq5XLunoAfhE03BZlyytSnYJc1b4CZf0xQKB8OhJnoxvsUwEw7ZFY/fIVqiHth+fuxFoOj4o1fkfpJKsstzG1iQdGy3BJ56GmpW8kexG7NTkxgH+8mTltTVoW10BAmuuPK2fVDRbb01ofxIw9KaCtUjTkWDGqXqE89VUtTBHHSx6MmRkLJ+QutFuQEVwAmsQ5kIdD2qiTE+bGtkSs8EJzzfmv0X9czPDXE+50p88xo6FvpD+QamHLYijhr30cULL2wDloJbJwzI7Yo9QMWMKpjhfcAMk5kaDTtFT2r6rmkhir+mTGp0ZoyZR/+1H/XJFOyYjFJ+oGgHrrR8Cx98f7g4nv6WFkN7WxFnBL4GSOv8laK0qmujb6VMj4olVgDOHmXogcJHkP/wNffVNospKyGsw2GYWg/EQS5GyVy9+C5AK0KWhyNT1NN3VbJRNmbRiJXl11F1HeKZhZ/lE1jBdaWV11sQLAEJylOyOLlzhy/vumYnV8Tev6Z74HvuSMAp/VPlYrE6Fsh770yCHHdA0Dpo/KQvRfsNAlmjoowGTsxloOmKuDQucntIDF09L7S1v+0PJ8omuDFlDk792VsU+SSfl2Mduv9DWzT7lLVtiJszUaqHhJM60oDKREIq50lGZT6NPjOBry0o877jCEP0LQaC3shT9dcK5mY9s+A9gfhlNRxUrHpVHKOz58IfTv6OVy0BYPmk0cKBha9HuycIUs9jXwAyizr56hQfWXiG+1P1ykHe6JmqVlWfCcHIPmrhKKLFbGDYiGuvTQAFXQvUbajos4f+/KRkjKvqiGg9VGcJ4SCbpAgcmeBPjbK6yGX+t8TfrGE+vKw87w/LXUvySk+ROaXsqzIAq2hGRjwzgpZZECcfvUDrMs5H1uJG8NWgBKsBlm9mEobJAeY1DJFpa2tk5j+WUKKsadJxivDAgV3mXQD4dzWizxtE4KoL7eJoxZSG5T2NCUmQGVnMtN9pBkbQKDDCetDeE/f8XqJFlpQsxy2v1YvDY5vSVxmh/ovHmQEJK5PSwR9ZOoOn4CSs/b1WCVXMuc2cES8j17qrE3mMsoUCvY03iSrJw/FFjQhXADK6meradRKkNMm8duUnT4iqWla1hWENCJReeB4mOYWbCnY7WNvDyoWDJUw+03S/9P30a68YhepXilQLucohfjGQ0LJpegvp+Y+01FxBpijEOtwCPubOvfua53q+kUzCJDIODpP7hr1QzgVjMx9SgoqJxEJnSMfxA8WbHRtZvFhanaqjtsLJojPw4qTiXudu4eglHLpfJwjEG1tUVXiqNvxlbKB3CoxoTsYTNLNR22bt2WotNKYcO6mfdAg4+Uzlnx2c8mBKGXO9S3kSvTVSkGmsU26ayBBd5WcotS7Rbs//jS4Lq858axRiz6HsIqsCn2BmAbhNjPh0TzMV+8bPMDF/K/ZtU38DBYBPi76Ym3LdcyUrY+24wZOpX8vGgJi3l0PrCbkrjlG4iYK8yd3xNx6H9/t/zy4eVOYArlg3gV/EGwdOD2hECMhE/RlaBTF3yd013y0wKYEzse2JmpBabzoiSSqEutFcEaT1UzuZ/lJcG1cSRB/kQuwJaFDGBoins3QuZcXdYGmgG2u6XqT+/rZhce2u15jIX6e/Pw0hwpSYQjpoda18PjqvX6LMY2Z0xCYuEFebl/giiH1RJpTBn5secqBudPidispKjxtAULUKEhFKWcO9uXATIQiCGLd1lQ/VI27GwP36NBWXsU8rz4T2wqNuK3bwZgLlcTQNoqJdxNWw3Om6MSX6rMMNc7JcgbarjnhFE3qT8O5GVuN64QMQ2L6rwYYPaseRxAwdZJpGzw+b5V9txNEu1XLeh4WoYafobJZuAskaUxU7rXojG3bDcSFqMSRcrZobKP7YDAUzXyNuMSTFyyLcKrrTtFjtXDBeLpeTgw8Wd/O1VYg8xhHnmErEfxXBelNYGHamavutpuyP674+V93dKr1VmoHW4b72aq2SkOpj5ebBuj3yuo1Jzr8ZkpSpLzItuO/Wo7MgnmFs4EwmyNYkXUzAoa+VwIft7SleXhYBbrxBODXZ8bbsEQ4X2PrSeJd8+BRzk7V0z02kZGT3Lfxsbcb1D5sbk8VSmmJtvuVQ9dVk15VAwJexJIWZbSjvHWk+RF8T5TWMU/2euRDQqLWTcArmaobbj2KzggbstWyVCJy1sujw9t43TsBm0meBVNV4qvn7Rv6a7oXPQQehSuFQYRLiKwvAOaxodULEyY74nW8wtNkVQhVA9AdNClAYGQG7RRVZifywg/0Ls5UVekFERxKOLlxsRZNkoTq9NbJtKMy1xdmcqhE6ayHdcFKG5qiNSAvpz6Ter+nMkgGKVrofRFYAbJfgZYxaqGowxt9xwjy8pdAKESy0M8/Ql6/FSjWGwOVEebiJ0DIPfKcL5tVsJsgaF+wa1baqiSJMNtHC7FFi3hNXOSHNWL7IYGA3QjPi6qqI7IWeHskHaIaPC+MZRjfh0YoxZzMVijfkPoOmVlH57ZUfEvYbAx7KU/oba1YcfdkzToHJfCrpjgYiXMKNMbVdFkcUrvOYCjZ2oRNeizZ0Azsf9DPGLhJaih+yi57kojrE0HYKcjdS1sA6v4Y1xBIOx9k9NQcsbmznmAXxpuhiS4ZxT4iCsXipQ2lDAQLE18cOu+g6RKcFaz4tsjcqjQ5K99dB2nNUhjMXEEvQK5nkBCSCMUoSl94Q59j2lNmmzFOrzf2ga+LMjkLOxuh1o3qMcZ68vdzjvBQVtTgV7zA2NOM1DxsPm8DD2xyDrkQ05CgZCaR5+5HMxDDUWJuCpAkJ6fZunGWq8X1paxXm/3ZCcTc1a6ytOsxLEg4Y83Ww2d/LohRIgKVUsLTTGIFKBnGnU30B1PuN9zCUgQwAKlt10EWBOkxoUXyHZ2GbFpjC0P7mMSdqpjhe4LdVC6+zFC3gT2afWGiV+UjEzPGG1DhwbFrtExkM+GM2sKPd46T3XXFatLO3ANtCumWJwQseYsrzGjLS5OKEiDHwLOpsRY+sV4MY7UrC87wEGiv3iRz2qFNsXgxWHJZ9jrbaPZ8uTDYDYmngW4RoDFiX7ZIA0Xv5L2/M059B6E+FIVDn3ojr+bFyvucmPvbOwCri62ZsK2jqtZeakJDcqrrIWBZ2FnOnUS/DSqYJVTjACl8GiGJlgRqFl/fBIM9NwQmYFOrlwftOBT1yvmfwwEGV5eBKq5CZ2E/Rg8cI6j/0OYjol+RwWrTm03vxhNVV3xzJn0QyYFi/qc7z0gWs2ofglIhn1K2kYI3iNGWuxf0oSEOqxrFdXXFkIfyMdofjFGAfmFhsO4TitG0ZnMT6u1y153QsBWYznB64HdrV+BPHygIAshZW2NQ1B38G2aftEZlPzpQCZ9Qzqo4JYN5tUZz88+xtgbSq9yVJw5VkUDKzJmVb/Yy+1bulKsnxpgzHBI4QEc/aEk9WPgl2of+WIuX61ZVHDPqrxxY7OAZGs8L7ZAC0BBIK4UDXUyqYhdnFs1jYwf2MT8qLJutDeNTPRnkN7XdesoNYTx28TzaaOmwxZxhyPgjSAmoE2Xgad7NLBmJAClGBoJCLiScE0TPWZxJLw38DAhRWHgdjZWEoIX8KU56oCnrsoXPpacdm7AHUmpj2H1r9hx//+oSsfxdEA4r0L6kMhWzcrqxAyFqICdExHr0pBCkDNpQcvi/qcGBPmFrBgbqPiVlIm7P+9wDHdsMScDXYtqQWFNjycRWy7xuj3CsdrC2ktsPYtajyibHVJIoe//CHL4uo/+OElvaKXYFlt10yi+EVM29gzI2QZXwo0pjNATZqBiSkbE+kOocHc4MREVG20usQ8mtJ859Y2NaKDXYR/8iQmozBgwiUCQYDMseaL13j0QMS/9FdjCvU28r+ebw7gx5TJnVzdTKaOH72QFCSdujoBPCxloCadhomeBYo/wvHQVM9Rbp818dyhWc4cZe0yylxB3vwlVHLxJmTJWwCGtrORuP5oqRMBG36WtrMeT2ZpZf9/Kp57XALEiyoDb9hMqmbPnHa49i8zZKy9jOlloGbQDROpEmP+SDR09v1hf6WK7lo5Ng/IWBTFzZOUDcFMbnGXHdHaQNLMUZvQAwdk6/AAUrAaqvonxPqjujAsnqVvN+TvIYiRfkFclCfSzRRKfUNpVwG2FMMW0jNm6IGWJd0PE19mTIpbgobsiancTXkCJvUw/k8dlGbRVNvVig0Gq8aUKQ2TLybih7OrOXL9fQZ/h35mDOkAfqgIf/sL+eUC+QklfBHTBcVQ7Jv3PoAdt96SIeuIXShJBrxMpBCMycgZFh7w/SiahBiPow/kojG5tT+NgditWMtT/Fkj6MP8Jiwccb99CfngjB1P45FqIPon+u3m+H8/9unUzOLNYWJAfyc5mWqmVKupoGymrjBkuGLEVTReQ6URKBlIw0bniDENhDoWEmUaolZGmIeiMKqSMl0QRMs8AojYDtT8h+KlXKI4ET/M0fQ1wpWwn2si/M2PdRLBmisRZFsrfAm3lQgztXKGTNKpq2LEmLOMGVsRGqhop8RkoxPEmIZtAwktNV1fJUJdFAtDwh1VwZjcipodiA3wgFPBevXkAuU9F+ipjw2YeGmtR+zUJMLujxDTqdZRn+7XgTpeKJAN2Shb/tfADKBIRUz5WsX7GFlhpmjozw3TYJMRNF42kjHGLFw2kRDxzKQSiROLqXddwawT+pY1hnPEVUJFoFmjTGTJEx/nsoEfXiAcTtVY6xHgS2SrL9b//74atyeZ8BZg5oociqi11DaDaGkDb3LKHtksgdlOYI+AalA9I0szZnF7BweFhxYmp4fx51w04YUcGMSHeIQQcbaBKFG8k8jLApZQFXCJq+paTyZuMtPxehhF0x31kFOD+Q1y7psFCpXPbHZyTUmnvmSxfujNqPiMJRndHnjjZSVhQ2EmEAWdfA0UzUJUqMKSgwtmA1bVunfUIFUxsC2nT0CE2CGetcBbBz644VoId2Rpu1qP11sGolyD/E84RNAR7wdutqhhCsmghT03wylKCVM2yOYVsAwuVL3bP/iQoDikPTKiwstMXMaY5dZ8FKRPDUxLXK1WFUFztciYORRi5x2EfsL53MVjSGotMA/gh+8Ijpyth9ZjAl8SghURfPQOZS8izDMX0CWjfuI+Jx1VfTMgS+u7QRyQVLpUlgHX7qXRJNIJbxNgWp6Ow99UoJedLRv7g4Di0k7ZDaKA8pfAmMS1uQZKyq2D+BSPICIz6yQ1DnHBvAXMLcHzaj0soXMmSfQfYd2RjHrLcb58QSfbCepDo5ZhhlWDoUbp9OLpHfNraP/w+/ghNff/GZcRhta8rRehdYhpdiv2TlVucxKUrdUwXRSyjjKwjVr8MO55C9i5QNLGsRNYQVsGXCGYFn1w2D+5kBkTC/ctV3G//mqxGqrvsoyeMEMrfBEklTrjMri6ysbLW+MsjAnOAAPNtBzlbPOwDYmGvFTmp5WUmWkMtplTOBM27LmKNLRuyjKgRNqiFC4IZxoiXc/VegxdgYQgEfoRqAzONPcF6LwVLcSAdLdsWjM4bcycZ5NUGiTLMVcWuHOljTFnRMDyf+2FvSjK21sIZezcIQ5IvAU+gHatG2FEEA6iCPFmvrOvI2B6n7J0fM13Ff7ASOuvdGbA42cW6tHAZ7QPRmDRT5aZhTJzhY6HcGwxcC4ZFbwZXWHMBSEg75grZ28GZ1ouwt59I+0SOwJhG5WMEH+6i1zFW0XjcTz7BuiT5OxgNNB8aASkdSZ6wR/BnLPWhO4/LI/Hek6LfA/LartmcujmL4YpIEml/rMcX427F29G2RgT5Z6wp4MfvmKPpVeqgnNd47etssCadPUecUio5CpHYzRd3nDtQJH6By6cLWbNh19QGZMmqH35H01vQO2QYe9eP4ZLE8xnjNU5zIy0hLVzbiraRXJzPJkYb9JvjIlTIuz5HgS+LVD+usbC5CSxH7uoEcS0ecGxZL26sqjCDW6rGkfsjalhbTFj1iFFQl91Q53Tp8YnFeYZi1PiWIOFqJkzN7NTylsmqdRnl+Ork3Fm2B1jktxR5pxP1Q0EsBLBJco4nQRRtxr75peXs9qoZFECC3s2k2GB+Uob2NzwYBHS1NYSS/IV5UmP3EqCX7oorqLub4aP/mM0L4W9w0sdemaGdPLo/4pUhIOlOJ6ehzNDa4xJc8OYE+3AkGWTYHjyhI5LysZBfLBHKBE7CGJqQpqPF61MC/W3fXW94indXnG8kL89iV8+OHJEf+W/t8TQT6VGzVFxX9DOfvpmpmpcMyWVemUc3/nqC74MJjEmG1FZ03TXRtaykIkTWzAra7rL4kCQ0UssiPMr6r3vCQs3rVSN4q2q4Tm1H3FTS5Iq5A1n/+SZzSzuN1/Vt7XbD3FX8uaduLlckWpmrShFoCLuyYhZDi+L5suGjcmPdWTGl323jrQYjnE860Zprt0Su1euWPiVMMM4V6WJ1QCYAa+t1tbKd7T49StxK1gEzebczJw2E/H3g62A/FX50p9gTJOawZhsiSmViLLVsP7e+DflJOaPAUFm1nkEE7GdIELehXB3vm2NU552oJnvaOkPN2EKMIMZgV4b3W6AHl6WwwvfxbvQ50QwMzbL/OkFVbCiI+m6SFMQmXc2KCQNlcS2nFqIxmG1kWQZVxKzGRzJFhxtDhysSNsQ+GIm6nPccSUwY2B53/0PKGnULeKQm+DKlI1Z6sBhS8KNhq0/uiLtNMFYYEZ1Bfn8ixeNjIluS3rnTwa2sq52vqMl0o4hJvEzXOybb8ahphWTym1GRQ5bfHeC4y940tNg7Chf518DprTUcANBUDzVD1gYU408ZFxJVyjvwuwDCEKTPcLJjqXAO8tayGywYtA22AzUxRVhwHhckmJko71aiA7ZqWpGo08naZTyxOHVffDkUomxfVczUxQXB+Z7NvZVJCUlv4plXX5jIPxKOfEgaqjlvHPUEIcIZ405fy1UERImlsNJ9ZVySseNzi4NaKwWM5ES2EaNGaYZD+0O3cA2QF3tjOfJiykH46BWmVJoaEklIu1UtN94h76zlHbvk3vEIxqhY5LeOexrlz8wVYO2SDlWj3w0eH9xJIREq/BH8rGD8+rjt7izzJiULlbAPj3uhiNdJYaEvQWWdPLNVzS+3FcA+7laNK6zlFWXeq0PKBYBV68CSIcUjXDfeMARGOD51fWOfqYysxTupPBYFmiMBAvREjNhRkWnj15wiqgMBv50MU5e7DQxJEoJsyTdwpBKxFwbCDJBQkpjku6uJK8JgujBGvFA8sVN7LGkd56cBNO7BystjApFKZN04qjB1a/Y5lSYkamgo4FdvSk/OgaGxC0SlsaXg8igWE3xamjXsRr7Y5D03mWBIGOrR0gRi5P0zpMC7thPqlqZhe36miTmRufwW9WoGw0dIWNodyLM6BS2AFSfXhNEpvhR5Jsd7SOGpCgoiIwvb5X9mz8hMgSLuxdBy0yD2IaYkNFdg7R/Zac+bncltVX0jn4LKJw0FvLXIv5C2E3dF8FkjIxdL6PrmvHR3IlTmSUsAsDkE/8UEmJG4saQ+iljx2JbDr4EqFTJkBQiKSksxB4QRJdrF5OMUeaYNzlUWWuBudsB1AoM1Sj9ht92Kgt3OgGywfTtNzwzRsUoEairH0NBzIifGJLf1dgZX1bcfo39Imi92EK4Nw44n32MQpyJHiHlb0UGS9mcWF+HI/ncErEpGynxu6aditocVlzU4ahgIlQBLaflmlHSzkgEthDQlTu4mT1xm8LMgp9nzJUXfILgW+47UUslHGN/PDCLW6Lyc1F8i7jvZZuBEeGkqGeW15JOLIL13DX+GD8Hf7OB6uEhJEczmJEqZUGhujI5e/HHVRAjstOGLHFls6KD734whSgxJYLOId42717PRLeo5lw1Kl3lwsqORA3SurQw1YcLJPrYQDTYfIgCUT7tLqdMp6ncIn9FWkBD8AjaGTtmrHRU9oKGICnUFLjZW4cYT2FMex2XFSlWulQi/tyysCe+/36JfjymrCkEAUHQVVyeFkVkEGW7fkF13Wj+eqgCBJewcs9Gll3mCn8u0gZAQjD/bm1um/Eqt69S7ZXVdSu3qeMnkm8+XHlhfA7TtKyML/uSp3wUX3BsukQpWVx1IMqxlzwCodzMgqg7j34GVbt+xdjqajmy/rAEqfK2llG++oO/90bnQ8FnaGlnmRFT7KtvJ0BSaDEQTFEaID6MvmN8VoCZEXUU60WRbCJQvAGjlNAEZqZBEGaSJ7wkv/Mzqtr1K6hChlDJeLpfHMEP4F7cqDXQCPgL62hKBJx7MRduRq3GDJ1qjy6YTBB3vlwYVWE8cI0RTfdsqcSRLAiI939eUEqLuBQGO+fYtigZAXHvLOcTXxA39KuBrq+SI+vDnqlUlpfqytS+bv6G18/CnH7yeqoZucLeYkmhv421+a30G0PC3SE2dP6Ldw5FZy11UYQGRp9ed5U98y/wCCiWhpqXJerzZ4CRdMGFeEeZvxr5Jl6XGsxfKxoNsz3WJLslZuwsJuf9UPBprtzUWNXz8CDdxpBoJcKGrImBMcHS/6paegLkxCh2LTZPiyLYhriKZcK4USDy1yKukKVeZHlbgbe6bB+CPxNcC8CwPeK2noxUwq8LPebIJQyUZoKfx4MhNIbEL1ImLOOHq7hdewZHXW0Fv10S+4kLhT0zsevlic2CZiHpE4d8ELAnLVQNVXFk/RchIVfH914FOg4nBIU9KQAEk8gXKXdUQuwEdFD3zfh5NzQ2NXd/Z2w9im3YkH+RCfE3qmIMf8PgqEOBUjIQCaucUSkewWWbmYNiT6omGyTD2FXFrNQdnMjrI8d1YvWLsTYqUDLlF+nOkmro9k9GEA9aSx0zD4pZwpJCH9bU1VX0olzcjiNvhhEuM/zyaV5lQUs/EkOyE5UFLTSFr+J6BHAX3yTBLzoo7Jm1bVFKdMiooOV84gnnjSLW1lDFO4a6UKoct9XO3g54zMR0mFyh4ajx55Yf+czfUzap6mYuaGvinJsm/baU9k2HE641DPjz8c9PugRDDJqK3icCONFd7JcgXM4U/4XSHQpeT6skUp0NaRBEMR6gREmOCsNpUmpWem+06UVjO16a+raZ6rueKbiMVCnhjJNusaGQV+qYGcNQrUck0R0xc6JERSop9PeZOsbVGDKawnFgvg/x70FMc/ErMKChiaXcA0+4K+EY5wtuZDzKfkwUdnQWH4KuKDxgFV5P0QU/lavzUEFnrcNIEq7SakLHytD1+JxIGWmvKRq2qRDmrDhmerKxZSJxpIEgEBFKoE4fPV74vIEdoKB+5aaYDDTMJqucHSs26X+goPuBv1PKy/0eDK+Ew0lFUswO3nHn8plFe2Ln6B19F8mnI2JntGNJ0ygTUReLIvncVsH+Rkgws4nI3vNN176d19gFk07smCs90o6FzumU9SpUmGXoMGelp1grI1FidUedqK8P2fLGNnOjlAVKs2h7k7UPGF8txwyloQgjup/BmBSD4S/Vnf0M4Em5MhSNiKcYOUhWbkZN1WVLSNSQD0bDckYggWzOEBSnuy8166IT8aSqYHnYY61M+nywNFQLhTNMrSoRWQkz88NyWl4QB0lyOQFEGgj8rYeSnI3Z/+U0rGbjg/jAPmqjAyGf+h7H828UNpl01qD8+HGPxHAJ2kiKxIyTyHdfoAxQB4IYaBffPofQibrVyOYTCC2WkiNJEr6LmSfVV6A05mzWptxkcd9mVCQDOdPoHx1PYUQHjBGhYoAn6pEpm6/BQbz/8wulfAzLEJAdSz1SKAcU1yBu4cYJVQOPnE1f6JyOCKXNZtV4+V/Wti+WWOGJqjf8x/9ZXNF+w6PZV+tFITLFFWc5YDANJoTodhIjIhQBnKZ6Fs5+mP+rvjX9x7XKmA5rrVH5ppODOWmUMttVMwateGtT/RoKZEAicnUCxaxxCqW4tc8tSWgg1Mx8KVWBUeAA0AsiCvNv5pTELdmxmWGOXcTgExZHVCL8gWFvT884nr9kvIate+nVeCSRbZndKC5cTQe1oS8UhjGFzgIglXYqUo4FknW7JFPLl4R/vdjXgDM6qPvnkeRasnKTzLa+smJJOVNq+I1RVBWcU3yYeW4qPgZLe40eRyskhWs3Z5+gqIcHIicA0YzPnlVauF0i+e/Q2GMs9JyobI+IAs2QYMnBwqjkgB9RVhxve4mZMPOmtDGjILoKd0awlJ1HxuSUYIHaiKxMBWbpP916OOtM2LBWycfN455ZFso8mJz2TRP5joviREpfq9Cb6rAvIkima+ZuhKLgHiQJie+ImTs6rPg0Vx+WII7SvgVqug+OubLGkCKmDky8rabomNUPe8vwTE3Co2L7OrhnlkZ2DYOZgZOWja3QTwWVz2TV6+Cb/omYn2RupiDSrJVkahN97DzLbrr8YU4fMwpSQmTSBWIF/vNDQE3nwTFX1BjS/IkD52/NV4lECUff8U6ZScivgz3zGuWBlAJZaykdgf88ECEkUlvl+keiGpk5DKLZT1NkaftCGPI1pSQhG1XNHPKNg/pIkmuF8FZOL8GUqfl/sq3MwqUMBeyExcdRTtETEpL+618xRAUr4ce1+p2DgiDcI5GIrUQxSNj6tygMdSoUzNYoLVALRW4lkGxZGVYiNVL5y9hxhdRMQVL+in8mj5jTxwrViqIVzdn0P1DTk+CYYTWGrh88Oih5J5by8inQux2ZmowLxB/3zDJhV3WN0omruO5UZKrEAuFYIm/fCLKc6VsJ5MVTj5Da81Dmw5qZS5Zb8yk+HQTC9zN1jL1XBIbbUDOg4JghJjxTYvRWgksEaQnFb5YhDZufJ2EUFftCQSzBI5WIxaGYfQphqza2MVC7bqic6a0qZB1gYiVU/tqD+wnhlYgIGUOxbx6fmFPfEJrqX5r0MR3h6uqKsEKbs4srKRwzsIRninlSrDSpgN2VlsPCPjWDq+8yNo8SCoJ2cmFHa41SXDUVS71XFaYN3a+bF2TptZoIJyamIOf9ziDLQhDfAqe8rX+DYqzqHTi6jKOXN7wuBSjpJHgd06/ECMciQLKkmvDFujNN4vvvXyikvcwKC3mzUBA7yhZzr4he/hHbD6s4/pZVrOzXjtXN9FaqgaBNFpnShKDr5pooW00SEYzBo/OKOdkdpVnMjqG9wDE3ROj4GjYzgT8jJJFOTCoQca8hWhAjPdXKRx4ahT16eiTT3DRKby5jgFF/i7qZ3qpLRMytbiVWL0wR1Lu8rFQ1c8vnfTaKDRyaIcvQXmCvAxUpgteA1AM/J46cRrZyyJF46nbJkhEw+a5D3gWKcjKWjVAl98FQhNhTiYRudUc4qepmeqscEfFXBsXLgxxz4VXJOE/HFZ9fzA8jyXVZLMMM9GRXCE2KQcZVGNENYkQhy4Cjwx9+CAmj3RcBcf7/C5wXfI9wLRQhUibwka9kRw5nwxP6hitQGNGNVGJ1M71F1rZ1AqLcbJKMJHeKmWP+53OTkzz4HGk8jTe8xlF0BAxJXEbfeI1IjhjRwsFitrbCM5AUqJ5d/iHV8XHULaIgln0K+Yi1vEx0G8ViC5OwkZCy9z11M73VPwk/j4A4GGkKTt4bz5jjljCFfdO/0Djjtvn+awZ0BpbrNaT9hJdTNK1UXaXH+CYbW4hy7sb3Y0kbq5ZMsz0SalcapUNJmB2Vs6tbsXqJfsB7UvGQcMZ9Cfm+Zq5pIxEUyRTr3oQm5bbpNx0HByQMfxPNxDwJGaNF7M/sMafloJBo+hoCpSPUIxeKTI8gI+RIcaIHKM6e2E9cyJexyG2pW1qApyRahbBwCCAOq9TJNfnGHOOeUGTo/dOpDDKPskg77Ckp+EcvAZILeymLahLXjIotGxCCARiFB5aiu+26PPTn1AtIx9dpLXoQYILlhFSOPJK9pTBfcKrGquL2cN8U8FvHE0IuqtNHj3OWsLYpRjmnZRwHC8Yj6Q0ORQxFh999xaT8vhBM3ZGnkI9xiZI/ppzENi8qwwj5cKLK58LDVaqa6a35SNgLBZyX8YSkMDi867uQkwSrBIcGmXkkkSB2CUNR38pQ3PR6mKaGZcnwsZxrLR+0HuAl1Xw1Si8gnwsPZ1c101sjkVCoFguG3snXIbJwhXPPYi6mJNcAJuj4x0fUGJE6VoBoteYpDSXtH1M1shP/l7/guhZKRXRoD9Sl97JC8AGMvAqTzlm4F69q/QRyOpK8IE3BDsnaxj6ojx6de8zvg5xOGHQ0hsNIjMjraUBEOTLFMB1QNQQTz49lLWLXPiLLSjRiGVqjaqMjWDZxRflCHb4RLIE4o1nFQuLE9iUmVgmb+aewpZNjN0MDx1lAxK9T70VfTRgaGVjKnsO46CP300s35ivUw4BB0M0jrezoBCPEgUrESgmSKEXeu1hhc1qS03gAEiQY4n2vAqDY1+ADgrhs9V1ZFoC+JEYsveuA0PE377Mhbr2U/7o6Pn4BrVHp5ImrhMpLZGJ7tYyT4h8KQpLUhKBI9Y9rRCu8z8zIEDYqLXlx31gAmBsIVYr0cafvcmiQ+WoLdnqcGBXN2AxC6qWOuLNlOvbnf+fHUIZF08JCPhgxz7DmdDXRuplaRSKLc0K+IDLTWyI6oh99p4uFM5BzQWYR8DvUksTquWBzZtQ1YoAdRyC0VhUVFD2H8dHbi48u3z65guJg5clMPraZwxqlXyLb0K+qjVQiFVtBdKLEIlkQmVDYkyQnjaAEiMUgczjIzeHV92Omk8SAiEWA8XuPuS+LLsRA/J+/kc8gBKeQMFVlzsZvlyxkK2f2VapYuLcXTjJqRCiEPzAKXoMYaL/hUSTpvV8sh1erZOaz8AlLbqxvKxsz5aPVM5dTiaLMme7wz9j/41m5SajkInZCRgvyMfeFIOnCUrFiQAeQGMpHgQT26rbWQcMTA+bERUqRlSwfMrq5MMaA9LEK8RglX+C+iRPb4g0soUcqopJolVQGwx6DPJLLNqfvYfhtk41k8108gIolpa4awTiFBVEgvr06KYMS+IuLffOFQNsTh2K29Zc4vIwli3VnPcGfjZlqaSiuYxzX78L58Vy1cJK2/Qix6yHKC7JjL3mIndUoxfWmJVnKloMADGE8fjtp+65qGIb4UDQIZnlzP11T0BDC4VjCMLkCvkLIjo0fZsTi9hY9S6wLXyW/Br1z0lX8fhcpTLK5DpuB0YpHehGnP4yqK5ZsKWaA7KHSyUSN3ZUQxF4pEqpKSjncwTsTAN+rHxCPYr6x9mLj8hqj4DC+MXglKOKkBrrXKRVRbIXP1iiI3WxWfjImdkmjFPaeJdlMkPXNbBBn+KqxDJSvLxCSThxJrWuL+QK3O3b5PxxuQRIrDZbjJD+xXQ2uMSDkLmZq8oxNxd1rjuxF1G+tFRFJxeJmBIM4ozwK0GlgzCDctx3k6jmX6FsNpM4BqjFxcX6B8EIkgJ4t+T3toOELazLQLkbO8qHi8+17Ai5Pdns/vfej9JjD8rJHOkJcIlkkFWHvXRpFTpWrgFDl+Zo1SnE8b8nVWgDBJVIbwhm+WgQiOZFVIETPdKDss2YnjPMJ19PeiyRWX8Dx1fgbFnqSGNDOh59QE2enSQWibjRutvhLTZJVFzRvjQtZTgnaCoxctylSfevF6JagIpWId8SpDoudRKngcA44kO7lnfF9ZKUqjEcx39gCbtMpOS4tRTuOYoaelJt0in3+1hQRZ+HP1yiOQUoBNTAbygW6Qle1A7kqgJV2KiBmAom6Id3jLUzIFiuuzXP15Khf8G/+xHnmKc9DtXIBTDA7yRjoc3X21Qt1pYpNDsRNgkcWG1WurmVrDAbRBI8iRPSLNpYEjTRRIYA4mQ7xiTfFL4Jlwat7RAgRtDKcThmlCK3PbI6PFLeUnM4Zx3mLfBMG4jEG9O7f/gY2ySlhTwq2UcF+DAY+jPVa1o4AIrpduSrImNhFGFssTBziee8NYtGIqFd4ysdRJHami4TwR1VC6kMmuyXtNzx+XSDeNvkTDzvLIaNh0V+NtzCaG+0yf/v/gBozrZRiZPOzI2mWKBWvrWEQjfAoQ0T9cH+nnluqRqaDOM+35GmEKuEJP+GKUyG4tY+fJzNXuHV8cZNAyS7/JGq+XmOU6L910hH5qCguRwDdCECmjrSRiZihHg6MNdyhOtgB0WmcPZssZJoBJPPQVa9a9QaRQYkUc0skRF/r8Fk9zMG0R+eT56Vo4o0MXI6LQZtRLVqG2SAj8C0w5FKBkE8EW8PRtf9vfqW1VkJSLp5bwziNR1pB1kiUBC1JWpAQjZLcSOVPJTwfPqlImFjC6wMWwPq0XB6hC0ATWLdD3TwmRsxLeNgJWw1zZlGMkBRrT/HT1ftJqjOADgOjHMOufZPcPERJMM75g4WhucaEsBUo6uKwK8bE8M+jhGPh8FgoVAE3qeo8kg9rFC2W5/iJvzyjgpLeJ8DyDCXYaooF+OLHBocuXbL4CmEQZ4BHKSLopmH6ZIkqtF3h6KplKvDgitVwFwkWRiu1D1uCorLJHx8hmH9LYg2U5fjq9SnpLjEgleWvWGim7SjNr67ng40H1gzMTCbydxkJg9i5iytP0yC1gdMdwbAPi5Ro9e99KX6ybMv7aNA/woQqM77WT4Tn0OKBiyMuyUs0BrslCOVVGgAK0JTnanlfA8XTnEyslWHBBs3Wdct1ztKFJIDqZ2uwOFk+plyNJXFzCIdvVauOFF9Eib+ACelnuQAdBvateAub7UOSexS7UceXcfYC7KE1gR0wU5Bpbip2qEU1dH3pKYiNBbrI/GAsq3bVEJlM6Rqmr5OnOtAxN5pq9fX2NpX+ZHf/N/9NKVQbWjLT1uI8w+2OhCCCDuk2cczOqK5+HAktBIJpQt8ABW1WvH6Vfnvg20Q5p6Phl8i1fwXAsM3pS49yRNAWx42XLQrfGbBhD/BSzHrufUns7/+nFCx7kgx1cQ+2zI7LE4vbcYrGL1o485fXJyEFYhYJnGuLAfCZ465AQXELk4hjaRjEjjPNdcitk2miJA3T7IXp3XwhRqruQswkndhKPeMlHvxz0MtS7yTFM/KRROATvzcu5qvPDTXL2mnIFbv6PNVAoKM/qqZklulbVBYeWJc7KUh21cNRdWui/ENqW4SRqlnbgRqE/v5xVEOavrDPmWSqID5wNNS+gKtRdGDeqFisV+ejgAKNmAYx7T16s6DfkcohJEpDvB+8YUHeAqiTKT2yoLAvCS1MB5amP8ETrrha+RIr56tQxj7VYOmd9a72r5VZsE4qPid0/jWgOGWl7JL1qnEFKdD6zCEmzlZD3wlrPUgK8r6gPCT83Qe/9YoAqiE9lQRZlIA5+qcbu35RrDGL4N/fPamBpwvHva4cLEPPJhkraAiTXDjEgTrd5R0FH+PVbhR84E9LysK6ltJ/lf4Rdjn5q6HhvhRkbksv3SO02FblH6bPjCrJIokKDPDR1ar4/nZXAtd7Dh8n64ngYc5MMr+RQbD/kQeW1XYvjsKjGONVBIBMYx8j4hD+FkC/RToC+pciCEV5J7nCIPaIjAqqIra1gjlpmHYfKIZuXIDJeRor/6lBPfUSLk0FYfGLtNckcwUNUIZbpeOyz8ER655AVQFzHA2d08Po94SUpGtNOccp+IieGXRF5JfHbSNgxnvvyqMsEWcUjhCXCGIf4mzspEoctXrg4HCdVfxxEg9NOyH7G0E8SH3DvjF6Fr+z+yHvL+LhANPVXwPiU7rZlhMIgmL2DvnaK3ZxvuRGPQGf6KpClKLqIkR5gdglLdesrV8HWEV7avXAyDtdoYPYUPDnUQzDmRkhaADpb1nHZQ/78eEp0hbJdNWhAgr82YS2l88BscFfUGTWnfvKMSX6QxfN4LBjnEdhss38gKNtMbKSm0XezPxSarXepi9imvRjIRZCuUP1QSUCBfUh3S1jdoN5JTDDmk/3MZiHGEGBGchIm+rKqbLFGPgzDfuKSY+8lQQ/B4V5QKXYs8H5daRDP3nJYSxw0sLVmJcH8u1eMMvQZURq3e/wOG6gfppi37zgEUhipZXFcpUVAICP1s/sq0SMtW5BeG/fMnDfPkoXIavgsEdvj9I0RY1T/J+5kqNbbm9VpR7Yl2ly9Hx1Yan78X0x3AgSQLoC67Dq8bj+8QvkxnAVCYJpIhQxWQlzwl6o4rLr0/QFQp6dbpNPS/MY4IrQIHSsdrURjVgcjn3diBRLhuK9AzxQzOG/nw0uu9QfJ3+WLnCcESmC+igjp3jvsOymS5Hb5BX5qA2c/lgSkqZJekuJyLAwCKpHyNe9tyjNdeEahx2dPSoS0w4hIfhPzFnMQICCFPYo/olADTUjpWGpFnNt1ENx4zz13dGfHusR+57QJH2N+motMlIgH9ZJWGJD9K+8EkyU9xaAhcCKa8RBLDWy6vDUj6MsISwGfqYApiFevPjXXuhUCxlRgAJoNyM1nPnuhPek7YmDkxZ3tiTX+1BfvU7q7EoX+7WvmCWCqgEYCXdUqWasJPwdB7mq+IzafRWUR2wrb8DS/KR1EVFl8JjNqRGp1APrmeTYqsNiGW0yiUK3HfMZXuLGQXmEucMULluprxYBQMHyTufffAIyLjjJTjXna0z9iUX33e8ur38ZeWzoRaZ2euQusESw1qNANa5xivejNzLYsvnnBWHaFLdRgEdjQxnvSyyA48YbjvwMFnvlCGnI0ykWY/g9aa8yAKCtleqSa24FoqCNeLJgo2coKon8yFVC9x9eYGYHjv2JhDjAGCGEbQblEFVypLgKCVOeI3YOR40VCzBYzj6wZ9pWpR5o2lZMo+VYhViqjTWLxKGwJWgc6fgcXpxOEqvrxEc3uP632SilD7HfOtxZkYorwUQJ1QjgvAVss9+h2ZM8yfLCPGMttjHNTR/tUaI+VOPUvASR/UQ9qN7heing2Nus9/RKxGIpF2NtVsVSYop8oVbsq89LNvGL/h50rY9QQkLSNHMTJOiJi70p1ANHPVaWvUhyrj+85AmGV8TO/Bn7fzyrRiLbltmNo7GdiL8wyc5am/7I0PVEn6rWQBCsjKhE4x2oHpIbwTlkjZVeUbGUgdgaVSHGabx4WL6MFGhxbyvSalUoxv2xvVRDl7vYKI4lkMHSL5w5SNXsRoA26FGkWjeukA7LhJKFiR+KVP5miDhprarIKcOktKhFQztmBpY7vKk0JfK2MB1R7zFFLvEXbnD5Db3QLACFN0sVa4v2IA45JdjYerzde++1CvK1e4sp+l0TjAwRS4ilhKgSD5lWaJziefuN+EulaUHhtBsPwhxTNf4Ys6GgNXWO5cYrT/IML2Xs4WERsknTQkFUVxkBoqt9VfqFQdAx4FjvjTrS954LeKDvOmMjR3bN9iv5lEmsa4UI3QGebx3uW6+E30UDkqRcnZpH4k2apBdW1HMj5krHUhfMQBbEL2I8cWtRVD/g80fG8hn7ofUzhQJAlRrcFpuOr3LipHFCdx5eeDruU0R/ebgLD8RGmJZgx7RQ5TVVXmzOYI1ThVG5dyw3/zvuUPieD+dnQ1GrgB3Le5TX9scVlTkSslFVMzkdYuhJ6c1L0/xwBTr59gh9IaT92ofQOyvW0G6v5IHwlS9H9S1JK4p8SHnEjmucChc9qrngEgFYz5zwJ1oXqcZsKGx7kUAi+1vIG+l/Joos1f0PGPrPJTeDy48p3/7+nclIyccFZYlNjl8OJxEOKs7ThMXQzEajQnzVGLmav21O35cZ4GIW9iHsp2mOd+P78c/74Rs4FycgjjiqUC1WMBZLuThLPgqastCmKygYijzUnoeeaabYm4x8gT8zTeciLLrjBIKgSMKZhXRWVQWEJiEKe+RZZzfCtX+imkq8EIvUOJ2e+/JiYT+yPnPHF303bTdcC4VBPhe1QucUTXkdE5TIz82cszRGT3tIhizDfuR5ZoqsY3Tw42H3RAj2zDN/9w714MXnMwl8ydWBazQKKFPCzGxagfiVskQPpLHAdV/sVwiWo+WLmJQjB26eteJ+OB1JYnkBLUoJF30yWR/xP3Roeg1AjK4u83lMM49pEmw0qUS9lEOBdY9Pg5iEwDbtRI1aFu2IjIoKvJQC5DEXJ/ZGZXBoVVrweO+mB7apG4tlmtP5SiQKdYNyMJWtG59ur/+MgfaLz0CrVG6KvhRssmcTbJwcrKUnpRvznch3XMBfwNnUjWuZROzehBR4+mKlWpJ5pm+ZmfdTpTozdWc6SRcqx2KpEnmnB5FBItF5kpRIm3PBsqBDv44kV/vgVuCdKgRyY7KxSZbx6J9VKgdthHX+lzilJdlPHhU2pmVTDuq7lx2dgOTKtxGqap0BuykbVVp/YSAIUA2g/HFK/BE12saoKpHoviM/x03rJsYyq74uBd63aewL2GwKxwNT/Mf1PTnakksLsll/xHy0R69OyyhiKfIGVYFcjQ84hbiLWoU+1Tpr36dPQZaS4y/sF6qg5B+nSKuHsVbmLBKL7AT8gt8YnYtp+dea5Mo/p2l+W6rO5oq0YxYLf1sSuwmcWfOVTzfEdbSsqtSvlFMdRwBaDNRL5sqL8C9HYbaK99whV8dnQ7HbMgKOOoAlLpJWU8HmiFkkFDykSVYCEXEbaLZSc/tVJKiCA7BaA/pNApwDlEW8H7z5gVpmncOvVFXdZStAGjukyGt73XGvq1ITN5t00bVvVpR5I/6c2+eKxKJThi9BQc/4MxnQ3MmSFHoEU7QEkMJrJyZqJ3pdDjmRijxN2p5rwbs3OjiHWbi/77x3LbmI3bSNWoqj9rVonEIcwjMDt20yM6IqmWIeGqo3Nj9Ora1cOZtEozGSP6PtTAWLQOBBoqR5ToXyPposAYXyY/x4PPt1VBYV0BMMvzfPXLX8Kr91xV3saqblMBn4TKwsBOILUiNfreWgXDt+nGr9qwx1VSQabW3gpjQTuvFA8niqlACLBXMG91c0TewS8c6i27av8mO2bkHKX883Q9BtLs9vF60GnaNFxV2IrUc+4XvxHKnKPQ+kf5eKmQ3uP1Sr+AvL7qpIPPqAmThbZtuFLWz25BRM551fnLDrYpfz3QshEYLHcLlIvFwZ3UqImcAXXb1mcVoZInbeduR1tRGyFClf49QMx9GqG+LeCXBvqGTg/EqrV/Hm5gISj84d7R4WqpuQa0w5gKTQ8gDyRisAKdBmIrwRc69JRaoGoB0ilyW3Gm1U/NmL1UoRsf0hygtqu9hmBmqgtibuPgdyrwDrxVQ7OXu+yWDxi5tawSUqEen3S33D/mcwnuW+AZ4kB0RkdfXPMzZJzo0rfNaGu3AW4+/fuTqtGtmcP2N5qSc9SnM85OTaWALmmaXiXLnXq7fTf/y/1M6OGVGyunv2eqiaIyHiCyjk6Z1/94GOKHcgqQfXdwPv0BCIkp9y6/1KgmYrwkpH/+K/sf3DqI4+CR6HDPP01ZhWkIgmqO3q1xF7iDx/sWJul8pYCQLwFCqUUAL7nIE9kbJzs3wPgQHgKuF/ioLSxswBoSlo0pAAwJ2VpXOAiCqv0PF3v8ymLQDvmQbOPb2IrrzJHOP72FWoR6DVJGKPY1udW6rtcmENVBzPW8I2f/peVCihBPOZXJ2PGWGxVPnBuLa3yinDFuEvXm7dAziuVFJoqeAuy+EU3vhcbt31QsJMk8pEPGh4vRqFzAm+5bcWN7Nn0srSOeylmNJouiQN1AuImkq/BemTLq12XjIjCtc04Q+KxKVzRylCE5o5LS31U4WG6Co8TRkSQSBxcVFoZEll+gpAy5+Et1TZk9ZnP41WmbKKbBaDv2psTdCiyY2rQr6lQ+cMDMXXW3QyiUz/SrJ72trCpqODhkfVDBetQlRml2IEhkBQx8s2qm4QQEhOnDmIix/GRtjXLoqyLt2XtC+XmYTvbETLNFCxPxlOs15cMFdWHPeqCi1fpxyTuLOUbG76qBKZTulwC8P9iTTH70+1C9H+sKdqGyJpmrKNZXRdjyOVCXVR0D7moA+MbQm8Rwt9Z2n16Rh3LhvoNSVCsVz9xQtpKjvu3hx16k/+m4LvIjSQJaIi7EmR2PQhI7/ABT2js58eeZFV+5EU+hmeKrcKCoUH+1nKkHytS2UCQcD7mP/cHwO2XGDM+D999Zdp0RWfaehBh5SMtBhdcb3jLCo9RPrN0Jr+hG6TJEFzEnH+UduVPbogyTvc/QdeK4+SVYWrEX0CHJR+HtC3FR7+QwMMe2YSnS4q5kvSlManJTz+BRo+9HrA/RVNE7WEvZgyJSDSXrOYBmMyxBD9AFJJfB+6CvkgtOBK0PQyGWFn/IVhXHeX3XSXxG00DxF0Va3vbCwR8NcqZLeF5+z56rOD10NeqbjsBOLcCv0OJ0XiU7AIJbonzec2EU62LmlUP0DSNGXqq9122Q0mYQKq9o73XVrG3bwmbwfDj7Ioal+i32r05SlzNllDek3KoWgO5wOFKc8pjSZr1kC9LJ92CeLeipWfqF5mMZmfGumQs8yh4Y/MV+JTyBjS3Ch/L9HSm6C0tWW3XHNn3z2SO8nYSwNxukZA81ot7gmFn7UiUTK4hiU3LFfaXHpYn0aLOCPVdkVGLyS5PoKId4yXcfUxHV9VpHbjsRTRbIATSoQKVUCpikorK0fpSB0rilClhDMhVCQB9jn143Xtnf7/d1rxhwk/cCKUmfJ4O1425TuFBwKT08Xf+nNhtbl2ZEe06N8qxAHezWWb8m//i3oxOe78m6gIpB5Ky9iXx/+BpQ28c0NxF+a8niaJHoP3S/g7kZM133SJfO+hvia06OoqGV0HkG7cxzpBJhoqMi1S25W9vFuVBir0U4kqXi8bnVV1gmWrBuhHzFRUN9bKCPFEJErZ3UGqkmLqA9FLADUco52xWMLavjgSesJeaUi2BGMtLOzdS/xzqZMy6TaodnT401CIHsS6+uVNtV1sTkAjFc97bwQMWMCpHqpNsGx1TWehjhGTUbW4KQ91USRK9WMfo1QF+iXpM12uEC5p+40gJEWS6DHc5mokx4S/6/CybQt/6zD9SGoANiDAZ2GvTONTeefIYT3ecG+o+TpUywSAfqXNR1sPf1R9JU49X8IS/upl7UfsGoY0N0q0EpFk++QZK8kmoh6zcYK7yVv4W3GSXoexFV6kxtf0IABpRHEmA+88Jw3UFmsVLmTMVImtNhtfKOnEAYuj5OPMqe+xPnZViVSTx3yGG7G0p2wg0mAgaxVuu6tSDe138ENL2RWH6VXytl60SilDw7Qrj9o0IY3U3Qi3HSz8p/RPpfJaZRdoPBgxJ3UXOzXtrlRi1bNFLEI/IM9620T0hdYchH3OuL91e2MtvBx0vR0D3KwXzSruU8R2aqTuFz9ZK+9l6d/13/1/KveT7ZswYlrqIdxJ9ZVi0eBoL/NJvtlFbwPkFl1HgOYJTD2P2rQkYreQNBHumw6CNQRc1dq0pPw7/6TywAv3AsGcnvq0wSUsEgIrOMVIYO3t8AUk17TbDLhZoJebMir6GvwMKmP4LQEuvCeRW+D7TEqz6utTP5V6M80DNw/I1FRt4jBn5isMbhhrqPSBAZYcYzddgGicO9FyMMmWQX95p1OeJw8C3+eWuTvvoNpeTfnBpssuqmBQJXH8HqryCv51jFssF97fLJJjHSb1sAovdw09CW0wENqlOpo8h7j3ySZXVlLObKG5uoiT8rHGY+phOHf7IQsK82jS/qKIgIkRjpOJuTJn4/pb1o6ZN/v2XhF0ec3KUAUbUpxsc/pUi3ufs6cSO9OF1sLNdWWlDzoMw/DucnUCSlRRycbWx6/EO0fF9uN1kqnd3yECQZAcq4yehlEVEyhE0bCaikBbvInqRGbWge8jUi9Hhj8r1EzF9SD5/qWUvoMfFvSPUv8Szs+FSqpurKWxANf4bh2T08dZ+3M4KfUkz2q1M2RQySS8AmkozZYhJwP5lTDVMVliF7WovjzskPuJ+RqhAAZx+UY4qFVAa2+A0a+08E02R9izChyBczFN5YZ5IY6ZEf7AFvCVfKt9pO/NU3kF05uBWg5LdSJqo8NLyPSDJGbGPXJxTBDwe7SrEHWj12WyzvH6B65GwGIJiL42puSUoAqpy/LbuIDkIztxYieYW3EX5hEj7/TwB8U+V4JJJBAEyb3CmZ6TkTcTKATUI0GSQaq+OAaI5kGxnwaZD8rJuEcuNlKOBJF1i+ASmZhFhgczjl1K1FV+fTkclUAQ+AAs7fd+KYci2dhOlNgJEyve3DzBizvisz971K0edattaj/PXUbhjmr4g7Kf/fzgMLky4ICHCHWhdlc65Sz1AgMsxaFMUgnDbLKbQCGksusS4ZvwNWUkDXhHGqmQDyIbYOid3VRSJw4tjZf/QazPnhOrlT0HwPezSLqxLTj4S+TmwYIqhAOoawna3dYTzHislRFlq/3joS7KlJWkMBXGpBSG0uTrFVYxEgPI4uRVnsiomLVGKswzF9AG1ya5TZtm6njCqFNAMBnHX1jgtRC6TgDU9u5xF5y3qX4nN/1+w1ZjrvSehg4EQYpVFTX08t9+AoXQuvwGMcC+lggX8zDBpbcgTNbEHkBg67OfXHkbjaYaCODOl0mUckrUWRf+QSvxuOdJy/WwqQV8pWi15S6Sy2rGUXiF1+9CbRJDijvhmtgObHTb2YtSCoIQMqUCtmuvuEgLwCw9wFZq6HYED9ogYmKnxni8UGkCr34JX0i4I6snxfuRjb5ZDK8MGl+TmAGEDqbAyMFiXStUjkbK75y7FCXTGdQpnPnlhdJoKYEgRNto5SDzqBnloGkMuhs65cgZJunEOVsPs04ceacHkYEP+vPih+LgFaRwFcJ0lmz4cydQyKIhJppdc/N4zOVbTQ6V+K3H486y7cUyBGcnydlflGcCbDSlx1FhUg9EwDCjne1+Z4234Ed8cU/z7NEzfVOnfe6IBzX8QXE4qQPOF+pC7a5kymASqcff31chJOpn6e5blF25pWBp9WcPuBlr4ZVJP5sd4iR7HEqpGavj3YRQ/00m/ViIa3UVVSSR6h0RLpEAQRWibvgNnWJkJ504J5/1hcRJ+dM8+5FOG2mnhj+wwUPnLNSFhpBIv2L5gS/B3Oou5koPJmPxfiQ5GEAylsIrmUZdtArof2sFknGEviQWLpRML1RUEqemwCzZzEb6CnJdsM5r2LKKMHRA0omVKOHx52ac1DiiY6Zv6rlPd4gB7S9kgeHrCe+F88njLvgsUrCym06S/iVX1kygkFAzZceOuSq8mhP2W7Wd4NdeCVG9Bse9KrCclsdOTWLrKMTlKDuBIrnbD3Hj13vysXN+P07GW/Dv3J9jpn3s0zmc2Hx2Vzp8PSleCfdWMiadMObCK6dG2bAPLSlf8jnxwWt/HVasf0yvaUa4cC+ImTfFsy0WYkecvtE2RjmY7tbIPBQCxa9K0onTwwsZK8ZaP1LknfrxJ59tlFkqSW2tNX/GFTYTKORVCkEzy46vlZjMi91oqELfWYUJsE9ABFZQY+U//MGTItxRFtI+V6YBaVvVJKklNrrrNdnYSpTwA3yLG/7YEfYs7JmFuirBJVpJanc93pd9rFdqjbQDCBnMo0KFLHmJndVQvawI5QH5JiJLsS3FCk/774/ggycnWAincKhbZbRZnybm2jjtAOGPapgzC3Whw59Q6gFVdMnkl19t4ZVdf1ozK9blZRklXuyqV4CG6s0F2JKGqE/+Tv8+3zYNZqF5q74H+n6xGEUI+PWaZGr3tc1nj7zTTzfZeLMEBiB1hiq75xheBWgoDcCajSKT4wB24ByQhIihA8m+WoVWxa+TU/3t8lIDFP5G2h6JiR5u6a7KyePPre/smBkfO/yRhc6VkFcaVMZSryhu82Wj7njVoArYB9cfrCWP+dxnRo0DKsTOvGKeClUiC986gC/VZJN7SD0QlGkRyjgSfFE3xchOnFgTx1qZ0TbGAOGOLHROj19J6h51ggyiObxXGepbQGzNTiZ0n7Nnw9sUc+SjKjhXYm9SUimYjGOsjbpUVamOuzZ5INVATJNgZm/zQAOMZH9Rpjyh1E3K5I1u3asSfW7sBrFfdpjQfUI/ZRXGOXOmoa7YSqv0XVds/fsdVMFH8uoKdOgTEo0QwUuavghIlNgHOOL3O519zkJIJDDAUncpCdO/5rG8ilH3AjPEsu3lRUVeWtFY1ce55y0mnZ8W/s/xTh+Ueky0w0mZ2I+4eCynQYZflbO9kVhLo7+XGvbM7K6kqtRtWsE9VTCBQjm6vAZysrUJ3UcXznlvSDig6HaqZDWAvFXU6yn+3CRMZ//fgoPUfTFNwsQq+6OmfU635yt1nvxMkcNvvCrS1RczR7Rigxndp23GPLBNzb2k1oYVgDssdt6wdsoUv14TT614CzPG2hhgJLurUlXqRNnN+77yBApF6TPYg286lseU7uO3C1vyNHpGk5NsK74qyW2d3avoX4oFdZON7Ylf78E+fuicDu8r9aXeYBSNV1kafcduIKvowYRGf+lQD4MtHvKzJVfOUYCxHEXPDGb8QYD4pRg5fcVZ8gNF2muDj1JP6lL96RE3EyhUpo9mrzSMMpNWF5k427Q4Tx5iwFxGiscUQhQKw7OiglMjome8pBPnjcRcmVE32quZzZR/PT1Kh8k9TKBQmwaWIDJwq0ptkihLY7U1jk8VQsIirOqeY6ZLVnoZ5PgNM2usFT/Yqwl1UapK/au4zWUk2XkVR4yiAW7fKlO/mtAdjdXMOBYntJFKJMCEiQ3DjKoEVw3XwgY7fsaRSDGz4mZGn8MHgiD1srpFrryYQKE+sc/ZWnOokludl3rQbk/fLr+6LBxQhHVhV349i8FGGDl6Hzl6/q+XJOUxN1r4MwuqYKmvlQRrYJBR4ZWCxxpjM5Im3WaIzUCT/jUP2/vkHUddHJ4Hm2P/u2dHawNUF6sv+PvdMrf6+08nwhRxs0tUeyAIX+qbZO97Z/n8977XjUk9rlx6CKNg+dYhMuMpVhFtwWmHp+wcSQYSIRX5d08yUjRe/kmOs6iI/VwghdISsUgNPuWa2p2HLXdTSTlzqMvUKwg2BKN3G5QrQkf1C0m+D1VKX0N3yQoMgpRb2kdk2OH51/EG7JHs/Bn7fzyr0ItfyUd0WmN1r9TVDF2Ayg+jJVcjFAIhnsiGYOgijITlL2mSwp0X/fB9CzNtFzGeT6eN26vGy1fvKEFbMErV6HTE/tPguRCzoK17B/Mmu7wnIVhWr7AhF0JAr0yGLP+La1Igaki/qeo566dz/PZyOgXyX2tNRTNjjy0qxTNJDdbDxKRjBnLpsgW4z/8ST60NuVwyCdiUYqPPEsWe38iavicNZULZZy/dDw/uFUGzZ0+un628pNSLbWaJBmvJXNbeXSCIGyv/ia83zQbYUAsJEge7qsEERXjglTYbfoNvR/uXlwjpdxhX4RVD96yZRUZ3pbKDr9Rg/cVcnPtrqBkJb18SThBEhg2xkKQ8tTjLdCijorUXmiL9EMFw5hXE8aX0qeyGGaK/lYrHr4TNHz386zF4NPnUVxDeLtMKf1A21HJxsII5uT/wiosZJ2k0vR5oxkIZc+4IYaaAU6j1QlQT/QTF0eS3dWruvSLSowC2CM2GVmjn5HUMsqrMj3EUA26SJSw/bu2in4lgpuf7nGhmEec7LsjdVUHo8apbpZiap6nQzNdsmSydgPdJ1h9fah3a3MW3MzHCQv3TSJ7MtIeh52TKfQ0zjqA+hDdKKfzspKFBZjosPsdcceDFx74K0+jRoiPFEM7lEHayMkCRubjFuoFLkSSHTTKn/DB7O+A8N4/BJSpVly3voh3mVJ0gnYf37V4461tOecoPOuP+hgUveEhJKdGG0xl+01prHz+l6VRaKUOr3By+0korvZ8pTemVW/ulLUcrZXDNgn/SjB90ymmQVEI3QyGdJNOYSQLw7VTLtqqP9Bk/Y8E/cphN+s0rj6Wgm0i1gitqSrm0JBe277Vwf3B9YA2lFKKZVMgqvOKpDXZrgYdRLJHJ2KrBasa4gNzXQN6cOeJyLd1rjLUxilQ9TTxx00Hyp1Mk3SFnnfKD/ub1l5JeM8LOsqc09o6QzsXWMNZitEWhd3RPA24O1ZtQd9fIZNpLEgD18W94AWIMErW/EAGeDxx30eckYcNoFuc6vSIqtUQzi4y+qr0KU57bvwYrxF38YHAlR4MqREwlDugu4cxyzLTQOfVVqUFJK5ziRlMmPSIfMYVBNr9sxRF+cpFQ4y82vorhNUNMBhheaPVvMI29KYoUAiRw8Ikzca0GH54Mzbef8S4Yw0F5BUHN4gw5YYdYHGekbM68HWr0AHujdMK2SEdPiIpoGmi+XJKJFWtpRNxrdleqMp97vG11mnSLpBkeaXNP8Et/2NgKtcwNE/NKOr97qM2E0yLdJs/zenajFHYF+RvWx4SJcMbn4/fABb4C4/912M19v62o//zfiz00lExjWyuo3IvNc2OiBxqs268Eu4wF87QDkeTzKeBbRNppdldFLe5rNwma9pM/3V3Sc/Kw/1y0215yDeoz/lTD6Dtf89BLfcrJ7E0NxGcwf6CtT7NoaOLzcVrRItkNuGH9HX0FhYpsjRmx+5soV1PXaMXx/NX1iKB3JZNl6IoiQZF+iRI7ylZTgwnVj3erXSHl1XiZIdqoiulU4FWxHus6+83qmaQoP2UXvAmsoKuNcGJz3varTz637y/D2K1/6D3UQ+VuB0/SUDPqo48+ClXDwtXYi6zWjCMhQYSxB9PvwERvXLwemEGn44TVQmr4RwnMg7JDbKewiL1WH9C6iaLzuqzWheGNNaTxxz9eFleReiBirg2hf2TLiZJOkK6TSN9/MMl1jq5zVYVX8RpX44ughQ+W1UfpnnRSjsCBIACHO7NYW+O9T/ckDddCqg4HcGpEMPwwTAzO02MhWcPngTEitarZaOipvEKrOUCgYJNVLwmVXBvVaEV56zKf6GQSLg3odF1gXV6toG2OTq+T5Mt6Gya8/kI3k53XLDTOxudII84aNPQBustaQZwGtlLJIx3Z+69/4Bash7WtANopCMNuvBD1P2Fh+6Ni8XjgwBLWpDt91p8Qfr7W9WlmkZketFdqy6sYQ/FVEdsby3RUHHeaAGKRTDlyQudUtF6KT9jAq/xD66+8iny9pqNxND5DVZmu6bekJsm64gXWH+cu5+fJ1QmGsELpVkD4dRgmwfQa1+AE/8C3TZGw/tAe6dvL78CD3q6C8VQ7f41WfLRduT5k7viVre3zkL5CYcYGm8sXTOa+l/rQX/PeNXhNS59Evd0V7fJU9G6qxFubh5zdCqkFQXghL0ZpBxbWA1/5iek1CRvNRgMZdrwS6OXZyZra4xDFJYs0J41WXFVYLEd9ce8Kv4oAL3GSaXSdVL/hlsfUVOA1Pb2Jj1rJG1p+idpWYBWqRZNC8Akgxlo0yMD2wA88/OpZ3yZ9Mzkmy/jcVtVZnDTwti+TKZruxMRgy5hjy7xbYg5zVqTASABO1x0yo0E1ZY2l8JqmxtaLnksBWo5uBVfYXIGgEP6D0Vc2KpcP2SGW1/s72Id6SaIVsENsIx0qjB0MrZvqtBpRZ2beq0f56g/8K7AX06itNh5h9emEe2gtoCU482SsvehJO4uWxsoxPJ8IgldHsQqWwbVfgnzgCDt7Y/xbMOyOOhwO0cfIWM0XwszUaDUVOmUtaLZNWQYu37GTVptSNDMJF5LnCX7kix7ea9IaSy+Gra6Ilu3Ak2XoQrAyAWY47aXxORTjr5ELZjPa3voLyfT6aPqNZldRaiaWktOOzRqtge+KcdWaKrH4HlifMLHE8WbjZ3WRpBm+6dfMx2vuuvJe9AzLRUtjlT94tgwy5WjsHRQtM5A8wB5Y4F+lmZTnZuTy+TasYYfYygAo95RrQmn4lH5+IWS/iSdcmnx3TlekHRPB1OfKrruvoZSHytdrBXSlgZ7cinaEQXkPUX4C53XRiRlem0c9MLtLIWybush1eiVT2RyX5rrykhBC7CT+8g3tl1EA+oUUge82bAghEa6Z20Luu+/JMJIpZVR4rYP+JR+9kphQUpsBcTIDgqE3AkwQkZ4L88AazsqUbMgFF+iVjX4mml1EDRWNx7YoVTOPS/HjmkFiTujTUNhbQppTyiiyh+H+9z4fr+XQFQcGOm0osTLgLBDcM85WcoP09BMgDzx8FwjLK3dTltEf3OYA2JaZomo8RA2y5nHxwkTF7kq4thyfdGLz/b2c9eAHMdA9Fh2TsiBvK4Dgd3lhSikw7AQQiAdOIjnCYNg6kpze1GQHyPtaScrGQ9CN2GP8JbOWScmuD4fgeCJQup7XA08UfavdJd//4efjtTQacxYDb01HIAgsOP1EAKRMcPwJhkJdAR6YHf1XK0o9LNkrqVIMkJXEpGzZY5DGX+h1M3KqhXw1k236rjtVvnqYvxZe7Jgv6MkbKUezv7WyU0OA2N+IYS5K+DOLfFQPfe/x1kaClZkk5SlnVsqZXVY/z9l3edv3HvWg7gsw4r+9dQF+1KCTUTb+T9+xNowpi4EBsSj//5UF1pkBWAHwZ6FECP3/IY6cxfzAjIq6iaGkwc98Kq+0un8ANiegbjyEmYS/NBWaPn1ozorU26NTNbaaUra+F/pCCeP9f+oQEg59pfOeKuZWv4akC+u9HjNr38/V8fM3HvdFYRull4L1MEfPv78fFvGk7o+Kin7HU/Y7tPy2XqukMWYxMFSgDNCMCYlTE4BdeHE6mqbWYMXxA4HDQtc35fD3kJcXBZCVwomlhNhmFmvRtCBv6TFK2/NqTq8QbV/udpCj502XfuKkSpzrLKu7SjsVTzpd/QO3ga5/wN+lkUpsBVa+1iPN1PlwoxEOjL7mDDtXV3gtlV6VgX1QeqbKhOkkgJaLowp63p71gQNpKKewGFSyDsl9gI+PsEPs4WQVfkmo5NouHM6WAvM2QgtC/WuFK5EVnWrnaQeJltYohD/SWCse28egTOhinWKCUz2EABm+ZbKEmhSB8YEjboqmuf8b/VKv9OqK0eyy43OF42m6JsF4BA4nAqXrijq1rfg0xa1ei/LLZZaLu2UhqQkVE1mZaBQArhnIAAP9TpbB9sDlztx4TE33wzASJfz0nw4BcG5HqNhs4DzE4t657Obt+tveBVkR6n9QfuNsHVaL0Wax0BmXODjuNAAeFMhYilapDaRlACwPLHCjBv9m7upHVa6K93+GTwCUvwOlXDjsaEPLEopt8bnFtMrlqz9q42P6qlJJU7JajCaLhS+jc/yZDUkXFgBr9wJVJGKlZfjyNWKpDgZ4TeN9H2nv4y686tDYwtE1u+x4T+l47oVMV6EQYY5mjteKdzzAsfAdISWqyL9qtZgLC+thNDCJzLbpRyPpV0JN2sDwwApKGWiy4AWvv5R0mxedjv9TfVRCHZDd00Ltso9qdWlxFAhi2gn+iEM5St/z/n50fBxFBpNYLSbIwk3SzUjOhm8C4T0EyZgLalJiOZ77UJk2zy7dheg+F8XjIfiwEYEuBRsxv555sreCXpARda8pciirhY+F96Fif4zejYEYWQ+dV2JXiFofX3GWKlnl0EQD9Kyqv9iWU/sCxOElc7xYzB6/Ay5ib0xF3shikVHBxHCFMtP8bPSgADyUAE5bVZSbw7kPlWlDqMq4Jxoxv7TqtTlij4VhOsiukUA5aBUTn185ag2LRYFM5JYLDcFlwoh7BWCoDZJVaFoN3eXYtKkiOZ4v+SwAa1Y+nhKF4b1Skr3lW5DrixaqRIj4aMpRa1gs6vUxad9U7WXAiPsD4Gd4kVo1dRXUHM99qEi+fpZvL4gn5d5NBErop11R2CXnCcNP1xVT1UbD1MphNFgsxl+LjZWL8x87BuAzRchKZhriePXpK5IxsXxfqwG6FfXjsTmjBSHmVqckVyOwmJTgBq3uWyrq8NaKmGwkZ6gyecCICwJwflgIdnEmIloKp0nejK95qhdtrbXVtBxe6TetVTHGZrlfLvA57qNkhRHI9uBiAiLORDHYKyV5Gg+LSQlu0OpplBldYa242oaNrhO6caqMdLX0rBD7pxitddOfKMAD8x11ZyhN35PVv18y8HptUryH8HrT2Oir9DxUdUcrfqrshDtndAWI1sszA2IpIXbMFYIRRbAWlKxt/1goKFSLlfkaa8XV1mIjDRbVeUCsmJOeXLBn5rwf7SxLk+T6wAIz7PykPFcImUGo6M/qDCmv32GYzcJFeR9htCyf76UBRCelgBlcIpNphQgEAngKyOzNiG3Qau3+FRlkY61YBxu9d1HZhWBFgpUp6XUIKIfSlBoSi5/3pFfSuecij04MWCubYnfJb13NlwsxRnggLA3QYQ0RtDfEPES4PBpk/pIFN2j1ahX5ptaKk7HRP6ByiY0VzwpAug2U1hA7NczV1EKGU7jhb8bNKUtvkpBy+P4j6OTL+z2WK2DlAoDYKlPAUyaieQ9tM9iXJqEg1q7To1M1Yk+4M1Mk9WCtuOpabPwsqnkumL0ZA8D9Y39pTABoO6CHi/ekzb5RWNCcVdHzVP/LYvAiX194tYcgGmo+sjlcmr6I5q4sQ1cUNctO23e7z1t/FKxFx6rNlGh7TZEuE2vFVTVsDDuLbt5DRhwP2VN5UybsCz7Rd+0gpvMJRQsyP/lCepespgYejLeJQHdYmKW6bhIXYju5s2fKszcQb4Epnytz2zvVVL/MY07BiDgbU5GkwVpxlQ0bm6FiCFYvbgaVMT0/G8tD05ah1iH/EmbSjH4mhxHK76c32PBYCj4uFb4CpriqFuGSOOXUhiG41C6ytvya+eqPMRspR7WheRnKXg6tFVdZy8eml6Pz4wjrzMXpYfl42gArzgte5sZTakA8NzA+uj8B/Ilrj8DluRDYZjaZBZ6ML8KZOJkurkY7vMUsHf9Udb7DY75FOH4eqajHslQskJHECQ3zM2LMSHtV0utuvFCFM+xnLk4QkaGiMrRAtDmTQrofpjzQ5He3Ns6Ci4snJ0SUBzqyxzRuEtvBlzlFVxP2XzVj18/a8nt73jFnhyDzUCjzypaKrBj5jjTcARMarsZZ254l2sYAoDksXSeADeGiBmYG11SkBeBUC9lUT5JDnfN/cQhurklfcZY/uioaIDIqeKzBxSFXBNnWUxm67rZyNv1L/A6FK3ETP/+oyNnzlXl4S8V4a4UHbDn+ghhQpBxnbwV1LZYDAPDy4O1jAbDIMsbbi3k/ktiy5sfKkjST6Q65vf6Ga17xwvkbnx8jyx+XZhCczWMNLiFkyvjcLKOS9wH2oszAE0vFeBpGJk/lwCY4x6pZ18uW+QZgRlhG0lCSojjuNm5WHz8a5BIzR6RHeth3bPmVRXL8cDSsAF0YArFlYw0ugSCegnFF9xTyPkDhakwQ5rClYmeMpMqi4X8A5pUd2tv7RUMDkHIAnx6+MvY1S/EVjGNTl4Z52f7xkoTKdpoy+czH6XcYdJJeM+piOhUIbELoI+MARA088rEIl/+BcWfGKuR9gNqVlMMctlS8HSN7oWrIPVAe7W2bOmHG9EXPNLxY3Qnl9krheFd6Yvxj9npH2axm/Q/dv2bGj1N96uGsZ42UUgio1Z91yh8x49880OTlS6n8a0beNCvB9D1XVcvnXyvQAMU2Lyp7rMElb+vBuEcIVPI+gJ1ElW2iWCrG1YuRvmQxTjdAXzTc7C1/FNhEkYQxBYaHu/8ODiPGnItC/5GnNkFAnP6mgidjYkFuPBTjNg9TyfsAyoEurtlCctcctzWH2gWr0XXDL139erE8ASX/oM+RKlCnR9ADEATE2WYueJpeOi8yjoRqNGmKcl4QGyzQSjFnRgYnVP0iB8Psl0hw6g/aFMTqdbCMvQNoC8sFqo8rzgrACFgIiF3igOr6aobYBhFdDfn7RQrBusivrLFSjLMXI+kCdZauafPW5VQNuz8X0W5MBeAyEi9WiRn2eFBuXn2MnuULoJ+oAfIrYWZzyeeu+PD56ShQj8BQUxLYRtxYKV6fkREKj97IuKA6AzJrDOyeBjCLpCMlcbxflCh0hty28GspURUsnRJN50LsjYl3/47Jv4o5rtlKcU2M5EZD3lZImcK8fPXHm2KZqbdCwNRIx7Ed7+E+yuNqC19AisAUt958LlxsySfyX39iGiVh35MyD2uluHlGfGEEmRO42vv4xG91UqYQZu2GnfrR9bKk7Eg4xz2sqTzG08sBQ3YJsF7alB/hjhird/2ChL7DhT7TSnEVgZUEJjDrkvdVoBbWpI+c4BEAQ9cXCLadTGkZwnG8TfWqjrGG8ABHqp7cjPAQZ0B0Crj60j27SBlaajlLgTFYmQkFDXQDgjUtNFyNfvnj7gKoO5TY9aJerB6IPVyBp1HfJK0O1DEDgFh2LCWnKV3eJlP4TBdsBq6msIhUlZQT1WGl+CRWHoKCZFP70HnqQf7ao2At+vWfvJFy9I4fs1A13uFN/fI1s7aDTG23LqK9m3FPYHZKx8DBIXNWHaU74r8i0QOV0wP9jLknQJ8zW1uoXR6mvMywOImV4j5YSdbQlGTIwkzXD+CFwByNjgM5XuM+Cp0gd4AEs7MMmZO2kTWYD5U7/e5iLyGsz7WOdMmIVHvedvzzXyHOtBahDl6pikKdOWre8XAVuwFgW04dTQqPjVOT8rFMxTS60mxwZVqzULwJKymxKDgA5r2bceLwcHePpg6HPLby7ulQ2xF2kXwpsU5N84fS6b/4OzYydXyUyNMqTZfdWEc+hoI4KWd4yvFBWDPODjxuqmgq2gcOmWBGheLu6ZgURZyeVFJyLPeHdgTndinP0vbFCVGRA6ZgoRhbYOWZaZqYBNdGqOXsom97DF08jY7/pt2S2hgNOOYrAZBpoXnhsZf8hNKAM7XeqGiNkKySCvClGSwU62blj4ZHnFWG4UcAXG4Dph5NpRFlOV4MpkrjlnyOGWqW+hyAF3zLRgDWdCHJf/0LQcqxoKSsay7SOtJ3oSDmSkedeth+BzAfQcc7OzbFrFB7HCW8HDqNM6ZjJiIPB3DNLsipmCL/slaZhoWiSVbumoLoa53lRrADsHoRMl2xIscLp1BpXGmWz0CdMIA2ujY1PPk4SFEP16Kw52gGIsVPmTKsI9dCwWlZ7pZqAA2AWTYdvXU53jKVVBp+SxosdtbiGPM+iXE25rGAXQm8rI+7sE6MtRcr86Ag2ka3YB6oenQwh/czVHSfOG7JXZW6UzhgFjvETpgdHjJ6ZQqh+I8zjT79JWg7vFEX1omxBFZ+ulDVqd+2BggdLONnUdEF8DlUdirLnpQh6bvYR6oezPTwbKMqyGWrTDTYCIQKQQcmDSOxTowli5WFUzAA7nMSy3WCuW/KqcQUeaZ1gT5DnZB9Lnzzw2NX9fkjuOQ/+CfpPL2VqOV07tk6cX2slNCqMc/Nsk3cEQw0AfNlVGTumHEGlUa7uFF2d7pNEE+1OwIwK7YObBAqp1XmR1knVsmKL6yhKKA4y02mjKAXiZf/ZPi55KbGM61j+ozpRRZ7EbPNEM8dEqTxXWaluRuhUIm9NJTpZrCOJCwidYpLwwiuB8zQG02l4YAaz7ReNAUDY7FPLW2KePxGOb4ziV0iUxSwjIQqs46s2ZhwR8ZytEuWAFYoQjZ930eNZ1rXQJOXMvacqJgjfiUfX9f+8tZDsbbMB0HysKwjL0yMFmgXEUF0/nWr4BgTvj1ljyYr8UxrPRcKMmTFAayQ6ao5UiYduLUT8rw8ItSvOF9uGVmWMWHPFHntQtDl9krQUNErw/lM66svxlFMaRWttfwEpQyiKSW8Wm655damVKmQHN5Ho/YB82quMkc85bOnJ9I8litoJQIb5JaRzriMsc8ZSyCdCnfNYDpBqPgAx5QLZDOVDyy59ND9kBxZIZ1tnDI+q8Pkei6V9CGs/6eNurNcsU9m6IowL8lgk4TYSa7r2eTvFysEZSgcSmMZ+RUU/WuBfHNtLRVMdwj7wjT4JJArll+z1I0+kMbo2yUDXSdH21xZnytobjRSE1bsSDRJnpxr7zbnr0eCPylR/FbLSP4UkzmxJJF//zMEKRMBLEMsw4ddybje+5lw54GDK9276CR5y4E0I26+vXCxTfXexdwffiYJu+fKz8RWnROxEvGgKvNGlpGtU1QRnyXbRjANAfqzZd8+5NzSV1UMJnk/jvmmbnV279u38DWPJdJc3gMQSZJ+qMBuwOFZw/odipX+CEYQWb9x9fROUQWTMUuS/Ie/0Vo057PSa+j+/DqAQ+6WMWXL/UumJ0BWULd136/QWoGCpCLpupg32g6T5EOYmRgTTtXIIvaBqq9uGempoTg3n2nHAWuEmsWSYUdTaVguHyge3wr6G+YmTlq767lnsCfUBU4wPPiBX58iBGawVDLsZrcsOFVDwZ8UThos0CryABRNWsC069Yh3BGWSum4FtBTNZc0aLEUzkS6zPBUvF2TG6mgHA0xffNb3frdfzINko0dqaynsoocSBvLj2UXm0PoX+PFqnUq+pHlmPE29NnUbFALqG1NecUFogbVU6oiWTKQpfqG7KpaKmRLxd91WkW+LwVMNwZalgg+E8yqKVNACnCWrcDP1KJqej0MlWfHTka1/iB1UOmsayDbJNkGwDAEI2K3bDrIxiqySwpSjhymp2oQBO8H5v2Yd/MA3yppY6ooctUJgLiFaNhbmmGavDwXvwBr7RxNEqKGXA1D/F0HPajaLZvOyCpyGxQMg3wiUMIGzH1T8Ssc82RMHuGMrjPNdJtzvsKMIq39rIUsZNWnWpkWSe0iD7pxHh/77lWRnnRLv1noZBy76gFBLca7FyyiXVOqRAcw3TIrI0kIvReW3iVUdER8nCxDZDfOYkovWlbLC7qnBb9C35PH6VWSerju9y2kkMoWsq2ZzHwXu8iFT/CY3SUMrnDWO0H6LG8xwi3Ba+qt7gnAMAQWlFRIueexikyEAqabEfulglAolsKZw7P3TdArhPKNUBCjCHqo1iLoOluOoGEkpUTQoJMF/7pS/OmntexPrfnTg4f/73i1Bd4R6BdmXOgYsZQQk8RWXgIYhlAPnp3gBxqrSLqGgvtFPhFIDyrh3ycWYcTnWFdXS6F561wGG8SOeEySWEqOTNkNQ6jHXU5AMKTt8BaR4WWFR6DFgRZjrYPwD2H5GzWVroDlmPE1Cs2LRiDrtNJmqZrZDUMIAkG34p9XtlZAkxN5AOTbEVp3nWCpgo47dcycFepH4YOx8dmmyXrZXVNGh1KaKOh3W0Ryo+CFMG1PdRC2hWUcBe1+laG0qS5uiMVFVcZh9aYJsVR2wxDqQTVfZfqfWC9gw72/BfZquFZUAdagcdFUPKRjjqcarqqWj4FwwNg9EqYJe8xg7xrxPGsFrAzXngeryL9oTPTMYEnykS1BNLoO9m/b9NgH1o8BVENeTDGlS9P+JIrvJ/yNiRKeMK03Za3mwWf8cUOgjaIhAIYnwDINZtcdfKUrZ4ILphlxGbNRZ5oQZgHAMAQtSvedNGmwiiQxMWZTbF8sAKFfCZbOA+3AenVleG1NTB4HMFZaPLJpAogOZcvqwaaUaT2jwiLS7gkxWqSFm1oVhNQDf8vxCzGgBrXwyCxcTpb0/VykzJXhXaDxEM8+F5IUpvVYCovIT6Fo7x70BXh4Pyyvwj6w3vdpykzqzyBYUls1Veo6gD6gePxcSArTeoQdy+Z3FrPHea+GKTCbMCMxwHICKsIQA9aklhqoMNEPYMM2M9A8IfiIFpju3f8OqiXpxJIWzZJNk+zMXqiJpS2DE8F4QsQHAwbWx1AJBc6FiR/NxpHMk+mwk3XgqcdGjgsg4CMskp+37JzZmPkY7/YlED0U/xYbuFHHrFuZMS6mxBI4ah3FljybnUwjoSL7SougdOx/2sL5/c7oQn85fOfBFbYudn83YGD99amEX8NGxw2bE0eCWoVQ1BKf5bmK829S/fsi0xQtUlwV7KQ8odifiPCfHwRmzP9E6090zCMvemfjbZ4m3xqyy6hQXgpHwhnGndDHPCGlADv1zRy6nk5XvaXATCxSnE3spEIomvqNKbFWJgyrhzLqDm0ZVSk1wdFm3VATY8r6QTexyu++7qdY087KfZoXjFmvdBUFYWOk4meYOL6JYi952Em2sDDFIamg9lTauFWLu5DZw+t+2e5uERiSI9gOG6BcrqpUMP7Rmdcqpfij800Z/w78LNbcJZuoiGWzl2NBRfaS+JEoKMsaxbXKTpoi1ERilh5gmB6Ux6KjLR9XvffdvuojjznreFfWa5VN3seixxWaX+Cb3lIF4kygeTxG0s5iwz7KmymT5hgKyg9QLvEW3KI91c2zk1YWBXXxnT8gmOa5LKNiy5TR2YumuYyW9dhNzOcHHS+vn7fuT1r020X4szMmlz87v98EGUlpwubjbUtmCrH97OWjUJE9FJBkalu0p7omdg4k1kRivZYBW7Bsj0fXhw0+GTSXhz5qE2OCJzteXmPJCvDz3zrOUy8rf4+PkZUz+kRjphCLZzcUSJUZbvUP/EqZWKM8XbCTjlAwAdMFuwBxD8gTa94kEaHbcpB8suoPln7UMbAeeT5XHG4ir7H2Wvd9LHpN427G1zzNm9ZQQb0ZFQHsL7NeRy6Gia2YKsflmL3k/+FB1T/wayHWKG8z7PRXKDgb2/gLYehrgKUocSxZR6W1Bmo35/WpRRN874c+6mPfrY+ReWom7GpmqrAnDNghpxT839XLRa3ZU52InYGwwiPSrjswPAz3DuEF131Ultm3his+9arHwFZyf3t50VQhzCxmtkrBt1IvpVqzp3oudgbJEqzbrcvB8DzsxHyKMbB8AdRRQxl8oYLpsEBydGERPDkKLmM12WMdv4iCX2qFWBM72VAQJzXZnvs8YHgg1rOV1zQf1tTAa33X6uXTQxgmHlgQTKNbxAJBrCZnL5F/kIL/tyXKQx077y/YygjoWcJonAXLuInx9LriLKMXzOugXL4w6mUALM2EbU6fmitn08yaX0XO7QrXbs2eamfs/IUUHImD3atP3xZFt/TdS6fInCQdv1i9bJqNas2Vt2Hn2OR5Benkn/ydgtd1iTV7qtbZGX4WBf0xJdpGA2KIDeX9345uCnnKTt/PU7mUsG9ApYYshKHA96UiO3W9YW3Jnqp5wEs6FETe6Uw5IhAzpr4/FakKHedSLr+KcWd3MlnsaqW5FYT9DiwCll+GJXuq8fYC/MxhN8YcnO3JMgfEWxrff2fzAQ9A6KBRLsWycY0mi81zY365UHlyEUOzNCSsUDFCs/Kxq01jembKPkFcj9H9x5LFVLu5M1KmS0y1jMq1b7bSXjZrsuyJnax9V032iXGplswyxPhqATi6MWHPjIP+rHp1x1GasNpTmAIdYUS1DJglRUO5KLTX6fh59lewGoqYb2rJnmqBAC5gTOicMuXFQbQZ0AhpgU9xVB+DmLIUPRKWYjkzarvOsQqe/V0gzdmERw0Gfn2GJeSvMMbuShm/FwOS/7Jh55vXH/Sx67dTcrlZamWErAbZiG15WdpsiXWtEB0w7Y/+y4uYJP/xV5bsqZ4mPPDUrg3PdqePoxhxE/C1fQB9A9qNgkWtnEFL8qzK7DdNdt4/n2eiBn42pOCuLBA5+wM8YUw9Hvr575qzu4/Rsnwg9RNoS46mVHK7ABsXNl2aZSfByqTYITCqMPBrZQVaH94UQPJAYSaGh36z6x1M0AdT/4C2CNBKpf8szYZNjSgxtSQZsfOfUpjdUoWBX/p+LFfdc0ABl9bloJ//Nu3D8R+k5FGVyk9hTFhyS6ZLqJKbnZhbg2IX86rDwK9hNxaorkwAgiiowhTUCklLFoDcBiWTVynn1BplE8I0PVPmtw/67MKiDgO/Jmx9uCUA3ZtQkHTicHBGmkl8wp2SVcqqmHva03xVADNRDpqa7Grlg34bmhbcsmZ13GNPMVNfrJuYF+M8aQm8CVQogwLW7PLEUnKaMMTuMjOzeNJqi2wWb+eIBaqTI5e3+SdmvJPZQPoevNm3Sr/OHB2mCUPsJnvykil3wJf4Y89qw/qQHYA/Kphh0yT+5a9QvA9vcsnNHAwEar1UM6YcZp5eVc6FRS9Jgd2Mt2N96tILoCkKYq0MHjo05/vimKem1PCyVMkBtsO6ELI9Zgz72gEckZR8tVDQ28ZBU+i2rU/dnwHcMQUH4uGMf/PMvP9Dn16VnJG5vB2mDLEzvKo1lKv5sIhZfzcFg2usT13FuVgt2BTbM+oRimvl/h9vpkj+VBzACLGHpBQwZYidcAxk4fQPLWjC/t8ZTaI6LFDd6nkY3Yx40HhoCNxjc6cpNcJepez8PKZM9cwEVhApWVu+oCnEip1p/QfZGRJLi+XpbUf//O9gvb3InTOqkX5kaVY2YM4AFurDEIRk7HiCZj8UTMMa9V0De21OxNrXArIEsTLufADX856HD3f6PnfdN3nrM+6wW2TWXZBjJz1pn/mJU323Pe6xTX/+Lu8xvC7wYB00Jdex6SX21NznPO90pMKd2/0XmVMRmY85Q2wfO0WqMcY9ji3zSnywYmdaPzTALBTNqjtgC2z7DxgJizdnBr87uOJruJZd3u/uewApSRegkpW/28qgq7ZqzSVfKuu0pz8ANzJkbU+zcmSPOUMsg9NEYhdkETR/gKpaSZaHnfk4RDIX8koZn3GrUNwpbzoizH9GjShrstmsPx15+3Xm2WWTrGvl7xYHaM4KAWv+1DNcy8hZPHgA9j40O4VJQyyFna+vKmcapQ795X/RFuxM66P62LVJY4JJhIuOHpsnb+KenHCH61zPsx3oJlcUUL/9QHtZzw53mBIr/2917Bdux+QI29fiqaIOS4/lS0oAc10VMUMQ7jFpbMvs5lTcgN9L1GwpS229wi+8IR+HyMBOyMUpzuo+YVwmSytEu0hRBsQ6L5DXSVg0M/ZR3qypCdD76KRnqQ1R6/W09Uro06vyMBwv0/QFDx2B+8xA1KI9dp18LezNBEDx9nL3mDU2J4pTJCgPIGzi/t+XLNiZ1k1w8TEogClHQZHyBIhy9GC3gXLUgZ13MW0Oovn0kG2mtitsEvyvP7FgZ1qPKSsC8OKpDsOUdv7TX6DYk6Ip+j3SykrX+CD81zU7dmRGM21szp/s1D9wCZ9L2PxJC3am9XwAtCWYJ5LXjmIZoN/m3nkKt6UQWg289wV/ug+kpvB1OLEUjpPK14+yVebVsjaGWrM6PBmA7rIoSDjjTPn3osgFwHDgAba3Mq0Mraxjpgewy7n6cHoURGpV9h9LyWHeLFNzWedCNyVu/oC2Xmda1wBgnRTEXXCm/CWw3+iqZP3MFB5CGZ2OWsz33vT9Dk3A3+uOi9FW5tpTm+ayNnAfhXOwTYv7DKvD8QBMQTDDWw1rlEaUxUIGkONtKeIz23+ITf/R75mBywdX3wVynDyyiZMHO/XNbCKyN32LuPXHKKjH6vAvcTEU6JgZjIfmcR9Yn01KEtaooPsuJ1rHL95leq4qfVz09pg/4onaeEwcYis1l+3HoEfeEeZX79WtDl/BZSLRyDudsW00KM5JyQhYU1iz/E0je+xra+q6Rsbi6MHfDjVExIn1mDl1ah4bAkij5T8LB8i0dIi3vA6LQ15cZuaLcFAZn7A/oHgUqt8/V9RZk4vcgyTWN/kpzPN2fXy1j9lrCMQe21Xd1CGar3l02OEOuUDkVXxvtWpIsUoAp9fI0KE51Z8QyJX9Zn7kp25Sy6tNdtDk2WfX6UWI1uJO20U0hjw8po5tmSlc2hkhT/3BPdK6Qd6T1UskgW9xNKunjPHmeYZiVo4d38um53LsNuVtOuzDVXuTNyrKND8Ph/qDfgmxrbxh7hCN0Ow61cUT7Nd8kbNc6/XAsQYAC6fgDIy3dzEUXZv4f53pT73PfVabrCtOI+9rZHW8/ZcINCPZXM+sUdqKR3zUv2EQ7PVD1VYgY9fnHml2yc9qlQKzh2YUpqqFB0+te5zf/AITJXuUebzEym717d+/Sp9I6gfsQqM49A5ExIT6mj/cmWUZuNOb7Ky+tD1P5HT8z/4uS5oHWqVAx6H9SefLlhuWIlRipNh5ihZb2I2WrHF6F4/JU7hGaV9fr7HKn6kSZQtdr2e5HvgUCC4gmCdHcRem+Chona/jE03pu7aei8ZhR4TH7LlGjVPoC33Sxsp/pkP6E7clG8v1wEUjmB8Fz8TWVrbgaPEDBic+4TTXWUFf95s/MmGaplWZUI1UqCve8+zEK5gTahHrLdcD14Rge4IZhphGaLxwX2Ez4t1KN6tY8PAPojYe0+eYGquQEt3z0a2NP8ZCCOGIOfeNFivFtq0jmDUFCRMLledDkRiiqWMIIN5nNtNfWJXhOxUcjcWbbGZBsHe4QCEkzE9aYAhntXqBVfiqpcpNJFMFBiCqWxt9f+E+kwEseNb4ASC2mVPNioLau/FQ4xVCorFW3E/ovCQN7TFWz/F3348WbXGIi6rP/D+1Cp9QnPcgu7+TBjVejRzTYwGITPRAc1DVOKlRTuB07M//TlutB74pH9/aD2RhnHwsQanoM8/zIwUhPddLLLEQurS+c254IHPN1AUXTRkn5dXEfVB12PWoOxbP0Vvf+kVborw/WGTP0tCKroDFl5HKO99n9yYr4Gllh8ysi2YNKFJz0vFP4CdqjmO1Hni1BYJ3piDCQWPLB+WAJWxiR6vZbh512jG3mmqIM9GusfXWa3MC4bWVeuslml5NNXXmkQdxYtm/x4OlJKe93CwO5/6c9+kHyiqi2FVdVHPWvkKV52MpT1gDbDObNDeFfKITC5rfbrUeWAGC4QAFDifGFsfMQEp0Ymdty+yun2jGkQu3eW5uG7Vsi1KxrRVsms2v9Oo1Qg0G/nnP/ArvM1wW+6+lua14Im92n2codo4LSVha1SJo0gv1WATsmKY5KtRFYXCO6lHVEomaqcVzRNK3GQpmY1xDFXRMOnfCzNyHbTm1uJcdiLh0UXPJfH6r+vO6TV53PQd6uBXtcp7+dWsrWlEWB/o/nuDeN13HXT3YvlvVQimn2OZFZY9V4ICaq8Ke6dkEzD6t1gMzKnwIvZxgnoYkmHFENEKUZJv5/W1i81znDjlMBKomlWZXK49loD7NWeFOarKxI1yS/ptfUT2wBmvj2B+CiVIUa4hx0f2QQOxEnfboGdu8qMKp5Qz9SlliD5VEAXZ09lgHQpS3NW8FgvBSqwiWhrXVeuBcEFQimGGI3hGw3orvjWvmC20zc1REpvfmsRDEUnJWpbmr//0EiN41jx5iY20cZUPQkDZWr4yXQ8X4PcfdnG3eHs66uJO/vUrsvIJu2+MLj6UQoTQtgCo5Zlpdsbvm0Z9hqRzPAtUYrwrjovsxhOj2R20jYyGa1zS6aiB2tz6PteD5tRAKKuMYa6M7kQHoEKJNWTzHs3xvTUHSic246H7M3rkj04ozxlqe8jiUeXyqHKKaHosBmemhBVFwCcdempxNDhJWTY3PsniOHPn+CAX3y5YfzIbVPK1Iwzgzts0cVgrEDs7bYzW4Fy2Mjn8AQbJtqvcq7sbKMCYWgsEJBfEWnLHleAacgzgTyaKEaP2XW5pCILbScK3yWoIzrcvR4ijUhe6JH8QZzizL2jlG4xsOiLYJ1MRacXCI7bPHNxl7hNORlUFVH+SxIspBi6T5titAnpyKATfWzjEaX26tUnRfA08DVXezeSFPP45GphWK4CJ+5R2PJcGOTlosDZh0YgmPjv/Zf/vWNPSIWBmutJcPoc83JupGY2waDZSshG3r1R2sRgXUPK3IHmtCiPJC1los+UbYs+Rjh4dDXGQIDVgZriwLwvqEShZ+mr54JkhPYsQSshW5ht/bl5667BhXrseyKA8tmnw/fsqRIzZKpSETK1OUhVVCmL0whiEmiJOaUbbqbJUkpKbtEVktnlryW7WHLHk9fGSe5dwT78ZzB4jtbB9BozE1VqayARg3ikWoVvb0/g7HTHM4KVUluCbuEVo2z7XLlxjiJE/rDj2WRtF2pAVUPcdMTzV08SNWx/38MiuTeXcIJ+Bc/ecUI2fi/sKeWVXJRs8v+o8POclJ9CK38qs9lkdFaSFVNcbaLCcq2vP3v6JrFHQrkxluCAfiFgpKr4kT+8VF2mmhc1pPMhTBWuHn2CtHwnETx/2ggNvqisW5siNai6lZxhLUjf8CFe9rZTKXzCd7H4EBALw5PEy8Be8v3JFNKZmLTCvEn2TPu4ECZHpeYhkXjm11bpmxxyqplka0gUxuqP09ZmmtTAU+F4QhCdRzB79hJo6xNg4e6qJg2dh8HyJFE/Jt420mMi8ZfiGdB2Fm2ZZT+3I9lkolamEV6kL7EmOsITqXSVibTGrySE5kipEge+xh46aWY6aHPzK7K8XlhnXi8th6inV5+dYZj3yIx12CqBBdPq5dQ480WY/1Ug5aXM2WKLHFA92m4NOclclMJGRgfTGs1VOtbyD2FCc1NjXSlL4Sn4h+kc1C3RHOaHMCFc+X6LRQbP+4je/cf9pGLRjl5a4FVtgzGw0lwsWetTkrM7E0RJkb04O3b+WmmfjZX2ronFaVaHWNkv4vtMVr3F8bZGytsGbO1gz3sfSJN7OnE3ssncqzOX9qkRXuqCYfOQgRLrugPScWZmJpDC9MYRgi5cg5W+zUiLLVwp7ZlL4SuciihOQLCKdNgg/mZnMGt3Fuopi1lI+craLQIvN7/lburaZY1wpF81hB7eDcWmT5RtyrVdAhXLYuO0ssUmaMgIseypeTwefKWHg45S20Rbvq7daOz+3Ruyk7plXzU/PYDbEd5yNTekkO9OTnI5aQe+7nts0svvBWztZMUY/4q08RzWMtFc3mBDIV+0aknZpyKMRSxXoL1fkkFWBIeUKMnFpmLOUJp1/TIXZJC63AAEfd6AGioON/9nd2Q5frRusyUSsoUEBJeRvnH0/leWjBb0Tb6L0L4niE8Fio7tcFuawuJ0s4hccVoKIKFf1GtI0mhht50nW6vqWb+NA3AJGTij2uAWU87ZxM8Mb/nor7tjCZb4DwtXLOBvgWHleBQpYin12a8E+TaiCQIFoBv5MB68LoAeOtrJQQmuxxIehZ78rsblRJxZYnYVkYI0AYUZaMEDuesceloGrbqEuLrXofO4A94gV7O9LCsvB/hpAhqxj5yGmpHleD7tCun0R/xf+EkXd6ipHgmL8oSyo2bGEi8cXMdCHfnc7ocUEoH5vnxnkI/tS+EQ5s6/we86PLlr9l4cp6YVizbGR9Oo+LQvZSjGiE4HcPBKHn0Xglrv97iW4b2LEurbiBYQWyubKwdY/rQi3Vd9xMtdCarS8+SfA/f0EX8WMFliWSOQxdELkgtvNBPK4NPYg9Bs1DC63QOeXSkuCf1FbKW7ZPwpCSSPXZt4nscX3Ir1Tdldgm/8eLu+CM7MuLV/DOQSWWJTIwDP+GRO9HTnx2HteIyjxj/Y1ogTXLsw/NGT9BWynTW28HSteCLJyDaPwpPC4UTXYfFQo9rKKn4/C+GhStkyOWpfQ5oBw6ysHRnrZpj6tFtXyKyN/Jd3Cuwoj/TdpCTYZ/eAy3JgGHburOPS4ZhSq5t5GfyFPBhXyiwAt4EjC7CqPvWBTyxfC8okPs5IX35HHhqMmmdqjFVdVN9QqIgL4uDimxLJHrSH+i9Qnrrimax8WjHbwGsRQtrvo/3Xa54BnpeByrkspyDGsTmSN7XEOyjUrVVKXFVcgn8uwBnJ5iXLpILFwkKL7ziky2HleRmiTORJEd3an0g8HuLljXCidorEskKBC1KbDrHWV6XEc68bQOppV995NqOi3ZolA6hgQm4pKVx9rKfMumc8BKtarvTujr+AmsSmQVGO4VPENFnNqXzDJR3bbIPmP3ILTvst2jlzN7atDs/n7klpSCggB25XExqUwy00Nsp+7truSL9I4W+4tCRp8Sq5KqVgwPgcOPzicVsakhetA6MCr2vs+B/OwyO2T08riclM/pHlfoG/2HO7L4c+6Hk49PxnNaldSPYkjWYLDramJKuFREDS17zGeksNqDWIytLihFs3lufjQttKp+0CRTixh8+ZuduVWJVABDlwwgWqT4RsolI/JvGzX7yEehdimOnS/0uKZ0RGJxWmyFkOhpt04GwnTmxLBwhphTEjYI7iSAlC5HcABu2siz2T5KJY8gux0Ij8tKNs+NI2RAWWxjNwdKMbKRFXWPkOF0LErq/DCkKtT40YX4LLXDiHr3ZxuV+8DHoDQW0eynK3pcWGpO/JCLQ12V/lKMHET07gWNtGMVfh6GX0lBUortD1L6ZSkDctOHQIdHxN5g/+/bP6Uy8ws8Li3l7MB3LYHdmnTMjGRjG80RVMFknNV6pUqMaXFKdFVBH0bDZE8BVnWXi0v2UW27WnxNuamT+6HgDIR7S8K6eabs+74UdM2JBDEq9mFVrNTtcXnp5+YRXYuvquEPSpzUHNoLCCuGNx3rZti0VAq6jUgfSGFwmJVGPR7X8A0ZCEI5x0w7G8qTGcUTWJNUPmG4LBYFqSgKRTsQr9kbiNKFe4MgvQr7ibUyWUY3uU1C+hAsCZPA8CUUpOZEo+iCgpq5gShdZPp1x9WyyO5KIu/0iesyYruEdJlYN89J75SCHikGRVpsHGRl7rrO7iCLAkEIeaWRduo2q6BJmHgCYN0MBQ6XRUEvFIticDjEim05feJxoSnb/LRMCvlEIu7VbYI3MEs90kZ/tWyGAkecRUFv2XgUX1YAI7v2eFzWN6SsN+DBJu6VecmGS7FsnkiOykXBpSnBh1KIpePse2CLi+0GGVu1dAomEYcT6y/egg8DQ/gDI6Q3wbJ5Iulr0Jg+TYkwkkC8axGPJ7Z5UflMWkZVsr8okfZarKWRKLEDaDkY6X7xs26Gt+IFY/quZBgpKsjIa3g8rrgb0bWkCqpg+5xGOGjR1/oLmSZNXwB39WQmBVoRXh7DBYzpD6XC6CebxPxELjnN6fGja5nV7yiDH+zFJZzxCbojaBVNQl1RY3VS34DsW8wBjnQYw+N2mXkN1bno1KIdEZlq+VVv6PkGj7zTo2dGnJTv6WzDeJlEVEVKzRQdzVdwqlDzgJHhg+lvYQ1VzmUnsihBEK6WhJnVmzLUhRJXDK+nwZI0WyWGZF3GDBDpOMJZIuteD+DC03TrXoJWoTpOLJshm84ZY3aAo/O5BVlDg3bpaUm2md9VeKPNqyusmiGbtozpt5JxpI0E1nrlufj0IHZMrUt9l9u2JKFD88nVRTpsEo5/iw1iGR6Xn8ptqhzVsWGrForvBxjT52k3jgzZx3a7xgSxC7xwMU1GPS3bzCm1sXqr5nlWamJMH7XLh1O8lMYWkEA+nHA5TUZd+DxURjLG6jQzArDjgH4CkE5YJGvHRLsGFdm2nFrMS13kskCLZhhiL8b0VvFAtsba2DEuQ9k4NfmWyrr8jRbNMMRbG9NLNhbIkJTFhh+aelyI+rmfvQQFoJFWuHq3EPokxvRMMUBOVBejnyEuRVXeFNFlFdE1YkEYA/CZSKxHiPEBFbelyxoOpovGz+XC968eEjIWLfTCv5Zingskl5hbJOMibHU5KtrWzxRdNZdmrUlxLzk0gN+7I/kJTOzI44pUi89PLFstXLM1y53fHRnTXYtCMhxcYAuxMB9F4HqIopWo37uohDSDNctFXTY080oj9UKaRdN16SB4XgXzaEQZVGbNTrQeapYxvwfKwpjYvFOF6TZB1lYKVUWJa66qsGQnWqcLxnRBkVC6hkjGrl11ZSqyKl7zH2HHkp1oPVwx5hIVCWWASGeCMLM8Lk75lXeIJkxaAfQrsWQnWqfvMqbDioIyEv1bAHsnu7k4715nXbJzVkt2onUGLmPap2gfVKHtEFN2sSILjCspYovCc48uNQkbS3aidQnGtGuKxZIMG61ZdATV4TrIHo3NCRxa5sv1WpBuckGoaEMWhuVXMu6PO65SRbuHisl0VRKsUCW/HhtCJoYk6CSFRxDTEMQZ5XGhKh+b59p1Fyonr2LJQqvYtyHxUhqWUbOP7HaLrd9/XKuKbBuVmhJ+yL0lyjHIViEkSgyJ0/b6sIp3SmWhUo/LVdGWaltmzFpko6J8rQZ/D5fUzZwBTGciyGiK2RWr2c7KjkS5ZtIvy4rlQmUZhhwOTJ/ZXYyrxMFFq3KLsmNuofLwW63YiYvbMSSEzoEZPnuZsVLzrltFztYeg/ZTlxzM1IqduLgqQ+x21QdWCDvDwn48rl2VWdOs5nsM8UmEWLFcXTyJcURfaDbGVKCSaB6Xr1qyLUrNrc6SBL/cj9VwpZtL5IWZ/jYwKSlSs2je7LhKR97bllN7mzPaNvPHxazySNXxNxDy14YamXsXzECUyej8uwtZDxLb6txyVnZEVLgEEelJYsFySTBVY0aQvQJm5NnsRtja89HVrHyOUN/2Kz7IesXK8t80LJhrytdmTLrcTqG/ECftZ1vlti5qtTTdRzysXT/ZMa1MO6LXcmq2eRMqJZS29DqrAeBn3stiMAYWgkc1ZvDsITQdtCimfLVn7HF1K587rHZORA0J2tqW08dzm9vZbE5g+/4rUe0pkaBbUVvK2T7KVxugUvm7RWyMIdYr1vEegzH/fjQ9nYllDM7e5a+JAHgc6+XqbS+yjOkXktEMLXuMiVm5/rEtpxYAJmM92jOFw4ov+AlofpvdrjONVHX9Ux5gpGuDFuNU65tH8H8ypseI8aEVPyUzLr0El7+WjnDnyHKdCJSFMd1xIuH8FzWLanH9UyKAdILF6H9kLi07/Ehw+pDbLiYm5PpnugDKtlzJqOs/y5jklgnCGWb2NGP7tLj+tSN24jbZWa2Zed7MmG/rg2vmTOtg2g0AYiNuuHWr5YrkOY1JaorB8wZsKyXL9c9RAAwwWK2Zeb7WmIXhSRaRbKuZwPVPQiXXGgyxOj05Oh8exdw7IJ5eIY6xZHuuf5GZdRbLVuB/B8DQXcaEdfbgGQp7lK0wg24APhTw4cItVnKM0nMZE/vIwtPyP8BU9crKXf/YS/7ohlictr+PAeCpjblbH15xUSbjyvt0/Ys4yez0MFisZPOk7zLGbjc40CGLYtupFNwAbIWd9hiL5SpbBi5jMv1tePar/MVH5fLKkRYgwSpjK6zVTBe5aWONhNstPIMZB9iaLKVp1z+RN8F+GWpjscq5l4sxw2bP4hkle49tAoBbcQNc2bGUnduzWAPr4wBjhqgsDl8IYweYIM5vbgCmyE5HwWL1D0i8hsIQMwfaO8UwsR83ACHKC42wh2BoKSa7eDIeDa+bjhI58NLavWEr0ANIVenlNtaq/xqSYBnTa8RxoB+5JWnXh61Aq9Okg71KrJUrR2umiLSJA+mxZ9iYkBuA2RpjadbO3px59FPeJWeDHPht/wBjf1G6AUTsOPtsreMsLFV2Ip+DxrApB8WJ/doVYyvQUiyjLX0aS9WQZu9hzE/mQVKI0Uw6lhuAIwEcVLZUA1U7bYxp1xTHgxQRZGODbgCaPoaVcjdkLuzUYUw4S+TBd2ZdNg5uAG2X/dTFsXes1EDVFMWYuJXBg8OzMS9XBhZi4asOpbEQjDlwcDzrrXmQAf5lM4a2hFAltxuAhbLTs2ClXA1ZojF+M2d9PORnF1wqJRuyJn3YnzRYqYGqr2vMX8mFuCmTjam7A3hH9i9s3ELV9/IMFLbeW+ZBUoplXJ+77gDsqs/+4ZASCzVQNS2jjTVi9iYPuhxBxt12wh1A8TUz0yNiHXhBHs2MkF6c5UGv+xbLRvTZuAMueTCzcgs1UPVRKBhibod4MDA2U7OpJncAmzP+0MLs+lWlc1h0MwNCBg+uRU1ZtnUxpuYoU+sUsUATHNasQ1+YRB48T3TWRaDnDtAHsy/8besULObXappUifEQma4wFnXPLUBTzKzaOqXX9ptTcCmK4kLo6RAbs4ilhLgDyFYza8mWydfbp6cgRQW5kOAyiZpxRUy7A4h8MGYG21imDi76HhQkp0guJB3RjKzOLfChbWaxZUoE6ck4lI4iGUVxoYsKshap1y1AUcwkYSzTwK/zUtAuxXHhP8nIZ7sFOHEj7FvFgGXKLkgx2jhVF1wogLVzA90CeObLzE+yTMGBvZwxfz0XfiNrQdjdA+yPPbGalqkeC/s2JnbL4sIge/cyQuyhk14FaMvVGZtzq8AqdRBIQcaE0DkuDA3HtXaxzM1jTRan1TStUs/M/xViGAocvq6ysnX3AG0w0+fEKg38+o4Unv21zIMTRWfkad0DTMcqxWCYL37T89H/LpcrMnObEZsz2j1AeTkxJypyvIVFGvjVGRcFw2bPiTfTha7TPYAnP+arJ7BIlrfOTMGQ3SNcuFtGlu4mgIxeVmk6/EdmZfIUDEx7uBBy5jgjREkRcINMf7gtq8BNsNItoilCHefCW7O2dqCbAM/JLZItm3WzkiqLgktTPBf+cdYNFcpdgB3jLFJIKGtipcdAQRqK4cJfz0hp7gKaY6a7xBqtCtwHoOClubB5zaja4bisU6jCPP3h3jIqLFHFZ++XghlxIQFLZmV27oIrOyKYrx7KEvme9RIU3DcXDsjKKdwFHJaZ/gRLZMnmNii4OT4fuEmYbKasXI8lahmJbCj4z3DhW7hJ8DDXuWll67BCTUV8oxTEPyVz4ajuElph/vDyGyvk/PtTU/Df5cJrsnJitwFLtUZ5fRpfwxwpphiGTd+alVhKTrcB0ZinP1yBJUoYfjFiGDYNZUdZ2zvF4z7Q8zOHWDH2wgrl+zDuiRiGTUPaSdaFHeRG4BrZp5e2Qk1XeQEBDJuOKHstTcSuJzojZEpXBi7BcmMy17bpVayQbzTfm7dh0z+xoYTdxEY0s7brRsCzS1YSgAItUD7qOiIUDBvngIyC/a/Pllg/JiPNhFngTmDq7FuGkwWyDJF8FgWTQDEq92F/tLc9U/xfqUFqxZ3AkpjpY7BAXZCcInAybPpFl5FN+8kz0/6FW9GMbhJjgaezQFNdzISHYdOWBxKZHUPUH9dQzdatwJSYn9QaxNw02ix0OxH3diae9YX9epKaYmamwSotrhLqVqB1S/Sk80HvXi2pWzTLb5+DGQe6YZGb51EIu/N5HOL+SDTIdVufJnm6Y5hh0wzcO7/q9/xJlqy0AtuEwP2RaJAHsgRP+hToVSzbRUUaMlLdG5SO9RK7k59iEplJDDmdKEDzU2yrc0s3A7bl1F6z6mMtT/Q635yCnzyiuP5v/fxJ/G3T7Q9S/kdb65Yi/5f1/ye28seja86qqzw3AyfOmpU+JpYnAaSPoYUXwVqPu0HMzUL/zSzPmdYZgPgQve92wOb8yJzHmbF3LE9TuTQoOuuN7HagWvYKG1se0/GZi87UPe4HbYCV7gfLMxd+UhPBOVh5bgjsGGeBnvTt2LgtwflQjxuCe2DfQl+sTnQVXQCxmVdkdwT5lMPKCaxAhrjZHpjSRGiqatPjllAOrHSSWJ38gvRYhMYevT3uCezoxPykMSzOA9MGkSG2PpqbAnt5sRHr86TXzrZvTggMsZSMPe4K5W59Zrtons1zB3EhylqjxwA3ivX4o1dgbTJs+9OFZQPv4nFfsFxm0wXXaW2czzqA3QgKsfhyPe4MnY+VH2Vx8kkQ10RMLlaex61Bday8usVJ6FO7iIg0cuTIHvcGfqWsZtXoCmvTOPPLEpCSWve4PVQSc4mNrY1p066IcET/FU173B8QmsxKp4m1cebo3oXrNHfbqOVxh6g59qH1luaBexGL3RYezeMWoaVyLM/0h2PKYiEdEQliRyqs3eMu0Wcz12/I0lTdf54Cnfdzunw87hMRtWGljJhWxtvb7ykIxO4ShN+Kx62ippnDXL28xspsfj5LsRsxVoXe7DzuFi2TlZ4TS2Mq8Oj8z1Bsat4eN4w+lJWlWZpwUP6zXFlC7vuIkKcndwyVMzuW8MpW5kygOvixowtn0rTHfaPsWZmxlcmY2BI5netjx9zCF+px74ioHysNWJmqz/bO8FgVetOZncf9o2dl9vDvbU3fG0lBVpRWI+ezY1rhbUbzuIm0f6sTRvRjMzCULBBZf+UDN2Mf5VvyuJO0WavTViDHY0lGHcDz0Q3UOa2ahNs7GdwgyYoMa9Zh9twHU7LEWJkFN0dt3T7Gt4bdmD3jq8W6rcHIWAwY90dZoN/IwgRoP3vmRbPitmJPrCRKMiqsS19udIfFyjzcVkQjdtLapHpt/A2L8w7Pxmyfxm2FZ+Ks9DaYfLRNpXNc4UKrcV9REytJgqlnQ2WMLB+ThuVihVic+4pYSg7mFcSSYce0OQ9zMp9KaJCRO3Bf4fkUa+IxW71j7TVBnz/xe6qjubFojpUOEnM2ELjo0n0AnYuRD3Zjkc/BrEdV68db69f4IOoBMAf25cbSL7AamecZX/PIPpCyYN1CctxZHIWVSwSzfTNyPj6YBiusoVG4s8hn/qzGt0x1DXac7Hg+/xJgDV3O352Fh7kblTZsoreuOPiwihcYI5Fza2Hj1ISVLhLTvHUTPrSeg9HRmWi8cAs58FCROVZdPN/j+fDKjDkPT+4sHd/8HQ55mh/k46HdM0KOFHdrkYnZW2POakzg46N5MrJUtxbFH4c1N3VXWZjbGPpxN03w26ZtpN1HctwhJdH55WY2U9hTjBZ8HBUO2CDo6t7C5rk5K09pXmaW1/3ePoC4mWLeh3uL4lkfXEYNJjVw4sqyJujjrDRYbLyj4LgT+mvNPNfJ1wJ/kI+//gjjQqtyc7EY5ul5TOjlstGxfCJomC42svePu266i70NpXksc4mg6crDXHxiKEPWyzGeaO3mkl1jNbNX3Q3MuDXTiE9uPj5xdDg2lx2iubloUSP0WWcdRpKv+mMPuI+j+kRSd1maSSFLXnfX1b40Rt+u8zDj1lQ+desCj4d8J1KAZQVfi7sLewzSOO3tfQeaLFnR9x9dlk84DYnFWJpLdxd+JSy6RqrVDpPehHSbx1Lx/YXjAKWy1u7Z3aXsNVq5LCTSkJJxF6pkHd99tFkCfmaErL5JHS+n2ajX7cUHaR4quoGPSK+5G/VNYbjoSYr3tRK+5HXnBwhUIA+3F3eYteakXLZ11kElC1eY1YdyBfz9c3hZp63jX8T88/hgtxcee2zRPDXz6x5w86IVqMj83ypLF+1rI8r6IylNCgKuo273FzvXvFX0QiK94yqU8mJZk5sT7GtrG8AkNZlfqxqq2bi9aPrUWgSFM4vsW3h4JWTuvYanEOzFsuHA902JNRONl32Ud39dEYQL1C/4Db3Q756O1AZq1j16EOm+uV3X27eVKNF8dEb3F3a8p8XS6zX0OENsXlnG19JecN03JNB9h+56yEdsv+Si+SlT9xctzV+LpwaneO+/teWxFFJ95rFFue9HDiWrL/CIHTRhiOasNtxfeD5Fi6qjN9DDMIWHv17hz3fUh//ugpxDfbvzfIDMliFG4iE/xA3GnrTYCgsreJU+J9ecQUfUSV+z29lNvLePv8p/nz5Jse8RrxEteaPuLmuBh9Yy6IGKfMoHvadCNy7Ym5Dz4T0YNbenHwBrL10nz/EvasFUTvFuMDyfoyXSytpPGuppmMKCbvtt+f/2ucBVch3eNeKsd77jMwS9xwlpXss3w49dxS1YLuOq3gttlpYcue4pT/g0zW2mAi4Gla/pyTg97wH+wkFKjmnKVGf/YHEZLbSydYvh2Y+WWHazt2SgC+Qpq+9fM9im5Vu/kg5mvcJUsLO84Ha0Rih3+qs+Ma2sVGXWyZoH+3wthXbjcY9hjy5aEYqTfMEUm+kO6UnyET9jwaXs/WMPsfFJ0LyqnxdmcNenf49z/6xbu+MD7eVjMksenuNed9Gqlkx21XeTUV7NWk0q41QzmWKypPMw026R1MNZH/Z39Q56T3oDBwqvR1mRgR7lQAfqvasXsJ6/c4c7/IBNf+q5jv0c80uClbDssVUtteyI9rjL9MDaIqq01bnNsI9qVpEZetxnIrbPGlJS02409mcJaUSqtIe5AdpitxErSIUet5qIrbeA5OBxr2FXM+vHQcpzsxGZ2HGrxx2EKc953G2qzuJBKK1Zj9uNL2zE0lHT7DxuONlmNlk53moHHnccR7JuRJ9hNI9bjsjETlg11lCUx10nu4ZaND64Wo/bjh3YllPHcxO7a71YQivFe9x6Ks+2nFrUmZPFej/yXjzuP9nLi3Z8vsxjWCaILn9QZI97UOXZPDf+c9dnmxUiJ7vGzsbjRlTkY85wXxaHrD9kuR63o0KWvEXZMbdSy0JddTsu/Ytb8WlrsceggxDLtiBUanMGz87jzlRLtlHJ5gTONAsrQaa5F1V8LOUJ96fKzNmun5a+BmvAk2/fr4R53KaKfC+vUQ2xjAJM/jN2DXsLj9tVf8b+H8/aVX/7FyvJnDl1bU/7IB63rU5s81x7WnVuoAAzZf5nsjmBmigS0OqG/QlvG2Smx4Vz34TpUUBJ9bdiV6uFetzJuriTv71K1GDqtpk5xHaa0SD8TAud17kvbFef1c27TI+bWide6q6JRtgR8bh1mYHFv0l/8OPXTZz+9dR0mOI97nGFLHntqv4HiPPr8893WZmq94e4ST9ufs//0SVeY872UiyuEupxz6vM6S7Gtpw+OfIvONO+albcH47ELs3jVOcmmlHdaxyJjApfmI/nGxjQDmJbKzin1RVucwJ115n7Bs6hCKqa9AaIE3umapqaVuFbty1KNdlSLOWJb8BBGT9rzvWR0aupX5BH7l956Is1IhE1n5BY6kZrI9NCwkw6zdRty+njI+XcZpNNe76BDTXd5Fsck+j9nX+QzQnUO5GPWjqxuPMRO1jSDs8hAkS3j1PSvo6We21kWlEN0fimPLY5fbXBa9z6nloMv6gBv0EWRW52stW+xZxsnmtvfbdFkdF9bnM7YISVVLj9eiOo7mociTCz6vWv6jzh9UFz22BRZ9z61pc6p3lX+yDNbtIJ/xfVAwA=;" parent="1" vertex="1">
          <mxGeometry x="260" y="100" width="58.66" height="81" as="geometry" />
        </mxCell>
        <mxCell id="ZjtB4D3ZKee5QEVcwOma-17" value="&lt;span&gt;Client Server&lt;/span&gt;" style="sketch=0;outlineConnect=0;strokeColor=#82b366;fillColor=#d5e8d4;dashed=0;verticalLabelPosition=bottom;verticalAlign=top;align=right;html=1;fontSize=12;fontStyle=0;aspect=fixed;shape=mxgraph.aws4.resourceIcon;resIcon=mxgraph.aws4.client;" parent="1" vertex="1">
          <mxGeometry x="878.75" y="69.5" width="80.5" height="80.5" as="geometry" />
        </mxCell>
        <mxCell id="ZjtB4D3ZKee5QEVcwOma-21" value="" style="endArrow=classic;html=1;rounded=0;dashed=1;edgeStyle=orthogonalEdgeStyle;flowAnimation=1;dashPattern=8 8;" parent="1" target="ZjtB4D3ZKee5QEVcwOma-17" edge="1">
          <mxGeometry width="50" height="50" relative="1" as="geometry">
            <mxPoint x="490" y="230" as="sourcePoint" />
            <mxPoint x="860" y="220" as="targetPoint" />
            <Array as="points">
              <mxPoint x="820" y="231" />
              <mxPoint x="820" y="100" />
            </Array>
          </mxGeometry>
        </mxCell>
        <mxCell id="ZjtB4D3ZKee5QEVcwOma-22" value="" style="image;aspect=fixed;html=1;points=[];align=center;fontSize=12;image=img/lib/azure2/other/Grafana.svg;" parent="1" vertex="1">
          <mxGeometry x="997.44" y="440" width="55.12" height="42.8" as="geometry" />
        </mxCell>
        <mxCell id="ZjtB4D3ZKee5QEVcwOma-25" value="" style="points=[];aspect=fixed;html=1;align=center;shadow=0;dashed=0;fillColor=#FF6A00;strokeColor=none;shape=mxgraph.alibaba_cloud.prometheus;" parent="1" vertex="1">
          <mxGeometry x="1050" y="270" width="48.9" height="48.9" as="geometry" />
        </mxCell>
        <mxCell id="ZjtB4D3ZKee5QEVcwOma-26" value="" style="endArrow=classic;html=1;rounded=0;edgeStyle=orthogonalEdgeStyle;dashed=1;flowAnimation=1;dashPattern=8 8;" parent="1" edge="1">
          <mxGeometry width="50" height="50" relative="1" as="geometry">
            <mxPoint x="569.75" y="380" as="sourcePoint" />
            <mxPoint x="1070" y="200" as="targetPoint" />
            <Array as="points">
              <mxPoint x="840" y="381" />
              <mxPoint x="840" y="200" />
              <mxPoint x="1070" y="200" />
            </Array>
          </mxGeometry>
        </mxCell>
        <mxCell id="ZjtB4D3ZKee5QEVcwOma-32" value="" style="endArrow=classic;html=1;rounded=0;edgeStyle=orthogonalEdgeStyle;dashed=1;entryX=0;entryY=0.491;entryDx=0;entryDy=0;entryPerimeter=0;flowAnimation=1;dashPattern=8 8;" parent="1" target="ZjtB4D3ZKee5QEVcwOma-25" edge="1">
          <mxGeometry width="50" height="50" relative="1" as="geometry">
            <mxPoint x="540" y="490" as="sourcePoint" />
            <mxPoint x="990" y="294" as="targetPoint" />
            <Array as="points">
              <mxPoint x="920" y="491" />
              <mxPoint x="920" y="294" />
            </Array>
          </mxGeometry>
        </mxCell>
        <mxCell id="ZjtB4D3ZKee5QEVcwOma-33" value="Prometheus" style="text;html=1;align=center;verticalAlign=middle;resizable=0;points=[];autosize=1;strokeColor=none;fillColor=none;" parent="1" vertex="1">
          <mxGeometry x="980" y="240" width="90" height="30" as="geometry" />
        </mxCell>
        <mxCell id="ZjtB4D3ZKee5QEVcwOma-34" value="Grafana monitoring alerts" style="text;html=1;align=center;verticalAlign=middle;resizable=0;points=[];autosize=1;strokeColor=none;fillColor=none;" parent="1" vertex="1">
          <mxGeometry x="945" y="410" width="160" height="30" as="geometry" />
        </mxCell>
        <mxCell id="ZjtB4D3ZKee5QEVcwOma-35" value="" style="shape=image;verticalLabelPosition=bottom;labelBackgroundColor=default;verticalAlign=top;aspect=fixed;imageAspect=0;image=data:image/webp,UklGRgR0AABXRUJQVlA4TPdzAAAv/8f/EWpi0LaRpKT8Wc+zc9IBiIgJkNEWbBllVIACoMNSGm04Q/noQ/0KtXg3HqiDurOibJWlAip73VCf0M4r1aF/g8aNLrQoCgFU0EFpVUBQgAQCJOlmqQlNQpJdm9AmACcMNLnKgHezbwEMGZ4lSeRMRj1ayu+n04+iXpmGXt9IdWLG6wDYa7eR5iX2ffUaeoULWOL5fkqwKz7aBgfce+7hOb/P93/gBywhlSrdDqjKoRUBVupdyr07qqM3Vq4s9ZscZAICbuFuYseOmNbABAKs1NGAAPWuXN6JnWATt2W7udrJBFS6mgfYwEq9NNGTc2IlgJj4AMkdCVy/waSejdyxnlpbutpkSIChzYnaUKp15WqqjWo3r0rDvbpBnmE3gL9NnDyVoMqteroR/ACuXE8qN+86qNs0iTUxiSomCPRUfgW6NmLHzevA2iUrl3Y/I224ne+GUt2+w7yBqztlYkVQ3SRNaCg2kuRIkk5/FTn5b1JhUX3TCiTlRpIkSbKyJGXuKSDCxDLgM7Nbv2SiJAAAaMrJ+v9u+Hd1zjXbtm3bNrNrfNm26+fZtr3DvF1uNn4ToHvZ//d7G2n/i77ynu2/Of/G/Avaalm/z+/RjuFhot/na2XRqf8eb9+n/D7f76d95/tGoymWzLNNyzwY+WianIIxKUZbvcQn8TZvUaLtO9UYnO1NhoC2yEwfs1PDGm1/tgs7QWCWBy8O07yI2Rq0xVo8xcbBp9ucaQZ/pjjjeOwDD+YBTe9Fmw9oIYih22BCB22zhsk+RgfTuyFHG6VvF3KmaPvuswiFiB3lYIrBaIjB5AmGaSlgtL2E6MCjwaCtQZbG02dM9okxmi32CMO0o1QCDsmzo62aEnuKPNleps94UXCyEWTXg8Bg68CTbSkgCCayTqLsVIMzNni2eKAKxOgoeJLpM44N2r4r2CayvRmemOB4m7avt/sswdt1Mk1YU4zxKtPCFG1xRspUey2iZMHCOrBQYgwyjgmZXmy0BDkHxuwUwxQbdrqUFbKmh+1t+oy2QcG2bbdtg6GkuHAt4J0Hrs93nuCSYBKae3qg9IRQ2gRkSZIkR5KkfMocYUUO+MB8AkYNBnUbDHPCxMj/OrMoazNMLDr77BQAAECcRD/hDnWnjA5xSo1yjO7eqEl3d9fR3d3dNTwa7HZTctjdk02c3TrPeHoC8DgA/l5uHN5CC/L9vx/fmoBT6ftfL/P/+33f18wHsGTpREAlhxBbRwIDpWkXr5IwzUCVEw9ATKVynM1Vt6nLLDdHpQcMFMr/AXQHVZLb6VQ5CCCgjhjgObDkAQRVc4FXKXIxvIETryCM8xSsVblmS7xKYLmdyg2v2LwsdYKFNpSDDZXxKpUDV5HlFM7mqHLgxuk3ks7eHI4wm6fhAfS6bV1yt02sBLDe9IAN4zCYSgcwWKmcC0whQgdwtjcTj9UuhgWBOYEDwa3I3pmDBS/gHCksS4cNxFZf6RwFTuUcX8XXORCSG0lyJEl/3fZ7tHoyLDr7iBYtuY0kSZJKtPmmAIlOp0fl7C3Hii6BAgBSap7/sjtlWz/bvHnZtm3bNi7btq2/3d1qjjNz0wSA43/H/47/Hf9fHLsTjgnE/6CQsbVw/FIuWQ8PL1Tit9qtjCrzHkqKp7U21BO37p06edxNW7WK70FI1sNDHUyZsqdp7mB9sbefdsWNP4XiMcTjxpAr5AqIcQPtSm6S7BNBQZH27khPV6Rz69buwLBSpUKF4i3b/vYXM/4QlMahV1PAczuUPF2WHXAZi6vzPdVN2EKM9jxub2BlY+Vh3fZzrF+xsrBexdYZwx7CdoNHc3EZaViuuMrsYlU24ZgAK+v27e977sqdaesK/FBGoossRkmbixhDCR0R9xC8RvAHwbZfI1hH8BEFT1ywgJITLqLfFVQhSHdFhiLSMe6yGX2I65DuaTphZGwdknl6NzHUE2sWLns8LQMrB+uGCuhYvxt6G+sU1mqjjeqUzHef/KwKvfpOoFBrdxCFMqtRMoWAiYCDYEsHcASrQ7uAgZKeyLY+EZRCFzWNHXK0hGMCxrYTDdsv//BYuVg3VSDHuoZ12WiPYav4QsbWCkEsKR6/Yl2gjyIjUWQrCmYRfNaBHcHf3+UKhlGQeZC8MrOUpYwuOJuni4n1r/KiWFcN60mxJvFrd0zQdwn2kzcRishyE8i8CDa1F0Xwo25VFwG7czNZXDqW1FM3tZBiWFeUl8bW+9KLxm+1g1jN4p3TIDiD4Jv2zgg25q2KIMgnUZOGed4/7+mUJznWn8rLY/1VMk/ZhGMXZC15E2Wp21x7eRS8HypN59jzAGVfvvsVwl3OhnZh+zHWLUVIrOtYb3rKOqMk9zhPkJW45iHpDkJGb6NJiQBFcAVBrg9DK1TalWzRklj/V4TF+qdkE2Mcyswj9uP7fJXS1I3WhF0+U9vXlW/F47/YTrirZUBF6EGzGerpu18hdjFa0ToIvmsyN3TD7SytfffBL9FK0HcJXB1nlLPZFdFb4OpTuDogQd/2soh4MZRRUoiIB5rsy6OIQRdhl3A8AVKsWQwrKHk5ZQJTJy/eD1twr+Ng9braDNZzE0iiDSRXKYsnL6dMI9Z/yYtPygq6mwe+et1obRp7rpMoWFplbH/vKu7RC+WUyfTob9xOlI39OPnoX7fLXxIoIw2Rt7TZRPDBndnuk5uelGor/UI1/wjKlC6cPxnVi2idqbk2pQiepun+chGRTPVTvKQyr/VLFs9K63zGX1JphtbmFcH/mVqHyqNaZcOKKpNbO1t6ChfROlO4NrkIWGlGk0L57nPnBTz6QJnhKKxzFwqia6O5iSIE77QZbo6ICcRmIH3ayvWFWBNc/U6ZZkNfLlqQnvnMQ8EFLRtq09y0SHmZEx7KV2ihTDVWXoUEfZOhY50zpdKmeujq8fgVK2sqVTqFMt2NiuHbfoh6RSRC5DVtvhH8bNldbvskTEG49UirzHnU8G9ItbobY7c7IgXBK23O07mhr7s1FGVLnXB5R5l4Txcz/kNZUKvY8wDdQdQA2rw3zHRgmVKntMrkl8TVulRqgyIueKnNPYK1OoVkSaV+l7KAJVtRp4iiCNja/DevmleG1MPtMMZ6RVnDqOS4SoMqRRQdSVvD5lUby44S9K6OS7qyjvWLPRo9cmU49KatIwIURZYuLjOapUIKZSlb5PfdrxAdchNKCM5pazlA2whZUcIxgRCsX5TlxPq2eE/TxNCf9lmaa8vZa2c5Uae5lCVNiz0MKY/vPvjbLq+taHQm13U7IB+aBltnlVWNKu0ZO57mrITgobaqG2bxnQckF+qnQnZlYe8Ka2ZSWvPgruCstrIIuO5MV5mQp5s6oLK4Ozg2lYloiwDVFncoxJCRBc2STVnf7BV89ytEX1wBEcF1bX2HcxFwhBTIUM8SyhL3v1/KskGa5toSI3IxXgxl+c+IWC8qy1zadxyiNAWtGPemrTKCf5G55D5BIVhRZaGxfixOTVCPvS0bags9rE9uejIf/K4OYJ1XFhuXR2ehIwsMra11eJYNpD0daivLjfX1R6YgwZGptOV+qgPLeUYtpqx4VIUe5wnSjniErDtzSVtxBL/cQZSMx9NtcEBl0bHemoZuFEGAaouOYNpnHsKynaR5UijLPseiFOODrQOHYFxb952gwFyuk6BbMa2y9FhPbNVDhFa4lrQeQFv5VAgqEo4nQKJTFusPZfGxvvF0G1CJ0DQNtcWv21iWUyVPfWX5Uy9KISqj4Li2/svHzbSU41wW1kuKChbLShvcy1A/lKaB4WlkOMatNPtXlBDr3enogpv0RfBbU8LRF5fe4O7AORQ1HAG3NhQhOIumh8OiJeTlNujVFKigaGKKPEG0AF0vYg+naSIKeM8ns8HvXogPpiijoZNd6IAPQ2sATRcbupNsec1qWF8o6mjo9cw04CA5NHV8zYTjCZDUGHUYlVAUctDE1m974ZpCuoCxpJSmQ25FJbF+e0OLFxqp6SQiHm0uoVk0SlHK1J5qf0vn+8nYiYgJTSuHrCSbSerRbkUvo/JYuO4vF5GBNL3MiEhHuUzOkopqYu1LatXixVAeWtPMcETEymSMrYW3rijn0l2sGUo0l9eUM4s85kPWXRKXDxX1PKbvfoWsmHtFt2dNPV1kbagkps5mioJiezGn9Vq3lqagCLoipDDT9a+oKC7vLGu13BHU+TQVRTAaLIGZoIyipFifet4/S1srN+GUTlNSN5yMkb708KBWCUVN+5/OSp0gXFPTU3aUvKw3hKKoc+OhvHU6SENNURFcjsevWKlL/IfWr6ao6mzTWaXzR2uqWndxiUuC3tXfRlHWA9awRu4koKGmrCi4FCNtie9BGFtRV6ysBH2XsEIowiVcU9ezBUta1iijKCzW+7NYH9eS1uk0hXUTSISU5dH6V1QW67V+rM4rZ9RUFgUDPU0njIQl8zsrSjtDVmszSS1NaRHZLF/xXQvXn6K2x+pqZXxmSD1rahspWymYVlHchYKsy0bLa4pbXa4SdHWK6ua3LO1G0jS3oTvDTapSQVHe01iUJHU13Z3vKiQqRleyor0pylqSUJQxomkvgi8HlqZg+3AK6qOqzW9Fsmj621t7SUqrjRUFLnOxddtvPdxkuKbBiJyPkaKM6NEPigpjfZTTargzbcOpkN5rqARl1H0pSnyepNai2XCaEkfKT4LOqqgxrm62FN2NIboTTYuji0pPsFYoiuyxgi1EBIKLmh4jQJtJTspG0aQ5jFtpWgeU1GiajODFklKTxYZQVHnuy7IKx4+mShrBqZ6mE0Zi4rtfobkUZU4eZA0umENTZheRIzG5iKLORnWBJcgwr6bNDVeXluCqNEWf63u6qRYgFCVTmj73HI+QlZTcSnYKpWqvYf4Oq2k0Iu4VlpJssSdFpV8p4ZiA2XvlVFRKI7JTSjKwotRGWWnylkSwoin1aSUk51C0uj5WK3M3rabVyzeWjkzQglqp2Yythc0cIjw0vd4yVDLSIa2i2Lg8auL6rkextBuSJCOG1iqqfRbTFjGRptnpRpaK4CqzFHTrrhYza4jI03QbweOOEpGpsXIV5U7bwZxVak65NIImichCinp7ugtNWceRNO2O9omgSEPuU9HvRtObsbNq+l0ggyRk1NkomHrZKubLZ4ZUkYJpRNZLQhZRVNxjJ5iu4KaahqdyLZuOFORW69Oxakc3W2k0HR92AwkIejUFxleUHOs5k/UaGSmZPqwEBGu5ouae0ttUhbqAoWl5urbSj/Tl6FmJZc2UCyI0PUcwFyr5CBpMUXRcDpoo1zwk61E0fXLJxzkUTY/yuJuap5Npmt5zO6lHyhJUTfUXZJauIpqq6ZuSepxRUXajK8wkhbrIG5qup3IFRIlH4nK0DeunnOaoiKbtDyfxGF5R9/ymqHAb6qYR6Sjt6KToe6PFzBAiyzV9P1SMpCPpXBROefS4CZpxQwqnUUaapGNRReX3bH4yaRpf63WlHLOMQOfGT2p21ommchoRvVIO3NYrSn8Ws9OXpvOp4i6hIuGYtQWtm7vHeYLmxh1B1bR+rxIObLUqan8Bc+Mib1C7hjuXbnjeP0vPQe+wcruamT1qeu+CY9INj3Yrim90x5uYUFdyn+JFu1d0JRv7b0TzsPU+4fj3bvPiSrw0zR9KsvGuiup7rBTTEoHgIdXTVyHVMLZWyE73SvRjVlbUdH9LqQbuGlaUv4lJKY/gOeXTrtjMJBqrpaB9JWqakxU17d9SooHbDkX9z2FOENylftq1Dg1pxiwb07/NgsyITwRF038ER6QZuDpfMUDDcjEjbrjAACrOKMnoujALwPaiCYnLOBTNAHQWSYZHwxUT9HQbmI/X1CwwR2UpRthcbKC06RgtHxPQCJKlGJ5uqmKDKdYwG8fRbLBAsAxjBkagsNVqMgoj+MoINMr0lmDEt0iKFWJFpzYXiIjVrDCXBGMRZqAuYi5+FzPQKNGUXmSdjB3swFRMotmhCzqkF7grVDHEY5sJF9HPEIYrLLsYjCVkMxEZajEEXURyMYFiiXfVj3lwB1GaJQ4kuTgjU1DnNg+9MgWNrkNVatG1BFvAes00jKzZ4uGkFobtpxhjerNwU4xhrBiZBdYZ1lDBJHSsxxj0f5BYTBfFGkboYA5OoFnj7Uosmijm6Lm1vTlAcJo5hF+qvAKXd9gD7qaZgsr5mIPenrQCD+UVe5ysqxlwk8GaPbqAIa3AmscgVFkzcEoGkWo0WcXMLOKcJqCP5gxCu5IYScU0ikVWy0o+lIRpFumGGUnFozAJddXkW4tJNMwrp1iGTWAdI167ikxCoyBBSpFYscmNC5Jue5pN9iWlODOjUC9DOgTnGUXD0WQUni4mq1iEcEk2ZBR6RQlFyuys4iUIt7pmlShjRELhKb0Us0xMth/ALGaKkE+8K7v4NGQbiVlon9z0pBNhZdjFsYgWj5DV7PIZpRPzK3aZuiDJXBHxDAPBVemEUWYzDLVzkg3FMFK1k01gnWMZhtVGsNjzABGgDEO7wUcyMWo5ltE/wXwiKJplImJIMuF5KCfFNKcj11mZxpCSiR2yDdwdSK4pmIYuJJfA1hLb8Gg3sWLysQ1XZqBUomtutrEMsV5Zs01XZLdUoofbYazYZtQspEJBJuN4WqmERzMYh5qKVG44yTiir0Amge2TrONghOppOmEQfGIc+gASibBeWMcxCeXKQdCs8zgSifgeBMU65+hxniCZzs88JpJIXAXzUMcmkxv6mMd8secByiOysY9FyXQ05qGfVB6Rln0MSqSOqdjHyaURQRuzjwZEqqTZZ0tpxGqKfeauQqLzM5CJpBGnYCAqMYlcmY0MpGdphFFVwkLmJNEqDEQvJYu4OhaCu8pIlJKFrC6LOCAL6ZNAr6tZ6NSSiIL1WUj/BEIZNkxkWknErSoWGjUqeU7FRLYpiTDaKCaibpU852MizXPJIXbBRq6CPE/FRPQF5RC7YiNPSJ6UbGQUOUR/bARbCHE6RrMRd0a0HKI2G8H2AnEm1Gz0xaQQORUbxfqGOO4IKiNBxIQUYn5GUr8rabbFSJ5KCnHVjEQZWyuQ5gUZSUopxD2wkv2S5sYZiY7Hr1gZxBlZyQVI0ysrmVAG0ScrwVpBmplYic+ah2UQM7OSIxEmg2al25JBjM1KZiDM5MwERZZKIMLKsZKZCTMJM1lZApFTsdLxCDMgM3EHkxKINZhJbsIUYSarSCCMW+sxE1WQLOszk21KIKZiJ56x48lyHGaC4I0E4u7ZyQnJcnhmMp8E4h7YyX7JcuPMRBeWP1wHOzFsX7JMz042lz8swk6egCwIHrITlGjKHxZiJ49ClrnYyUryh4HZiVFWkmUsdnK98ofzsJNLIkstduLOcJM/zMBOjkeWdOxkGPlDMDvBbS9ZotnJfcsf0rITwx4iSi7NTtvKH3bATnA5TpQMDOVzyB9w+4ydGO0xorRjKCgjTf6AlcNOsHWWKI0ZytbkD+OxE1zSiXJQhhIpf8D6mZ1MSZR1GIqbrJQ/1GYnWK8RpRlDcQcN8ocS7ORliXJwmd54tn/92/7t2/ZvB7Z/r2T7F2z7N4bt33ls/wa2/TN00vZvEdu/67D9uwfbv7u3/du57d+atn94KG/7l9P2L6yc3R+Mbfu3L9s/bJ2x/ath+4er0mz/PFVutn8ntP2L/0Eh2z8YwvZvZtu/Pm3/PNVNtn8ejbH9W8/2r58ouz/o3/ZvYNu/67D9m9P2L7HtX+zHyTeH3R80sP3DOmD759EI278JbP/CStj9QXLbv0Fs/zzuprZ/WRvZ/cHL2v7twvbvKLZ/KbPb/cE4tn9vZvvnUR3bv6Be7P7gnLZ/hu1n+7dsfbs/2LrtXx7bv/S2f/DOtn+erlLbv01t/wDbj23/sF1k+zeN7R/swPYPV+fb/i1m+wfBtn+4KsT2L+tkdn+AtdP2L0Hv6rZ/0MD2z9Bo2z/f/QpVs/uD89v+rWn7B8G2f2vb/gXt2+4PTmP7V7OE3R/s1vYvc267P8DaZ/u3vyi7P8DlUds/T93U6tv9wZFs/xbLbvcHB7P9G7GR3R/szfavTmq7P/BUtdv+zVrN7g+a2P71OE9wM7s/WNv2D6rb/k2f3e4PPNpt+7fFZHZ/gK1U27+k/dn9wbGxbtj9gWE32v7VHNTuD541yu4PPPYR27+teoj0YvcHS9v+QXLbv8x7svsDo9ouyu4PcNth+9dlX3Z/sGluuz8w2nTbvyCsl+3+wNj+v28Euz/Ybwq7P/B0F9r+9TRNzK7s/sB3LdyCdn9gbDtxY7s/MGxf2z+oYPuXdEq7P1h2Qbs/SFzb7g9wlVlquz/A3T5Rdn9wLtu/MNxNs/uDDiXt/mDquez+IEHfJbA+t/uDo89t9werYeu93R+kH8HuD+avbfcHt3pXdn9glOTcdn8w1Rx2f9AVK8/uD3Y6gt0fTL+w3R9Mg/WN3R+MeEC7P9jKeCk1l90fZH5Zuz9Ar6YALsft/iAsj90fwPGy2/2BYdu2s/uDBL2rv4TdH3jGjt+X3R9MupDdH0BIObs/8Lib7snuD+YZzO4Pkua3+wPA1QEt7P5g/ne2+4MuFaJs/gD2vLDdH2TG1hm7PwgLaWHzB7A/rPfs/qAr7iorZ/MHsOlr2P1BUEg1mz8Az/tn6auz+wMw1PP32/3BsoY9FGXzBxC/1cb2ot0fhHWY2+YPoGaTu7L5A5gHW0iUzR/Aelu3+wPo1MDuD8LKPpfNH0BQhyls/gCCOmxm8weQcEzgeFPY/AEEdUpu8wcAxq00i2W3+QMYMf9kNn8AUzfByrX5AwjqVLqRvR8ApAxZxuYPAFpla2HzB5AS24mDRdn7AcDRjS44OMreDwDqGF1wcJS9HwCsdvbnsvkDgMyGeharbe8HALEfJ1+rJsH1bf0+7AR9lyh+pPHs/T7sGh0qBJez9fuwJy3VJPlktn4fdtJNDdvX01Zh6+yAdn4f7qlnO41HuwdrZ+f34U7ZqmxI/tINqtn3ffhnvdUL/ZQzf6EzLP0am01m0/cRnLROsmlatcJVZp3226ED7g4MsaYTqCPK7PjP8Z/jP8d/jv8c/zn+c/zn+M/xn+M/x3+O/xz/Of5z/Of4z/Gf4z/Hf47/HP85/nP85/jP8Z/jP8d/jv8c/zn+c/zn+M/xn+M/x3+O/xz/Of5z/Of4z/Gf4z/Hf47/HP85/nP85/jP8Z/jP8d/jv/kM0FbJF5vvx067CskBFupTQbJzzF62pwmOw4JufsOHfZcaoLMVeQCMXldAdG9hoU7glq0qCsytG3bNGlQRgHKrM6SJcth07iS1LZtVyxa1LWk9StfcIWephOGWYTVmN2w/Zpc0qCGfXqcKUooLvNtsLIGw9aZg+3iTPsqNU+QqBd7HuDkK538GVuijJHb7bUAAlT7b/RM9+fOXLoXV0I7HAoyTxB32Ywas4LLiv/Q+nfSJBHWi1if51bcaOrNqu/tTIbte6tbCHOhD76f86Og5Hx9tUGwqQNhPhc8u93Dp+l9ku4vFxF6l3BMYHpDPfNg6wxWjuJWawdXCClVU2yrXKlISxcwxtJesF7dlm07d6RsW+x8kCMtU05xsNnf+SJnLzuriObKQRjmlocqoL1rRQQPV00z4Ap0LFnxCg2iFF+7cGmjC24VJI757oO/kouAUTKF4JP22kO7CaR6pVCalXBMoJXRBZf+/YrTrVYyT9mc4ldlnwhKpAsY82mvn6N1pE8EpSONCnvTM03ZSHG+2Qd7s2MHiVtJ3Jm2x+1NkxPB6nKH3SSUKvnuV6hsNqxvFCdconRIDRGrUNtMtTRxl89UpD0lmr5JyXKKK67fIH+nDiJVx9ZZ5tWkTtU0S+cI2tOqQhnFJb9NsbJJxagkiHSsgwDVhJ+paudQejN9nkEVxzxCsbJJRackierU0qYQwZuWnUNpzPR5FlTc83gVSoWJSzGJ6uTQJrJNy86hdGXE3favOGms3B2tJiZ13sZw2nQiYEduTk2qdCqNdUPx1A1CaopGfbQdVpvThi5gFE04ngAaslj+sRV3PVm2+BZJJKpUdT5tYsdt2YxyoFdTwFDPklGKz24Q4rtfITHoddMcSpvepm0L04utjJdSRln5NorjHmIXnrHjxR+f3PTuLFyb4rF2+bp0Ir4HoUJuxXnXT+7pNhB6IhK11ua5uZtADk4fSiWPUjy4p4vZoYqoE1OkN22y6yYKpQk9zhPskFZx4wsaXXBNEedS0wypTfg22yahBTV3XEZx5Vg/nX1S0WbzB8ynTfpcCJI70oBcIWUUdz5Cnn5EmtGy5NMmPmWaJFYv4ZhA8UEVl/77m2QVZVbIMp82+W2qx1i5IEM9F1Tcei9Nuogw7SJzaAtYoK3vPvitWlAHrCzFtQ8YklR0GTzNcNoiLtG2vCXrhMuHinvPZHg4CC0JxxOweD1tIYdFhJX1MrZWKK24+L9pbDtRXPGJoBxNW8yhJrdWBfOkVpx89mxbiCnrDKWtZ8WWFzP+ELROQcXHVhx97Sa5xJP2WZprSzpW9fIW6Q2fS3H2mY4smAS3XV5bVgR3T22FEvRdApfjisMf+NFEEndg+LTa0q46muXpUEJx+Rs3CRJFCmdJpS1uvbahlma6Yyluf5z9iSEHKKAt8HIbWZegEKyo4vjL5e8qfrSvqq3xfGnKW5QEvatvXXH+y3i6DUSPostry4yIe5WsSNdi5RT3X79CQZHjoGtpK10RkeUxlmOC/pQQ2P+tihtF62mLfbSRrUVYSAslCGbPE/tx8okZlatq652veqiFyJxcCYSDJRMxEJvBobQl37KxZfidCyuhcIiJhYvgyFTaoqc8tDXoUiFKiYalfdfCiRUPXldb9+iqhS1AfIv0zkpAHDT+Q+uLFN8fAaot/dFcAdH0TdxCCYnZmwgTMS211c/3/c1d0vxKWDxnTTGi7341Bawaex6giasxjhIYnyuZCHHqcTUVHKixaSu1sBIa3+Z3Cg+h1StqSphyPyYtpJwSHKPyB4kNGVAypelheBoz1gV305QAia2zU4sM6xxNU8VV4/Er1nQdrIESIhdcTFxYCcEPTRm32bfJmh7rKyVIjrCeqPD9K2rqiODtJqbKKMlDKGEy950ICaGRmkbWOoCJwl2h5ZRAGZVHQMg1raaT4S9glsLyKMFyb0lFg/bLaWrZMtQUdT2nEi7P2o9YEI+QPYammJmSmKD4HxT6FkrAfKU6IsEkCD5pqrlcH6Yn83MpIRMr6+jiwKlracq540s1ObMuowTNva8mChxgPk09j7GUqdn/gkrY3JOx7UQxAJGO+TQFRbAyuYmZ5iWUwPk2a4oA2w/XVHTIZqZlf2WU0DnZ7Pxf24aako47sklpVUIJnht34v22Fa2paT3EZmBKSmHlKeFzDs+t7fk+V5CvaWqOVzYha1ZTAmgjo9qO50OQrOlqDveKrulI/zZKCG3hcTfl97alaSuCHyjRNBmL7UkJokPslNcrgmCTuujl4y6hYio8Y8fvXQmjJabn89wZbuGawk74GiZiHqwcJZBi/ZSYxztIOk1ld7K5adhifCWUvsSI/N1K+TSlHel1TcLUuLyjBNMFD8bbuQPDSTW1HfYKTEHWcZRwOnM/fN3Bh9MUd6AkJiDMo6NKQD1rUp6ucQFNdVEyFUG+HSoh1dB+jq7jU2nKe8vEO54SVJtwcxEoOaGpLyJiCWdU22UXVaIm5uVuVtPfcHemLdE2HUIJq7nX4+PW1zS4ls8MiWA1XkIJrCPE9yDwcIdORYX0ADMSq5+ZldC62WXxbz656W2oKfGOMxAqDOu0ElxnqMK77W5CTY3XCSXTIEp43RHnFrycpsinIpJRklOIL1Gn4NuOq2lyqlEIVOf3KwEWK7o/nm0YTZfHenDidEmrhNgpRuXXXAExI2XSLvJGDGn2oQTZPsN4tcGPoalzVcIYGq2EWY9mcGqhR9UU+j6IsmZqcSY7Vis+7WU1jc5XiSC++xXaTAm0WD8l6LsEj9Y5FZXSQw9ODmwhSqgdPow/WxLBiqbUt0CMCynB9jr4s1U1te6dEI/2NqJNi8S82YqaXk+1ORGCxlDC7a/rcZ4gXzZjPYqlT1SeBGdSAm5+rixiOU21UZBJgBM2EnHqPytP9rKablf8XV6v4BRKyB3vsvixJ61IuTRKljN4O09VuxJ0H5sb6ziSpt436+U2qC/qqLK82Itp+o1g85W9Wq7xlbA7YD982MgVKZg+Row3260SeM/IhZXvVVPxZ/RiiVOLPPVn58HcRIam483Rdah6raBxlNC7TC7+68EzUjLdb4S3MrpgJfi+Gf+FErqm5m6I81KeseOriT6p98d7nV/T8xwzeqfhlfCL7cWeponhu3bXM0XT9+KV1lYCcHG+y5XQNFW/Xi+UazMRaOxRea41GtK1PDHep4kSgrGW81x9acq+vtfJPIQYlHtEfmsYTdtz7M7bYB1QgnBpbqtjAeqmD+9l3rS+KKTekNd6Rk3fU43sXaZUwvBzVeGzlspI4bQbZrzKnEogPjefNa2m8nv0Il3mFonGHpXHmiSaziFgx3gPowtWQvGb8VgPpyn9/XqNrGXEoiGMrYX5q86a1g/Z0VuEKMEYd5XxV8tRO724l5gU6yfRCCuambcaRdP75TN4hzMr4RhrDW/VL8XTU3uFnG8jHm2coO8SfNWhNc0fq7I3eEIlID8fVxWKgptUT7uCfC/guxZuMhEp96PxVLvXdH+49oHPKCuVkIzbDo4qAsFDyqdRZGmgG3UIMSn1VsZLKX5qj5r251gysIUoQfk6+KmBqJ9eP5AlHBMYUFR6m4K81JNq+l8gOHDh6gAlLBvd8bzUnTEAPUzg6k9c6r8KH/Xg4SygaaAySrISmI/CR/0AzQTXDUzDi0xb56L6QICygXsJRNPUF5nUrfJQaTQbjI67hErg2YcSmnF5lINKOJ6ANoxAVw00y+YWm1KMyD+dQLPCfN1fLiKBBVelKcF5t/zTiZiBXjywjC86jVeFd3LlIESzg94CyWxKeD4y74SgTjNEd2AYOLCFiE99ck6x5wGmZAm3EChythCfstfgm4pqlpixcmB4AiVAn51vQgmdKegXCAzPJUL1H8QzvUZDttBrIFhTCdFGSeaZEFmuGeMaAQ9rnxi1EMcUjOAta1g5wHXByhOjUufklw6iWWO9XAHtqpUgjbsD+aXXZA7aHUENaEcSpZJzSxv0zB62EcC6tBOlys3CK12vZo85kgSsCylhGneF8krnYxD6tAHL0Elx6jycUsxwLAJljASomhuLU9m34JNOq1lkrY4B6U6UQH08PulkTEK7M10D0u5FKlzSuaQkOdjEXgOQ736F5hCpsm/BI+1Rs0kEaOGAs7YSqs/CIzVnFPrQAWdvYtVCHFLoAKxi5YCDlStW1a7CH62hWeUSAcZTNzUlWN8qf7Q1ZqHXCShGmy5aPSF/1Be7cBFwQPmbolVa7qhyRXZxuwGkYGrRqn5m3shFumt2ma9wwHgYJVxPzBu5iH6GoVcPGFg7xatz8kZtWMYPCBiDilclgvgiV0DULHOkADGdErDjWyS+qDrT0H0HhLsXsU7DF9042+g9ICwiYj02XzQh27jZgIDLhyLW3rmiB9dsExF3AsCoKUQs9Wg8EYr0ZxypBvc/o9pOCdlz8kSI7GQceiX/uw4xqwJPNCzrOK//zSBm/TqOqHIq1oESur8lxYqKWSn64YdG0ayzVnn/it9qK0HbKMn80C9jHnoT/zqNqHVmfmgt9rEb/8omal2EH3pk9rGef2G9Jmrtmxu6VM0+6/pTWDVRK0VWXqg1A8kR6j94KK+E7RPyQuszEH1Q/1lb3MJVIbzQa7KQRP5zLnFrF7xQUxaCiDz/2b24VZITKj8fC0HEhP9sJm79fk4oXgxlzULn9Zea9cUtlZkP+g9MJDyJfxxbCdyd+KDDMBGNEk3/MGw/keun8EFvykaK+seZRa4r4YOeio2gINM/9iZyXYQPGpeNrOcfJUWutFxQx2g2crv+saDI9fu5IHQdqpqNHsMfglKLXMp3v0I8kDuCykjyhfrdoymhe1Me6H4ZiW7sd7OJXUfmgV6QlSzgd3cvdj0qD5SJlZzA795M7NoFD9QrK0GQ63dY+8Su3fNAKVlJVb8bWOyakgOKSMVKzuZ344hd43NA3V8uIpqV9uV3U4hdY3NAF2Qm8/rdCGJX9jD+J+6yGTGTlH4WlELsUjn5n0TMJDzUr7bqIaIEbzyU539ckaHMRPfhV6uJXmvyP6diJ5P71eyil6ebyv+8GDuZxK/Kil64O5D/cUMfOxnQr3BViOh1D/zP2djJrv3qHkSvJ+R/3DDDTg7pV4OIXp62iv9xZy6xkwfwq0cRvb4Q/9MrO1nSr7CWi1647eB/PiE7OYxf7VD0wtrH/9wfO8niVxVEr2L8D4IVdnJcvzK0S/RaiP8ZgJ2s7FdYB0Svq+N/ZmInLqLfr7A1Ino9Pv9Ti524CcSvSotef5P/ScdO7syvBha9vgX/E81OUHLCr7B1VvQajCgTMhRE1hMkWLPTofxqV6IX1jmibMRQdsklHNWvFhK9jkWUzRnKebmE0f3qDKJXcqK8LkM5LJewDb+6e9Fr90S5AoZyUi6hql+dTPQ6ElHi8SuWoWyLS0BJm199IdELd9OIsgFD2R6XcDi/yi96ZSMKINhkJ0W4hFv2qycUvbDVSpZ87KR3LuG8foWr80Wv05MlBzt5Pi5ha34VInphrSDLTOxkQC7hpH5ldMeLXonIUoCd7IdLQESsX+FuH9Hrp5BlDHbiCohcQlG/6iR6nYIsKKGzk8Zcwn78yriVpuh1K2TZKzuJ4RJG9ivP2PGiV4Le1ckyLDOpBVzCUn5VU/TyvH+WJkskM1mAT0jiVzCH4NWFLCgjkZn0yiUgQMHPsb4Ru7CiQNbtM5O1uIQCfjez2LV3wozCTFblEsbwu78pdjUgTCVm0pJL2NLvDJ0Uu45FmIMyk2fkEkb3uzOKXWcgTJJoVuIOoriEe/a7TyN2YauYMDAkK3Etac0l9OF3Vy12XRZpEFxlJRtxCYh09DtcpSF2vSFpVmUkDWO4hIP7XU6xa/+k2SUjmQu4hMH9DiYTubInJc32GMlAXMJM4I/9iVxYOUDaWRiJm0C4BBTc9I9diVwzEGcjRnIYLiGTf3whkWsfxMnVkI2gJIxLQEmNf+DqJJELV+cTB+ZiI/vhEg7iH0cWuSYmT19sJB4hyyWs7h9riFxvSp4HZCIZI7iEzf0jDCtP3MrehTzbYiJPBTzCcD1NJ4x/ANZr4tb4QF4fMGUix+cS+gJ/zSZuLUSgD7YOXDQLQRmJXMLK/vME4taZCQQ7YSHuNSy4hN34D64yE7fKkmgoFtL95SLCJcRdNiP/8V0LFyVsjUiiW2YgCN4CjxBd2X/gJUQtrLwwEm2fgXw3LmEJ8OelRS1PFxNI3IyBnJVLeAb/MspKUQtrJ5GC87GPFbkEV1LmX3OKWkYbRSTolX0cnEu4Nv+qIWp56qZGppbMY6oILqGxf8HexazaQWT6D8zDFZwFHgEBG/z9scWspYHMeZnH1riE8/mf0R0vZp2JUFCAdZyaS2jrf/OLWV1JNTrjqFiYS2jmf1WGELHK1STVthjHUwGPMFWE/wEu6SKWodeB1JswDnfQwCWcEgLguUSsXRCr/HBsw53hxiUgyA0InUSsoxALemEbjbmEdQNCP+XEq6hZyfWMTAMly8AjIFgtHBDgW4hXzwXkRmwGTOOmuIRVIECeXbwqRrDyY7GMQ3MJpwoYbypedSUY7JVhpMvAJTQLGGFlRKt2HUhWhGH0AjzCXBBAcTdNtDLaY0DyS23ILk7KJRw/oNyJaHUBosEY7AJdhyqXsPuAEv+DQikEK8/Y8WQ7DrNoAzxC+MWMPwQDCgwmVi0DZO/MLB6QS1gOAuybiVWnJ1z5nlnFHrmEwwacnYpVRkkmHNwZo2hemUvYJODAAUWqEklJ9x8YxVDAIxwKAvCViFSLAOkLZ2QTK3IJxwlI8VttkepWiAd3xiTSLckljByQYEFxak9VyHdtTAIlJ4BHuD8I0MXEKcNqA/InycEits8lRAas+cUpj7upCYBVGUS+ylxCs4AF+xalsPU+yAzskUHcOPAITwsB/DpEqTOCGYwZjj0U5RJQRkFAM7adKErNbgrATSDMYcPFuYS4S6gENMD2YzEKKzfMHFwvc9gr8AiIuAcBHlupYhS2isEclm/DGmbhEvoIeFv1EEktQtXfv0mAoRnDEhE8Qr4rCHiwkAg1PJjFB2/IFp4VeIRpIRB2EqGOYhoAJXSmkGpGLmHdwBC2oPg0dgfzUJQp3AvwCAjYoYEBzi4+XQmYx1wIPrGE03IJKMiEQDlrOeEpsYkABHUM4ZE34BHCGwcO6FN0OiaYSVcOQjQ7OA7wCAiOQiC9T9FpYlMBJ2IG0QfmElYPLFX6F5t+fxdzMQwzuF3gERBwygcWMLpgselcYC7LD80KWnMJnwMCbcERRKY5tjAZsD4jQMSDUB6h5wyBBzxtlcj0W8FsDj4VG1gReARXUgaBuEYjcSkqsemAF2QCCN7m4hHSNQ5MYNhD4tLVgflcqjkLeADgEVxEPwTqTaOEpVImBKZlALU+2DpwPEJ0s8AFxxKV0oIZHTma/rmDBuARTgmBfM+ikqGepgRWoX7hB+USThLYwnYgJmHlVDEnq1O/0YFHGAMC/YXEJNwVCia1X8qXKu4SKlzCaQNfWFoRacGkZmUUyjct8AhNQwMflBWRJgbTuhzVS3VBLmF18IaGXhePxq9iXjpTvVsAHmEK8Iq/UzzqACb24ShexUJcwkm8A0wpGi0TZGbiLpsRxTs88AgDgZecTTR6GTC1t0vt0s3IJazrLQDrjFjUIMzcVIqmdS2BR9gSvGYPt8NYLNo5mFw3nKR0GzbmEaIn8R7wKCLRDGB248VQrkjnIoFHQMQEeNHpcotDWDfSmx74AVRuwsV5hPke3JvAjsShk4H5bT8TjTsB8AiHAa/qu1+hhUWh2suaILhfCtdvT9MJwyNMuLh3gasQhYwuGMxw+U9I3aJ9ctMDHmFF8LJBacWgfSccEzBFcBLqhogh4BH6DfU2cKtRQpDn1vZgkp+BsiFA8/II0a8M3nchEejxwSxPno6uIcgFHqEOeOH9txB/yiU2TTA/VVugI4+QETFkvBF8JvHnOsA8F0bAoWmIdAQeYX3wykkbiD5YWV1MFKxO0VDGCPAIhyvvnSC+RSon9kRhtQJTPS01G2s0HiEcJZrgra9E7FkEzHX3l4tISlq2a+ARjgNeO+uCIs/CvmvhTBasSMkeLpRHGCmJ94KPHCXwrA2m+16o2IaFgEOIPgl4832IO7g8CuZ781o07KTAI1QFr55zPFFniHlMGLgImIIdrjyP8MjtvRusLeoYXWFgxiPqUq90IwOP4Ip0Bm+/DzFnV2DO4xGyOWjXSYFHqApevyDW5yLOeJdl0mDXlKuXCB4BJcuDez+I32o3Em/qGyUZTPuqVGumvMAhVJwESHhm8eZKwLwvuQDNKgo8QhogYtAYok1/Pc4TNHHQORW9ekDgEfoqTwZ4tNpiTe5NwdTvklrlycAjIPixOZDyFGLNTwFzH/xUlKri7wIeYRggJ7YQkaZPMPsbTUqnUJAJPMJrAkGz9ifOzH1Zpg/2GE2j7iWURxi2MEnA2FphMlFmjhOCBZyfQv2PJYFDqDc5kPXI9QWZs4AVLL8ldcp4cOAQGrojqEDa6xBjKoA1bLcAbdo18AjPCMQNGl6EGSyXRYDflY4uuYMG4BG2LE8eiP9BoUHFl7HnAcv4AlTJnbm0AY+wQDsgcfoWokv2rmAhXUQ/RXrkvMAh5PNhaAGZi4suvwasZJKm1Kj5OsAjrAik9rRVYsvdg7VsvBNKFF0EeARXUgbEDjunyDJ8UosBzaaiQ88IPMKbhpILco0hriyTEyznfprToNFDeYS+YoDkl5UJq5Q5OlhQlIRRoOVigENAwL5UIHsyrJ/ElGrpwZLeMvXprT1wCDNtBKRfs4WIkuLIYE1Dp6U8y08OHEK+dYD8hnrWF1DOAVY19jxAN8xQnfkQmwFwCNHbBzNotOniCdZysK7teqM44YmAR1gfzOF1iCaeqnawsksh4FCbhijSH3iESDCLOxRLDHsoyNLA5gUoTfQLAI/wA8A09jRNjKFdIsmjJAWLu9Ej05kHAB7hFkLNAwS9pTiC9SJ6NQXA8roC4lg0xhXkA48wbQSYySqGTooiM3QBC7zGVPTluMAjoOREMJjLHucJLi2GYL3mu18hsMRxl80oI21ZGXgElNBjwGzWxDongjTICRbZnWmbjq64EloojzBRRzCfNY8lfrzSZYFl3g8ClKbUCQYOYaLBwYzm2pXoMeWoYKF/RA56snIEcAiu4GwSMKdJi4kdw2cFS11pJlqCMqvBRCPam24AZrXK+UWOgbuCxUbXoToAHXlG4BGmDQbzGuapbhI3HjspWO4LtqEg0QiSgUdAZGcEmNonFDU82h0EFvygeahHqm0Aj5AFzC6uzhczTh8Glnyp3ihHxf8APMLWwPzirtBy4kUUtorBql/BclSj1gGAQwjfDZjhTkOIFrnvBKx7zMkoBoK3mwCHUOsAYI43xcoVK0YoBVY+NJJaDIsYMsAhTLgJmOWtjJdSDUSKBRcDi++KDK1IJ9YaHDiEYfsG81zQsE+LE+MsC5Z/peFoBCJ6g4FDWGtwMNNVjidKXKQLUMCDF6AO0ZFgzrHr+MFgsnecQoSIyhMGVDBvr5RhUnemK3AI4YuD+X7DscWHahcCWhhzfKrwPw4OHMJMs4AZf7SXFR32PQFQxCLz0YOh+gAOARF3HhzMeddsYgMuxwsCVfRhaC1ACaKzRACHUKcjmPbic4gL2ZsAbVyhFyow1ihg5tEq3cnBzJ9wblHh9xslGehj+SzR1g/B3XiELHAIbXxy0wNzv8UMYsI4NYBKFq1l9W4hCXAIW7YDsx9mdMGNxIP6FXIBpXzwupYux67B7KNUeGR5sIA7zSQaDPiGQC+DI1NZt34nBw7h/iqBNcxaQSz4usbWwkA1EZvBoSxaeGR54BDqZADLuPYI4kC1EKCdlae1ZAu8MlhBdJqqd7CSCfouMbwosPXVgIIWrWe9UDLVB3AIqywF1jJo6tQiQPY8SYGKvkZdi1XvP4BFxKV0Jw0Fy7ka1hn+b+ZjAy0NdQdRtazUUH0Dh1AXXYcqWNGwEKw8vm+OPAnHBICi5j2bZRry2sA6IlKO6hFgUQ+2e55vymmAshZF8MkSRbsJ5AqAQxhqRrCwZcfj9SYLCQPq2r5qtPVByfJ+wFJi0bhFwNr6roXLFsXlJZ8HqOy6I1mcilligD+IrtP95SIClher1Vz83WY7B1obj1+xWdJZmembgdVEoU+4LljhoOJYP/F1WFFsFXcFijtjHcvSpghYTwTquXowWOT4HxTK34ifq18sQd8lgPLuZ5uWJGNkEuAPKlZdASx0fA9Ccl7umLhKA+hvRJFxLUe0m0BeFywp9riA0Qwsdqe5eLiXKB4GVLiPLOmshYu84Q4MwaLizkiHBuvdYdFeeLe3GaQLUOMLni3aOvyP3kOBPxgXZSRuAJa84KJj82x3lX9qoMqugJgp2hrspG0wWFe8GSuyMlh23/0KNanNq21cITNQ50mGsgAI3lSPASuLNbWyLAmWvp8mQ/BoqbPNClR6nVVM3vJpOoK1xRkEaJb2YPkvK0813qxRthpArTtPZOJmSlMYrC7GZGy5O6CCCfougbXibXgyrLzTPxpQ7VFQQjdpBdbPANYXX8ZyJWWjATXsUhzrc15sT3lSAvUeuWo+84WIe0WCwQpjCwJO9cWBKgaV9XQxebCZi3cAKr67yJ5NVXRrRDqCRcaVpkWCgT7Gb7WLpeC8PF3MsmFAzTO0Hck0IVh1E0gzsMyI0nCoVwZKaWytUKE2v9VuEU/d1ICuB/c+UbQZanPe3YGFRpOef8DkQDG7GupZMorLahDiu18hoPAbRbYxOalaFw0GS40kTdsWBtq5WJ6X4K0my5YeaH15nwhKpnDz8j8iZwSrjSGPnOXAQEVjP06+TqWz81NRni5mSFag+nnTLGFK0mVq3dN0woD1Ro+GLmAU3QDoqWfs+EH646P2havzkwH9L7+6K6FNZTJSuWFmN1cAlhw5mqIgs2+grSMu6uli8k79598fsMLyPhEUN4EMZxoa1q3eGKw6Zswb6cpBADo73aIN+KW5K5QCthiDSMc6OczAvJGFwMKjxbyR8WIoA83d9An7i+KQ9mWUlcatNIFFdry20cciWviJUEba5mDtUSIaEXciJwT6u0WHbHviiTZOHuIZOx7YZUSlNC5ghJNp3ExF2oPlpw9jZXIHUUsBLa7SqknJ7FzQ+Pk79ThPEJhn95eLSNGqAxAmvGlkpVCggXShYdMsPhGUDYAybzHxPt45iuvBysLdtLPMCqw04kkR5H634QgR3rSlK9I5A9BCehA9LyJ6T7ACUOpRO+UpOQePk71BhQ6ZgbkWKlJ13mjvhgCtmyXRB1sHDmgiHajYtGXRFYBy55rdaNP7XJinwfop+SCzdQFm2xgRHsd1kTfyeaXooVfdls8MqTzQRus3AEpOHGaB2PMAgZb7roUrFVLB08XcmHcpN37pPGWTAfstXyhRJEqm5m3oPXI0dRNI9dYrAJW0cghW562TJpFrHpJA34MWO0WeR9kBVh6PghVd5uquo0PiKsCUK8ddNqMXWG+iAuGBa6ZeRz/s9W4OFNOa5djmR4+8tgNHAN1P6ambWqeQ/KUbtONBGmHllMzWpHinZGHArIPzViqapqoLGEOnClj5hm5dNU3RSksC9bRW6YZuXTVN0c6FgCkum7iH22H8MLgr1KMZV4J1oE9sL75zmdq16/MRUbVrL7xvTxdz4Hc9/Wc698uUmiAzsPOYGTfxiaAMs61nbHmytXoduud6k35EVaxXr83TLnfUqrs86X0fegFXDkJloKYWJ1W9egP0NpAbTrqIfpTUnMoVGXraV44XQ3kFYKJJU6Z8tGR4KB+/1eYUV0t29JQpE44JAEeYoX33l4tIoUJxl1ApVKhx+/YRQG17mk6YStZ08kJ9t28fDI7/Hf87/nf87/jf8b/jf8f/jv8d/zv+d/zv+N/xv+N/x/+O/x3/O/53/O/43/G/43/H/47/Hf87/nf8n+X/LP9n+T/L/1n+z/J/lv+z/J/l/yz/Z/k/y/+O/x3/O/53/O/43/G/43/H/47/Hf87/nf87/j/4rob2k024ClLeEbciKaXmnriYYiGSEtAlOegaoH2KDAETLQDm24KEYcsb/ltkxqD8O5XJJSoGR5B4upJZCJhKMl5VEWjEP3t7VBrwHJ7O1RvNJrLeRQlEtCGGBy9uA+NsvERfJPrZe73biKKU8cgad37hqxbKU3MrPBSEgvtaVCg9Dy09/MVz5SipRD5ihKgFGj1KyrKm0GKSkuBF/n5qi4lIDmnSFCJr1VWVrba4OcWCqxF3FKi3/tFPDCHY2BG3Qs7SOMhMBDjwA7UIXAB/HfkZ6BIv/chCO1FQasEjZUh6tFGRyDWgbfAL317CXyDeOGxAjoIVQoVCo1JaMguIq+BM/jB9xZVmEKFWpoG8hIog7TTYgJYAv77N4EVgKvoBqlQ9Tah0qheJVIZP7/wbxlQBQVCWUPFPsOTmWrgt7o2crzV1z+Sh4yDNDwHNfYPwLW+A20EsAu/x2ig0YehHZ5+739CetrkQlCqARJkxVmL51BVwBiwIb5SJd+V1gGvgQwrCU9f9Ac/N1nXefdBQmlD+QL1E4EbdXS8gKKDRjmWAxaBSx0s1gO4qgpo7oYnMCqycnarsAc5ArwA6asVH2t5M3BdEZCeqA79+oNPp2WhETbi9GLQJeCnOj1KGC8nNFbQ5AJTwGcd7AJHHsOJGQOz4aQTmA9s7a1gEW3VA0UjMC/+2AagfStokqG0Bs7gNVj/v//I7xCLXk3dHxuaN0O5VFXrYBw4jca2pCmmSu3qFQA5wD/x2yrW+uNW467eoWusudA+Wfpc4FZxEBMG5getcYwMyYbZRvVB4PtKQ9RrmyhlaO2F8FZ6c3at+HUBbB7Ew3Fq3eIaKr4lNRH4p3iIBpsr2ivVR4Gr9ootJJIxD64SFPQDmPh+gR+99YE9JJ0UnsCgbKLliosoMOC5DFDGOZBj9eHqXOmFP5uGNuAfYUgiSkFmxS8MrEPUFqQnqp871xYdFIdWyyMTwCo+Ol/WuyuTMroK/FXf7gQmDUEDEwGiCMziTW8t4xYs8Ru/bk8o1yq9k74DRD7oe0VJx9uc+gf1/U2p8Aw/OaQq48Av8ScDy419gbWIuiZ9h8ipipUutzll2FdL3JQa8PnwEUKqMg78FD8zsNTYV6VhoMAIcKKI6WybU8BztcpNqZEkMGAuqDK+TvzPwGJjfZ5W6X8d1pTHgeKmm4V208cOVPsMIJlvC+0mw75qkKxy8UsD05beOkiXxBuiecVOF9uSa1RLnZczRgrxyuqbE+Kr7rcqMf1fKBpkWsVdFEGd61UxkGdqtRNjvThnhSQoAH6L//oPS9PETG8MOgvwwmxWoCjqVulQog90Vqr1AmePDuXIoVvg71vAIhCiRvzazwWN79YWI2LjFUtdankbKF4tGdhqa8a0QZft2RB/xM/d0LtBS8yPAOeKp+50obOZKk5Vi66u6MMyay2xOLAkfm9gs9Hat652gAKB+rxiqiuNjDSqZc+LTMOwykYAE194f1+TRkgX1yqyutEdosAftfD6qHdXBrlq2vcV/zjUUFuVJoi3AS8VXV3IqMGl1daDhVsQa+AMHtLIOeIvB/5aHFujAdKln6cI6z53mKpWD0xsh1Q19aAc8Z9PKlDHIB4vWwxsK8q6jnEUZ6ntB8BAeEYcoWrq7yX+9PEFgb9vAS/XAGwo0rrNv3arCyajXcgUa4e0U/zrr2vL82reVNfoqqKty2y3UF0xb6hZgUkgjhBd4m8HRlQTnDEPzot1dSviusvcXFIdsjIy6JQai6xV5R8Q/zswoFZsPFdvol75QWFsnjrm1WJxDBr0vmjxWvHFN6f1yHiqZigXwyfFXUcpBl6rgwJb3lBFn542xYz45QvjgT0k77QR4qlir5MYRxJqTh21ez7utCsGxU+/pC3ljUIfvFHFXwcZ8FyGSEadFbhMvOnPX1R4k25LQxSI3x7oX++BSio6lR/0ex+CNuCLOu3ZXvIAaVZmF4oPv3ToeRhex4jCgYrCruHdH+5Z6rzR7THGWjEAmOLPn570NE2JjPKD5hhwrg5c15LFltb8hPj2IfKHPEfQu/wK8E6x2CnCM+Kz1ZGnfhuutAOT4uePFqS8SW9O8dghQrvJEhl15saKOJ5slNkFfBS/P1APrawX8RLzqylDeG2POjXU2g9gSbJI/P/A6tWavEZZTlHZFZpTGXVs4CqWxRD1Dh34KjgQaNreWwxM5YFXyhCguFarg0ONzsWPNDEDuIIFgbmkh2hOZZQhtAFn6uTAR2jRyNEFCiKCCGdu/FlUr7CiVtHZBfr/DeMR6upBrgkzPmhVh+BCYFzlNvIGbbsqQ4DSXq8OD+AGhgRaxJJRwYYAFi9zf2VRxWjrKzFkB+r0wJVRT6S4FKJAMCLQkn5HxO2FZ/g3KUPY/iB1fqPN2/x/KTBiV4hhwYlFSpzcnXfPPeCHMgTvPtJ3UQQ0QIfjA6g/sCRYMQEKatxbPBEoQ4ByqVcUnLcEGfLighmh8rrd2vQpitY2NzA/7nhSrVgYJNKYoHQP0CC4EZRj7a3gzrarVoZw4c9lu7Qi4pG9eDB3nWDHPxznxu7VqQzBCz3gq6Li6NBEDAsgDrYIglRca3Jb2ZSitrXdK6/IuCu0aBRosrgrOBK0eLm7GnQWYGhRhpBNKT5mhiDAmmWCJYEetdd+NzXguQzAgjKE5XsqSkbSrpdrVYfgyXIVKu5p5PsoQ7ji4xQpgc4qt9t7smDKVZDauaVbXA34zxBGvo+ipcfKIpdTrUWR4MraQ91R6XBlCLdoVcTsWeVuqsJaBF3GB8wFuSBIwgJlCGd1Kmpu+HVHi10sGBPiXZnrSSmKW9dF84qcwHmDk8VAbgjOhMhf6W6yS5UjeKlbUtGzcw8HS4E+Faz5A1Z+b3Uz8UcrR5ijGFp/Y+cqs/ggeHO/DvcSh8AoR4AKVRzNeIm9Y+VNE8w5+wy3UujRpQwha8hWLA2gfJyqqllw59hj3UnTa5QhZD0KFU+D0x2qVWmdYM9h1W7ktVBzyhDSQL2iqiHKmS4A2gR/Tq52H4VjlCFkoS1TZJ3jSEP737Y2waCTF7mNkpnKEXZTbA28cHeilfsLDgXlbJTZ5S7ieypH2EXxNTA4OlDZMsGiz+1wE1mgUjmCF/6KsZlxzpNSigoefVG3i9iiHMHgpThbOcxxaq4jmPSowFpE1wBtqnIESG2TSKOTDBpOE4PmnuDS5i6XAE2McoSTMoq2Nb/uMnHBptN6XMF/KUfY2qmIu6HLXZQeFXwK8cgNHJznCD9Qp6jbs8hV6iMIRQ7L/DaXK0PYfrQi73Ob3OQXo4JRAcxSv8xu7l2UIYR2k3msKPpG0y7S+TDBqSVWapy5fc76EM9RhpD2pFsReHcH6biXYNUlN8/M4pD0KUeIKAp/q3OUXSJ4tXhiJvY9yhFiisOZYseIWfpKMCtIszoGybR+RzlCcQaJtCa0FXULRabgVkjexzKpW+c5QtdaRePqAc9lcIkFCeQilhzOnPpfh7VVGcIDAKwi8mvi7nDzIsGukfWZ0aCzgEsrQ8hC2qaoDBXrDGvmCX6dPiMTGqMc4XTF5eQwR4g9RjDsi1ZmOlAuyhF+No9MWne4GxwmOLY3s3nFJI4w7SmKzgaoyQW2q0UyMjpzuWK1MoSSWkVojyYHWDFesGwDuNUzk/Qs5QgvVpQeYn15QIvg2TkdmYhHhHKEJYrTneEZcds7RjAt6JfMY7t6jtCxAakUwFXZHSSGEVQjV2YWrwX2lCFkVypaQ+RZXfccwbXAws0zCZAK5Qi/o3gdDLO5ewq2fW1ZprCHcoTNwxFLnxKewOztywXfHpEZvAr4wBGKKhS1V2ZtrToH4UQAE+fLHqkc4f8UuY+2tIx5cN8gGPd1FzieJwHKEQ4OsGv4V9sZkC44d6bTdU3iCCPWK3o/N25jB7UgHal3tuxByhEOUwSPWVjTbMG667od7U+UI2wNMKwRisu+gOOCd9/nZMYg6jjCoLMAULyiuNER6zoXWEI8iTQxc7AXKkfYXZHcYGlZsasL5n3GJheCY91YOcJ5lVi2YZFdXS64FxQ41Yj1HCE+W9EcqLeqVwJTyKclPVF1KKBSOcLpiuhfZlOWfBbsC2nnwBm8I20NOML8RkyrbrInpc6Cf630gBPFK5QjvFBRPWVNXcMQUM4rHeho5Qg/q7g+KTzYbUnJScHASh47T9/VOEJ6IrKp0WZLGrLWzhwUFDnZcZYqR/gTxfbAu0fFjnoFB39FzGFG1nOEN/35i2oyuimwlbahf4sgIYHWw2EWKkfwJEsRfoIFxY4XLDxZHYM4ykblCId3YtwFZfajEh/Bw8OdpPl4ljBTUd6QbD0rgVFEFF3hIEOUI2xUnAeu1tnO1QQTb+UcRetZwmcjnY6xnNazUVFtui3tGL+jHGGYYn2my26OEFz8107x2qdwhH7vQ3BptFMIjNWod+g5yAjA1L0UHeKWyhF+RPE+8wM2c4xg48OdoWwBR8h6sot4uqfFjIqio8TJjgAVqxxhnGJ+Mjwjbi9bCz5WTa4T9NVxhPi5qKf7WUvuRxGS3NsBdlGO8D+K+4F3V8ZWdhGMfGb4Ta/hCM2fhnzabSmDn1uoBCVJ+qIfdu+jHGGcov8mO9lacPKwcFs+mSUYXcU/Q42VdK9CSokPhlmLcgRvqCr+d861kcMEK0M8DK/suSwBkj4C0F0spOd1aKlhVFgVK0foSlJA3QPsY5zgZZWkhpVhliU8UUkQGm/7eDRiml4VRlCgcoQrLqMB4E3cNtYLZgZiwmhPlvA+SoQ3to0zUVNxYD5w2NygkiMsn0wFl7aM9E0ugZrku8Jmd+UIT1YyfKldWPVAcPP+4dJ8Kks4hA4Os4rAWsQc5JQYkkqEyQzlCKsCOgDO3vTnLyqbuFKwMygIE6MjLGGpEuJ/2cQs9LS0Jyz6X4c1wxEKWynhTIuw9lYQ/GypS1icqBzhJCXF8Iy4PRyJoCDywyF9F5YATNNCxBpWAlMIKjLkOYJhMEw5wskBLZQ32UKfYOjsMDiCJSSUGC9iC8ejqNelbGcMIs8RSiZTw1RL2CA4+nTbeeGvHOFXlBqDK9vBp5DUHWz32SzhGeSgH2kHY5FUzkqbTQs4QskCevhsK9hVsPRZNjtdOQK0aKXHYIUNHIGm/tpml2YJVQShRoJtAJSDpqJVtpofcITlaylitgUcJ3i63lZQocoR9lCSHOl/FyOqx9gK2GIJH08Tp/mfYhBR/eFUG52sHKFoHk2c43tpaAqmPsRGp7GEH1GiDH3w+h3URVR1uI0OYQkfRRWQ+vkdwERVwEKebXrzHCG7niqu6XOLBFdvZ5uzlCOcp1Q5vMnfLKKR1Sts8wyWUEEWajD0NyAbWU2wSxY4YQlT6QK0wNfKViErWWGTX1COsKaeLv7B17YTbG0l4Ta5JUv4ESXMkX52DLoCPtkEao4l5CjjkX4G9KKroh5blFWyhFGUsdDHFgq+nmuLGcoRoBVSymws8q8rEdb/2+IeLGEIaeh7+td1ENY32GJblvDxtHGaf/0VwipsssFr8yxhFG10+1auYOwftMFG5QgdSpt1ab/6PZT1zTY4lCWcRRz6A371nygLyLHBNVkCRB513MuvgBaUNWbAXFDI0mtZwmzqeIZPbXIhFKIsSbelQ3aecoTXVlLHP/iUlRoLzh4dsqNZws8qeZ7hT8OR1mUhA21gCYYo+ljiTzsgLYAdMmCPJRxBH9Ck+NMkpAVg3SEK7SbLsIRq+ljoS8cK1p4bIu+ujHKENQF93MWXrLJCW5bEhei/WMJQJdA+P9oLbeWHCCKPJRxNIe/pR0ejraNCBEyzBEMJhQzxoxFoa1VNaFpZQi2FPNGHekrQlnSGpEM5Qr/3ISinkEN8KG1HXvD2gpA8liWsUAqtyfrPxxGX1Z4KyRyWcF8S0fn+AwoQl1I0JBAYlnBLGin2n2GIa2xIalnCo2nklf4zFnE11ITibJZwEI0c6zuxKOKS3BAMOgtIsoQeGoGkz3deKZj7gBB0KUeIV9KIAfId1WijruuH4G9YwpWVRmt85xDUNTwEf8ISthKJDngug988BXW9LwQXYwkTqGSL3+SjLqAsBHuyhPehkhv7zZmoqzgEHiss4RlUcrrfHIi6WjLmwQVvMkuYSiXf4zOxP0RdMuQ5gkErDFjCaCqZ6TOjBHdXBs0YhLKEeVSy2mcWI68FQQttRVlCSUAlhn2fORh5jQ7awIw6SzhDqXSBz9waeRUE7cYs4SFkkoz7y+XIy6oLQfsTlrCVTHS6vzwFeYE8CdoXsIQZdBKe4fcXK7mMvBTfgmbIZglQLnQy1F9OQl51QXs1S7glndzXX4YhrwuCtpAlLKYTow7+8g3Ia1LQzmQJ0NTRyaX8BZSDvCID5oKCBeBYwn504pHoL0uRl1QEazRLWEgnsX78uIYsZ2OvQe+LFiyoQ5YwhU7+Flmi2Cs3WBewBMMsnXRzrJ1kacFeg59bKFjlLMFjhU5GI8qAuSDB3jcPViNLALbo5EqIshJ97R2sPEs4nk6+AlECe0jo67ggpZUl/AOd3DBRhp6Hgb4OCFIVTxhFJ5+VKAvR19ODNIInTKaTr02UTvTVG6RFPGEBneyfKOm2NPqywmFLn4/yk7V0cgqpwoIg9RGK0WL2U42+YMc6SE2EspT9rEZfgEmQ4oSSYD8T0VdlkCRDJx4J7KcVfZ0crEl0cjL7Uccg6EvdSzFYa+nkUuwnMB8YfW0I1lPo5AvZD9dirxnBGk8nXurGf4Al7HVssHro5Cj+82bspd6hBwsUTycX4T8Pw15Tg/VcOtmD/ygGkVckYx5csFbSyS34Txvyms7BHksn4Rl+/rMD8jowaEvpZDr/AV4gr6OCdjKZJOP8B+Iq8moM2tFkskH4z3DkdVnQSsnEsM+AVBqFvI4JmhFNMlnNgOqR12FBC8+Ik8lMBgSYIK9k0EJ7UWTyDAa0N/I6K2hFZLKYAR2LvA4OmmygklcyoKYW3FUdPGCTSpYwIAZGUFekLHggHVSyiQNdgromc/A9MqlkBAe6AnX9QAiGEEmdcKCroa6tQjCMSIAtFtSHurJDsJlI9mNBc1HXuBBs8/+lCGhkMQtajboODoE8hUYeyYJqSjBXaSieSyNfxoJYMYi4WppCsSeNXJ8HgRYjLsXgVb5cPKG8PIl0lvCg70Rc00JSTCK3Fx40DnGpJDUkK0gEqGdC6Ykq4qoPSb/3ISinkEsxoYyfX/hb8NaGkEgthTyWCfFYtPWHqdAYSiikgwvdE20BrRzaowlkgXCh4WjrshBBq0QgU9mQFQ5oS7UpIXrTn7+oAvqIsKFFaCtNzEIk1fRxLzYUOxtrTQwVSAd9/AIb4kuQFjDJoYbUjzxq4nzoU0jrZ0MWGrLkMUX40KFI6x0hK2mkDqhYRtQawVm7hkxaqANKmxHxBJS1qil0hmTiyKzhRLugLNBiDr3BkDi2FU4E6o+yVJ2xQV+SNu7BiqpR1kgbCICjjXGsiMsRVu1UOxxGG9N40Y4IazbbERor0vg64UVWJSKsuC22T1KGoYQZvZeAdagtZCJl3JcZQZznhSNc/aE6BrGHRyJh1K/hRt2dS6dwBVHA9hxKGAcJN/rUwlWbTeIL6OJS7CjeHwu2KLa6uU3k9+jiIewIvjSyegbb9SiyGJ/lR3eArIDbtjkjoAqgUvhRG2TVbhu5PVUYecyQYA6qKgmsRbSP0SSiqB/BkV6Mqs5k+4ZnxIlipnAkwARVjbaRnEsTF2VJNeWIqnDQ+6LZ6XokAVyNYEn8QER1Dtv5ISTxQuFJOyGqcbYSAEsRXpgxpZoT0VThxp9FtRdULEE0PoApcRxNATls7/AMP0FEhStVoqkJNpOd6eHGbCk2B0k1BPaQ7HYyOTS+li0xpFeQ1Als98MDavh44UsnIynVetpO/oIafpYxsVUdKGpJnv1OIoaeLGd6B4pazvYvbKUFqFDhTIE9pCiGWhsGspQU8nNZE/ciqDoOx1Wk8ELhTXMR1LiwkNWUYDBkTnxX9FRUFR5HEcL4OHe6PXp6MYdnaDdZOR2khDupd+gN2Ck9UQ0TeTEZJNexJ1aKIqcRHK6rAiow9Ah/moucrDYkbMToCBVAo8ygeF/UtDTj5xf+8GkggksLh/pt1PQUDuNzaODGLCoFNYSYoh3h9D8k8HXNLIqhkhDT1hzOJftSwJOER1VNR0u11WElcwig7gFMihNo6TEc3mVr8W8X4VK5JVjpumEmhhz065zLpngrpARRw+G+rh77Hi186h4RnPQrYScvRr5KKC5GxaUoqT8Wfh2TcO/Fwqk+WIuRDmUHjKBe5zRWxXdASLNiTnBGI+ZFhFdZa4m14KM0MWNH9CQL8YCr0F4Us+LL0FEdO+P0GrxbLNxqyHMES7DRwQ4hF0M74HwRu+J8ZNTMTtlXjnUXE36V+1FclL7oO4YcinTlf8CwOI6KVJPLzlnlcYBzXvgLx+pegoha1jqIGCxR7tMGnQWwLFYkIKL/ZCfNPg7jhgnPypgHB/SgoekdjiJQYBLfZgnT4jQxQ0MvYIcF6tEt/xC2xcuQ0LwmpwntRQFn2HYP4VvWWmIlOGg9O64hCtnqBjyXgXExxFUUNI2dt6ga14YI52qdhIBKftiB5Maodnwz6+LLEdDF7MhHIFpyqPCumuPRDzCyxpk6yvEsIsyLbw4sY5+rskMPQbO7vOnPX1Tsi6+GfC5jp04/DsvuK/yr6UWoZ9LQ8zAcS7YFrnDMaLMwMP7FWsxjhRc7+Pug2ILwBMbCOI54IPLZyQuPx7AJwsOqitHO/BmOJi/N4NdfZJkYW2WFdv49eHmPTPRau0K4GF+BdOKcy9y393bLz8Eug6Xwsap7oZzn+Srg9X+gEbeiwsj4uEKMUxgI+K2otS8UHSvjfRBObSAiJH2IldwqvKxmf3QTeoNk2H4yXp0ozIxXA1PI5sm/IhDy4ACrZpewM74+svlSQMx7INWyLuFnDLxGNYUuTI4iA4RTbcLRAntIxYjmk94eEHTFBowylAhLY2tvhSiaSd/t/a3DQNS/yeDTmcuZGt8IzfwfIOyJ6PSUGwhX4yORzD+4MGnSRyJTfmBGXfjawBm8VdUo5hL/EhC3dzQueRIgjI1HAVwEc7oXBgKf14hJL8yyNr5uCX753EBkoxaIdIky4W3chl56B0JH0Kh8W+FufAfksrWXI1X8CCSqbBD+VnYJagn9m0DspueiUDBBGBxfADARy+w/FghuDGIUBqWExfGMh6GV040ORIdWqBx/9swyOT45ilTinMvWuwPhX1uPPVBzg84ChMuxKrcITtkREP+TkAcU3yt8jvdCKa3BBBqSUWdnI4XT8ZEIxaJwTjOQfQbi/OLXE17XNA2dzKoAUxjfE22+0f8HZsdly5DJczvYJJZ0I82DlAHujlfujEpAORtldrFrLByDMkvEelo9gcPjqbMQyeRF7CKbPgRhvu+9AZfHrbPRyNKbs6scMRtdvtK/A06Ph56HcVckMmktu8zpABZbHgy4PV74DBTy5vRElV3n3H/AlYcGjo+rX4dActK6ddiFhicwA4QoX+nBgOvj0mujj7Ovy66090w0+UpHAM6PR01AHg9T91Jkl/qAv0CSJZ4SuD+e+CLUUb6WXWvTa1DkQX4gCADcehTiGFbNLrbwhQjypx4XhACuakYbYxeyq41XocfzPiQIApx3M6TxojPY5cY/CjlO9h9AGOCymSjjqG52v7EAM160GQgEHMtGGIerYxB2w2cNx4tTPD0IBcxWEt6CLeI17I6HXg0rru5hQTTg9TmoovYd7JpH/gNOfIIaIB6wtbfC6xDF/HZ20QOey1CLEEt0czzGgzlnL3zsi9BE+XJ21UVQregQ61jRWE+PDiAocAVEPpKYsIJddvo9Aly4rbVAWOCBM/hdUASQM5Xd933XYkKsY515ehAYmEH9o+ghAQpq2I13AVg0+EoT7wXEBt71GcihaAG79DUgHUiwtz7BzDMZ7vgn1ABpZye79mwsjwGxjvXZCiBAcGA+cHYEL9yhid381gvc78u/zz8+xYIQwQyp3dlIoaWAXf6VL+14D/L1wewzGr450IsSXpfWrcOuvzmVcbmreVcQKLgrEcEHO3awF/zJHne70UogVDBb3eblyABYamOPWDbW0XZ2ZWAFmQ2fAWSjglnnsncsLXexw7y/nz/bBwIGc998NBCJl7GXXPchzhXrWNd+XA0QMzjdlp6NBObsxB6z+dBKt+r734JVZDicd0wtBrhDK3vPh3isONT1THxpIHAw79rv+3uCUmf2pGkolxpX2v8KYCF5DmfMgyv4Q18fgOVXsFftMPQ40b+6iRogfDBXX93HB/Tcm70slPFT3Gfl9/PdR/vBWrIdjvVN9+kVgoI89rZQdLnAbW77N4PV5DvMo5Sivry6D7L3NaK5s8NcTzfH2rglCCTM7Qf67l7rJi/q5bQDrHC67SmuEutYGZ3BgvIe7ml7s6/uau/uBsEq9yU6XaSbY2U9DFhS5sPcEa/1z5XZN1jp0Adv1Dnyxnpasy4NhBTm8ywKfXJ3/k5gtTce7xTv9t8/FlhVBsTcXuyDu52YC4P1LvnW9c7wla6uM1hXFsRdPz3e57bsT/rDYM0LW4BTN/gdrwdWlgcxV7U9zMdW9PK2A9a9KXaB/e3//f+wmoG15ULMawrO9qld8+VtF6z9ayvq7G7/a4LV5UPMFQVv9qEVxjkX5PbA+q+pKLe31cVgfTkRc0d2js8sUmqtJQZ0sCwGdWhlQXuxuDAvYlbv0Aue4CNbFR/yHEHWhyWll7auzqrrixtzI+a8vnk+sXXZG38WlTUjNMrdgU1dLdEhrsyPmGNpYtboAxuR7GINGdqK5oArW+qJNYk7cyRm3rW3xd9V1x5jTdlx6CgLykPS92VpcWmmxDz4uYWA9Cf4toCpKYtZZ6YbovV2Mz6xThybLTHXpImZUrTQj9WfrGLt2duys7XUR4vj4tyMiZlfWVDssxqTv5g1KRSYW2Yjl6jYXlycNzHXjOwFlnxTkeb6MtaoI9q66+1i38gd+r0Pgbg5d2Lm7r7GQj/UvOxO1q59bd31tjA+coesODuDYuYL+hpb/E3zsrdnTdvb1l3pf1erakiLy/MoZu7oa2zxK83LPpe17qIWQ0+Nnx24eGtaHJ9NMXOukthlUd9R4SV7bc8aOA4FpoDNwI+WtcfWCQJyKmZuqkz0A5h/aF1vfWAPifXxIijjqjp/6Yk0FAoOMqtNj+orfbMPqKWuID1RjbFubh562swNvpA0QEaLDZYdgocMi5nLdhq+w5t9PNH9P2WVlToGYW0NxdWWA3DB4GxZbaL4DwQXedZmdvblz0v4b9Y1FlTmsfZetGS3Wa2DofyBRptjb2wWfGRcm85V5QZxdf/pvpmcb7gdqH8na/TeO8RytY2Di7raSMsdQrvJBCmZ12Z2V7bl1wFL/pbyxuz6tTWs45uvP+5EoP5x65PvcJYd2H2PL7z1FQU1Odhm9tzjRuffQWldue9kPNAEyfuLVRO8PPD3LcDav/DboNFpudiXeazcZdnbm2QrKH7Mi+ec9dJFgqFsbHO7NvSqNAoU3LNtctTn0QBwZx9uJZc/AKnd2ire0rEotBd13s+edbQhCiJvbPRIYGIWsDnxwJ6eq9XVje/pmTjxkPb2/aKHGZLvPAFa9E92XVFQlZttwcDft8BCdS/F7Z566NXidyjdofn/+vvnFRdPB6Z8i88oHtvfv3PzP5VCvZmS/YEbrV8+5DmCa9hXz9YMygX+K/Bfgf8K/FfgvwL/FfivwH8F/ivwX4H/CvxX4L8C/xX4r8B/jv8c/zn+c/zn+M/xn+M/x3+O/xz/Of5z/Of4z/Gf4z/Hf47/HP85/nP85/jP8Z/jP8d/jv8c/zn+c/zn+M/xn+M/x3+O/xz/Of5z/HdxSMrN96oXJz5VUPCOZPL3Tn9a9VTSaDHw3xMXrgN6f+BwiIefSl71h/OIvi0KYAC37g5A+pdvV0r3bX5RP/DCqsSRHZTfZiaKp33qhgspv80ubyyoLCP9Nj2/DhS0d5N+m679hs/+4oC5INJv00uUoslc2k9EIkDLp9K6dQLzgUm/TS/pbc+YB0f7icik3pE1tJ+IvC5eGaP9ROSvVJK6iPgTiTTXl9F+IjIm/x7En4j0J9UxCPEnsuTnRhF/IiW9i4k/EalrjxF/IpB2JruIP5HXKRK6iD+R17V1EX8ic5IZ8+CIP5FhySbiT2RsX4r4E5k9l/oTaZxB/UlJfCrxJ/KEZA3xJ9JfSf0JgF1xAfEnsrSP+hNRTe4K6k/mF9QQfyJf8UHqTxqGNxF/IkDTudSf5CSpP5GZF1B/MtlKjak/ScTLiD+R/nOpP8mx1IX6kwQoSBF/IpdMpP5k8snUnwDLX079iTywjPqTr7iU+hNQzrnUnyyppP7kD1XrSf0JgGVTfyJWPWii/uQ96hiE+pNtplJ/0j/ofdGoP5n3SupPAOZC6k/+ylpLjPqTdYupP3mYtbcC9SfjP0j9yYmd1J/MGfIcQepPDhxF/cmIjT+LSv3JvhXUn9RtciFQfzItRf3Jf5J/cgb5F1HqTP3JR+9N/cn4aupP7tpN/cn/9VB/Eif/xCKQ/Pvov1F/Aox0UH8CWpyi/uSz5F/kS6k/GdNJ/cl+PdSfqCSV/Iuo3EbUn0zupv5EKUr+ycfJvzcvov6kLkX9yV7k30e3p/5k/xj1J19L/r05l/qTe5J/soD8K2+l/uSB5F9kOfUndTHqT25N/j2ji/qTp5B/q3KpPzmJ/Ev8IvUndeSffCn599oY9SffRf69t4b6k98m/+6VMQ+O+pMJ5J9isIf6k9HkX3GK+pPvIv/qyD+5Lvn3GPKvdnvqT6aQf9FB74tG/clTyL8nNFF/8ivkXyP5V7uC+pN9yL/JKepP1pN/jyH/SiZSf6LiEPn3XPJPPkj+fZb8G0v+yWLyTyWp5N+9yD85iPw7gvxTDJJ/8kHyT7Up5N+Z5F/DGupPILUj/44k/55B/skPk39nkH87kH/AQhP1J8eRf1Ylkn+l5N8TyD9ZRP59nPy7Hfk3gvyLBPaQqD8ZSf79CPl3Gfn3WvKvoYn6kw3k3++Rf58i/25G/j2D/EtUUH9yEPm3gPz7VvIvTv69h/x7LvmXQ/7JpeTfceRfPfn30+QfKCD/9iT/TiD/tiH/5pF/DyP/WmLUn7SSf9uTf08j/9aTf+3k3w3JvxuRf39K/qk0ivw7g/y7DfkHnCD//pn8S5gf6ujkZYnydgzlFeaHp9DJXRKlX4YCpJsf9qWTjYjyFAzlauaH0XRyEKJ0++ebEgzlm80Pm+gk1rEeJcrZGMq3mh9uTyc3RZRvzlAONT9ArdHJsxNlToYy2vzwIXTypESB9OxkgvlhFp18ArKcjp38tvlhJZ18arJkZCcLzA+GHjrp5ngsJ8vnYSenmx+ARjp5aLJcIjs52PwQoZNfQZb/yk7Wmh8OpZM+ybIKOxllfjDqSScf4MdPLMgS51xG2UmZ+WEcnfxSsvTOTIrY/NhAJ90cn0iR5f8wk2IDxC/QyaWR5RDMZJYBov91WMlkb0DWH8ZMIAoMEKHdZGTyiISZnpkcbYAQ4JJKjkqYz89M/tMEAXVIJZ+VME/BTPYxQTyXSro51kHCfJ30rGS0CeL3qOTrEQZqspLtTBAJKvnfpFmIlXSaII6mkm2T5uczktoeE8RjqWQK0rw3I5nDJshVRPIgNUjz2RjJzkaIooBG7gJIuw1GcpIRQibTyLckzt9nJNlmiNU0cn3EebkDsRGLQDOE0WYaeWjiQHE2spMZwpBMI9+NPLthIyvMEKfQyPv7+ZFInm/FRHJiZoivJpFYx7p2aeTp7n6OYSJ1bIYsqaeQvoG8O2ciLzZEyPkU8scIFBbnXLZYyAtMEWMpJNbTmkUg+CUspNIUMYdCujlWKolyMJBEqynisRQyBYn+EgOZw6bIDgL5vA1JdC8MBMgxRkgrfcR6WueBxO/FQI4wR/wFffxfIl34utnHIeaIxfRxJ0SCm2EfNzdHzKCPv0am+2Iek2LmiPAERh47a0im52Ie09ggOZo6bhjIvBnzuI1JAgJDHTshFHR3LmzWkdatY5JooY5ujo+MSHUpjKOhyyTxEOL4Ux+DVP+acdSxSTK7gDZODKR+VMYBCowSspI2JibWmLfDNtrNEpenjY9HLPhkTAPAhp6HYZbwhippfN/vQ64fyTTuymbJkrWU8YWA3HHvD9pMA+KqYUJKKWO/BBvzhljGetPEn1DGqgSDS2EYH11pmphGGHn3QrLCDGMZGycBHF3EelongOQvciB28QHzxGK6eEqiwc2wi3PNE1DaZPGV6pLt/zCLZ7B5shA4o4ozANlnZhZTDBTSTRWflHDf/juyii81URxNFdsmHPx8RvHRKhPFqzI0cdt7Id2DMoqZbKT8C5r4BED6lEuzid8zU3ipG03Eeno0Jh68E5OIVpkppucpYnwN8sW5nx2YBCTv2VA5hSIM2UD+i355F7gdFnGWqQJaZ4r4VxMA52YQq1aaKqDo6unB4yBrBuL8/WDPIIDXbKwcQw/vIWbw5WZnD79irjiKHqBAK4DWzKGoy1zRC1xRw6eJHX7w84HCHLZig+WXUcNpljBmd+fCZg3pi77J4meJId9hCXBJjOFeMZNF9h9ooVRs8YPc35V6crZwezZaQoXSwjBrgL/CFEommi3CE1glJYyP28OZmMJj2HC5HyWcKPZ44WtlCetNF79CCMkVFgHvzRAmp0wX6VF0ADUqNnl76dnBPmy8hIqlgxtbBfwDZhBZYb7oqKeC9YV2MQszOIENmK+mgjlil2NePis4wITx1QEN1PRZBnR7LrGMYBYbMafQgCFHbPN3ZGYDqtzMGAeTQAaKyzrgnzKBZ6TMGHI+BXyZ2OcXiHMuf1nAO9iQ+WQKCA1ZC4Fun5deBgBMBdYimjJKxuPfVLHR3aanf0A6GzNviX/Qoq0EylC/hleaM3prsA8Un7aTz0D97scGzetj3zix1H9J+Qo7TRp9dbgHYNO2Mjrly2ej5qG49yNiratQvZLBzy1k1nhAK+YBW1l7qb4uzZvChs3TMG+YWGwZigcsH2vaeJ9/fIrtRO9mZ21m14S+uy+Qbr7/4+NUencZsdodtV2cc/m9mXzjY5yH1tWK3a6N6Lp/AxLOi6d1AzPqlsO/rukyftD/XxWRcfyca6RzR4jtro7quW8MUs5ujpVK5eq7rId/TsuFppRzwFlpHGiG2O8agKvjZgFJZ7NYx7pG354ywoL4WzTcBUDa+Qno273EhmNAk3Y7ULd/v6ku71h7Z7Tt9nEr4usmdNt4IPG8eNq2VSz51zXbJ11d5rGXvnEtKra8cL5e6/Z5gUHq+YVRDbicb038Wa12+Rf98i4g94Dvx7QKsee8eRpt3TjnYgWSzwHPZXgKnhmgEovi60b0WVqQfv4PmmXeKFb9Ym12Q2eTf0g3lu0mdj31dbqsJEhA1+2KY9UPsCz+Uk12+yAFhdQPx/5GrLtUiy09jxwkfQiGXVfse9QYHdbt/SESJKGhrWg9fl1tewvjL9dg044pCxGoWPyCMhYbj/2T9nrg5wNpaPNq7DLUiJ1PXKq7Pi5IROfPw62eMkvjX9Fcvw6kohNQK/+TYu35Wuue/5JcRIw2Y9ZVxd7VMchYjZX+UkEy2jcKr2rjFsf/VqKvTgLS0ffMYNXaFWL136yt4pzLI98fX9kpH5GLYdUpYvc1/6epTjchSEhLLo1TY8X2V0/XU93dzzEgJZ3WilE7b/P/pbA+Hlmro4YESakRzQw+1awSBxyuoT7SnLISOQ2dghnigrEdtdMn3TdIS7MgHdh0PXHDirtqpvR/GSSmD9iES8BE3BF4Q45e+j8gNQ3P8M/DpFHTxRmt8NJKcc4z/cJyE1kS4BFwBQWKQ36jRrrEvwSy0+/Cownikj07a6MH7u7PN0ggPU3vh0WGZHHLCwCmJkr/oCBBrfJYwaFo2jF4xsP0UHfnkgRS1OmfhkGPKxLnPDmqg24WJKk/UIc/o7cXB1XlFtE/3T0/nI398j6fLEW8odqJPRu6xEn30j7/9ZuDPNULswB3hg8VRz1S88Q5l5XtgEw1hTqBwVJcNXUzrZNxQpCqZj8Kc+4s7lqxn8Y53fcGyWr8y/AmJS7bOlvbXO2ZQLpaMhNrIuK2E8dqmgP9MJCwFq7EmYas4/DCZ2iZdT8uSFmboOYwZmxanLf6CTqmu+dzKkhay2bji6GnWRz45kv1y82DtLXv9tgyZdBZgDixupciMKVburs/lILE9Yx/wJWpVeLIad06q/RKnPu5EaSu4QlsZ0yZ+gBx5pOX6JQXH1PuIr3PxZPuInHoXcfrkzjnuRqkryNqsWTPEnHqDSdqkjjnshUFEtimKTgC1DeLYw9+biHFoBZZ98++j+n0nxR2eSmGGC1Oi3O/EujVIAfq9lyCQRLbPBY/EuLi7x+hPa45O0hj489AjuA0cfNB74u2n+a47v8GEtlsCjXyLeLqVUC21sg8Oshlnwzc4kXNY8XdA/OBp2iMOOd5+flANruxHCvWh2fExenbIrqi0Oogn908CifOD+1FieMrdY7qiTj3ZWIlkNGeMRsjxnzAr77aA5b/F5fqiLsbE+S0r4WkDx8icaCAM+6qHa75P4O0Ng6Rhwz5JwkObvxZ1P/TDLMfF2S2pwDnmNC6UbAwlZ3QCQe/PZDbbhqNB7OvLIhohcOb9cE7zQmy27JSLMgVCir+8Hs1QdEYkOBmoUKTGDD8kwQbKx6jBWruHeS4n1/nfnfx7soIPsbaWrzftNsBWe7hBsj1Vv6BoGSamE3yeOt2+7zU+r68xw/y3KJE0uU6oULTgpTvX+bpvmOc+9kB5LpQ2sCJu4HiXyF4GUtGvdsqpwHZ7vZzXa3qtYKaayHt9GinixkTJLxty1ystViwswsURLzY2tcIct5VwJZ7TekQBP2Jcs8V51y27i4lyHoLPTKTbgVcPjIrKDoRyPFYcc7l7aWCzPcV27oU1Fx4hl/QtH68h1r3nV4E5L4lFcCVK5W3ZAVRu/MTXunacc7FCuS/I4FpN+oO7UUJsu50oCdqAQVdIAPOti1wH+B0huCrOgZJ1Hqf2f/GpmBjEGc6TpArE5Q9qN/jRAtSbBCe8XUuM/snBWsHzuBvU+RlHjPkOYJsFi6MzXOVU1vigrgd8VqvMnsnNg/PzWVcpD5SJsi76w94kiVtKTYSb/kQ9+iG4hIEbi/2HIXxwB4SG4uLq93i3IMFh8vairxF8wfZZNxkiCp3B6jDd4wLGufuWegd9ksTMzYdr6lY6watFUWCyqX5Ld5gQn2MDcgDnsuQmmd/V6toEnSekV/r/u7aN2AuiA3J0xOT7G5BqkxQ+oO9EXf3jGSKDcqLEsCVve2a6BO0XqwUBTD39lfJjHlwbFjufx3WxfPs7NTToOgEtdMT1Z9tcWcj+nrYwLwmdhf7MuzHigS9X5l9tvuqa4+xoTldbHTVrmqLs4LiFW1zXFVJ6clsdIZGuTuwpcroSwXPe+qBJtdUFF/NxufNQ9fa0NnXv4Ege5qYzSx0Q899xxo2QhdBGbcHdpNsLy0RhO9OTnA5f1g6kg3SXYmn2Mv4xDpB++X5UffSn6xgw3RhaXfGRuqjxXFB/cAeUnK2K3lz/q5spF5x2jmWkZx69HQhwJOPmeMygKXH1HexuXpFrNYakrWxDiHDtdnFrqGhsa+CTdfzKwCcDWxKQXEJLdZUxgGuC6ht7lvOZuyHnAhsJv2scurp64Qiaw6eohjM1HIOH9d6lS8Xj0l7emnuVH+6oKq0TwizM1makzkVx0fmsXk7DQVWtFf6S762YktWyLNrJCjoz2TmNyZXs7n7il6YDTVASX+oX70YWvRrhUxnXH70MzKJon+6WmUTG78fcAeo0O7ywVtNe6ohtJtMyHVUe6KuwdnKGwsqe9gY3vzG2O/1BIOj/LnXfUdohbJCtptcCE/fByJ/qSMBS7O2fupCNpCvgQLbIu1PGXzU1UZa7tAkBNxdmYzXzXeO8sZE39oUG82nGQxPG3vI2e+gMqMMs4+G1G/j9kLLqZvXqyR15munh1UDwLQonJK89xo2phdCcTVAuaRy7T3B26u6idFES8PmKiHsjJ9f+DtHJhOl/WfbqrC8vzSRHNmZYkN7YUdoKzowo/5uXup2eUMOBGahx8rxPT2tdfPeOnV1F/T0nF8LSZ+hZrcKg+OS97x+eAJrFkJXxyCrD/qJQ97x2a2B11+439ji4jFjolugdsyYE4uLgdadd8z/uR+xCITU7ro/POh90dhA39Tb29s76CxA2OHU7u7u7hRn+T/L/1n+z/J/lv+z/O/XBwA=;" parent="1" vertex="1">
          <mxGeometry x="840" y="550" width="58" height="58" as="geometry" />
        </mxCell>
        <mxCell id="ZjtB4D3ZKee5QEVcwOma-36" value="Slack alerts" style="text;html=1;align=center;verticalAlign=middle;resizable=0;points=[];autosize=1;strokeColor=none;fillColor=none;" parent="1" vertex="1">
          <mxGeometry x="830" y="520" width="90" height="30" as="geometry" />
        </mxCell>
        <mxCell id="ZjtB4D3ZKee5QEVcwOma-37" value="Administrators" style="sketch=0;outlineConnect=0;gradientColor=none;fontColor=#545B64;strokeColor=none;fillColor=#879196;dashed=0;verticalLabelPosition=bottom;verticalAlign=top;align=center;html=1;fontSize=12;fontStyle=0;aspect=fixed;shape=mxgraph.aws4.illustration_users;pointerEvents=1" parent="1" vertex="1">
          <mxGeometry x="953" y="640" width="100" height="100" as="geometry" />
        </mxCell>
        <mxCell id="ZjtB4D3ZKee5QEVcwOma-42" value="" style="endArrow=classic;html=1;rounded=0;exitX=0.442;exitY=1.001;exitDx=0;exitDy=0;exitPerimeter=0;entryX=0.481;entryY=0.117;entryDx=0;entryDy=0;entryPerimeter=0;edgeStyle=orthogonalEdgeStyle;dashed=1;flowAnimation=1;dashPattern=8 8;" parent="1" source="ZjtB4D3ZKee5QEVcwOma-25" target="ZjtB4D3ZKee5QEVcwOma-34" edge="1">
          <mxGeometry width="50" height="50" relative="1" as="geometry">
            <mxPoint x="610" y="490" as="sourcePoint" />
            <mxPoint x="660" y="440" as="targetPoint" />
          </mxGeometry>
        </mxCell>
        <mxCell id="ZjtB4D3ZKee5QEVcwOma-43" value="" style="endArrow=classic;html=1;rounded=0;exitX=-0.066;exitY=0.582;exitDx=0;exitDy=0;exitPerimeter=0;entryX=1;entryY=0.5;entryDx=0;entryDy=0;edgeStyle=orthogonalEdgeStyle;dashed=1;flowAnimation=1;dashPattern=8 8;" parent="1" source="ZjtB4D3ZKee5QEVcwOma-22" target="ZjtB4D3ZKee5QEVcwOma-35" edge="1">
          <mxGeometry width="50" height="50" relative="1" as="geometry">
            <mxPoint x="610" y="490" as="sourcePoint" />
            <mxPoint x="660" y="440" as="targetPoint" />
          </mxGeometry>
        </mxCell>
        <mxCell id="ZjtB4D3ZKee5QEVcwOma-44" value="" style="endArrow=classic;html=1;rounded=0;exitX=0.5;exitY=1;exitDx=0;exitDy=0;edgeStyle=orthogonalEdgeStyle;dashed=1;flowAnimation=1;dashPattern=8 8;" parent="1" source="ZjtB4D3ZKee5QEVcwOma-35" target="ZjtB4D3ZKee5QEVcwOma-37" edge="1">
          <mxGeometry width="50" height="50" relative="1" as="geometry">
            <mxPoint x="610" y="490" as="sourcePoint" />
            <mxPoint x="660" y="440" as="targetPoint" />
            <Array as="points">
              <mxPoint x="869" y="710" />
            </Array>
          </mxGeometry>
        </mxCell>
        <mxCell id="xYV_d6c_bWl6P2-k4xEe-1" value="" style="endArrow=classic;html=1;rounded=0;edgeStyle=orthogonalEdgeStyle;dashed=1;dashPattern=8 8;flowAnimation=1;" edge="1" parent="1">
          <mxGeometry width="50" height="50" relative="1" as="geometry">
            <mxPoint x="1070" y="200" as="sourcePoint" />
            <mxPoint x="960" y="100" as="targetPoint" />
            <Array as="points">
              <mxPoint x="1070" y="100" />
            </Array>
          </mxGeometry>
        </mxCell>
        <mxCell id="xYV_d6c_bWl6P2-k4xEe-2" value="" style="endArrow=classic;html=1;rounded=0;entryX=0.409;entryY=-0.041;entryDx=0;entryDy=0;entryPerimeter=0;dashed=1;dashPattern=8 8;flowAnimation=1;" edge="1" parent="1" target="ZjtB4D3ZKee5QEVcwOma-25">
          <mxGeometry width="50" height="50" relative="1" as="geometry">
            <mxPoint x="1070" y="200" as="sourcePoint" />
            <mxPoint x="1120" y="150" as="targetPoint" />
          </mxGeometry>
        </mxCell>
      </root>
    </mxGraphModel>
  </diagram>
</mxfile>
